<?xml version="1.0" encoding="UTF-8" standalone="no"?>
<!-- Created with Inkscape (http://www.inkscape.org/) -->

<svg
   width="152.85806mm"
   height="151.04916mm"
   viewBox="0 0 152.85807 151.04917"
   version="1.1"
   id="svg1"
   xml:space="preserve"
   inkscape:version="1.3.1 (9b9bdc1480, 2023-11-25, custom)"
   sodipodi:docname="play.svg"
   xmlns:inkscape="http://www.inkscape.org/namespaces/inkscape"
   xmlns:sodipodi="http://sodipodi.sourceforge.net/DTD/sodipodi-0.dtd"
   xmlns="http://www.w3.org/2000/svg"
   xmlns:svg="http://www.w3.org/2000/svg"><sodipodi:namedview
     id="namedview1"
     pagecolor="#ffffff"
     bordercolor="#000000"
     borderopacity="0.25"
     inkscape:showpageshadow="2"
     inkscape:pageopacity="0.0"
     inkscape:pagecheckerboard="0"
     inkscape:deskcolor="#d1d1d1"
     inkscape:document-units="mm"
     inkscape:zoom="0.72693603"
     inkscape:cx="198.09171"
     inkscape:cy="207.72117"
     inkscape:window-width="1850"
     inkscape:window-height="1016"
     inkscape:window-x="0"
     inkscape:window-y="0"
     inkscape:window-maximized="1"
     inkscape:current-layer="layer1" /><defs
     id="defs1" /><g
     inkscape:label="Layer 1"
     inkscape:groupmode="layer"
     id="layer1"
     transform="translate(-104.61273,-39.844468)"><path
       style="fill:#d8617d;fill-opacity:1;stroke-width:2.84419"
       d="m 21.811321,150.33502 c -1.47804,-1.47804 -2.19969,-2.95932 -2.19969,-4.51515 v -2.31545 h 41.0126 41.012599 v 2.31545 c 0,1.55583 -0.72163,3.03711 -2.199669,4.51515 l -2.1997,2.1997 h -36.61323 -36.61321 z m -2.1998,-16.33067 c 2.5e-4,-6.63726 3.4763,-12.46392 9.18857,-15.40217 2.60647,-1.34072 4.73159,-1.43588 31.9823,-1.43227 l 29.19031,0.003 2.89993,1.75546 c 1.59499,0.9655 3.86133,3.18692 5.03635,4.93647 1.97128,2.93517 4.176259,10.39207 3.591559,12.14613 -0.16127,0.48393 -14.751419,0.81196 -41.069689,0.92337 l -40.81948,0.17263 z m 9.25393,-25.55447 c -4.0912,-4.23858 -4.69109,-6.67224 -5.52384,-22.408285 -1.0422,-19.69416 -0.87323,-37.62924 0.41221,-43.751782 2.62735,-12.513947 10.94045,-23.492372 22.19618,-29.312663 3.10415,-1.605147 6.67412,-3.6955675 7.93327,-4.6453835 3.17839,-2.397623 10.69992,-5.749528 11.62238,-5.179411 1.0652,0.658317 0.93827,3.135718 -0.38404,7.4948915 -0.90776,2.992571 -0.94319,3.892016 -0.18004,4.568763 0.52264,0.46346 8.29535,6.333069 17.27269,13.043563 8.97731,6.710521 17.18925,13.231108 18.248719,14.49023 1.61974,1.924946 1.92258,3.028719 1.90285,6.934871 -0.0393,7.783293 -4.602189,13.284491 -11.026959,13.294621 -2.60741,0.003 -4.3305,-0.785397 -10.0199,-4.590977 l -6.87102,-4.595953 -4.56376,2.0481 c -3.38598,1.519536 -5.31544,1.947274 -7.47629,1.657451 -1.60187,-0.214737 -2.9125,-0.154724 -2.9125,0.133677 0,0.9534 6.27189,6.545982 15.1498,13.508862 15.38461,12.06613 20.19766,18.72873 20.21151,27.97852 0.005,4.009315 -0.33877,5.414235 -1.88831,7.694585 -1.04263,1.53435 -2.63876,3.18742 -3.54699,3.67347 -1.16066,0.62117 -9.93242,0.93665 -29.52222,1.06174 l -27.87095,0.17805 z m 66.72122,-57.846192 c 1.89866,-2.287722 -0.56206,-5.069083 -3.85672,-4.359231 -1.63404,0.352054 -2.0876,1.657053 -1.30633,3.758738 0.72993,1.963713 3.74105,2.313918 5.16305,0.600493 z M 68.806821,34.165673 c 1.44806,-1.941331 1.48147,-2.261188 0.43251,-4.138864 -1.39126,-2.490457 -5.14153,-3.143454 -7.05629,-1.22869 -1.86707,1.867068 -1.26948,5.69654 1.07502,6.888966 2.53307,1.288333 3.68943,0.971291 5.54876,-1.521412 z"
       id="path1" /><path
       style="fill:#d8617d;fill-opacity:1"
       d="m -36.077757,330.59769 c 0,-0.18656 -0.35279,-0.22823 -1.00264,-0.11844 -0.55145,0.0932 -1.53372,0.0395 -2.18281,-0.11929 -0.6491,-0.15878 -1.29924,-0.31718 -1.44476,-0.35202 -0.14552,-0.0348 -0.41341,-0.15631 -0.59531,-0.26994 -0.18191,-0.11364 -0.4498,-0.13303 -0.59532,-0.0431 -0.14552,0.0899 -0.26458,0.0235 -0.26458,-0.14754 0,-0.18087 -0.22163,-0.2531 -0.52953,-0.17258 -0.3335,0.0872 -0.46511,0.0342 -0.3555,-0.14311 0.10871,-0.1759 -0.0182,-0.23131 -0.33818,-0.14764 -0.28171,0.0737 -0.66973,-0.0347 -0.86227,-0.2408 -0.19253,-0.20611 -0.51644,-0.3109 -0.71979,-0.23286 -0.20335,0.078 -0.36973,0.0195 -0.36973,-0.13002 0,-0.14954 -0.11906,-0.19831 -0.26458,-0.10837 -0.14552,0.0899 -0.26459,0.0565 -0.26459,-0.0742 0,-0.34622 -1.31266,-0.8894 -1.6482,-0.68202 -0.18298,0.11308 -0.2078,0.0506 -0.0691,-0.17389 0.15857,-0.25657 0.095,-0.30377 -0.23744,-0.17621 -0.26968,0.10349 -0.38839,0.068 -0.29237,-0.0873 0.14548,-0.2354 -0.20424,-0.37581 -0.72948,-0.29288 -0.10914,0.0172 -0.19844,-0.0948 -0.19844,-0.24887 0,-0.15411 -0.10103,-0.21775 -0.22451,-0.14144 -0.12348,0.0763 -0.47569,-0.0952 -0.78269,-0.38126 -0.30699,-0.28601 -0.65358,-0.52002 -0.77018,-0.52002 -0.1166,0 -0.36795,-0.24971 -0.55856,-0.55493 -0.19061,-0.30521 -0.40519,-0.49629 -0.47686,-0.42463 -0.0717,0.0717 -0.61799,-0.36323 -1.21406,-0.96642 -0.59607,-0.6032 -0.85963,-0.79907 -0.58569,-0.43527 0.27393,0.36381 -0.005,0.19082 -0.61969,-0.38442 -1.12965,-1.05701 -1.50485,-1.57328 -0.65752,-0.90474 0.25313,0.19972 0.1149,-0.0536 -0.30718,-0.56292 -0.42209,-0.50932 -0.87617,-0.89332 -1.00908,-0.85334 -0.1329,0.04 -0.17076,-0.042 -0.0841,-0.18218 0.0866,-0.14018 -0.0533,-0.37763 -0.31106,-0.52767 -0.25772,-0.15004 -0.38077,-0.27642 -0.27343,-0.28085 0.10733,-0.004 -0.23072,-0.67378 -0.75122,-1.48746 -0.52051,-0.81367 -1.11594,-1.88524 -1.32318,-2.38125 -0.20725,-0.49601 -0.50131,-0.90183 -0.65346,-0.90183 -0.15216,0 -0.20971,-0.10832 -0.12788,-0.24071 0.21005,-0.33987 -0.12472,-1.109 -0.40682,-0.93466 -0.1286,0.0795 -0.16881,-0.0249 -0.0894,-0.23198 0.0795,-0.20708 -0.0208,-0.54175 -0.22273,-0.74371 -0.20196,-0.20197 -0.31795,-0.51497 -0.25775,-0.69558 0.0602,-0.1806 -0.008,-0.32836 -0.1524,-0.32836 -0.14403,0 -0.19959,-0.23813 -0.12348,-0.52917 0.0761,-0.29104 0.0166,-0.52917 -0.1323,-0.52917 -0.14887,0 -0.2084,-0.23812 -0.13229,-0.52916 0.0761,-0.29104 0.0137,-0.52917 -0.13859,-0.52917 -0.18195,0 -0.19887,-0.27233 -0.0493,-0.79375 0.22103,-0.77069 -0.0667,-1.1285 -0.37238,-0.46302 -0.0835,0.1819 -0.0854,0.0628 -0.004,-0.26458 0.0823,-0.33178 0.0253,-0.59532 -0.1288,-0.59532 -0.19124,0 -0.27864,-15.28885 -0.28348,-49.59052 -0.004,-27.27478 -0.0863,-49.79713 -0.18319,-50.04965 -0.11119,-0.28975 -0.0731,-0.39542 0.10327,-0.28642 0.37681,0.23288 0.6372,-0.85281 0.33843,-1.41107 -0.14645,-0.27364 -0.13759,-0.54688 0.0229,-0.70741 0.14386,-0.14385 0.28711,-0.81611 0.31835,-1.4939 0.0312,-0.67779 0.15997,-1.23318 0.28609,-1.23419 0.12611,-0.001 0.16702,-0.23996 0.0909,-0.53101 -0.0761,-0.29104 -0.0166,-0.52916 0.13229,-0.52916 0.14887,0 0.2084,-0.23813 0.13229,-0.52917 -0.0761,-0.29104 -0.0166,-0.52917 0.13229,-0.52917 0.14887,0 0.20836,-0.23828 0.1322,-0.52953 -0.0834,-0.31897 -0.0318,-0.46361 0.12978,-0.36374 0.17012,0.10514 0.19912,-0.052 0.0793,-0.42964 -0.14078,-0.44355 -0.10364,-0.54269 0.14562,-0.38864 0.2457,0.15186 0.29315,0.0483 0.17856,-0.38991 -0.0858,-0.32819 -0.0939,-0.53459 -0.018,-0.45866 0.18268,0.18268 2.61028,-4.63913 2.5075,-4.9805 -0.0438,-0.14552 0.006,-0.17838 0.11189,-0.073 0.17138,0.17138 1.67939,-1.91622 1.7218,-2.38356 0.0218,-0.2399 3.50132,-3.24991 5.33713,-4.61693 0.76591,-0.57033 1.63903,-1.23617 1.94025,-1.47964 0.30122,-0.24347 0.71681,-0.48199 0.92354,-0.53004 0.20672,-0.048 0.43651,-0.17854 0.51065,-0.28999 0.0741,-0.11144 0.45389,-0.28067 0.8439,-0.37606 0.39001,-0.0954 0.86626,-0.32207 1.05833,-0.50375 0.19208,-0.18169 0.58736,-0.37101 0.8784,-0.42072 0.29104,-0.0497 0.5691,-0.19928 0.61791,-0.33238 0.0488,-0.13309 0.19764,-0.17469 0.33073,-0.0924 0.13309,0.0822 0.24199,0.0272 0.24199,-0.12234 0,-0.14954 0.17859,-0.20336 0.39687,-0.1196 0.21828,0.0838 0.39688,0.046 0.39688,-0.0839 0,-0.1299 0.20836,-0.2459 0.46302,-0.25777 0.25466,-0.0119 1.47505,-0.20802 2.71198,-0.43591 3.653,-0.67302 4.81323,-0.81915 6.35,-0.79979 9.089,0.1145 71.69846,0.0384 73.66103,-0.0895 2.04743,-0.13345 2.57621,-0.0993 2.41824,0.15633 -0.1568,0.2537 0.26468,0.29408 1.8775,0.17985 1.14383,-0.081 3.92515,-0.19384 6.18073,-0.25074 2.91336,-0.0735 3.3731,-0.0519 1.5875,0.0747 -1.83578,0.13013 -0.65862,0.19074 4.36562,0.22477 4.52107,0.0306 6.74313,-0.0413 6.48229,-0.20989 -0.33916,-0.21919 -0.32955,-0.25707 0.0661,-0.26053 0.25466,-0.002 0.46302,0.10488 0.46302,0.23802 0,0.13314 0.59414,0.23119 1.32031,0.21788 0.72617,-0.0133 1.40086,0.0564 1.4993,0.1548 0.0984,0.0985 0.45067,0.179 0.7827,0.179 0.33204,0 1.59212,0.32436 2.80018,0.7208 1.20806,0.39644 2.3453,0.70733 2.5272,0.69086 0.1819,-0.0165 0.33073,0.0957 0.33073,0.24933 0,0.15361 0.0722,0.20708 0.16045,0.11883 0.0883,-0.0882 0.41029,0.0723 0.71564,0.35677 0.30534,0.28447 0.67962,0.47082 0.83173,0.41412 0.33546,-0.12507 2.26093,0.89874 2.26093,1.20217 0,0.11873 0.14995,0.21587 0.33323,0.21587 0.18327,0 0.48918,0.24972 0.67979,0.55493 0.19061,0.30521 0.41693,0.48456 0.50293,0.39856 0.086,-0.086 0.32403,0.083 0.52894,0.37553 0.20491,0.29255 0.46639,0.47392 0.58107,0.40305 0.11468,-0.0709 0.58721,0.34237 1.05007,0.91834 0.46285,0.57596 0.98054,1.01891 1.15042,0.98433 0.16988,-0.0346 0.31428,0.0973 0.3209,0.29294 0.007,0.1957 0.36921,0.65525 0.80577,1.02123 0.43657,0.36597 0.61516,0.58374 0.39688,0.48392 -0.21828,-0.0998 -0.13405,0.0509 0.18718,0.335 0.32124,0.28406 0.51256,0.58798 0.42516,0.67538 -0.0874,0.0874 0.036,0.23372 0.27431,0.32516 0.23827,0.0914 0.37661,0.25785 0.30741,0.36982 -0.0692,0.11196 0.13985,0.50014 0.46454,0.86261 0.3247,0.36248 0.62967,0.82282 0.67772,1.02297 0.048,0.20016 0.16711,0.42459 0.26458,0.49872 0.0975,0.0741 0.21592,0.31339 0.26321,0.53167 0.0473,0.21829 0.18944,0.43434 0.31587,0.48012 0.12643,0.0458 0.1568,0.27367 0.0675,0.50642 -0.10713,0.27919 -0.0581,0.35873 0.14413,0.23375 0.2008,-0.1241 0.25172,-0.0466 0.14765,0.22455 -0.0874,0.22769 -0.0459,0.5613 0.0921,0.74135 0.70506,0.91983 2.18952,5.78678 2.18952,7.17857 0,0.37917 0.0893,0.68934 0.19844,0.68925 0.10914,-9e-5 0.16268,0.62498 0.11898,1.38906 -0.0502,0.8773 0.008,1.26162 0.15753,1.04293 0.32274,-0.47161 0.37737,90.75264 0.0559,93.34734 -0.13522,1.0914 -0.31544,3.29406 -0.40049,4.89479 -0.14589,2.74567 -0.27057,4.06301 -0.41319,4.36562 -0.0343,0.0728 -0.09,0.25136 -0.12382,0.39688 -0.0338,0.14552 -0.0901,0.35388 -0.12507,0.46302 -0.035,0.10914 -0.0905,0.28773 -0.12346,0.39688 -0.0329,0.10914 -0.22255,0.61515 -0.42139,1.12447 -0.19883,0.50933 -0.3356,1.01534 -0.30393,1.12448 0.0317,0.10914 -0.0685,0.19844 -0.22261,0.19844 -0.15411,0 -0.20662,0.11906 -0.11668,0.26458 0.0899,0.14553 0.0247,0.26459 -0.14498,0.26459 -0.16968,0 -0.23998,0.17859 -0.15622,0.39687 0.0838,0.21828 0.0299,0.39688 -0.11959,0.39688 -0.14955,0 -0.20425,0.10946 -0.12156,0.24325 0.0827,0.13379 4.2e-4,0.40452 -0.18282,0.60161 -0.18324,0.1971 -0.37248,0.53299 -0.42052,0.74643 -0.0481,0.21344 -0.22665,0.47668 -0.39688,0.58497 -0.17023,0.10828 -0.19946,0.19871 -0.065,0.20094 0.13451,0.002 -0.0351,0.3017 -0.37685,0.66551 -0.34177,0.3638 -0.51135,0.66508 -0.37685,0.6695 0.13451,0.004 0.0362,0.1294 -0.21846,0.27773 -0.25466,0.14833 -0.46302,0.41372 -0.46302,0.58977 0,0.17604 -0.24972,0.47603 -0.55493,0.66664 -0.30521,0.19061 -0.48456,0.41693 -0.39856,0.50294 0.086,0.086 -0.081,0.32263 -0.37111,0.52583 -0.29011,0.20321 -0.52748,0.48475 -0.52748,0.62564 0,0.1409 -0.71278,0.95363 -1.58395,1.80608 -0.87118,0.85244 -1.50682,1.41502 -1.41255,1.25017 0.14961,-0.2616 -0.53014,0.27761 -1.70682,1.35393 -0.19886,0.1819 -0.47212,0.34561 -0.60725,0.3638 -0.49833,0.0671 -0.66521,0.12565 -1.75458,0.61578 -0.61161,0.27518 -1.05191,0.59758 -0.97844,0.71645 0.0735,0.11887 -0.0512,0.14523 -0.27705,0.0586 -0.22641,-0.0869 -0.41061,-0.0192 -0.41061,0.15093 0,0.16968 -0.11906,0.23492 -0.26459,0.14499 -0.14552,-0.0899 -0.26458,-0.0412 -0.26458,0.10837 0,0.14954 -0.17859,0.20336 -0.39687,0.1196 -0.21829,-0.0838 -0.39688,-0.0135 -0.39688,0.15621 0,0.16968 -0.10538,0.24337 -0.23419,0.16377 -0.27228,-0.16828 -1.88219,0.34674 -1.88308,0.60241 -3.3e-4,0.0949 -0.37009,0.18587 -0.82169,0.20214 -0.45159,0.0163 -0.91111,0.17527 -1.02116,0.35333 -0.11005,0.17805 -0.27775,0.30548 -0.37267,0.28316 -0.0949,-0.0223 -0.85552,0.10492 -1.69021,0.28277 -0.83469,0.17784 -2.47012,0.30558 -3.63429,0.28385 -7.46687,-0.13932 -95.03055,-0.14146 -94.53715,-0.002 0.33553,0.0946 -0.61033,0.18393 -2.10191,0.19844 -1.79384,0.0174 -2.71198,-0.0711 -2.71198,-0.26147 z m 64.16146,-8.30793 c 1.40567,-0.085 1.89448,-0.0492 1.4552,0.10649 -0.42226,0.14967 1.56305,0.24399 5.49011,0.26082 3.94223,0.0169 6.15156,-0.0687 6.15156,-0.23821 0,-0.2943 14.36816,-0.32581 17.06563,-0.0374 1.75289,0.1874 8.73456,-0.0666 9.62838,-0.35027 0.31117,-0.0988 0.50433,-0.27896 0.42926,-0.40043 -0.0751,-0.12147 0.10179,-0.15855 0.39303,-0.0824 0.29124,0.0762 0.52953,0.009 0.52953,-0.14867 0,-0.15792 0.1786,-0.2186 0.39688,-0.13484 0.21828,0.0838 0.39687,0.0135 0.39687,-0.15621 0,-0.16968 0.12013,-0.23426 0.26696,-0.14352 0.14682,0.0907 0.51974,0.0848 0.8287,-0.0133 0.44917,-0.14256 0.48847,-0.229 0.19607,-0.43129 -0.27203,-0.1882 -0.23016,-0.21735 0.16348,-0.11383 0.60929,0.16022 2.61586,-0.96165 2.3145,-1.29405 -0.10881,-0.12001 -0.0649,-0.14239 0.0975,-0.0497 0.64347,0.36702 4.90795,-3.86063 5.18183,-5.13708 0.0435,-0.20272 0.22136,-0.48808 0.39527,-0.63412 0.1739,-0.14605 0.3525,-0.43422 0.39687,-0.64037 0.0444,-0.20615 0.29825,-0.60231 0.56417,-0.88035 0.26591,-0.27804 0.41848,-0.67492 0.33903,-0.88195 -0.0794,-0.20703 -0.0164,-0.37642 0.14014,-0.37642 0.15653,0 0.21368,-0.18477 0.12702,-0.41061 -0.10139,-0.26422 -0.0506,-0.34448 0.14257,-0.22512 0.21072,0.13023 0.24607,-0.03 0.11866,-0.5376 -0.13152,-0.52401 -0.0951,-0.6697 0.13229,-0.52916 0.2263,0.13986 0.26473,-0.001 0.13786,-0.507 -0.11228,-0.44735 -0.0681,-0.70092 0.12201,-0.70092 0.16386,0 0.2294,-0.1786 0.14563,-0.39688 -0.0838,-0.21828 -0.0224,-0.39687 0.13639,-0.39687 0.18689,0 0.16926,-0.14388 -0.05,-0.40809 -0.25653,-0.3091 -0.26439,-0.48238 -0.0324,-0.71438 0.4044,-0.4044 0.44594,-98.62545 0.0417,-98.62545 -0.14552,0 -0.26458,-0.18562 -0.26458,-0.41249 0,-0.22687 0.11741,-0.33993 0.2609,-0.25125 0.14349,0.0887 0.0114,-0.4103 -0.29362,-1.10886 -0.30498,-0.69856 -0.56725,-1.88627 -0.58282,-2.63935 -0.0156,-0.75308 -0.11046,-1.31846 -0.21088,-1.2564 -0.10041,0.0621 -0.12489,-0.10771 -0.0544,-0.37726 0.0705,-0.26955 -0.0395,-0.65773 -0.24438,-0.86262 -0.20489,-0.2049 -0.31775,-0.53688 -0.2508,-0.73773 0.081,-0.2429 0.008,-0.29487 -0.21805,-0.1552 -0.21511,0.13294 -0.27464,0.10458 -0.16224,-0.0773 0.22046,-0.35671 -0.63058,-2.20347 -0.93011,-2.01835 -0.11988,0.0741 -0.15179,-0.0377 -0.0709,-0.24847 0.0809,-0.21074 -0.0831,-0.54434 -0.36434,-0.74134 -0.49299,-0.34531 -0.58251,-0.49583 -0.58251,-0.97956 0,-0.26461 -3.04047,-3.28965 -3.27003,-3.25344 -0.0863,0.0136 -0.47023,-0.26557 -0.85312,-0.62042 -0.3829,-0.35486 -0.77269,-0.62298 -0.8662,-0.59583 -0.19885,0.0577 -1.68269,-0.87713 -1.91939,-1.20927 -0.089,-0.12494 -0.26763,-0.2185 -0.39688,-0.20793 -0.25404,0.0208 -2.28519,-0.66993 -3.14542,-1.06962 -0.29104,-0.13522 -0.88635,-0.24022 -1.32291,-0.23333 -0.43657,0.007 -23.71329,0.0124 -51.72605,0.0121 -42.86833,-3.4e-4 -51.20338,0.0587 -52.64449,0.37303 -0.94172,0.20539 -1.80492,0.31614 -1.91823,0.24611 -0.11332,-0.07 -0.20603,-0.005 -0.20603,0.14457 0,0.14954 -0.17859,0.20336 -0.39687,0.11959 -0.21828,-0.0838 -0.39688,-0.0135 -0.39688,0.15622 0,0.16967 -0.11906,0.23492 -0.26458,0.14498 -0.14552,-0.0899 -0.26458,-0.0412 -0.26458,0.10837 0,0.14954 -0.1786,0.20336 -0.39688,0.1196 -0.22476,-0.0863 -0.39687,-0.006 -0.39687,0.18469 0,0.18535 -0.0743,0.26272 -0.16506,0.17194 -0.23659,-0.23659 -2.21376,0.82098 -2.3891,1.27792 -0.0809,0.21087 -0.25427,0.31718 -0.38521,0.23625 -0.13095,-0.0809 -0.8555,0.4853 -1.61011,1.25829 -0.75461,0.77299 -1.45426,1.3804 -1.55477,1.34979 -0.10051,-0.0306 -0.40528,0.19823 -0.67727,0.50851 -0.3376,0.38512 -0.36858,0.50096 -0.0977,0.36502 0.21828,-0.10951 0.0628,0.10815 -0.34548,0.48369 -0.4083,0.37554 -0.64643,0.68463 -0.52917,0.68686 0.11725,0.002 0.0346,0.11694 -0.18368,0.25493 -0.21829,0.13798 -0.39688,0.35302 -0.39688,0.47787 0,0.12484 -0.20946,0.43644 -0.46546,0.69244 -0.256,0.256 -0.3978,0.57491 -0.31511,0.7087 0.0827,0.13379 0.0172,0.24325 -0.14548,0.24325 -0.16269,0 -0.22851,0.1089 -0.14625,0.24199 0.0823,0.13309 0.0286,0.28231 -0.1193,0.3316 -0.14787,0.0493 -0.32271,0.36927 -0.38853,0.71105 -0.0658,0.34179 -0.25782,0.78788 -0.42665,0.99132 -0.16884,0.20343 -0.2031,0.3717 -0.0761,0.37393 0.12696,0.002 0.08,0.0998 -0.10425,0.21674 -0.28871,0.18326 -0.54882,1.35491 -0.67052,3.02035 -0.0186,0.25467 -0.12364,0.46302 -0.23342,0.46302 -0.10977,0 -0.13567,0.16656 -0.0576,0.37012 0.0781,0.20356 0.023,0.4437 -0.12259,0.53365 -0.17485,0.10806 -0.26889,17.16261 -0.27722,50.27556 -0.0119,47.3238 0.0136,50.19471 0.45808,51.59824 0.25888,0.81742 0.54605,1.41088 0.63814,1.31878 0.0921,-0.0921 0.11196,0.0527 0.0442,0.32175 -0.14674,0.58226 1.59833,4.32565 2.0165,4.32565 0.15979,0 0.21756,0.11807 0.12838,0.26237 -0.0892,0.1443 0.13651,0.56102 0.50153,0.92604 0.36502,0.36502 0.58426,0.66367 0.4872,0.66367 -0.0971,0 0.4072,0.59257 1.12056,1.31682 0.71336,0.72426 1.34874,1.2651 1.41196,1.20188 0.0632,-0.0632 0.33433,0.14788 0.60246,0.46912 0.26814,0.32123 0.49148,0.46827 0.49632,0.32675 0.005,-0.14152 0.19527,0.009 0.42317,0.33427 0.46217,0.65985 2.33879,1.7119 2.59558,1.45511 0.0908,-0.0908 0.16506,-0.0299 0.16506,0.13532 0,0.16521 0.16323,0.23774 0.36273,0.16118 0.1995,-0.0765 0.42807,0.0311 0.50793,0.23919 0.16384,0.42696 3.71023,1.383 4.14149,1.11647 0.15373,-0.095 0.27957,-0.0764 0.27963,0.0413 6e-5,0.11773 12.65045,0.21405 28.1119796,0.21405 15.46152,0 29.1834204,0.0754 30.4931104,0.1676 1.30969,0.0922 3.0361,0.12168 3.83646,0.0656 0.80036,-0.0561 2.40771,-0.15961 3.57188,-0.22998 z m -65.88392,-13.89813 c -0.0914,-0.14789 -0.27935,-0.19896 -0.41767,-0.11348 -0.3307,0.20439 -2.09321,-0.38205 -2.09321,-0.69647 0,-0.13424 -0.14883,-0.24441 -0.33073,-0.24483 -0.1819,-4.1e-4 -0.56414,-0.34915 -0.84942,-0.77495 -0.28528,-0.42581 -0.61134,-0.71694 -0.72457,-0.64696 -0.11324,0.07 -0.12748,-0.0771 -0.0317,-0.32678 0.11741,-0.30597 0.0743,-0.39225 -0.13229,-0.26458 -0.20026,0.12377 -0.25189,0.0471 -0.14895,-0.22118 0.0873,-0.22745 0.019,-0.41062 -0.15315,-0.41062 -0.18576,0 -0.24602,-0.20385 -0.14984,-0.5069 0.0885,-0.27879 0.053,-0.57355 -0.0788,-0.65502 -0.13182,-0.0815 -0.20668,-0.44868 -0.16635,-0.81602 0.0403,-0.36734 -0.0353,-0.66789 -0.16797,-0.66789 -0.13271,0 -0.24129,-0.1786 -0.24129,-0.39688 0,-0.21828 0.13209,-0.39687 0.29353,-0.39687 0.17967,0 0.2516,-0.35922 0.18542,-0.92604 -0.0595,-0.50933 -2.1e-4,-0.92605 0.13166,-0.92605 0.13186,0 0.17418,-0.1709 0.094,-0.37978 -0.0802,-0.20888 -0.0269,-0.4194 0.11839,-0.46782 0.14527,-0.0484 0.29048,-0.26754 0.32268,-0.48692 0.05,-0.34101 1.10862,-1.60867 1.3017,-1.55881 0.0364,0.009 0.2745,-0.0629 0.52917,-0.1606 0.4014,-0.15404 0.45951,-0.53478 0.43664,-2.86135 -0.0145,-1.47602 -0.1038,-2.41036 -0.19843,-2.07631 -0.0946,0.33405 -0.17207,-2.46392 -0.17207,-6.21771 0,-3.75379 0.0756,-6.40835 0.1679,-5.89903 0.0923,0.50932 0.13184,-1.48896 0.0877,-4.44062 l -0.0802,-5.36667 0.8383,-0.89043 c 1.71955,-1.82649 0.70808,-1.73225 19.94768,-1.85845 9.5717196,-0.0628 17.8793696,-0.12079 18.4614496,-0.12889 0.58207996,-0.008 6.56563,0.0384 13.2967804,0.1034 6.73114,0.065 12.7438,0.0322 13.36146,-0.0728 l 1.12301,-0.19097 0.0773,-2.04395 c 0.0488,-1.29068 -0.0243,-2.04395 -0.19843,-2.04395 -0.17188,0 -0.27572,-0.94659 -0.27572,-2.51354 v -2.51354 l -2.18281,-0.057 c -1.20055,-0.0313 -2.65906,-0.0432 -3.24114,-0.0264 -5.47264,0.15829 -41.48787,0.16706 -41.58484,0.0101 -0.17629,-0.28528 -7.59504,-0.2269 -12.45109,0.098 -3.60454,0.24115 -4.13002,0.22197 -4.98075,-0.18173 -1.08784,-0.51621 -1.83727,-1.49849 -1.60503,-2.1037 0.0871,-0.22697 0.0489,-0.34501 -0.0849,-0.26231 -0.1338,0.0827 -0.31805,0.0293 -0.40946,-0.11855 -0.0914,-0.1479 -0.0463,-0.2689 0.10018,-0.2689 0.14651,0 0.30236,-0.62195 0.34635,-1.38211 0.0755,-1.30552 0.13861,-1.41523 1.1383,-1.98002 0.89515,-0.50572 1.4537,-0.59859 3.62241,-0.60227 1.41024,-0.002 2.62577,-0.10418 2.70117,-0.22618 0.0754,-0.12201 1.36236,-0.22929 2.85989,-0.2384 1.67834,-0.0102 2.5198,0.0678 2.19362,0.20323 -0.29104,0.12089 5.98248,0.22817 13.94115,0.2384 10.4115396,0.0134 14.5216896,-0.0645 14.6534396,-0.27768 0.13261,-0.21457 1.86989,-0.23917 6.29946,-0.0892 3.3640004,0.11388 6.3544904,0.19014 6.6455304,0.16947 0.29104,-0.0207 3.16967,-0.0528 6.39695,-0.0715 4.67562,-0.027 5.84113,-0.10331 5.73665,-0.3756 -0.0721,-0.18794 -0.004,-0.42031 0.15149,-0.51638 0.32108,-0.19844 0.39657,-4.70106 0.0842,-5.02096 -0.10914,-0.11176 -0.19843,-1.1734 -0.19843,-2.3592 0,-2.14 -0.005,-2.15553 -0.66146,-2.09348 -0.60192,0.0569 -28.5122204,0.0392 -52.69062,-0.0334 -5.3327,-0.016 -9.55942,0.0584 -9.39271,0.16527 0.17454,0.11194 0.0208,0.19611 -0.36247,0.19844 -0.85852,0.005 -2.50586,-0.87695 -2.52144,-1.35027 -0.007,-0.20101 -0.1356,-0.34232 -0.28663,-0.31402 -0.15103,0.0283 -0.28955,-0.0908 -0.30781,-0.26458 -0.0183,-0.17382 -0.15844,-0.85182 -0.31149,-1.50666 -0.17534,-0.7502 -0.27243,-5.84729 -0.26247,-13.77911 0.0148,-11.76341 -0.0154,-12.62262 -0.46021,-13.10934 -0.26182,-0.28648 -0.35902,-0.33666 -0.21601,-0.11152 0.17601,0.27708 0.0725,0.24956 -0.32022,-0.0852 -0.31914,-0.27199 -0.5642,-0.56964 -0.54458,-0.66146 0.0626,-0.2928 -0.66236,-1.62214 -0.88459,-1.62214 -0.1176,0 -0.14528,-0.17859 -0.0615,-0.39687 0.0838,-0.21829 0.0503,-0.39688 -0.0744,-0.39688 -0.12471,0 -0.22674,-0.83344 -0.22674,-1.85208 0,-1.01865 0.10203,-1.85209 0.22674,-1.85209 0.12471,0 0.15821,-0.17859 0.0744,-0.39687 -0.0838,-0.21828 -0.0242,-0.39688 0.13229,-0.39688 0.16042,0 0.20841,-0.19851 0.11001,-0.45495 -0.096,-0.25023 -0.0927,-0.3731 0.007,-0.27305 0.10005,0.10006 0.52306,-0.24737 0.94002,-0.77205 0.41696,-0.52468 0.75812,-0.88475 0.75812,-0.80016 0,0.0846 0.50601,-0.0616 1.12448,-0.32483 0.61846,-0.26325 1.3626,-0.56842 1.65364,-0.67816 0.7515,-0.28337 1.98438,-0.375 1.98438,-0.1475 0,0.10557 0.47088,0.33302 1.04641,0.50546 1.18306,0.35445 2.73757,1.54371 2.5065,1.91758 -0.084,0.13587 -0.0545,0.22998 0.0654,0.20914 0.62572,-0.1087 0.87956,0.0893 0.87956,0.68623 0,0.3638 0.11533,0.66146 0.25628,0.66146 0.14096,0 0.19237,0.16655 0.11426,0.37011 -0.0781,0.20357 -0.0365,0.43533 0.0924,0.51503 0.31422,0.19419 0.20209,2.20419 -0.14639,2.62407 -0.15224,0.18345 -0.31552,0.68931 -0.36284,1.12414 -0.0473,0.43484 -0.29639,0.94758 -0.55349,1.13944 -0.25709,0.19186 -0.38752,0.47815 -0.28984,0.63619 0.0977,0.15805 0.0581,0.2135 -0.088,0.12322 -0.58296,-0.36029 -1.34676,1.05135 -1.42422,2.6322 -0.1652,3.3714 0.0589,11.60282 0.30158,11.07623 0.15382,-0.33382 0.19911,1.40365 0.12268,4.70641 -0.0771,3.33173 -0.0282,5.17814 0.13445,5.07762 0.14057,-0.0869 0.25559,-0.0319 0.25559,0.12223 0,0.30892 9.95016,0.40087 11.72057,0.1083 l 1.00494,-0.16607 -0.14773,-9.15758 c -0.23922,-14.82826 -0.0832,-13.20122 -1.39392,-14.53916 -1.25057,-1.2766 -2.12275,-3.31988 -1.65675,-3.88137 0.15457,-0.18626 0.25733,-0.44047 0.22836,-0.56493 -0.0796,-0.34191 0.32364,-1.71422 0.7662,-2.60754 0.43306,-0.87413 2.0825,-2.52118 2.30351,-2.30017 0.0767,0.0767 0.13941,-0.006 0.13941,-0.18489 0,-0.17836 0.11906,-0.25071 0.26458,-0.16077 0.14552,0.0899 0.26458,0.0412 0.26458,-0.10837 0,-0.14955 0.1786,-0.20337 0.39688,-0.1196 0.21828,0.0838 0.39687,0.046 0.39687,-0.0839 0,-0.12991 0.20836,-0.25161 0.46302,-0.27045 0.25467,-0.0188 0.83955,-0.10939 1.29974,-0.20122 0.48748,-0.0973 0.90925,-0.0496 1.01047,0.11416 0.0956,0.15463 0.28459,0.21263 0.42006,0.12891 0.13546,-0.0837 0.2463,-0.039 0.2463,0.0993 0,0.23489 1.20133,0.66819 1.41967,0.51206 0.0545,-0.039 0.54546,0.4649 1.09097,1.11974 0.54551,0.65484 1.11022,1.26551 1.25491,1.35703 0.15735,0.0995 0.11813,0.22405 -0.0976,0.30985 -0.22845,0.0908 -0.16668,0.15257 0.16849,0.16837 0.44167,0.0208 0.46354,0.068 0.1323,0.28547 -0.33181,0.21782 -0.33737,0.29889 -0.0339,0.49451 0.19964,0.12869 0.30502,0.39658 0.23419,0.59532 -0.0708,0.19873 -0.0203,0.57215 0.11228,0.82981 0.13258,0.25767 0.14961,0.61486 0.0378,0.79375 -0.23203,0.37135 -0.37856,0.91175 -0.42897,1.58204 -0.0192,0.25466 -0.14111,0.46302 -0.27102,0.46302 -0.12991,0 -0.16529,0.18477 -0.0786,0.41061 0.0904,0.23546 0.046,0.34167 -0.10398,0.24897 -0.14385,-0.0889 -0.26155,-0.0618 -0.26155,0.0601 0,0.12197 -0.43827,0.67299 -0.97393,1.22448 l -0.97393,1.00271 -0.10518,10.43204 c -0.0773,7.66722 -0.0208,10.68769 0.21317,11.39662 l 0.31834,0.96458 5.9862796,-0.20085 c 3.29246,-0.11048 9.67723,-0.17103 14.18837,-0.13457 4.5111504,0.0365 10.8214604,0.0801 14.0229204,0.0969 l 5.82083,0.0306 0.0851,-0.59924 c 0.0468,-0.32958 0.19562,-0.53091 0.33073,-0.4474 0.14207,0.0878 0.22814,-0.49632 0.2041,-1.38514 l -0.0416,-1.53697 -0.18145,1.32292 c -0.153,1.11544 -0.18797,0.92664 -0.22302,-1.20386 -0.0281,-1.70662 0.0658,-2.64242 0.28916,-2.88308 0.26459,-0.28505 0.26459,-0.31897 0,-0.1696 -0.24441,0.13799 -0.33178,-0.14536 -0.33478,-1.08566 -0.002,-0.69981 -0.0999,-1.42345 -0.21712,-1.60809 -0.16905,-0.26633 -2.91527,-0.31226 -13.29126,-0.22224 -7.1930104,0.0624 -13.38475044,0.14231 -13.75944044,0.17758 -1.10592996,0.1041 -2.02371996,-0.23735 -2.17306996,-0.80846 -0.0997,-0.38136 -0.27246,-0.4821 -0.60671,-0.35383 -0.36107,0.13855 -0.42867,0.0787 -0.29738,-0.26349 0.10724,-0.27947 0.038,-0.44281 -0.18779,-0.44281 -0.73882,0 -0.9398,-2.69207 -0.27213,-3.6453 0.22653,-0.32342 0.32438,-0.58804 0.21745,-0.58804 -0.26065,0 1.82514,-1.57074 2.09826,-1.58014 0.11773,-0.004 0.15313,0.0912 0.0787,0.21173 -0.0745,0.12049 0.59668,0.11896 1.49144996,-0.003 0.94939,-0.12984 1.96334004,-0.12053 2.43489004,0.0224 2.54807,0.77207 8.6132404,0.48165 8.6132404,-0.41243 0,-0.19512 0.11907,-0.35477 0.26459,-0.35477 0.14552,0 0.26458,-0.41672 0.26458,-0.92604 0,-0.50933 -0.12883,-0.92604 -0.28629,-0.92604 -0.1861,0 -0.25555,-0.63674 -0.19844,-1.81937 0.0652,-1.35114 -0.0126,-1.9129 -0.30252,-2.18281 -0.2147,-0.1999 -0.4825904,-0.36345 -0.5953104,-0.36345 -0.11272,0 -0.21803,-0.11906 -0.23402,-0.26458 -0.016,-0.14552 -0.28389,-0.62177 -0.59532,-1.05834 -0.39504,-0.55378 -0.57256,-1.21239 -0.58718,-2.1785 -0.0294,-1.94291 0.15796,-3.00919 0.49243,-2.80248 0.17627,0.10894 0.2154,0.005 0.10569,-0.28102 -0.10349,-0.26969 -0.068,-0.38839 0.0873,-0.29237 0.14386,0.0889 0.26156,0.0468 0.26156,-0.0935 0,-0.14034 0.41672,-0.75395 0.9260404,-1.36357 0.50932,-0.60962 0.92604,-1.04342 0.92604,-0.96401 0,0.0794 0.50602,-0.0853 1.12448,-0.36603 1.41648,-0.64296 2.99618,-0.65958 4.26008,-0.0448 0.53962,0.26247 0.94783,0.53037 0.90714,0.59531 -0.0407,0.0649 -0.0254,0.0893 0.034,0.0542 0.0594,-0.0351 0.29058,0.0839 0.51381,0.26459 0.3326,0.26915 0.36544,0.26136 0.1819,-0.0432 -0.15203,-0.25225 -0.12585,-0.31097 0.0815,-0.18283 0.168,0.10384 0.30546,0.36409 0.30546,0.57835 0,0.21426 0.17791,0.45784 0.39536,0.54128 0.21744,0.0834 0.32948,0.2583 0.24897,0.38857 -0.0805,0.13027 -0.0133,0.23686 0.14942,0.23686 0.1627,0 0.22223,0.11906 0.1323,0.26458 -0.0899,0.14552 -0.0412,0.26459 0.10837,0.26459 0.14954,0 0.20336,0.17859 0.1196,0.39687 -0.0838,0.21828 -0.0316,0.39688 0.11582,0.39688 0.14747,0 0.20937,0.22469 0.13755,0.4993 -0.0718,0.27462 -0.0123,0.5724 0.13222,0.66173 0.2773,0.17137 0.12624,1.15294 -0.25261,1.64144 -0.12324,0.15891 -0.14573,0.36727 -0.05,0.46302 0.0958,0.0958 0.0605,0.17409 -0.0783,0.17409 -0.13881,0 -0.26971,0.2301 -0.29089,0.51133 -0.0556,0.73751 -0.87711,1.89543 -1.20225,1.69448 -0.16971,-0.10489 -0.19654,-0.0415 -0.0694,0.16414 0.12009,0.19432 0.0576,0.42744 -0.14886,0.55502 -0.24332,0.15038 -0.33622,0.69104 -0.29363,1.70883 0.0343,0.81887 -0.0292,1.43191 -0.14099,1.36231 -0.11181,-0.0696 -0.1638,0.83606 -0.11553,2.01255 0.0483,1.17649 0.18041,1.98916 0.29365,1.80594 0.14266,-0.23082 0.56265,-0.2812 1.36745,-0.16403 3.05335,0.44454 8.99649,0.33068 7.76933,-0.14884 -0.30838,-0.12051 0.47246,-0.21174 1.90614,-0.22272 1.87329,-0.0143 2.52355,0.0765 2.84427,0.39718 0.22868,0.22868 0.41577,0.32952 0.41577,0.2241 0,-0.17789 0.1936,0.0249 1.36733,1.43215 0.24271,0.291 0.37457,0.59581 0.29303,0.67735 -0.0815,0.0815 -0.0333,0.29996 0.10721,0.48538 0.36148,0.47699 0.38049,1.60941 0.0307,1.82562 -0.20491,0.12664 -0.27661,2.0159 -0.23608,6.22023 0.032,3.3211 0.10653,6.08668 0.16558,6.14574 0.0591,0.0591 2.16503,0.002 4.67993,-0.12667 l 4.57255,-0.23405 0.0753,-2.86555 c 0.0414,-1.57605 -0.0211,-2.80596 -0.13896,-2.73312 -0.11785,0.0728 -0.21127,-3.58134 -0.2076,-8.12038 l 0.007,-8.25279 -0.74004,-0.78804 c -0.40702,-0.43342 -0.9266,-1.17499 -1.15463,-1.64793 -0.22802,-0.47294 -0.52711,-0.8599 -0.66463,-0.8599 -0.13753,0 -0.17325,-0.12427 -0.0794,-0.27617 0.0939,-0.15189 0.0252,-0.45144 -0.15256,-0.66566 -0.43131,-0.51969 -0.17929,-3.80069 0.31604,-4.11455 0.19719,-0.12495 0.2583,-0.229 0.1358,-0.23123 -0.4311,-0.008 2.13757,-2.2923 2.96099,-2.63338 0.45848,-0.18991 0.83361,-0.4334 0.83361,-0.54108 0,-0.10769 0.31535,-0.13551 0.70078,-0.0618 0.40093,0.0766 0.63518,0.0278 0.54747,-0.1141 -0.32179,-0.52066 1.35624,-0.32999 2.66891,0.30326 0.75455,0.36401 1.43202,0.66183 1.5055,0.66183 0.0735,0 0.37171,0.23812 0.66275,0.52916 0.29105,0.29105 0.45506,0.52917 0.36448,0.52917 -0.0906,0 -10e-4,0.20145 0.19844,0.44767 0.29729,0.3665 0.29838,0.40868 0.006,0.23265 -0.28929,-0.17417 -0.30009,-0.10843 -0.0568,0.34609 0.16516,0.3086 0.41517,0.56109 0.55557,0.56109 0.1404,0 0.25527,0.1786 0.25527,0.39688 0,0.21828 0.10792,0.39687 0.23981,0.39687 0.1319,0 0.17738,0.23876 0.10107,0.53058 -0.0763,0.29181 0.009,0.70853 0.18946,0.92604 0.26132,0.31488 0.26109,0.39547 -0.001,0.39547 -0.26278,0 -0.26278,0.0802 0,0.39687 0.29315,0.35323 0.19639,0.49828 -0.29386,0.4405 -0.0889,-0.0105 -0.29813,0.28067 -0.46503,0.64698 -0.1788,0.39242 -0.19394,0.59834 -0.0369,0.50126 0.14662,-0.0906 0.26615,-0.0684 0.2656,0.0493 -0.002,0.35881 -1.09758,2.03722 -1.54276,2.36274 -0.36824,0.26927 -0.41976,1.4917 -0.42953,10.19114 -0.006,5.43685 0.0818,10.24236 0.19538,10.67892 0.14793,0.56867 0.13032,0.68121 -0.0621,0.39688 -0.23069,-0.3409 -0.26914,-0.33156 -0.27262,0.0661 -0.002,0.25466 0.11501,0.46302 0.26053,0.46302 0.14552,0 0.26458,0.29766 0.26458,0.66146 0,0.3638 0.14883,0.66328 0.33073,0.66551 0.22452,0.003 0.20328,0.0949 -0.0662,0.28686 -0.30057,0.21418 -0.18019,0.2453 0.4961,0.12824 0.49113,-0.085 3.32589,-0.15457 6.29947,-0.15457 3.53696,0 5.34995,-0.0915 5.24298,-0.26458 -0.0899,-0.14552 -0.0339,-0.26459 0.12452,-0.26459 0.2034,0 0.28084,-3.19284 0.26352,-10.86437 -0.0219,-9.71573 -0.0709,-10.91857 -0.46352,-11.37708 -0.24145,-0.28199 -0.5629,-0.51271 -0.71434,-0.51271 -0.15143,0 -0.39286,-0.22264 -0.53651,-0.49475 -0.14364,-0.27211 -0.54036,-1.00388 -0.88158,-1.62615 -0.72619,-1.32431 -0.80654,-3.15133 -0.20221,-4.59769 0.2193,-0.52488 0.33804,-0.95433 0.26386,-0.95433 -0.0742,0 0.4379,-0.47276 1.13798,-1.05059 0.70007,-0.57782 1.45512,-1.20289 1.67789,-1.38906 0.22277,-0.18616 0.81808,-0.37877 1.32292,-0.42802 0.50483,-0.0493 0.95347,-0.18577 0.99696,-0.30337 0.0435,-0.11761 0.6928,-0.0519 1.4429,0.14594 0.75011,0.19788 1.40648,0.31713 1.45861,0.265 0.0521,-0.0521 0.40007,0.18815 0.7732,0.53395 0.37312,0.3458 0.76658,0.57424 0.87435,0.50764 0.10776,-0.0666 0.40889,0.11422 0.66918,0.40183 0.26028,0.28761 0.39283,0.52293 0.29456,0.52293 -0.0983,0 0.0555,0.45898 0.34167,1.01995 0.61622,1.2079 1.02302,3.74255 0.60066,3.74255 -0.33595,0 -0.70958,1.00437 -0.61516,1.65365 0.037,0.25466 -0.0592,0.46302 -0.21387,0.46302 -0.15467,0 -0.28122,0.17859 -0.28122,0.39687 0,0.21828 -0.10518,0.39688 -0.23372,0.39688 -0.12855,0 -0.296,0.23812 -0.37211,0.52916 -0.0855,0.32694 -0.36089,0.52917 -0.72062,0.52917 -0.45084,0 -0.53917,0.1045 -0.39139,0.46302 0.10498,0.25466 0.31003,5.32676 0.45569,11.27134 0.20675,8.43818 0.19378,10.94107 -0.0592,11.41368 -0.21385,0.39959 -0.26118,1.06193 -0.13923,1.94861 0.22988,1.67141 -0.21684,3.2642 -0.8476,3.02215 -0.25338,-0.0972 -0.35731,-0.0542 -0.25783,0.10678 0.21246,0.34377 -0.93996,1.3564 -1.72819,1.51857 -1.28587,0.26456 -31.29169,0.40328 -30.76313,0.14222 0.40727,-0.20114 0.26509,-0.23504 -0.61716,-0.14715 -0.63049,0.0628 -1.22542,0.19328 -1.32207,0.28994 -0.28472,0.28472 -0.35949,9.75047 -0.0803,10.16462 0.20838,0.3091 2.03512,0.38815 10.52853,0.45561 6.06573,0.0482 10.00537,-0.013 9.61494,-0.14918 -0.61546,-0.21475 -0.59614,-0.23263 0.27781,-0.25717 0.5166,-0.0145 1.05238,0.0865 1.19062,0.22451 0.14033,0.14007 2.80717,0.26983 6.03758,0.29376 5.41156,0.0401 5.82642,0.0778 6.40712,0.58272 0.3415,0.29693 0.55925,0.63963 0.48389,0.76155 -0.0753,0.12193 0.0405,0.15357 0.25746,0.0703 0.28544,-0.10953 0.46732,0.12898 0.65806,0.86293 0.16314,0.62777 0.27453,9.04538 0.29231,22.08891 0.0232,17.01367 -0.0372,21.10104 -0.31359,21.21173 -0.22108,0.0886 0.0663,0.48891 0.81138,1.13045 1.24321,1.07041 2.13378,2.78979 2.30258,4.44549 0.0578,0.56707 0.0319,0.9578 -0.0576,0.86828 -0.20818,-0.20817 -1.75952,2.98299 -1.73425,3.5674 0.0105,0.2418 -0.28365,0.65852 -0.65356,0.92605 -0.36992,0.26752 -0.83706,0.64283 -1.0381,0.834 -0.20104,0.19118 -0.47728,0.27854 -0.61386,0.19413 -0.13658,-0.0844 -0.32432,-0.0305 -0.41719,0.11973 -0.0929,0.15027 -0.27969,0.20472 -0.41515,0.121 -0.13547,-0.0837 -0.24631,-0.0559 -0.24631,0.0618 0,0.11773 -0.53578,0.21405 -1.19062,0.21405 -0.65484,0 -1.19063,-0.0973 -1.19063,-0.21627 0,-0.11894 -0.22557,-0.14467 -0.50128,-0.0572 -0.28502,0.0905 -0.67231,-0.0119 -0.8977,-0.23731 -0.21802,-0.21802 -0.55557,-0.43042 -0.75011,-0.472 -0.47904,-0.10238 -1.78644,-1.73385 -2.2194,-2.76953 -0.48857,-1.16871 -0.90496,-4.05294 -0.58511,-4.05294 0.13905,0 0.19204,-0.23242 0.11776,-0.51648 -0.0743,-0.28406 -0.0376,-0.55195 0.0816,-0.59531 0.11916,-0.0434 0.25535,-0.24992 0.30264,-0.45903 0.0473,-0.20911 0.38365,-0.6652 0.74745,-1.01354 0.3638,-0.34833 0.48286,-0.55604 0.26458,-0.46157 -0.21828,0.0945 0.0153,-0.19359 0.51917,-0.64011 0.50383,-0.44653 1.00984,-0.81188 1.12448,-0.81188 0.11464,0 0.20661,-0.38695 0.20438,-0.85989 -0.002,-0.47294 -0.0915,-0.72228 -0.19843,-0.55409 -0.10692,0.16819 -0.187,-6.85649 -0.17797,-15.61042 0.009,-8.75392 -0.0552,-14.07075 -0.1428,-11.81518 -0.15906,4.09705 -0.15923,4.09538 -0.17731,-1.71979 -0.01,-3.20146 0.0672,-5.34458 0.1714,-4.7625 0.15401,0.86016 0.19,0.68676 0.19221,-0.92604 0.002,-1.5068 -0.0442,-1.76151 -0.19221,-1.05834 -0.19419,0.92257 -0.19506,0.92151 -0.22976,-0.28182 l -0.0348,-1.20787 -2.3151,0.0992 c -1.66174,0.0712 -2.2031,0.0212 -1.91823,-0.17714 0.45703,-0.31826 -3.47062,-0.39085 -6.35,-0.11736 l -1.71979,0.16334 -0.13229,11.67488 c -0.0728,6.42118 -0.13229,15.33186 -0.13229,19.80151 0,7.71209 0.0263,8.15072 0.51467,8.59896 0.49896,0.4579 0.50314,0.45617 0.13685,-0.0568 -0.3739,-0.52367 -0.37169,-0.52394 0.21293,-0.0251 0.32492,0.27722 0.59075,0.66417 0.59075,0.8599 0,0.19572 0.12609,0.35586 0.2802,0.35586 0.15411,0 0.20662,0.11907 0.11668,0.26459 -0.0899,0.14552 -0.0304,0.26458 0.13229,0.26458 0.1627,0 0.22731,0.11084 0.14359,0.2463 -0.0837,0.13547 -0.0364,0.31787 0.10512,0.40535 0.14154,0.0875 0.1897,0.33534 0.10701,0.55082 -0.0827,0.21547 -0.0124,0.55795 0.15614,0.76105 0.3935,0.47414 0.2459,1.57479 -0.29347,2.18842 -0.23121,0.26305 -0.49835,0.77593 -0.59364,1.13973 -0.16761,0.63994 -0.15975,0.63779 0.24174,-0.0661 0.49645,-0.87042 0.8138,-0.98311 0.37256,-0.13229 -1.46809,2.83082 -3.12442,4.30234 -4.49946,3.99739 -0.37551,-0.0833 -0.5098,-0.0503 -0.32909,0.0807 0.18229,0.1322 -0.22124,0.24403 -1.00166,0.27759 -0.8725,0.0375 -1.24881,-0.0379 -1.13205,-0.22678 0.116,-0.1877 -0.0256,-0.21935 -0.42054,-0.094 -0.44614,0.1416 -0.54307,0.10426 -0.3866,-0.14891 0.14847,-0.24025 0.0816,-0.28907 -0.23145,-0.16894 -0.24216,0.0929 -0.44028,0.0466 -0.44028,-0.10295 0,-0.14954 -0.11907,-0.19831 -0.26459,-0.10837 -0.14552,0.0899 -0.26458,0.0176 -0.26458,-0.16077 0,-0.17837 -0.0786,-0.24568 -0.17471,-0.14959 -0.0961,0.0961 -0.34235,-0.0647 -0.54727,-0.35721 -0.20491,-0.29255 -0.51324,-0.4513 -0.68519,-0.35277 -0.17194,0.0985 -0.22352,0.0809 -0.11463,-0.0392 0.1089,-0.1201 -0.085,-0.70474 -0.43095,-1.29919 -0.34592,-0.59445 -0.71206,-1.46641 -0.81366,-1.93769 -0.1016,-0.47127 -0.29462,-0.92478 -0.42895,-1.0078 -0.34722,-0.21459 -0.30352,-1.17804 0.0534,-1.17804 0.1907,0 0.23967,-0.28996 0.13628,-0.80691 -0.11476,-0.5738 -0.0731,-0.75234 0.14418,-0.61805 0.20362,0.12585 0.2492,0.042 0.13661,-0.25143 -0.0929,-0.24215 -0.0466,-0.44028 0.10295,-0.44028 0.14954,0 0.19831,-0.11906 0.10837,-0.26458 -0.0899,-0.14552 -0.0304,-0.26459 0.13229,-0.26459 0.1627,0 0.25538,-0.0893 0.20596,-0.19843 -0.0494,-0.10914 0.36028,-0.63265 0.91043,-1.16335 0.55015,-0.5307 1.00865,-0.88789 1.01887,-0.79375 0.0102,0.0941 0.12093,-0.067 0.24599,-0.35801 0.12507,-0.29104 0.22739,-1.30307 0.22739,-2.24896 0,-0.94588 -0.0809,-1.51586 -0.17984,-1.26661 -0.0989,0.24925 -0.17984,-7.09817 -0.17984,-16.32761 0,-9.22943 0.0809,-16.57711 0.17984,-16.32818 0.10112,0.25448 0.18798,-0.14306 0.19844,-0.90815 0.0133,-0.97203 -0.0936,-1.40381 -0.37425,-1.5115 -0.21606,-0.0829 -2.34499,-0.15299 -4.73095,-0.15574 l -4.33812,-0.005 -0.15306,3.23629 c -0.26134,5.52586 -0.16625,24.00609 0.12353,24.00609 0.14424,0 0.19374,0.11086 0.11,0.24636 -0.0837,0.13549 -0.16586,0.84987 -0.18248,1.5875 -0.0166,0.73762 -0.14074,1.34114 -0.27584,1.34114 -0.1351,0 -0.18093,0.10468 -0.10186,0.23263 0.0791,0.12795 -0.16825,0.54467 -0.54963,0.92604 -0.64259,0.6426 -0.97409,0.8048 -1.48114,0.72474 -0.10914,-0.0172 -0.19844,0.1046 -0.19844,0.27074 0,0.22171 -0.86212,0.24442 -3.24115,0.0854 -4.01505,-0.26843 -9.16674,-0.29156 -9.81172,-0.0441 -0.44342,0.17015 -0.47228,0.47257 -0.35226,3.69129 0.0742,1.98845 0.2388,3.48274 0.38041,3.45232 0.13733,-0.0295 0.5865,0.29792 0.99816,0.7276 0.41166,0.42968 0.65817,0.78124 0.54779,0.78124 -0.11038,0 -0.0225,0.17818 0.19525,0.39594 0.25652,0.25653 0.35541,0.72264 0.28085,1.3238 -0.0808,0.65154 -0.0158,0.90789 0.21827,0.86083 0.19923,-0.0401 0.29998,0.14589 0.2504,0.46214 -0.0456,0.29104 -0.0737,0.85349 -0.0625,1.24988 0.0145,0.5088 -0.0868,0.67954 -0.34438,0.5807 -0.27782,-0.10661 -0.34605,0.097 -0.28601,0.85368 0.0434,0.54652 -0.007,0.85551 -0.11093,0.68662 -0.12935,-0.20928 -0.29842,-0.1331 -0.53095,0.23924 -0.18764,0.30046 -0.21332,0.46728 -0.0571,0.3707 0.44906,-0.27753 0.33402,0.0739 -0.3112,0.95048 -0.55743,0.75735 -2.05052,1.77174 -2.05052,1.3931 0,-0.0943 -0.1635,-0.0358 -0.36334,0.13006 -0.19984,0.16585 -0.55702,0.22722 -0.79375,0.13638 -0.24403,-0.0936 -0.43041,-0.0331 -0.43041,0.13972 0,0.71314 -3.24589,-0.33108 -4.42358,-1.4231 -0.40171,-0.37249 -0.8279304,-0.67725 -0.9471404,-0.67725 -0.11922,0 -0.14266,-0.1199 -0.0521,-0.26645 0.0906,-0.14655 -0.0139,-0.335 -0.23227,-0.41877 -0.23265,-0.0893 -0.33049,-0.32548 -0.23639,-0.5707 0.11489,-0.2994 0.0609,-0.35679 -0.18987,-0.20181 -0.22821,0.14104 -0.2871,0.1141 -0.16884,-0.0772 0.0999,-0.1616 -7.9e-4,-0.73032 -0.2237,-1.26382 -0.47124,-1.12783 -0.53767,-2.75746 -0.11241,-2.75746 0.16109,0 0.22436,-0.17859 0.1406,-0.39687 -0.0838,-0.21829 -0.045,-0.39688 0.0862,-0.39688 0.13115,0 0.31375,-0.23722 0.40577,-0.52716 0.092,-0.28993 0.64896,-1.13649 1.2376404,-1.88122 0.94547,-1.19611 1.03606,-1.42929 0.77656,-1.99884 -0.16158,-0.35462 -0.29377,-1.78161 -0.29377,-3.17109 v -2.52632 l -4.8286504,0.15434 c -2.65575,0.0849 -5.48507004,0.20988 -6.28736004,0.27777 -1.66844996,0.14118 -3.10861996,-0.49028 -4.06777996,-1.78357 -0.66216,-0.89284 -0.80848,-4.01816 -0.20559,-4.39154 0.19433,-0.12035 0.32711,-0.32025 0.29506,-0.44422 -0.032,-0.12396 0.16112,-0.34878 0.42925,-0.49958 0.26813,-0.15081 0.64481,-0.41796 0.83707,-0.59368 0.19226,-0.17572 0.52471,-0.25228 0.73878,-0.17013 0.22401,0.086 0.39094,-0.003 0.39327,-0.20968 0.003,-0.28362 0.0489,-0.28841 0.21747,-0.0228 0.21466,0.33822 0.98142996,0.33522 1.52750996,-0.006 0.1616,-0.10097 0.37239,-0.10503 0.46841,-0.009 0.096,0.096 0.38052,0.20417 0.63222,0.24033 3.08493004,0.44322 6.28674004,0.5709 15.17514044,0.60512 l 10.48418,0.0404 0.16169,-0.60354 c 0.25945,-0.96845 0.1971,-4.22406 -0.0777,-4.05426 -0.14548,0.0899 -0.23971,-0.77527 -0.22985,-2.11042 0.009,-1.24454 -0.0684,-2.34788 -0.17249,-2.45187 -0.10406,-0.10399 -9.2056,-0.18907 -20.2256604,-0.18907 H -14.018047 l -0.0121,10.58704 c -0.007,5.82287 -0.0984,10.85897 -0.20385,11.19134 -0.17195,0.54175 0.277,1.56494 0.56172,1.28022 0.16344,-0.16344 1.8356,1.52228 1.73204,1.74609 -0.0505,0.10914 0.0413,0.19843 0.20399,0.19843 0.1627,0 0.23535,0.0978 0.16145,0.21741 -0.0739,0.11958 0.0267,0.52788 0.22358,0.90734 0.19686,0.37946 0.32451,0.72811 0.28365,0.77478 -0.0408,0.0467 -0.14557,0.7607 -0.2327,1.58675 -0.22139,2.09884 -0.24718,2.1791 -0.76886,2.39297 -0.25584,0.10489 -0.60628,0.52161 -0.77876,0.92604 -0.17248,0.40444 -0.49893,0.96416 -0.72545,1.24384 -0.35062,0.43288 -0.35285,0.4753 -0.015,0.28525 0.25566,-0.14381 0.21954,-0.021 -0.10151,0.34515 -0.27411,0.31263 -0.60153,0.50466 -0.7276,0.42675 -0.12607,-0.0779 -0.22922,-0.0285 -0.22922,0.10984 0,0.32686 -1.16302,0.6511 -2.57446,0.71774 -0.70381,0.0332 -1.05744,-0.0472 -0.95272,-0.21659 0.10644,-0.17222 -0.0864,-0.20597 -0.5344,-0.0935 -0.43352,0.10881 -0.70092,0.0671 -0.70092,-0.10932 0,-0.15688 -0.10115,-0.22272 -0.22478,-0.14632 -0.28088,0.1736 -2.98266,-2.10373 -2.75999,-2.32639 0.0894,-0.0894 0.0166,-0.16255 -0.16175,-0.16255 -0.17836,0 -0.25071,-0.11906 -0.16078,-0.26458 0.0899,-0.14552 0.0176,-0.26459 -0.16077,-0.26459 -0.17836,0 -0.24595,-0.0783 -0.1502,-0.17409 0.0957,-0.0958 0.0425,-0.33272 -0.11846,-0.52659 -0.52974,-0.6383 -0.61143,-3.60147 -0.12521,-4.54172 0.23977,-0.46366 0.3549,-0.84301 0.25585,-0.84301 -0.0991,0 -0.001,-0.20836 0.21757,-0.46302 0.21872,-0.25466 0.47246,-0.67372 0.56387,-0.93125 0.0914,-0.25752 0.60525,-0.72727 1.14188,-1.04389 0.53663,-0.31661 0.86689,-0.61184 0.73391,-0.65606 -0.14179,-0.0472 -0.20639,-3.70245 -0.15621,-8.83946 0.0605,-6.19125 0.002,-8.7076 -0.19843,-8.58353 -0.38944,0.24068 -0.37655,-2.03858 0.0137,-2.42886 0.18281,-0.18281 0.22925,-0.66282 0.12031,-1.24354 l -0.17744,-0.94581 h -6.488 -6.488 l 0.18875,2.81769 c 0.14138,2.11057 0.11172,2.77009 -0.11818,2.628 -0.23103,-0.14278 -0.28969,1.99022 -0.2372,8.62554 0.0395,4.99513 0.17157,8.77677 0.30474,8.72649 0.12925,-0.0488 0.33326,0.0702 0.45337,0.26458 0.1201,0.19433 0.37154,0.35874 0.55874,0.36535 0.18721,0.007 0.30951,0.15876 0.27178,0.33809 -0.0377,0.17934 0.11042,0.39476 0.32921,0.47872 0.2188,0.084 0.33194,0.25924 0.25143,0.38952 -0.0805,0.13027 -0.0133,0.23685 0.14942,0.23685 0.1627,0 0.22223,0.11907 0.13229,0.26459 -0.0899,0.14552 -0.0412,0.26458 0.10838,0.26458 0.14954,0 0.20336,0.17859 0.1196,0.39688 -0.0838,0.21828 -0.0493,0.39687 0.0766,0.39687 0.45627,0 0.12421,3.51674 -0.46064,4.87854 -0.82938,1.93118 -3.15171,3.94613 -3.96722,3.44211 -0.13331,-0.0824 -0.24238,-0.0237 -0.24238,0.1304 0,0.35849 -1.76626,0.36854 -1.98704,0.0113 z m 77.57403,-6.65988 c -0.0845,-0.21106 -0.14716,-0.14837 -0.15985,0.15986 -0.0115,0.27891 0.051,0.43518 0.13896,0.34726 0.0879,-0.0879 0.0973,-0.31612 0.0209,-0.50712 z m 28.69168,-49.23345 c -0.26131,-0.25936 -0.2917,-0.22897 -0.14812,0.14812 0.0994,0.26093 0.24731,0.40778 0.32877,0.32632 0.0815,-0.0815 1.7e-4,-0.29496 -0.18065,-0.47444 z m -102.50782,-23.93534 c -0.0671,-0.25743 -0.12638,-0.11087 -0.13177,0.32569 -0.005,0.43657 0.0495,0.64719 0.12197,0.46806 0.0725,-0.17913 0.0769,-0.53632 0.01,-0.79375 z m 62.18666,-12.66645 c -0.0879,-0.0879 -0.31612,-0.0973 -0.50712,-0.0209 -0.21107,0.0845 -0.14837,0.14716 0.15985,0.15985 0.27892,0.0115 0.43519,-0.0511 0.34727,-0.13896 z M 6.4705426,282.55062 c 0.191,-0.0764 0.4192,-0.067 0.50712,0.0209 0.0879,0.0879 -0.0684,0.15045 -0.34726,0.13897 -0.30823,-0.0127 -0.37092,-0.0754 -0.15986,-0.15986 z M -40.269317,253.62719 c 0,-0.3638 0.0601,-0.51263 0.13345,-0.33073 0.0734,0.18191 0.0734,0.47956 0,0.66146 -0.0734,0.1819 -0.13345,0.0331 -0.13345,-0.33073 z m 79.79933,-3.62671 c 0.32912,-0.0633 0.80537,-0.0609 1.05833,0.005 0.25297,0.0662 -0.0163,0.118 -0.59839,0.11507 -0.58209,-0.003 -0.78906,-0.0571 -0.45994,-0.12041 z m -20.90517,-17.46209 c 0.32742,-0.0631 0.8632,-0.0631 1.19063,0 0.32742,0.0631 0.0595,0.11466 -0.59532,0.11466 -0.65484,0 -0.92273,-0.0516 -0.59531,-0.11466 z"
       id="path3" /><path
       style="fill:#d8617d;fill-opacity:1;stroke-width:0.946756"
       d="m 175.14199,190.94395 c -0.27646,-0.0464 -1.69013,-0.21293 -3.14151,-0.37003 -2.666,-0.28861 -4.67315,-0.60943 -6.28301,-1.00428 -1.00289,-0.24598 -2.47035,-0.56726 -4.64942,-1.01794 -0.82937,-0.17151 -1.63142,-0.40437 -1.78237,-0.51745 -0.15094,-0.11309 -0.33107,-0.14934 -0.40028,-0.0806 -0.19285,0.19158 -5.34399,-1.68862 -7.7445,-2.82678 -1.96085,-0.9297 -2.96972,-1.38257 -5.96887,-2.67936 -0.58747,-0.254 -1.06811,-0.55256 -1.06811,-0.66344 0,-0.11092 -0.14138,-0.2064 -0.31415,-0.21225 -0.1728,-0.006 -1.10581,-0.51225 -2.07339,-1.1254 -0.96759,-0.61312 -1.9289,-1.18905 -2.13623,-1.27982 -0.30983,-0.13564 -4.00021,-2.69458 -4.90074,-3.39821 -0.13823,-0.108 -0.73241,-0.53937 -1.3204,-0.95859 -0.58799,-0.4192 -1.00368,-0.86729 -0.92378,-0.99575 0.0799,-0.12846 0.032,-0.20269 -0.10696,-0.16496 -0.13873,0.0378 -0.43827,-0.15611 -0.66561,-0.43074 -0.22734,-0.27464 -0.32518,-0.33082 -0.21742,-0.12484 0.29981,0.57301 -1.48108,-0.97513 -1.9767,-1.7184 -0.23969,-0.35943 -0.52951,-0.6535 -0.64404,-0.6535 -0.11455,0 -0.78919,-0.48319 -1.49918,-1.07375 -0.90578,-0.7534 -1.24423,-1.19465 -1.13441,-1.47897 0.1163,-0.30109 0.0504,-0.36481 -0.25604,-0.24796 -0.22692,0.0867 -0.49021,0.0324 -0.58511,-0.12006 -0.10449,-0.16795 -0.0581,-0.20707 0.11762,-0.0992 0.16978,0.10426 0.29015,0.0236 0.29015,-0.19428 0,-0.20482 -0.21302,-0.43959 -0.47337,-0.52167 -0.55637,-0.17543 -2.03983,-1.53317 -2.03983,-1.86696 0,-0.12678 -0.3458,-0.47512 -0.76844,-0.77409 -0.42264,-0.29896 -0.70691,-0.60469 -0.63173,-0.67939 0.0752,-0.0746 -0.29197,-0.59778 -0.81586,-1.16243 -0.52391,-0.56465 -1.21917,-1.49789 -1.54504,-2.07387 -0.32584,-0.57598 -0.66845,-1.00058 -0.76136,-0.94355 -0.0929,0.057 -0.16889,-0.039 -0.16889,-0.21366 0,-0.38857 -1.105,-1.90774 -1.38765,-1.90774 -0.11222,0 -0.20405,-0.16853 -0.20405,-0.37453 0,-0.20596 -0.11977,-0.37449 -0.26616,-0.37449 -0.14637,0 -0.19575,-0.11315 -0.10973,-0.25143 0.086,-0.13831 -0.0198,-0.31861 -0.23504,-0.40069 -0.21531,-0.0821 -0.34884,-0.22173 -0.29676,-0.31033 0.20714,-0.35233 -0.3517,-1.31267 -0.66094,-1.1358 -0.17395,0.0995 -0.23596,0.0925 -0.1378,-0.0155 0.22461,-0.24734 -0.4779,-1.63126 -0.82806,-1.63126 -0.14283,0 -0.1898,-0.11235 -0.10437,-0.24968 0.0853,-0.13732 0.0289,-0.24967 -0.12565,-0.24967 -0.15455,0 -0.22168,-0.0954 -0.1492,-0.21185 0.0724,-0.11653 -0.0837,-0.44165 -0.34701,-0.72246 -0.26335,-0.28082 -0.41023,-0.57873 -0.32641,-0.662 0.0838,-0.0833 0.0137,-0.15141 -0.15562,-0.15141 -0.16942,0 -0.23814,-0.11236 -0.15271,-0.24967 0.0853,-0.13732 0.0289,-0.24968 -0.12566,-0.24968 -0.15454,0 -0.2111,-0.11235 -0.12567,-0.24967 0.0853,-0.13733 0.0288,-0.24968 -0.12565,-0.24968 -0.15455,0 -0.21109,-0.11236 -0.12567,-0.24967 0.0853,-0.13732 0.0289,-0.24968 -0.12566,-0.24968 -0.15454,0 -0.21108,-0.11235 -0.12566,-0.24967 0.0853,-0.13732 0.0289,-0.24968 -0.12565,-0.24968 -0.15455,0 -0.21109,-0.11235 -0.12566,-0.24967 0.0853,-0.13731 0.0289,-0.24967 -0.12566,-0.24967 -0.15454,0 -0.21109,-0.11237 -0.12567,-0.24968 0.0853,-0.13733 0.0355,-0.24967 -0.11083,-0.24967 -0.14638,0 -0.2669,-0.19662 -0.2678,-0.43693 -9.1e-4,-0.24032 -0.21734,-0.76197 -0.48097,-1.15923 -0.26362,-0.39726 -0.42042,-0.87477 -0.34844,-1.06111 0.072,-0.18635 0.006,-0.33883 -0.14734,-0.33883 -0.153,0 -0.2648,-0.0842 -0.24844,-0.18725 0.0163,-0.10299 0.008,-0.24344 -0.0188,-0.31209 -0.0266,-0.0686 -0.0993,-0.40084 -0.16176,-0.73819 -0.0624,-0.33734 -0.19529,-0.67439 -0.29547,-0.74902 -0.10014,-0.0746 -0.18564,-0.24803 -0.1899,-0.38535 -0.0193,-0.61718 -0.42651,-1.86687 -0.57817,-1.77386 -0.0924,0.0567 -0.18528,-0.13895 -0.20637,-0.43475 -0.0211,-0.2958 -0.18007,-0.87487 -0.35334,-1.28684 -0.17324,-0.41195 -0.32742,-0.86137 -0.3426,-0.9987 -0.10161,-0.91868 -0.74025,-2.87124 -0.93921,-2.87124 -0.1326,0 -0.17893,-0.0999 -0.10299,-0.22199 0.076,-0.12211 0.0235,-0.76814 -0.11636,-1.43563 -0.34008,-1.62188 -0.3521,-1.66353 -0.58826,-2.03927 -0.11281,-0.17945 -0.13573,-0.60078 -0.0509,-0.93628 0.0847,-0.33548 0.046,-0.60998 -0.0861,-0.60998 -0.13622,0 -0.17574,-0.3953 -0.0912,-0.91269 0.0999,-0.61226 0.0613,-0.8588 -0.11756,-0.74896 -0.17882,0.10978 -0.22223,-0.16524 -0.13179,-0.83503 0.0742,-0.54933 0.0351,-0.99877 -0.0868,-0.99877 -0.30453,0 -0.34013,-1.02829 -0.32848,-9.48762 0.011,-7.93833 0.0612,-9.37243 0.35216,-10.05313 0.1036,-0.24236 0.12968,-0.66369 0.0579,-0.93627 -0.0717,-0.27259 -0.0393,-0.49563 0.0721,-0.49563 0.11146,0 0.20994,-0.64602 0.21883,-1.43562 0.009,-0.7896 0.19654,-2.10975 0.417,-2.93367 0.22045,-0.823925 0.42775,-1.668561 0.46067,-1.876948 0.033,-0.208398 0.14599,-0.517363 0.25127,-0.686613 0.10528,-0.169229 0.12749,-0.410458 0.0494,-0.536043 -0.0782,-0.125597 -0.0259,-0.266836 0.11614,-0.313863 0.14203,-0.047 0.28409,-0.449641 0.31572,-0.894686 0.0316,-0.445055 0.12687,-0.809407 0.21164,-0.809681 0.16547,-5.29e-4 0.87221,-2.996553 0.78051,-3.308676 -0.0302,-0.10299 0.0304,-0.187258 0.13495,-0.187258 0.29354,0 0.8723,-1.454128 0.69328,-1.741885 -0.0872,-0.140529 -0.062,-0.255513 0.0567,-0.255513 0.26557,0 0.93738,-1.710679 0.90695,-2.309481 -0.0123,-0.240311 0.0829,-0.436929 0.21122,-0.436929 0.12838,0 0.16352,-0.112361 0.0781,-0.24968 -0.0853,-0.137322 -0.0392,-0.249672 0.10293,-0.249672 0.14206,0 0.19354,-0.167583 0.11442,-0.372412 -0.082,-0.212321 0.0288,-0.438213 0.25777,-0.52551 0.22088,-0.08416 0.34854,-0.238403 0.28368,-0.342658 -0.14656,-0.235573 0.68233,-1.995566 1.67506,-3.556687 0.41164,-0.647344 0.67606,-1.293377 0.58754,-1.435623 -0.0886,-0.142255 -0.0345,-0.258645 0.12009,-0.258645 0.15455,0 0.2003,-0.129715 0.1017,-0.288248 -0.0986,-0.158543 -0.074,-0.223504 0.055,-0.144368 0.48892,0.300184 1.37371,-0.696246 1.42547,-1.605302 0.0373,-0.656696 0.14556,-0.858703 0.40657,-0.759205 0.21443,0.08172 0.28845,0.02755 0.18641,-0.136404 -0.0931,-0.149587 0.009,-0.448707 0.22611,-0.664708 0.21744,-0.215993 0.31301,-0.525028 0.21241,-0.686742 -0.12056,-0.193817 -0.0509,-0.243735 0.20406,-0.146493 0.25844,0.09852 0.37648,0.0085 0.35537,-0.269666 -0.0173,-0.229449 0.11819,-0.386313 0.30125,-0.348575 0.18401,0.03793 0.25765,-0.05228 0.16469,-0.201669 -0.24535,-0.394379 1.08698,-2.295487 1.4597,-2.082882 0.16757,0.09558 0.22504,0.08597 0.12773,-0.02123 -0.20239,-0.223042 0.93469,-1.991208 1.31091,-2.038503 0.53089,-0.06672 0.55136,-0.105331 0.24827,-0.468135 -0.2254,-0.269829 -0.2318,-0.374508 -0.0228,-0.374508 0.15948,0 0.36188,-0.186172 0.44977,-0.413705 0.0878,-0.227534 0.64627,-0.918079 1.24085,-1.534547 0.59455,-0.616468 1.01056,-1.234134 0.92442,-1.372597 -0.0861,-0.138461 -0.0478,-0.184938 0.0852,-0.103282 0.13299,0.08163 0.46147,-0.150088 0.72995,-0.514979 1.04859,-1.425073 2.18873,-2.540771 2.43927,-2.386946 0.14453,0.08871 0.19191,0.04747 0.10527,-0.09182 -0.0866,-0.139244 0.15038,-0.539465 0.52665,-0.889371 0.37628,-0.349906 1.57984,-1.545408 2.6746,-2.656661 1.09475,-1.111253 2.13827,-2.02046 2.31892,-2.02046 0.18065,0 0.51371,-0.280887 0.74013,-0.624188 0.22644,-0.3433 0.57189,-0.624187 0.76767,-0.624187 0.19577,0 0.42104,-0.168526 0.50061,-0.374516 0.0796,-0.20598 0.2966,-0.374507 0.48227,-0.374507 0.18568,0 0.4382,-0.178595 0.56117,-0.396882 0.12297,-0.218283 0.29942,-0.384535 0.3921,-0.369457 0.32469,0.05284 1.55246,-0.687931 2.29949,-1.387411 0.41467,-0.388285 0.84291,-0.708559 0.95162,-0.711741 0.10872,-0.0028 0.291,-0.155806 0.40507,-0.339184 0.1141,-0.18338 0.2808,-0.32154 0.37045,-0.307028 0.24269,0.03926 1.60699,-0.692346 1.70581,-0.914765 0.0471,-0.105878 0.67358,-0.461852 1.39229,-0.791053 0.71871,-0.329202 1.3682,-0.757649 1.4433,-0.952105 0.0751,-0.194449 0.24252,-0.288513 0.372,-0.209019 0.12948,0.07955 0.78057,-0.168809 1.44687,-0.5518 1.26121,-0.72495 5.0927,-2.636948 5.42106,-2.705239 0.10367,-0.02152 0.27332,-0.06652 0.37699,-0.09998 0.10366,-0.0334 0.2733,-0.04747 0.37697,-0.03123 0.10368,0.01623 0.18849,-0.08276 0.18849,-0.220106 0,-0.13732 0.28274,-0.249682 0.62831,-0.249682 0.34556,0 0.6283,-0.108821 0.6283,-0.241838 0,-0.133008 0.15506,-0.18272 0.34457,-0.110472 0.18952,0.07228 0.50052,-0.01558 0.69112,-0.195091 0.19063,-0.179549 0.57275,-0.365769 0.84921,-0.413829 0.27645,-0.04803 0.55919,-0.160411 0.6283,-0.249671 0.0691,-0.08927 0.4084,-0.193703 0.75396,-0.232083 0.34555,-0.03841 0.66389,-0.172508 0.70737,-0.29806 0.0435,-0.125562 0.2414,-0.166413 0.43981,-0.09078 0.19841,0.07567 0.36074,0.03719 0.36074,-0.08539 0,-0.122589 0.19793,-0.230326 0.43982,-0.239432 0.75684,-0.02849 4.95543,-1.202864 5.12397,-1.433236 0.0883,-0.12058 0.29108,-0.139001 0.45082,-0.04095 0.15973,0.09808 0.44968,0.047 0.64433,-0.113474 0.19466,-0.160486 0.58553,-0.218767 0.86863,-0.129506 0.28307,0.08926 0.5147,0.06643 0.5147,-0.05068 0,-0.21367 0.25224,-0.257909 1.8856,-0.330702 0.48416,-0.02161 0.94436,-0.142189 1.02265,-0.268016 0.0782,-0.125826 0.24696,-0.164534 0.37485,-0.08598 0.1279,0.07851 1.10966,0.02841 2.1817,-0.111437 1.07202,-0.13981 3.09457,-0.312848 4.49454,-0.384528 1.39996,-0.07171 2.75709,-0.198836 3.01585,-0.282567 0.35064,-0.113464 0.38332,-0.0904 0.12828,0.09049 -0.22747,0.161382 0.80435,0.232034 3.07873,0.210811 1.88147,-0.01754 3.42084,0.02792 3.42083,0.100991 -2e-5,0.07313 0.95487,0.15758 2.12202,0.187731 2.58149,0.06672 8.25485,1.078592 10.79324,1.925122 1.02405,0.341518 2.12777,0.669785 2.45273,0.729489 0.32494,0.05973 0.61909,0.130952 0.65365,0.158326 0.0346,0.02737 0.14764,0.07352 0.25131,0.102538 0.10366,0.02906 0.37757,0.135979 0.60868,0.237696 0.23109,0.101703 0.62691,0.223844 0.87962,0.271423 0.25268,0.04757 0.45944,0.103697 0.45944,0.124712 0,0.02105 0.16963,0.07578 0.37697,0.121627 0.6824,0.151022 3.86496,1.404068 5.52906,2.176909 0.89845,0.417271 2.16902,0.997722 2.82344,1.289884 0.65443,0.292164 1.19162,0.622093 1.19377,0.73319 0.002,0.111095 0.10515,0.13983 0.22889,0.06388 0.12374,-0.07597 0.28983,0.02972 0.3691,0.234941 0.0791,0.205187 0.36576,0.373071 0.63668,0.373071 0.27092,0 0.67029,0.176558 0.8875,0.392351 0.21722,0.215785 0.39494,0.324193 0.39494,0.240887 0,-0.15054 0.19029,-0.05077 1.63359,0.85624 0.41468,0.260599 1.19113,0.711173 1.72548,1.001261 0.53433,0.290097 1.12415,0.662915 1.31071,0.828498 0.82767,0.734593 1.10609,0.925229 1.35131,0.925229 0.14405,0 0.26192,0.112351 0.26192,0.249672 0,0.13732 0.16322,0.24968 0.36273,0.24968 0.1995,0 0.51051,0.198347 0.69113,0.44077 0.18062,0.242424 0.61115,0.568899 0.95671,0.725489 0.69304,0.314056 1.51364,0.909632 2.43516,1.767411 0.33195,0.30897 0.66796,0.561764 0.74671,0.561764 0.15607,0 0.73717,0.524831 2.84981,2.573884 0.76025,0.73735 1.50862,1.386788 1.66307,1.443191 0.41573,0.151834 3.37774,3.424708 4.63346,5.119759 0.60071,0.81088 1.23268,1.616276 1.40438,1.789757 0.17169,0.17349 1.30083,1.746443 2.50919,3.495443 1.20837,1.749 2.31761,3.262551 2.46497,3.363436 0.14736,0.1009 0.17541,0.185154 0.0624,0.187259 -0.11307,0.0018 0.0283,0.330136 0.31415,0.72897 0.28586,0.398833 0.51976,0.809548 0.51976,0.912708 0,0.10316 0.269,0.537947 0.59779,0.966193 0.71961,0.937283 4.67994,8.908264 4.67994,9.419364 0,0.198234 0.0994,0.467174 0.22082,0.597624 0.66556,0.714891 4.01124,11.66498 4.19189,13.71959 0.0482,0.54929 0.20894,1.84136 0.35698,2.87125 0.88944,6.18783 1.04016,14.14994 0.36861,19.4746 -0.2165,1.7165 -0.49519,3.94277 -0.61936,4.94726 -0.12416,1.00447 -0.33468,2.18418 -0.46784,2.62158 -0.13316,0.43739 -0.36894,1.49977 -0.52395,2.36083 -0.15499,0.86108 -0.79429,2.99579 -1.42064,4.74382 -0.62635,1.74803 -1.20167,3.45911 -1.27851,3.80241 -0.0769,0.3433 -0.2716,0.79273 -0.43285,0.9987 -0.16125,0.20596 -0.54868,1.04862 -0.86096,1.87256 -0.31227,0.82391 -0.9423,2.28453 -1.40009,3.24576 -0.45778,0.96126 -0.83759,1.84752 -0.84402,1.96948 -0.007,0.12197 -0.11753,0.2905 -0.24689,0.37451 -0.29529,0.19176 -1.33582,1.83573 -2.34799,3.70965 -0.42678,0.79013 -0.97541,1.66131 -1.2192,1.93595 -0.24378,0.27462 -1.04669,1.39815 -1.78427,2.49673 -2.07957,3.09744 -5.10112,6.67569 -8.42067,9.97217 -3.143,3.12114 -6.36314,5.88214 -6.86033,5.88214 -0.15739,0 -0.28616,0.0899 -0.28616,0.19966 0,0.26272 -4.11748,3.09134 -5.96417,4.09726 -0.79738,0.43437 -2.08042,1.19009 -2.85118,1.67943 -4.03013,2.55863 -12.26006,5.85519 -18.38815,7.36552 -6.18483,1.52431 -9.61042,1.94007 -16.65192,2.02105 -3.59389,0.0414 -6.76051,0.0372 -7.03698,-0.0102 z m 12.18905,-7.01346 c 3.74126,-0.37982 5.49796,-0.66229 9.04754,-1.45482 1.91584,-0.42776 7.86792,-2.35559 9.67581,-3.13396 1.40652,-0.60554 5.28575,-2.40864 5.98006,-2.77958 0.24806,-0.13253 1.09626,-0.58517 1.88492,-1.00586 3.76882,-2.0105 8.96027,-5.81272 13.12028,-9.60936 0.62203,-0.56768 1.42482,-1.29855 1.78397,-1.62416 1.45459,-1.31864 8.26886,-9.63231 8.26886,-10.0883 0,-0.13717 1.29179,-2.15797 1.51068,-2.36324 0.0731,-0.0686 0.27765,-0.40572 0.4543,-0.74902 0.17664,-0.34331 0.58249,-1.0736 0.90189,-1.62288 0.31939,-0.5493 0.53343,-1.08296 0.47566,-1.18596 -0.0577,-0.10299 0.0336,-0.18725 0.203,-0.18725 0.16942,0 0.23441,-0.0731 0.1444,-0.16258 -0.09,-0.0894 -0.002,-0.28602 0.19671,-0.43691 0.37868,-0.28834 2.79555,-5.61894 3.80343,-8.38878 0.32477,-0.89259 0.6021,-1.6229 0.61624,-1.6229 0.0141,0 0.0605,-0.17498 0.10283,-0.38884 0.0423,-0.21387 0.32531,-1.33741 0.62869,-2.49675 0.67265,-2.57064 1.49549,-6.29152 1.65321,-7.47589 0.064,-0.48062 0.22338,-1.37945 0.35415,-1.99738 0.3814,-1.80225 0.57356,-4.84981 0.55236,-8.76071 -0.0328,-6.05073 -0.63482,-10.76206 -2.075,-16.23851 -0.30236,-1.149746 -0.5782,-2.315157 -0.61297,-2.589798 -0.10549,-0.832951 -1.83534,-5.82795 -2.22642,-6.428838 -0.2012,-0.309121 -0.58713,-1.123804 -0.85761,-1.810414 -0.90386,-2.294392 -2.609,-5.679872 -3.72026,-7.386464 -0.60499,-0.929092 -1.09997,-1.743791 -1.09997,-1.81046 0,-0.162827 -2.60321,-4.136051 -3.18366,-4.859151 -0.25328,-0.31551 -0.68667,-0.837123 -0.96314,-1.159144 -0.27645,-0.322011 -0.99617,-1.271664 -1.59937,-2.110333 -0.6032,-0.838669 -1.19695,-1.524855 -1.31943,-1.524855 -0.12249,0 -0.2227,-0.168527 -0.2227,-0.374516 0,-0.205981 -0.0848,-0.375744 -0.18849,-0.377262 -0.10366,-0.0018 -0.7623,-0.535192 -1.46361,-1.185953 -0.7013,-0.650761 -1.05284,-1.01467 -0.78118,-0.808689 0.47165,0.357634 0.47827,0.349198 0.14655,-0.18725 -0.19105,-0.308978 -0.50724,-0.561774 -0.70262,-0.561774 -0.19539,0 -0.74317,-0.450206 -1.21726,-1.000468 -0.47411,-0.550262 -0.96065,-0.939913 -1.08118,-0.865902 -0.12053,0.07398 -0.40615,-0.148937 -0.63468,-0.495436 -0.22854,-0.3465 -0.53372,-0.557424 -0.67818,-0.468722 -0.14458,0.0888 -0.18864,0.04228 -0.098,-0.103433 0.13549,-0.217786 -2.18167,-2.136736 -2.60021,-2.153373 -0.0691,-0.0028 -0.31983,-0.235555 -0.55712,-0.517338 -0.2373,-0.281793 -0.43522,-0.419463 -0.43981,-0.305932 -0.005,0.113522 -0.28978,-0.125846 -0.63375,-0.531946 -0.34396,-0.40609 -1.05079,-0.936102 -1.57074,-1.177789 -0.51996,-0.241697 -1.24088,-0.645032 -1.60205,-0.896318 -0.36116,-0.251275 -0.72873,-0.385283 -0.81679,-0.297788 -0.088,0.08748 -0.16013,0.03869 -0.16013,-0.108481 0,-0.309301 -3.91098,-2.645318 -4.4288,-2.645318 -0.19045,0 -0.34628,-0.08078 -0.34628,-0.179606 0,-0.266042 -1.72937,-1.033344 -1.98091,-0.878906 -0.11885,0.07294 -0.47148,-0.08739 -0.78362,-0.356303 -0.31213,-0.268942 -0.66601,-0.428513 -0.78638,-0.354597 -0.12041,0.07389 -0.2189,0.0085 -0.2189,-0.144755 0,-0.153524 -0.11309,-0.209708 -0.25132,-0.124836 -0.13824,0.08483 -0.25132,0.05219 -0.25132,-0.07266 0,-0.230561 -2.88411,-1.538574 -3.63337,-1.647821 -0.2253,-0.03284 -0.6448,-0.259759 -0.93223,-0.50425 -0.33016,-0.28084 -0.78885,-0.405713 -1.24567,-0.339101 -0.39767,0.05804 -0.72306,5.1e-4 -0.72306,-0.127723 0,-0.128223 -0.16964,-0.16847 -0.37698,-0.08946 -0.20733,0.07907 -0.37696,0.02179 -0.37696,-0.127241 0,-0.149031 -0.2261,-0.212228 -0.50241,-0.140443 -0.27632,0.07181 -0.57049,0.02104 -0.65372,-0.112739 -0.0833,-0.13379 -0.29848,-0.187155 -0.47832,-0.118598 -0.17985,0.06861 -0.39786,0.05427 -0.4845,-0.0318 -0.0866,-0.08606 -0.29559,-0.186551 -0.46437,-0.223306 -0.6774,-0.147539 -1.08116,-0.268166 -1.4966,-0.447131 -0.23967,-0.103243 -0.80514,-0.204478 -1.2566,-0.224965 -0.45147,-0.02048 -0.8774,-0.1 -0.94652,-0.176698 -0.20982,-0.232856 -3.52274,-0.761272 -3.7805,-0.603004 -0.13234,0.08125 -0.24062,0.02011 -0.24062,-0.1358 0,-0.168045 -0.33419,-0.254937 -0.82041,-0.213322 -0.45122,0.0386 -0.98842,-0.03538 -1.19378,-0.164563 -0.55754,-0.350604 -11.88189,-0.437157 -11.66541,-0.08917 0.11433,0.183786 -0.003,0.220436 -0.35195,0.110294 -0.62301,-0.19643 -4.57053,0.303619 -4.96513,0.628953 -0.15156,0.124968 -0.33902,0.164185 -0.41657,0.0872 -0.21093,-0.209548 -4.21086,0.693498 -4.21086,0.950671 0,0.122043 -0.0955,0.163299 -0.21209,0.09173 -0.19922,-0.122326 -1.71687,0.192636 -2.55244,0.529718 -0.20734,0.0836 -0.43352,0.163496 -0.50264,0.177464 -0.0691,0.01396 -0.25692,0.108358 -0.41736,0.209773 -0.16044,0.101406 -0.58454,0.208461 -0.94246,0.237886 -0.35791,0.02944 -0.65074,0.137829 -0.65074,0.240885 0,0.103066 -0.16965,0.122712 -0.37699,0.04368 -0.20734,-0.07907 -0.37697,-0.01274 -0.37697,0.147409 0,0.160117 -0.10529,0.226485 -0.23397,0.147472 -0.12867,-0.07898 -0.30612,-0.02764 -0.39434,0.114183 -0.0883,0.141792 -0.26565,0.193174 -0.39434,0.114172 -0.12867,-0.07899 -0.23396,-0.02822 -0.23396,0.112927 0,0.141113 -0.16965,0.191901 -0.37698,0.112861 -0.20734,-0.07907 -0.37697,-0.01274 -0.37697,0.147406 0,0.160119 -0.0929,0.234064 -0.20652,0.164329 -0.11358,-0.06973 -0.48114,0.01151 -0.81679,0.180614 -0.33565,0.169073 -1.09093,0.462191 -1.67839,0.651365 -0.58747,0.189182 -1.06812,0.444968 -1.06812,0.568417 0,0.123439 -0.11308,0.155004 -0.25131,0.07012 -0.13824,-0.08483 -0.25133,-0.02868 -0.25133,0.124845 0,0.153523 -0.11309,0.209697 -0.25132,0.124835 -0.13822,-0.08482 -0.25132,-0.01661 -0.25132,0.151711 0,0.16831 -0.0708,0.235648 -0.15743,0.149626 -0.0866,-0.08606 -0.73688,0.160033 -1.44509,0.546788 -0.70822,0.386755 -1.60155,0.778324 -1.98519,0.87016 -0.38363,0.09182 -0.9114,0.37946 -1.17283,0.639162 -0.26142,0.259702 -0.54126,0.406658 -0.6219,0.326551 -0.0807,-0.08011 -0.1466,-0.0076 -0.1466,0.160374 0,0.168319 -0.10898,0.239121 -0.24216,0.157344 -0.13318,-0.08171 -0.47246,0.08011 -0.75396,0.359776 -0.28149,0.27965 -0.51181,0.439354 -0.51181,0.354907 0,-0.219645 -1.25961,0.60422 -2.0734,1.35612 -0.38012,0.351218 -0.69473,0.533286 -0.69911,0.40461 -0.005,-0.128685 -0.17891,-0.0094 -0.38781,0.265374 -0.20889,0.274649 -0.42473,0.443176 -0.47963,0.374516 -0.14441,-0.180606 -4.4023,2.994592 -4.4023,3.282895 0,0.133111 -0.10738,0.176085 -0.23863,0.0955 -0.13125,-0.08059 -0.48852,0.189259 -0.79393,0.599653 -0.30541,0.410384 -0.63665,0.696217 -0.73608,0.635172 -0.0994,-0.06106 -0.70798,0.448952 -1.35235,1.133334 -0.64438,0.684383 -1.28017,1.244326 -1.41286,1.244326 -0.13269,0 -0.24124,0.106794 -0.24124,0.237309 0,0.130517 -0.73511,0.939508 -1.63358,1.797759 -0.89847,0.85825 -1.63359,1.685332 -1.63359,1.837968 0,0.152636 -0.34816,0.533257 -0.77371,0.845813 -0.42554,0.312557 -0.70901,0.632576 -0.6299,0.711163 0.0791,0.07861 -0.0816,0.29976 -0.35723,0.491519 -0.27558,0.191751 -0.50104,0.459531 -0.50104,0.595057 0,0.135529 -0.28274,0.549338 -0.6283,0.91957 -0.34557,0.370241 -0.6283,0.814748 -0.6283,0.987803 0,0.173048 -0.10766,0.314643 -0.23926,0.314643 -0.13157,0 -0.58938,0.505588 -1.01734,1.123528 -0.42796,0.617952 -0.69452,1.12354 -0.59234,1.12354 0.10222,0 -0.0338,0.164959 -0.30207,0.366571 -0.26832,0.201611 -0.38142,0.370146 -0.25134,0.374506 0.13011,0.0047 0.0169,0.172906 -0.25131,0.374516 -0.26831,0.201611 -0.37475,0.371864 -0.23653,0.378339 0.15412,0.0076 0.14771,0.08267 -0.0165,0.195194 -0.47361,0.324267 -1.85397,2.486369 -1.69085,2.648413 0.0867,0.08616 0.0191,0.156598 -0.15042,0.156598 -0.16941,0 -0.23813,0.112351 -0.1527,0.249671 0.0853,0.137322 0.0561,0.249681 -0.0652,0.249681 -0.3121,0 -2.12559,3.455338 -1.9563,3.727449 0.0769,0.123581 0.0543,0.262373 -0.0503,0.308432 -0.3479,0.153287 -1.34547,2.214305 -1.19154,2.46175 0.0834,0.133961 0.0499,0.243575 -0.0744,0.243575 -0.29408,0 -0.85446,1.22318 -0.68511,1.495422 0.0717,0.115305 0.027,0.247332 -0.0994,0.29339 -0.12643,0.04605 -0.26849,0.308453 -0.31571,0.583092 -0.0473,0.274641 -0.23373,0.654271 -0.41446,0.843633 -0.18073,0.189353 -0.26685,0.504165 -0.19137,0.699566 0.0755,0.195413 0.033,0.291259 -0.0945,0.212992 -0.12747,-0.07823 -0.22217,0.192893 -0.21044,0.602568 0.0117,0.409677 -0.1079,0.899545 -0.26583,1.088587 -0.15792,0.189041 -0.21273,0.417641 -0.12177,0.507996 0.091,0.0904 0.0479,0.164281 -0.0958,0.164281 -0.21558,0 -0.611,1.371049 -0.68408,2.37191 -0.0102,0.137331 -0.11978,0.322771 -0.24392,0.412096 -0.12413,0.08929 -0.25313,0.538725 -0.28666,0.998686 -0.0336,0.459949 -0.1355,1.016139 -0.22662,1.235979 -0.0911,0.21982 -0.14005,0.50068 -0.10876,0.62418 0.0314,0.12348 -0.0814,0.70458 -0.25006,1.29138 -0.16883,0.58678 -0.23869,1.17663 -0.15523,1.31078 0.0835,0.13416 0.052,0.24393 -0.0697,0.24393 -0.27655,0 -0.92838,4.58568 -0.7262,5.10906 0.0815,0.21107 0.0359,0.38376 -0.10136,0.38376 -0.27909,0 -0.33901,1.60672 -0.3245,8.7001 0.006,2.65659 0.1121,4.90366 0.23706,4.9935 0.12494,0.0899 0.25427,0.78127 0.2874,1.53653 0.0332,0.75527 0.13418,1.54175 0.22457,1.74772 0.0905,0.20599 0.13957,0.6835 0.10932,1.06113 -0.0301,0.37764 0.0508,0.6866 0.18039,0.6866 0.12948,0 0.18137,0.28089 0.11531,0.62419 -0.073,0.37948 -0.005,0.62417 0.17535,0.62417 0.16249,0 0.2263,0.11117 0.14177,0.24703 -0.20407,0.32803 0.3816,3.24842 0.65147,3.24842 0.1159,0 0.15003,0.15715 0.0758,0.34926 -0.0742,0.19209 -0.0123,0.42457 0.13765,0.51659 0.14991,0.092 0.21336,0.26252 0.14099,0.37883 -0.0723,0.1163 -2e-5,0.52986 0.16075,0.91901 0.16079,0.38917 0.31399,0.81991 0.3405,0.95723 0.0265,0.13732 0.0795,0.33395 0.11789,0.43694 0.0383,0.103 0.098,0.29961 0.13253,0.43693 0.0346,0.13732 0.0911,0.30585 0.12566,0.3745 0.0346,0.0686 0.0911,0.23721 0.12565,0.37452 0.0346,0.13733 0.0853,0.27776 0.11292,0.3121 0.0276,0.0344 0.10105,0.33842 0.16344,0.67576 0.0624,0.33733 0.19529,0.6744 0.29547,0.74901 0.10014,0.0747 0.22172,0.3604 0.27009,0.63504 0.0483,0.27464 0.16146,0.55552 0.25132,0.62418 0.0899,0.0686 0.2005,0.33826 0.24586,0.59913 0.0453,0.26085 0.24432,0.63506 0.44212,0.83156 0.19779,0.19651 0.29538,0.46058 0.21683,0.58684 -0.0785,0.12624 -0.0163,0.22954 0.13817,0.22954 0.15456,0 0.21109,0.11237 0.12566,0.24967 -0.0853,0.13733 -0.0166,0.24968 0.15274,0.24968 0.16941,0 0.23787,0.0697 0.15213,0.15488 -0.181,0.1798 1.28314,3.17475 1.61301,3.29947 0.12182,0.046 0.15755,0.18649 0.0793,0.31209 -0.0781,0.12559 -0.031,0.22835 0.1046,0.22835 0.13566,0 0.3773,0.39323 0.53698,0.87385 0.15965,0.48062 0.38236,0.87387 0.49487,0.87387 0.11252,0 0.27555,0.28089 0.36229,0.62419 0.0867,0.3433 0.26863,0.62418 0.40422,0.62418 0.13558,0 0.24653,0.14734 0.24653,0.32742 0,0.18009 0.21937,0.56138 0.4875,0.84729 0.26812,0.28592 0.42158,0.58534 0.34102,0.66538 -0.0806,0.0801 0.0386,0.21613 0.26499,0.30242 0.22634,0.0864 0.34846,0.25826 0.27138,0.38214 -0.0771,0.12391 0.0359,0.29244 0.25131,0.37453 0.21533,0.0821 0.3289,0.24982 0.25242,0.37275 -0.0765,0.12294 -0.0194,0.22351 0.12711,0.22351 0.14639,0 0.26616,0.1565 0.26616,0.34779 0,0.19129 0.16963,0.41248 0.37697,0.49152 0.20734,0.079 0.37698,0.31577 0.37698,0.52607 0,0.21027 0.11977,0.38233 0.26616,0.38233 0.14639,0 0.20104,0.10467 0.12145,0.23262 -0.0795,0.12791 0.10856,0.4088 0.41806,0.62416 0.30953,0.21537 0.46243,0.39161 0.33979,0.39161 -0.12264,0 0.30507,0.51719 0.95048,1.14931 0.64542,0.63212 1.36699,1.47478 1.60352,1.87256 0.23653,0.39777 0.52542,0.72324 0.64201,0.72324 0.11659,0 0.15238,0.0957 0.0795,0.21279 -0.121,0.19451 3.13737,3.53231 3.44827,3.53231 0.0741,0 0.96325,0.81982 1.97589,1.82181 2.17117,2.14827 6.60606,5.66842 7.14143,5.66842 0.0692,0 0.96707,0.56395 1.99523,1.25319 1.84179,1.23469 3.06815,1.88396 7.53245,3.98791 1.24402,0.58629 2.71425,1.29021 3.26715,1.56426 0.55291,0.27405 1.34457,0.58875 1.75925,0.69932 0.41468,0.11058 1.26289,0.38725 1.8849,0.61481 4.04599,1.4802 12.1256,3.12687 17.07735,3.48047 1.16811,0.0834 2.16857,0.19612 2.22329,0.25049 0.18125,0.18007 5.64559,-0.11252 9.60121,-0.51413 z M 173.2571,167.59962 c -1.58962,-0.26699 -3.39913,-0.60683 -4.02113,-0.75519 -0.62203,-0.14835 -1.58333,-0.36747 -2.13623,-0.48692 -3.15182,-0.68096 -5.44107,-1.55979 -9.87933,-3.79267 -2.16881,-1.09113 -4.59374,-2.48296 -5.38873,-3.09298 -0.79498,-0.61002 -1.50641,-1.10911 -1.58093,-1.10911 -0.27344,0 -1.80741,-1.1737 -4.13626,-3.16487 -7.88492,-6.74149 -13.12189,-14.8434 -16.22297,-25.09793 -1.51335,-5.00433 -2.24374,-13.50749 -1.63634,-19.05048 1.14358,-10.43632 4.66747,-19.651318 9.92965,-25.966135 0.57215,-0.686602 1.45223,-1.810131 1.95571,-2.496741 2.34645,-3.199807 7.41501,-7.487398 13.07391,-11.059447 8.61192,-5.43608 17.33851,-8.041867 26.92404,-8.039631 4.81213,9.44e-4 7.25357,0.316434 12.50758,1.615332 5.9103,1.461158 10.81955,3.705632 16.80116,7.681385 5.34121,3.550098 8.16506,6.100882 11.93773,10.783343 4.22257,5.240906 8.29355,13.321341 9.77211,19.396554 1.15268,4.73624 1.22092,5.33114 1.34212,11.6968 0.12457,6.54151 0.0351,7.70983 -0.9607,12.54232 -1.13379,5.50225 -4.25794,12.805 -7.45559,17.42741 -4.31428,6.23661 -9.07603,11.00388 -14.64515,14.66212 -5.15978,3.38935 -11.42684,6.20849 -16.20069,7.28761 -5.17042,1.16876 -6.35493,1.3114 -11.68639,1.4074 -4.51524,0.0813 -5.87847,0.0174 -8.29357,-0.38817 z m 13.52775,-6.75443 c 1.89001,-0.2825 3.77564,-0.61495 4.19032,-0.73876 4.00392,-1.19541 5.53423,-1.77948 8.79622,-3.35725 6.56044,-3.17314 12.53385,-8.04268 16.77984,-13.67899 1.11206,-1.47618 2.13624,-2.684 2.27595,-2.684 0.1397,0 0.18305,-0.0704 0.0964,-0.15658 -0.0867,-0.0863 0.15425,-0.61982 0.53545,-1.18596 0.38118,-0.56615 1.25319,-2.22541 1.9378,-3.68726 0.68463,-1.46183 1.34705,-2.59611 1.47207,-2.52058 0.12503,0.0755 0.1603,0.0296 0.0783,-0.10217 -0.082,-0.13171 0.1713,-1.18832 0.56275,-2.34807 2.64562,-7.83832 2.99156,-17.84076 0.89329,-25.82769 -0.8941,-3.40333 -2.30713,-7.024589 -3.82718,-9.808016 -1.75992,-3.22268 -5.45856,-8.082399 -8.14936,-10.707579 -3.58948,-3.501935 -5.61146,-5.051437 -9.76516,-7.483303 -6.78915,-3.974844 -17.21115,-6.700836 -23.74978,-6.212025 -6.45631,0.482659 -11.63115,1.925388 -17.9549,5.005795 -4.0567,1.976081 -5.63528,2.982125 -9.51653,6.064919 -5.38143,4.274352 -10.95013,11.973656 -13.48789,18.648449 -1.05231,2.7677 -2.34208,8.00799 -2.65988,10.8069 -0.47629,4.1948 -0.19501,10.79714 0.61675,14.47631 1.33956,6.07144 3.59926,11.21856 7.22894,16.46598 1.66953,2.41365 6.91584,7.90094 9.38487,9.81596 4.53779,3.51958 10.90739,6.80948 15.49629,8.00385 6.61511,1.72173 12.71197,2.11487 18.76541,1.21001 z m -22.13787,-18.06944 c -1.08997,-0.3864 -1.74199,-0.86211 -1.56705,-1.14331 0.0668,-0.10737 -0.0637,-0.26581 -0.29005,-0.3521 -0.22634,-0.0863 -0.33854,-0.22938 -0.24934,-0.31799 0.0893,-0.0887 -0.0196,-0.36052 -0.24149,-0.60425 -0.23506,-0.25804 -0.5065,-1.25725 -0.64986,-2.39217 -0.33079,-2.61897 -0.26065,-46.369243 0.0755,-47.102225 0.13647,-0.297541 0.94329,-0.988153 1.79295,-1.534696 1.22372,-0.787157 1.80523,-1.002318 2.79774,-1.035157 0.72173,-0.02388 1.48175,0.107482 1.79264,0.309858 0.29686,0.19323 0.61553,0.276036 0.70818,0.184011 0.0926,-0.09201 0.16841,-0.03624 0.16841,0.123958 0,0.160203 0.12196,0.291286 0.27102,0.291286 0.42789,0 5.25805,3.017436 5.25805,3.284735 0,0.132093 0.10116,0.17801 0.22497,0.102041 0.12376,-0.07597 0.28984,0.02972 0.36911,0.234942 0.0791,0.205187 0.32624,0.373072 0.54887,0.373072 0.33086,0 4.95311,2.775325 5.39207,3.237543 0.0695,0.07322 0.63496,0.402731 1.25661,0.732329 1.078,0.571567 6.78631,4.119803 10.3382,6.426123 0.91761,0.59582 1.87892,1.15703 2.13623,1.24711 0.25732,0.0901 0.80715,0.46955 1.22182,0.84322 0.61291,0.55229 3.64996,2.67881 6.747,4.72418 0.94478,0.62394 2.70547,2.36562 3.05136,3.01834 0.3445,0.6502 0.4108,4.54166 0.083,4.86741 -0.0939,0.0932 -0.11908,0.30355 -0.0559,0.46719 0.19028,0.49261 -1.51293,2.24312 -3.4505,3.54634 -1.00225,0.67409 -1.91771,1.22565 -2.03436,1.22565 -0.11664,0 -0.31932,0.16852 -0.45039,0.37451 -0.13107,0.20597 -0.24003,0.29127 -0.24215,0.18956 -0.004,-0.1992 -1.67574,0.78069 -4.24675,2.48946 -0.88221,0.58636 -1.70338,1.06608 -1.82482,1.06608 -0.41324,0 -6.33295,3.83748 -7.6653,4.96909 -0.15804,0.13423 -0.34701,0.18481 -0.4199,0.1124 -0.0729,-0.0724 -1.35726,0.64927 -2.85414,1.60376 -1.49687,0.95447 -3.23051,1.99169 -3.85255,2.30493 -0.62201,0.31323 -1.47021,0.82252 -1.88489,1.13176 -1.05424,0.78621 -4.69682,2.89717 -5.15207,2.98576 -0.20734,0.0404 -0.97659,0.47456 -1.70947,0.96491 -2.07566,1.38879 -3.60032,1.68575 -5.39271,1.05034 z m 4.59658,-8.51567 c 0.30681,-0.36727 1.74433,-1.20663 4.79794,-2.8015 0.77699,-0.40581 1.68174,-0.92632 2.01057,-1.15669 1.40579,-0.9849 2.46979,-1.61234 3.02231,-1.78227 0.32525,-0.10003 1.53008,-0.81348 2.67737,-1.58545 3.16704,-2.131 5.40502,-3.53264 5.89342,-3.69107 0.24191,-0.0785 0.43982,-0.24192 0.43982,-0.36323 0,-0.12129 0.14386,-0.22055 0.31973,-0.22055 0.17584,0 0.71303,-0.31552 1.19376,-0.70116 0.88606,-0.7108 3.40871,-2.29493 3.65457,-2.29493 0.17753,0 4.01743,-2.36072 5.13609,-3.15762 0.62267,-0.44356 0.8816,-0.82144 0.88644,-1.29366 0.009,-0.86405 -0.17948,-1.24285 -0.36433,-0.7328 -0.12811,0.35347 -0.24098,0.36026 -0.96194,0.058 -0.92897,-0.38959 -1.10541,-0.88051 -0.25132,-0.69925 0.55369,0.11748 0.55521,0.11172 0.0729,-0.27643 -0.53334,-0.42929 -1.05593,-0.38022 -0.94902,0.0892 0.0754,0.33094 -0.48939,0.0752 -1.32302,-0.59914 -0.50019,-0.40461 -0.50012,-0.40538 0.0135,-0.16055 0.2839,0.13531 0.66094,0.15714 0.83787,0.0485 0.2488,-0.15276 0.23097,-0.23209 -0.0787,-0.35015 -0.22021,-0.0839 -0.37106,-0.24002 -0.33522,-0.34684 0.0358,-0.10681 -0.048,-0.1942 -0.18615,-0.1942 -0.13823,0 -0.22026,0.0927 -0.18228,0.20581 0.038,0.11322 -0.0513,0.13183 -0.19871,0.0415 -0.14727,-0.0904 -0.20766,-0.40776 -0.1342,-0.70517 0.0734,-0.29742 0.0679,-0.39803 -0.0125,-0.2236 -0.10136,0.22029 -0.29877,0.12421 -0.64612,-0.31447 -0.63442,-0.80124 -0.99178,-0.60011 -0.70411,0.39633 0.18873,0.65376 0.16788,0.72271 -0.14141,0.46769 -0.19953,-0.1645 -0.31219,-0.38041 -0.25036,-0.4798 0.16646,-0.26756 -0.61904,-1.29119 -0.87175,-1.13603 -0.1192,0.0732 -0.28779,0.0189 -0.37461,-0.12066 -0.0868,-0.13957 -0.39122,-0.25375 -0.67644,-0.25375 -0.45524,0 -0.47645,0.0515 -0.17365,0.42105 0.18975,0.23163 -0.0979,0.12428 -0.63951,-0.23864 -0.54145,-0.36281 -1.07865,-0.60184 -1.19377,-0.53114 -0.11515,0.0706 -0.20935,0.0257 -0.20935,-0.0997 0,-0.2908 -2.24476,-1.69666 -2.56308,-1.60522 -0.13134,0.0378 -0.16717,-0.0465 -0.0795,-0.18724 0.14558,-0.23402 -0.19271,-0.36782 -0.70596,-0.27924 -0.11395,0.0197 -0.13175,-0.0855 -0.0397,-0.23368 0.11413,-0.18349 0.38063,-0.1409 0.83547,0.13347 l 0.66785,0.40289 -0.59318,-0.51405 c -0.36916,-0.31993 -0.82192,-0.47285 -1.19889,-0.40494 -0.33314,0.0599 -0.54811,0.0166 -0.4777,-0.0966 0.14492,-0.23293 -0.54255,-0.8696 -0.96863,-0.89704 -0.51388,-0.0331 -1.15837,-0.41383 -1.03531,-0.61165 0.0668,-0.10742 -0.0752,-0.17991 -0.3156,-0.16109 -0.24175,0.0191 -0.40624,-0.11355 -0.36804,-0.29641 0.038,-0.18188 -0.0467,-0.25963 -0.18805,-0.1728 -0.31308,0.19223 -1.38892,-0.51745 -1.38892,-0.9162 0,-0.15754 -0.16964,-0.33247 -0.37698,-0.3887 -0.33509,-0.0909 -0.33509,-0.0727 0,0.16263 0.20734,0.14568 0.28942,0.26656 0.18242,0.26867 -0.37701,0.008 -2.66682,-1.68929 -2.50148,-1.85354 0.0921,-0.0915 -0.0241,-0.0933 -0.25827,-0.004 -0.24754,0.0944 -0.79663,-0.0654 -1.31176,-0.38168 -0.4873,-0.29919 -0.88601,-0.45716 -0.88601,-0.35106 0,0.10611 -0.16604,-0.0252 -0.36899,-0.29172 -0.20294,-0.26657 -0.37258,-0.40576 -0.37697,-0.30933 -0.005,0.0965 -0.30495,-0.0981 -0.66791,-0.43224 -0.36297,-0.334178 -0.77627,-0.536159 -0.91846,-0.448862 -0.1489,0.09142 -0.18248,0.03649 -0.0791,-0.129502 0.0993,-0.159594 0.0382,-0.288265 -0.13709,-0.288265 -0.24611,0 -0.24939,-0.06649 -0.0148,-0.299607 0.16588,-0.164783 0.30159,-0.401945 0.30159,-0.527017 0,-0.125061 -0.23481,0.0379 -0.52179,0.362037 -0.28698,0.324179 -0.44996,0.448988 -0.36214,0.277333 0.14357,-0.280716 -0.15944,-0.427576 -0.69758,-0.338093 -0.10959,0.0182 -0.0808,-0.186841 0.0641,-0.455685 0.22367,-0.415198 0.18962,-0.474721 -0.22607,-0.395192 -0.34231,0.06551 -0.44789,-0.01375 -0.35133,-0.263768 0.088,-0.228001 -0.031,-0.364542 -0.32865,-0.377111 -0.26454,-0.01113 -0.33061,-0.07426 -0.15255,-0.145643 0.48957,-0.196251 0.369,-0.833348 -0.15771,-0.833348 -0.60737,0 -0.96075,-0.435598 -1.11403,-1.37321 -0.10309,-0.630519 -0.11772,-0.603012 -0.0925,0.173869 0.0164,0.507588 -0.0545,1.006676 -0.1575,1.109081 -0.10308,0.102415 0.12645,0.445084 0.5101,0.761489 0.656,0.541033 0.62679,0.537085 -0.49058,-0.06615 -0.65348,-0.352802 -1.30375,-0.570456 -1.4451,-0.483676 -0.14133,0.08681 -0.25524,0.572464 -0.25312,1.079325 0.003,0.686911 0.0658,0.826191 0.24746,0.547027 0.16333,-0.251064 0.23315,0.69535 0.21182,2.871258 -0.0228,2.33444 -0.0874,2.96535 -0.23014,2.24707 -0.14586,-0.73465 -0.16791,-0.54106 -0.0833,0.73217 0.0632,0.95196 0.11825,8.19598 0.12228,16.09782 0.008,14.18169 0.0358,14.73229 0.76541,14.74998 0.0867,0.002 0.30192,-0.1688 0.47818,-0.37979 z m 25.34434,-21.71257 c -0.0171,-0.0686 -0.0474,-0.20911 -0.0666,-0.31209 -0.0195,-0.10298 -0.12502,-0.3277 -0.23472,-0.49935 -0.10971,-0.17165 -0.12241,-0.3121 -0.0282,-0.3121 0.0942,0 0.016,-0.19661 -0.17366,-0.43691 -0.31213,-0.3954 -0.30338,-0.40457 0.0921,-0.0966 0.24037,0.1872 0.37506,0.44 0.29931,0.56176 -0.0757,0.12177 -0.0251,0.22139 0.11282,0.22139 0.13779,0 0.23348,0.22471 0.21265,0.49936 -0.0355,0.46817 -0.14275,0.65618 -0.21362,0.3745 z m -1.86382,-1.38982 c -0.0911,-0.14646 -0.11176,-0.31983 -0.046,-0.38528 0.0659,-0.0655 0.18675,0.0543 0.2686,0.26629 0.16995,0.43994 0.0252,0.51734 -0.22272,0.11899 z m -1.87457,-1.73111 c -0.25132,-0.16135 -0.27226,-0.24329 -0.0628,-0.24585 0.17277,-0.002 0.31414,-0.16992 0.31414,-0.37294 0,-0.27867 -0.27923,-0.35703 -1.13983,-0.31981 -1.13109,0.0489 -1.13547,0.0526 -0.57251,0.47441 0.31205,0.23382 0.65533,0.37113 0.76288,0.30509 0.10752,-0.0661 0.1955,-9.4e-4 0.1955,0.14437 0,0.14542 0.19792,0.26269 0.43982,0.26059 0.37585,-0.003 0.38499,-0.0389 0.0628,-0.24586 z m -2.92912,-1.63365 c -0.0819,-0.2119 -0.20272,-0.33172 -0.2686,-0.26629 -0.0659,0.0656 -0.0452,0.23882 0.046,0.38529 0.24782,0.39835 0.39266,0.32096 0.22272,-0.119 z m 1.19197,0.20378 c -0.46907,-0.0879 -0.52593,-0.164 -0.25132,-0.33669 0.26673,-0.16774 0.20676,-0.22413 -0.24135,-0.22701 -0.50164,-0.003 -0.5466,0.0556 -0.28337,0.3707 0.17207,0.20597 0.55347,0.3592 0.84756,0.3405 0.47211,-0.03 0.46373,-0.0472 -0.0715,-0.1475 z m -7.05906,-3.78657 c 0,-0.12262 -0.18564,-0.29373 -0.41253,-0.38023 -0.34493,-0.1315 -0.36048,-0.095 -0.0949,0.22296 0.36195,0.43325 0.50742,0.47833 0.50742,0.15727 z m -1.97937,-2.09069 c -0.24822,-0.24474 -0.27708,-0.21607 -0.1407,0.13977 0.0944,0.24623 0.23491,0.38479 0.31228,0.30793 0.0774,-0.0769 1.7e-4,-0.27834 -0.17158,-0.4477 z m -0.71033,-0.34954 c -0.0708,-0.18311 -0.16095,-0.3329 -0.20047,-0.3329 -0.0396,0 -0.12976,0.14979 -0.20049,0.3329 -0.0708,0.18309 0.0195,0.33289 0.20049,0.33289 0.18097,0 0.27118,-0.1498 0.20047,-0.33289 z m -11.45521,-1.51542 c -0.0577,-0.37952 -0.10657,-0.12827 -0.10847,0.55833 -0.002,0.68661 0.0454,0.99712 0.10502,0.69004 0.0596,-0.30708 0.0612,-0.86885 0.004,-1.24837 z m 9.36982,1.09638 c 0,-0.0473 -0.24264,-0.30018 -0.5392,-0.56176 -0.53634,-0.47309 -0.53763,-0.47262 -0.24248,0.0862 0.24498,0.4638 0.78168,0.79035 0.78168,0.47563 z m -8.4057,-5.927801 c 0.0929,-0.149286 0.043,-0.396466 -0.11082,-0.54928 -0.20537,-0.204029 -0.27969,-0.191146 -0.27969,0.04851 0,0.184323 -0.16055,0.265118 -0.36893,0.185672 -0.20292,-0.07738 -0.44659,-0.01585 -0.54147,0.136707 -0.10055,0.161639 -0.0588,0.207471 0.10024,0.10986 0.15003,-0.0921 0.34383,-0.05332 0.43063,0.08625 0.20614,0.331325 0.55795,0.323248 0.77005,-0.01765 z M 205.7868,71.449928 c -0.2193,-0.352518 -0.61202,-0.260654 -0.61202,0.143162 0,0.22273 0.14743,0.310471 0.37554,0.223514 0.20654,-0.0787 0.31296,-0.243746 0.23648,-0.366676 z"
       id="path4" /><path
       style="fill:#d8617d;fill-opacity:1;stroke:#d8617d;stroke-width:2.71468;stroke-linecap:round;stroke-opacity:1"
       d="m 168.56578,94.947508 31.90777,19.397922"
       id="path5" /></g></svg>
