<?xml version="1.0" encoding="UTF-8" standalone="no"?>
<!-- Created with Inkscape (http://www.inkscape.org/) -->

<svg
   width="800mm"
   height="800mm"
   viewBox="0 0 800 799.99996"
   version="1.1"
   id="svg1"
   inkscape:version="1.3.1 (9b9bdc1480, 2023-11-25, custom)"
   sodipodi:docname="background.svg"
   xmlns:inkscape="http://www.inkscape.org/namespaces/inkscape"
   xmlns:sodipodi="http://sodipodi.sourceforge.net/DTD/sodipodi-0.dtd"
   xmlns="http://www.w3.org/2000/svg"
   xmlns:svg="http://www.w3.org/2000/svg">
  <sodipodi:namedview
     id="namedview1"
     pagecolor="#ffffff"
     bordercolor="#000000"
     borderopacity="0.25"
     inkscape:showpageshadow="2"
     inkscape:pageopacity="0.0"
     inkscape:pagecheckerboard="0"
     inkscape:deskcolor="#d1d1d1"
     inkscape:document-units="mm"
     inkscape:zoom="0.22392792"
     inkscape:cx="1710.3718"
     inkscape:cy="1388.8398"
     inkscape:window-width="1850"
     inkscape:window-height="1016"
     inkscape:window-x="70"
     inkscape:window-y="27"
     inkscape:window-maximized="1"
     inkscape:current-layer="layer1" />
  <defs
     id="defs1">
    <clipPath
       id="f56a1b9e80">
      <path
         d="M 0,0 H 133.5 V 102.13672 H 0 Z m 0,0"
         clip-rule="nonzero"
         id="path9" />
    </clipPath>
    <clipPath
       id="812434c2b6">
      <path
         d="M 0,0 H 480 V 140 H 0 Z m 0,0"
         clip-rule="nonzero"
         id="path5" />
    </clipPath>
    <clipPath
       id="eff11c6e66">
      <path
         d="M -68.566406,-84.53125 428.32812,-251.66406 510.57812,-7.128906 13.6875,160.00781 Z m 0,0"
         clip-rule="nonzero"
         id="path6" />
    </clipPath>
    <clipPath
       id="2c8947d2a3">
      <path
         d="M -68.566406,-84.53125 428.32812,-251.66406 510.57812,-7.128906 13.6875,160.00781 Z m 0,0"
         clip-rule="nonzero"
         id="path7" />
    </clipPath>
    <clipPath
       id="3baeefc6d5">
      <path
         d="M 0.00390625,181 H 123.00391 V 297 H 0.00390625 Z m 0,0"
         clip-rule="nonzero"
         id="path4" />
    </clipPath>
    <clipPath
       id="e22e065440">
      <path
         d="m 0,262 h 264 v 35 H 0 Z m 0,0"
         clip-rule="nonzero"
         id="path13" />
    </clipPath>
    <clipPath
       id="1f1479cac6">
      <path
         d="M 181.54297,435.44141 -43.839844,290.89453 41.191406,158.32031 266.57031,302.86719 Z m 0,0"
         clip-rule="nonzero"
         id="path14" />
    </clipPath>
    <clipPath
       id="2c743e2c58">
      <path
         d="M 181.54297,435.44141 -43.839844,290.89453 41.191406,158.32031 266.57031,302.86719 Z m 0,0"
         clip-rule="nonzero"
         id="path15" />
    </clipPath>
    <clipPath
       id="5017dd4891">
      <path
         d="m 999,0 h 189 V 67 H 999 Z m 0,0"
         clip-rule="nonzero"
         id="path28" />
    </clipPath>
    <clipPath
       id="97e2f947c7">
      <path
         d="M 1164.7227,90.480469 943.28516,-154.19531 1063.9531,-263.40234 1285.3906,-18.730469 Z m 0,0"
         clip-rule="nonzero"
         id="path29" />
    </clipPath>
    <clipPath
       id="fac9306896">
      <path
         d="M 1164.7227,90.480469 943.28516,-154.19531 1063.9531,-263.40234 1285.3906,-18.730469 Z m 0,0"
         clip-rule="nonzero"
         id="path30" />
    </clipPath>
    <clipPath
       id="cfd349717c">
      <path
         d="m 1083,0 h 105 v 95 h -105 z m 0,0"
         clip-rule="nonzero"
         id="path25" />
    </clipPath>
    <clipPath
       id="bbfa5ddc6d">
      <path
         d="M 1203.207,-76.195312 1187.9922,94.878906 1071.4531,84.511719 1086.668,-86.5625 Z m 0,0"
         clip-rule="nonzero"
         id="path26" />
    </clipPath>
    <clipPath
       id="4d41a39f33">
      <path
         d="M 1203.207,-76.195312 1187.9922,94.878906 1071.4531,84.511719 1086.668,-86.5625 Z m 0,0"
         clip-rule="nonzero"
         id="path27" />
    </clipPath>
    <clipPath
       id="70b7014804">
      <path
         d="M 1102.5117,205.13281 H 1188 V 297 h -85.4883 z m 0,0"
         clip-rule="nonzero"
         id="path8" />
    </clipPath>
    <clipPath
       id="21ec6e2dfa">
      <path
         d="m 926,240 h 262 v 57 H 926 Z m 0,0"
         clip-rule="nonzero"
         id="path19" />
    </clipPath>
    <clipPath
       id="e9018a1ad1">
      <path
         d="M 1285.4063,391.45312 933.39062,420.96484 919.60547,256.54297 1271.6211,227.02734 Z m 0,0"
         clip-rule="nonzero"
         id="path20" />
    </clipPath>
    <clipPath
       id="999b1947f1">
      <path
         d="M 1285.4063,391.45312 933.39062,420.96484 919.60547,256.54297 1271.6211,227.02734 Z m 0,0"
         clip-rule="nonzero"
         id="path21" />
    </clipPath>
  </defs>
  <g
     inkscape:label="Layer 1"
     inkscape:groupmode="layer"
     id="layer1">
    <g
       clip-path="url(#3baeefc6d5)"
       id="g37"
       transform="matrix(1.5395916,0,0,1.5395916,-2.8810802,348.11037)">
      <path
         fill="#f1a09d"
         d="m 119.40625,327.09375 c -39.695312,0 -79.402344,0 -119.09375,0 -0.167969,0 -0.30859375,-0.13672 -0.30859375,-0.30469 0,-46.35547 0,-92.69922 0,-139.05469 0,-0.25 0,-0.54296 0,-0.71093 0,-3.12891 0.46093775,-4.05078 2.52734375,-4.78907 3.703125,-1.3164 7.835938,-0.51953 10.839844,2.00782 2.082031,1.74609 3.210937,2.43359 4.160156,3.50781 0.601562,0.78125 1.175781,1.58984 1.691406,2.44531 1.535156,2.53906 2.835938,5.20703 4.175782,7.84766 1.507812,2.96094 3.28125,5.74219 5.558593,8.18359 2.78125,2.97656 6.074219,5.21094 9.832031,6.77344 2.304688,0.96484 4.707032,1.69141 7.054688,2.52734 1.410156,0.50391 2.820312,1.00782 4.132812,1.77735 2.488282,1.44922 4.46875,3.46093 6.230469,5.69531 2.484375,3.14453 4.285157,6.66406 5.601563,10.43359 1.3125,3.74219 2.105468,7.61328 2.917968,11.48047 0.808594,3.84375 1.550782,7.6836 2.679688,11.44141 1.117188,3.7539 2.542969,7.38672 4.695312,10.69531 1.816407,2.80859 4.007813,5.28125 6.660157,7.33594 2.5,1.92578 5.253906,3.40625 8.085937,4.77344 2.488282,1.20312 5.113282,2.09765 7.65625,3.17187 3.714844,1.5625 7.359374,3.28125 10.781254,5.44531 4.82031,3.0586 8.95312,6.83203 12.23437,11.51172 1.67578,2.38672 3.11328,4.88672 4.10547,7.63672 1.27344,3.55078 1.71875,7.19531 1.37109,10.9375 -0.22265,2.27734 -0.78125,4.46875 -1.8164,6.53516 -0.51563,0.96484 -1.11719,1.84375 -1.77344,2.69531 z m 0,0"
         fill-opacity="1"
         fill-rule="nonzero"
         id="path36" />
    </g>
    <g
       clip-path="url(#812434c2b6)"
       id="g40"
       style="fill:#f8d8db;fill-opacity:1"
       transform="matrix(1.5395916,0,0,1.5395916,-5.3818154,-3.4714542)">
      <g
         clip-path="url(#eff11c6e66)"
         id="g39"
         style="fill:#f8d8db;fill-opacity:1">
        <g
           clip-path="url(#2c8947d2a3)"
           id="g38"
           style="fill:#f8d8db;fill-opacity:1">
          <path
             fill="#f8d8db"
             d="m -13.707031,-88.027344 c 29.265625,-24.562496 68.929687,-34.031246 107.128906,-33.148436 15.218755,0.35156 30.375005,2.21094 45.589845,2.61719 15.21875,0.40625 30.72656,-0.69532 44.98047,-6.04688 14.47656,-5.4375 27.00781,-14.99609 38.75,-25.05859 11.73828,-10.06641 22.99218,-20.81641 35.94531,-29.25781 15.26562,-9.94141 32.9375,-16.52344 51.13281,-17.4336 18.19531,-0.90625 36.88281,4.10547 51.3086,15.23438 13.58984,10.48828 22.96484,25.83593 37.10937,35.55859 15.46875,10.63672 34.91797,13.42188 51.95703,21.30469 8.51563,3.9414 16.58594,9.3125 22.21485,16.82422 2.8164,3.7539 4.98437,8.015621 6.15234,12.562496 1.16797,4.546875 1.3125,9.375 0.21094,13.9375 -1.20313,4.988282 -3.875,9.558594 -7.3086,13.371094 -3.4375,3.816406 -7.62109,6.902344 -12.07031,9.464844 -8.89453,5.125 -18.80859,8.183594 -28.10937,12.527344 -26.7461,12.488281 -47.26954,34.886718 -69.78907,53.972656 -27.26953,23.117187 -59.5664,42.296875 -95.14453,45.820312 -12.76953,1.261719 -25.63672,0.484375 -38.46875,0.429688 -12.82812,-0.05469 -25.85937,0.660156 -38.01172,4.769531 -19.95312,6.746094 -35.72656,21.933594 -50.60937,36.839844 -8.19922,8.210941 -16.375,16.496091 -25.48438,23.683591 -9.11328,7.1836 -19.24609,13.28125 -30.37109,16.57422 -11.125,3.29297 -23.328125,3.64063 -34.210938,-0.38281 -5.441406,-2.00781 -10.503906,-5.09766 -14.660156,-9.14844 -4.152344,-4.05078 -7.378906,-9.07422 -9.167968,-14.59375 -1.761719,-5.43359 -2.109376,-11.24219 -1.78125,-16.941405 C 23.914062,89.75 24.90625,84.109375 25.773438,78.460938 26.636719,72.816406 27.382812,67.121094 27.214844,61.410156 27.046875,55.703125 25.929688,49.941406 23.253906,44.894531 20.816406,40.292969 17.152344,36.421875 13.011719,33.265625 8.871094,30.109375 4.253906,27.632812 -0.445312,25.398438 -9.851562,20.929688 -19.847656,17.269531 -27.824219,10.574219 -35.078125,4.484375 -40.277344,-3.910156 -42.9375,-13.003906 c -2.660156,-9.089844 -2.824219,-18.839844 -0.921875,-28.117188 3.804687,-18.554687 15.644531,-34.726562 30.152344,-46.90625 z m 0,0"
             fill-opacity="1"
             fill-rule="nonzero"
             id="path37"
             style="fill:#f8d8db;fill-opacity:1" />
        </g>
      </g>
    </g>
    <path
       fill="#d8617d"
       d="M -4.8345709,164.52395 V -3.6041928 H 191.57157 C 183.78941,19.898614 152.21576,35.739564 122.3982,42.192634 l -0.5172,0.10816 c -35.043715,7.5837 -47.655139,10.31407 -67.038355,64.753026 -10.602735,29.77549 -36.835934,47.81153 -59.6772159,57.47006 z m 0,0"
       fill-opacity="1"
       fill-rule="nonzero"
       id="path41"
       style="stroke-width:1.53959" />
    <g
       clip-path="url(#f56a1b9e80)"
       id="g42"
       transform="matrix(1.5395916,0,0,1.5395916,-4.8706539,21.588574)">
      <path
         fill="#f1a09d"
         d="M 0.0234375,102.41797 C 17.066406,95.921875 40.152344,85.484375 46.039062,56.046875 48.804688,42.21875 51.078125,31.140625 56.136719,22.628906 61.160156,14.179688 68.96875,8.210938 82.960938,4.746094 c 4.25,-1.050782 8.453124,-1.886719 12.5625,-2.703125 1.316406,-0.261719 2.621093,-0.519531 3.914062,-0.785157 5.32813,-1.085937 10.45313,-2.25 15.19531,-3.9375 7.48047,-2.660156 14.00391,-6.636718 18.88281,-13.683593 h -1.65234 c -4.625,6.296875 -10.6914,9.929687 -17.68359,12.417969 -4.64453,1.652343 -9.69141,2.800781 -15.011721,3.8867182 C 97.890625,0.199219 96.59375,0.457031 95.285156,0.71875 h -0.0039 c -4.113281,0.816406 -8.363281,1.664062 -12.644531,2.722656 -14.273438,3.535156 -22.417969,9.683594 -27.65625,18.5 -5.203125,8.75 -7.507813,20.082032 -10.257813,33.839844 -5.691406,28.4375 -27.761718,38.699219 -44.6992185,45.19531 z m 0,0"
         fill-opacity="1"
         fill-rule="nonzero"
         id="path42" />
    </g>
    <g
       clip-path="url(#e22e065440)"
       id="g48"
       transform="matrix(1.5395916,0,0,1.5395916,0.17370026,346.86903)">
      <g
         clip-path="url(#1f1479cac6)"
         id="g47">
        <g
           clip-path="url(#2c743e2c58)"
           id="g46">
          <path
             fill="#d8617d"
             d="m 260.86719,302.39453 c -24.22657,15.36719 -55.52344,17.71094 -82.08203,7.16016 -6.60157,-2.63672 -12.84375,-6.10157 -18.58204,-10.29297 -7.09375,-5.17969 -13.46484,-11.25391 -20.10156,-16.98828 -12.39062,-10.70703 -26.68359,-20.6875 -43.847654,-19.65235 -14.722656,0.89063 -28.496094,8.90235 -35.878906,21.77735 -7.191406,12.53906 -9.253906,30.96875 0.128906,43.01172 4.578125,5.87109 12.199219,8.55859 19.296875,5.85156 6.359375,-2.41797 9.542969,-9.09766 7.488281,-15.57031 -2.019531,-6.33594 -7.242187,-10.98438 -12.40625,-14.84375 -5.890624,-4.39454 -12.234374,-8.17188 -18.875,-11.31641 -26.410156,-12.52344 -57.4375,-15.30469 -85.515624,-6.94922 -3.476563,1.03906 -6.910157,2.25781 -10.28125,3.61719 -2.574219,1.03515 -0.601563,4.86328 1.953124,3.83203 25.667969,-10.33984 54.976563,-10.375 80.976563,-1.1875 6.5,2.28516 12.765625,5.15625 18.738281,8.59766 5.640625,3.26953 11.507813,6.9375 16.097656,11.62109 3.652344,3.72266 7.839844,9.80078 4.441407,15.00781 -3.800781,5.82813 -12.652344,4.64453 -17.035157,0.33594 -5.175781,-5.0625 -6.863281,-12.89453 -6.777343,-19.89063 0.08594,-7.10156 2.058593,-14.16796 5.667969,-20.27343 7.027343,-11.88672 20.140624,-19.25391 33.921874,-19.39844 16.324218,-0.16797 29.519528,10.21094 41.179688,20.46094 6.20703,5.47265 12.30469,11.11718 19.02734,15.95703 5.47266,3.94531 11.42188,7.20312 17.64844,9.79687 24.66797,10.32032 53.89453,9.69141 78.00391,-1.9375 3.01562,-1.45703 5.9375,-3.09765 8.76953,-4.89453 2.3164,-1.46875 0.38281,-5.3164 -1.95703,-3.83203"
             fill-opacity="1"
             fill-rule="nonzero"
             id="path45" />
        </g>
      </g>
    </g>
    <g
       clip-path="url(#70b7014804)"
       id="g41"
       transform="matrix(1.2990736,0,0,1.2990736,-742.55672,414.16291)">
      <path
         fill="#f8d8db"
         d="m 1141.043,231.5625 c 1.5937,0.0117 3.0664,0.0117 4.5273,-0.0742 2.6094,-0.14062 5.2227,-0.36719 7.7422,-1.1875 2.1367,-0.6875 3.9805,-1.86328 5.6055,-3.39453 1.4726,-1.39063 2.6836,-2.99609 3.8359,-4.64453 0.8789,-1.27344 1.6406,-2.625 2.5313,-3.8711 0.7343,-1.02343 1.5664,-1.97265 2.2929,-2.99609 0.8789,-1.24609 1.8399,-2.39844 2.9336,-3.45312 1.1524,-1.10547 2.4688,-1.9961 3.8242,-2.80469 1.3516,-0.8086 2.7422,-1.54297 4.2149,-2.11328 0.9961,-0.39063 2.0078,-0.71485 3.039,-0.98828 2.2461,-0.60547 4.5274,-0.90235 6.8555,-0.90235 3.336,0.0117 6.5781,0.63281 9.7266,1.75781 2.375,0.85547 4.6211,1.98438 6.6992,3.41016 3.0625,2.08984 5.5352,4.71484 7.1719,8.06641 0.8906,1.80468 1.3906,3.71484 1.582,5.72265 0.4023,4.45313 -0.5117,8.66016 -2.2695,12.71875 -0.5821,1.35547 -1.3438,2.61328 -1.9844,3.9336 -1.3438,2.74218 -2.1484,5.64062 -2.4688,8.67968 -0.1445,1.32032 -0.2031,2.625 -0.2968,3.94532 -0.086,1.11718 0.1992,2.19531 0.4023,3.28906 0.6055,3.14844 1.3438,6.26953 2.0664,9.38281 0.6172,2.69531 1.1875,5.40235 1.461,8.17188 0.2734,2.71875 0.2265,5.4375 -0.2618,8.14843 -0.4375,2.45704 -1.2109,4.78516 -2.4804,6.9336 -0.7852,1.34375 -1.7227,2.5664 -2.7461,3.73047 -1.5078,1.69922 -3.2071,3.18359 -5.0938,4.42968 -2.5312,1.67579 -5.2851,2.80469 -8.289,3.25391 -2.2578,0.34375 -4.5157,0.34375 -6.7813,0.23828 -1.1406,-0.0469 -2.2695,-0.11719 -3.4101,-0.20312 -1.4024,-0.10547 -2.793,-0.27344 -4.1914,-0.41407 -1.3321,-0.14453 -2.6602,-0.28515 -4.004,-0.36718 -1.2929,-0.0859 -2.6015,-0.0859 -3.8945,-0.0352 -2.7578,0.0937 -5.4062,0.66406 -7.9101,1.82813 -2.3399,1.07812 -4.418,2.55468 -6.3438,4.25 -2.0312,1.79296 -3.8711,3.77734 -5.7226,5.73828 -1.2735,1.33984 -2.5547,2.64843 -3.9102,3.89453 -2.375,2.1875 -4.9141,4.14453 -7.8359,5.55859 -2.711,1.32031 -5.5469,2.14844 -8.543,2.4961 -1.6133,0.17578 -3.2305,0.23437 -4.8438,0.16406 -3.957,-0.20313 -7.7539,-1.05469 -11.3906,-2.63672 -1.8867,-0.82031 -3.6914,-1.80469 -5.3203,-3.07422 -1.5078,-1.17578 -2.8281,-2.53125 -3.7422,-4.23047 -0.664,-1.24609 -0.9609,-2.60156 -1.0312,-3.98828 -0.2266,-4.45703 0.664,-8.69531 2.2304,-12.82812 1.0821,-2.85157 2.5078,-5.52344 3.9453,-8.19532 1.4961,-2.80468 3.004,-5.59375 3.9649,-8.63281 0.5234,-1.67578 0.8555,-3.38672 0.9766,-5.13281 0.2343,-3.45703 -0.336,-6.80469 -1.2852,-10.11719 -0.5469,-1.90234 -1.2109,-3.76562 -1.6992,-5.69141 -0.3555,-1.42578 -0.5703,-2.88671 -0.5821,-4.35937 -0.023,-2.35156 0.5118,-4.60547 1.4258,-6.76953 1.0352,-2.44531 2.5664,-4.57031 4.3008,-6.56641 1.7813,-2.05469 3.8008,-3.84765 6.0586,-5.35547 3.4063,-2.26953 7.1602,-3.63672 11.1875,-4.27734 1.4141,-0.22656 2.8242,-0.34375 4.25,-0.40234 1.1992,-0.0508 2.3984,0 3.4805,-0.0352 z m 0,0"
         fill-opacity="1"
         fill-rule="nonzero"
         id="path40" />
    </g>
    <g
       clip-path="url(#21ec6e2dfa)"
       id="g54"
       transform="matrix(1.2990736,0,0,1.2990736,-742.55672,414.16291)">
      <g
         clip-path="url(#e9018a1ad1)"
         id="g53">
        <g
           clip-path="url(#999b1947f1)"
           id="g52">
          <path
             fill="#d8617d"
             d="m 1274.8281,361.98047 c -12.1484,14.29687 -28.9609,23.43359 -46.125,25.0664 -0.2187,0.0234 -0.4336,0.0391 -0.6484,0.0586 -18.0195,1.51172 -35.9258,-5.51563 -46.8711,-18.42969 -12.1133,-14.28906 -15.3164,-34.25391 -18.418,-53.5625 -0.6054,-3.77734 -1.2343,-7.67969 -1.9179,-11.48047 -4.0938,-22.75781 -14.3438,-51.71875 -39.8985,-60.42969 -5.8086,-1.98046 -12.1015,-2.66406 -18.6054,-2.11718 -12.75,1.07031 -26.3165,6.86328 -38.6719,16.86328 -8.3203,6.73047 -15.6172,14.60156 -22.6719,22.21094 -5.7617,6.21484 -11.7227,12.64062 -18.0898,18.25781 -26.53129,23.39453 -61.41801,32.63672 -91.04301,24.12109 -2.35938,-0.67578 -4.82422,0.6875 -5.50391,3.04688 -0.67578,2.36328 0.6875,4.82422 3.04688,5.5039 16.47656,4.73438 34.71484,4.56641 52.74609,-0.48437 16.97266,-4.75391 33.10155,-13.57813 46.63675,-25.51563 6.7031,-5.91015 12.8164,-12.5039 18.7304,-18.8789 6.8438,-7.38282 13.918,-15.01563 21.7422,-21.34766 16.2657,-13.16406 34.5117,-18.11328 48.8164,-13.23828 21.4571,7.3125 30.3399,33.17578 34.0118,53.58594 0.6679,3.71484 1.289,7.57812 1.8906,11.3125 3.2929,20.51172 6.6992,41.72265 20.414,57.90625 12.9297,15.2539 34.0704,23.47265 55.1485,21.47265 19.4492,-1.85156 38.4219,-12.11718 52.0586,-28.16015 1.5937,-1.8711 1.3633,-4.67969 -0.5078,-6.26953 -1.8711,-1.58985 -4.6758,-1.36329 -6.2696,0.50781 z m 0,0"
             fill-opacity="1"
             fill-rule="nonzero"
             id="path51" />
        </g>
      </g>
    </g>
    <g
       clip-path="url(#cfd349717c)"
       id="g60"
       transform="matrix(1.2898247,0,0,1.2898247,-731.88017,-0.7611597)">
      <g
         clip-path="url(#bbfa5ddc6d)"
         id="g59">
        <g
           clip-path="url(#4d41a39f33)"
           id="g58">
          <path
             fill="#f8d8db"
             d="m 1187.8203,92.402344 c 0.4805,-1.464844 -0.3164,-3.046875 -1.7812,-3.527344 -33.9883,-11.203125 -63.168,-35.722656 -80.0547,-67.277344 -16.8867,-31.550781 -21.1016,-69.429687 -11.5664,-103.925781 0.414,-1.488281 -0.461,-3.027344 -1.9492,-3.441406 -1.4883,-0.410157 -3.0274,0.464843 -3.4415,1.953125 -2.3164,8.386718 -3.8554,16.964844 -4.625,25.613281 -2.5156,28.3125 3.2032,57.308594 16.6524,82.441406 17.5547,32.804688 47.8945,58.300781 83.2344,69.945313 1.4648,0.484375 3.0468,-0.3125 3.5312,-1.777344 z m 0,0"
             fill-opacity="1"
             fill-rule="nonzero"
             id="path57" />
        </g>
      </g>
    </g>
    <g
       clip-path="url(#5017dd4891)"
       id="g63"
       transform="matrix(1.2898247,0,0,1.2898247,-731.88017,-0.7611597)">
      <g
         clip-path="url(#97e2f947c7)"
         id="g62">
        <g
           clip-path="url(#fac9306896)"
           id="g61">
          <path
             fill="#d8617d"
             d="m 1148.8867,59.671875 c -21.5508,-10.714844 -37.0078,-31.242187 -46.1172,-53.523437 -3.6289,-8.878907 -6.3711,-18.097657 -9.9648,-26.988282 -3.5977,-8.890625 -8.1406,-17.570312 -14.8203,-24.453125 -6.7813,-6.992187 -15.461,-11.824219 -24.2266,-16.070312 -8.7695,-4.246094 -17.8086,-8.039063 -25.9453,-13.394531 -9.5898,-6.3125 -17.8398,-14.859376 -22.9453,-25.140626 -5.10548,-10.281252 -6.91408,-22.335942 -4.1172,-33.468752 2.6328,-10.48828 9.1367,-19.76562 11.1914,-30.38281 2.2461,-11.61328 -1.043,-23.54687 -0.7812,-35.37109 0.1328,-5.91407 1.2031,-11.92578 4.125,-17.06641 1.4609,-2.57422 3.375,-4.89844 5.707,-6.71875 2.332,-1.81641 5.082,-3.11719 7.9961,-3.62891 3.1836,-0.5625 6.4961,-0.16796 9.5625,0.85547 3.0703,1.02344 5.9023,2.66016 8.5039,4.58594 5.1992,3.84766 9.4648,8.80078 14.3125,13.08203 13.9453,12.30078 32.0508,18.51563 48.7422,26.71485 20.2187,9.92968 39.4258,23.7539 50.4179,43.41015 3.9454,7.0586 6.7344,14.6875 9.9336,22.10938 3.1993,7.42578 6.8946,14.76953 12.3282,20.753902 8.9179,9.824219 21.664,15.109376 34.0195,19.953126 6.8047,2.667968 13.6484,5.300781 20.0937,8.753906 6.4415,3.453125 12.5157,7.769531 17.2188,13.367187 4.7031,5.597657 7.9766,12.554688 8.3945,19.855469 0.2071,3.648438 -0.3008,7.347656 -1.5937,10.769531 -1.2969,3.417969 -3.3828,6.546875 -6.1211,8.96875 -2.6953,2.386719 -5.961,4.050781 -9.336,5.296875 -3.3789,1.242188 -6.8828,2.089844 -10.3632,3.011719 -3.4805,0.921875 -6.9571,1.925781 -10.211,3.460937 -3.2539,1.5351568 -6.3008,3.628907 -8.5429,6.445313 -2.0391,2.566406 -3.3555,5.660156 -4.1368,8.84375 -0.7812,3.183594 -1.0468,6.476563 -1.1523,9.753906 -0.2148,6.554688 0.1875,13.25 -1.6719,19.542969 -1.6875,5.722656 -5.2265,10.839844 -9.8086,14.664062 -4.582,3.824219 -10.1718,6.375 -16.0078,7.613282 -11.6758,2.476562 -23.9961,-0.289063 -34.6836,-5.605469 z m 0,0"
             fill-opacity="1"
             fill-rule="nonzero"
             id="path60" />
        </g>
      </g>
    </g>
  </g>
</svg>
