<?xml version="1.0" encoding="UTF-8" standalone="no"?>
<!-- Created with Inkscape (http://www.inkscape.org/) -->

<svg
   width="152.85806mm"
   height="151.04916mm"
   viewBox="0 0 152.85807 151.04917"
   version="1.1"
   id="svg1"
   xml:space="preserve"
   inkscape:version="1.3.1 (9b9bdc1480, 2023-11-25, custom)"
   sodipodi:docname="computer.svg"
   xmlns:inkscape="http://www.inkscape.org/namespaces/inkscape"
   xmlns:sodipodi="http://sodipodi.sourceforge.net/DTD/sodipodi-0.dtd"
   xmlns="http://www.w3.org/2000/svg"
   xmlns:svg="http://www.w3.org/2000/svg"><sodipodi:namedview
     id="namedview1"
     pagecolor="#ffffff"
     bordercolor="#000000"
     borderopacity="0.25"
     inkscape:showpageshadow="2"
     inkscape:pageopacity="0.0"
     inkscape:pagecheckerboard="0"
     inkscape:deskcolor="#d1d1d1"
     inkscape:document-units="mm"
     inkscape:zoom="0.72693603"
     inkscape:cx="386.55396"
     inkscape:cy="923.05234"
     inkscape:window-width="1850"
     inkscape:window-height="1016"
     inkscape:window-x="0"
     inkscape:window-y="0"
     inkscape:window-maximized="1"
     inkscape:current-layer="layer1" /><defs
     id="defs1" /><g
     inkscape:label="Layer 1"
     inkscape:groupmode="layer"
     id="layer1"
     transform="translate(-104.61273,-39.844468)"><path
       style="fill:#d8617d;fill-opacity:1;stroke-width:2.84419"
       d="m 142.49885,188.06142 c -1.47804,-1.47804 -2.19969,-2.95932 -2.19969,-4.51515 v -2.31545 h 41.0126 41.0126 v 2.31545 c 0,1.55583 -0.72163,3.03711 -2.19967,4.51515 l -2.1997,2.1997 h -36.61323 -36.61321 z m -2.1998,-16.33067 c 2.5e-4,-6.63726 3.4763,-12.46392 9.18857,-15.40217 2.60647,-1.34072 4.73159,-1.43588 31.9823,-1.43227 l 29.19031,0.003 2.89993,1.75546 c 1.59499,0.9655 3.86133,3.18692 5.03635,4.93647 1.97128,2.93517 4.17626,10.39207 3.59156,12.14613 -0.16127,0.48393 -14.75142,0.81196 -41.06969,0.92337 l -40.81948,0.17263 z m 9.25393,-25.55447 c -4.0912,-4.23858 -4.69109,-6.67224 -5.52384,-22.40828 -1.0422,-19.69416 -0.87323,-37.62924 0.41221,-43.751782 2.62735,-12.513947 10.94045,-23.492372 22.19618,-29.312663 3.10415,-1.605147 6.67412,-3.695568 7.93327,-4.645384 3.17839,-2.397623 10.69992,-5.749528 11.62238,-5.179411 1.0652,0.658317 0.93827,3.135718 -0.38404,7.494892 -0.90776,2.992571 -0.94319,3.892016 -0.18004,4.568763 0.52264,0.46346 8.29535,6.333069 17.27269,13.043563 8.97731,6.710521 17.18925,13.231108 18.24872,14.49023 1.61974,1.924946 1.92258,3.028719 1.90285,6.934871 -0.0393,7.783293 -4.60219,13.284491 -11.02696,13.294621 -2.60741,0.003 -4.3305,-0.785397 -10.0199,-4.590977 l -6.87102,-4.595953 -4.56376,2.0481 c -3.38598,1.519536 -5.31544,1.947274 -7.47629,1.657451 -1.60187,-0.214737 -2.9125,-0.154724 -2.9125,0.133677 0,0.9534 6.27189,6.545982 15.1498,13.508862 15.38461,12.06613 20.19766,18.72873 20.21151,27.97852 0.005,4.00931 -0.33877,5.41423 -1.88831,7.69458 -1.04263,1.53435 -2.63876,3.18742 -3.54699,3.67347 -1.16066,0.62117 -9.93242,0.93665 -29.52222,1.06174 l -27.87095,0.17805 z M 216.2742,88.330093 c 1.89866,-2.287722 -0.56206,-5.069083 -3.85672,-4.359231 -1.63404,0.352054 -2.0876,1.657053 -1.30633,3.758738 0.72993,1.963713 3.74105,2.313918 5.16305,0.600493 z M 189.49435,71.892078 c 1.44806,-1.941331 1.48147,-2.261188 0.43251,-4.138864 -1.39126,-2.490457 -5.14153,-3.143454 -7.05629,-1.22869 -1.86707,1.867068 -1.26948,5.69654 1.07502,6.888966 2.53307,1.288333 3.68943,0.971291 5.54876,-1.521412 z"
       id="path1" /><path
       style="fill:#d8617d;fill-opacity:1"
       d="m -36.077757,330.59769 c 0,-0.18656 -0.35279,-0.22823 -1.00264,-0.11844 -0.55145,0.0932 -1.53372,0.0395 -2.18281,-0.11929 -0.6491,-0.15878 -1.29924,-0.31718 -1.44476,-0.35202 -0.14552,-0.0348 -0.41341,-0.15631 -0.59531,-0.26994 -0.18191,-0.11364 -0.4498,-0.13303 -0.59532,-0.0431 -0.14552,0.0899 -0.26458,0.0235 -0.26458,-0.14754 0,-0.18087 -0.22163,-0.2531 -0.52953,-0.17258 -0.3335,0.0872 -0.46511,0.0342 -0.3555,-0.14311 0.10871,-0.1759 -0.0182,-0.23131 -0.33818,-0.14764 -0.28171,0.0737 -0.66973,-0.0347 -0.86227,-0.2408 -0.19253,-0.20611 -0.51644,-0.3109 -0.71979,-0.23286 -0.20335,0.078 -0.36973,0.0195 -0.36973,-0.13002 0,-0.14954 -0.11906,-0.19831 -0.26458,-0.10837 -0.14552,0.0899 -0.26459,0.0565 -0.26459,-0.0742 0,-0.34622 -1.31266,-0.8894 -1.6482,-0.68202 -0.18298,0.11308 -0.2078,0.0506 -0.0691,-0.17389 0.15857,-0.25657 0.095,-0.30377 -0.23744,-0.17621 -0.26968,0.10349 -0.38839,0.068 -0.29237,-0.0873 0.14548,-0.2354 -0.20424,-0.37581 -0.72948,-0.29288 -0.10914,0.0172 -0.19844,-0.0948 -0.19844,-0.24887 0,-0.15411 -0.10103,-0.21775 -0.22451,-0.14144 -0.12348,0.0763 -0.47569,-0.0952 -0.78269,-0.38126 -0.30699,-0.28601 -0.65358,-0.52002 -0.77018,-0.52002 -0.1166,0 -0.36795,-0.24971 -0.55856,-0.55493 -0.19061,-0.30521 -0.40519,-0.49629 -0.47686,-0.42463 -0.0717,0.0717 -0.61799,-0.36323 -1.21406,-0.96642 -0.59607,-0.6032 -0.85963,-0.79907 -0.58569,-0.43527 0.27393,0.36381 -0.005,0.19082 -0.61969,-0.38442 -1.12965,-1.05701 -1.50485,-1.57328 -0.65752,-0.90474 0.25313,0.19972 0.1149,-0.0536 -0.30718,-0.56292 -0.42209,-0.50932 -0.87617,-0.89332 -1.00908,-0.85334 -0.1329,0.04 -0.17076,-0.042 -0.0841,-0.18218 0.0866,-0.14018 -0.0533,-0.37763 -0.31106,-0.52767 -0.25772,-0.15004 -0.38077,-0.27642 -0.27343,-0.28085 0.10733,-0.004 -0.23072,-0.67378 -0.75122,-1.48746 -0.52051,-0.81367 -1.11594,-1.88524 -1.32318,-2.38125 -0.20725,-0.49601 -0.50131,-0.90183 -0.65346,-0.90183 -0.15216,0 -0.20971,-0.10832 -0.12788,-0.24071 0.21005,-0.33987 -0.12472,-1.109 -0.40682,-0.93466 -0.1286,0.0795 -0.16881,-0.0249 -0.0894,-0.23198 0.0795,-0.20708 -0.0208,-0.54175 -0.22273,-0.74371 -0.20196,-0.20197 -0.31795,-0.51497 -0.25775,-0.69558 0.0602,-0.1806 -0.008,-0.32836 -0.1524,-0.32836 -0.14403,0 -0.19959,-0.23813 -0.12348,-0.52917 0.0761,-0.29104 0.0166,-0.52917 -0.1323,-0.52917 -0.14887,0 -0.2084,-0.23812 -0.13229,-0.52916 0.0761,-0.29104 0.0137,-0.52917 -0.13859,-0.52917 -0.18195,0 -0.19887,-0.27233 -0.0493,-0.79375 0.22103,-0.77069 -0.0667,-1.1285 -0.37238,-0.46302 -0.0835,0.1819 -0.0854,0.0628 -0.004,-0.26458 0.0823,-0.33178 0.0253,-0.59532 -0.1288,-0.59532 -0.19124,0 -0.27864,-15.28885 -0.28348,-49.59052 -0.004,-27.27478 -0.0863,-49.79713 -0.18319,-50.04965 -0.11119,-0.28975 -0.0731,-0.39542 0.10327,-0.28642 0.37681,0.23288 0.6372,-0.85281 0.33843,-1.41107 -0.14645,-0.27364 -0.13759,-0.54688 0.0229,-0.70741 0.14386,-0.14385 0.28711,-0.81611 0.31835,-1.4939 0.0312,-0.67779 0.15997,-1.23318 0.28609,-1.23419 0.12611,-0.001 0.16702,-0.23996 0.0909,-0.53101 -0.0761,-0.29104 -0.0166,-0.52916 0.13229,-0.52916 0.14887,0 0.2084,-0.23813 0.13229,-0.52917 -0.0761,-0.29104 -0.0166,-0.52917 0.13229,-0.52917 0.14887,0 0.20836,-0.23828 0.1322,-0.52953 -0.0834,-0.31897 -0.0318,-0.46361 0.12978,-0.36374 0.17012,0.10514 0.19912,-0.052 0.0793,-0.42964 -0.14078,-0.44355 -0.10364,-0.54269 0.14562,-0.38864 0.2457,0.15186 0.29315,0.0483 0.17856,-0.38991 -0.0858,-0.32819 -0.0939,-0.53459 -0.018,-0.45866 0.18268,0.18268 2.61028,-4.63913 2.5075,-4.9805 -0.0438,-0.14552 0.006,-0.17838 0.11189,-0.073 0.17138,0.17138 1.67939,-1.91622 1.7218,-2.38356 0.0218,-0.2399 3.50132,-3.24991 5.33713,-4.61693 0.76591,-0.57033 1.63903,-1.23617 1.94025,-1.47964 0.30122,-0.24347 0.71681,-0.48199 0.92354,-0.53004 0.20672,-0.048 0.43651,-0.17854 0.51065,-0.28999 0.0741,-0.11144 0.45389,-0.28067 0.8439,-0.37606 0.39001,-0.0954 0.86626,-0.32207 1.05833,-0.50375 0.19208,-0.18169 0.58736,-0.37101 0.8784,-0.42072 0.29104,-0.0497 0.5691,-0.19928 0.61791,-0.33238 0.0488,-0.13309 0.19764,-0.17469 0.33073,-0.0924 0.13309,0.0822 0.24199,0.0272 0.24199,-0.12234 0,-0.14954 0.17859,-0.20336 0.39687,-0.1196 0.21828,0.0838 0.39688,0.046 0.39688,-0.0839 0,-0.1299 0.20836,-0.2459 0.46302,-0.25777 0.25466,-0.0119 1.47505,-0.20802 2.71198,-0.43591 3.653,-0.67302 4.81323,-0.81915 6.35,-0.79979 9.089,0.1145 71.69846,0.0384 73.66103,-0.0895 2.04743,-0.13345 2.57621,-0.0993 2.41824,0.15633 -0.1568,0.2537 0.26468,0.29408 1.8775,0.17985 1.14383,-0.081 3.92515,-0.19384 6.18073,-0.25074 2.91336,-0.0735 3.3731,-0.0519 1.5875,0.0747 -1.83578,0.13013 -0.65862,0.19074 4.36562,0.22477 4.52107,0.0306 6.74313,-0.0413 6.48229,-0.20989 -0.33916,-0.21919 -0.32955,-0.25707 0.0661,-0.26053 0.25466,-0.002 0.46302,0.10488 0.46302,0.23802 0,0.13314 0.59414,0.23119 1.32031,0.21788 0.72617,-0.0133 1.40086,0.0564 1.4993,0.1548 0.0984,0.0985 0.45067,0.179 0.7827,0.179 0.33204,0 1.59212,0.32436 2.80018,0.7208 1.20806,0.39644 2.3453,0.70733 2.5272,0.69086 0.1819,-0.0165 0.33073,0.0957 0.33073,0.24933 0,0.15361 0.0722,0.20708 0.16045,0.11883 0.0883,-0.0882 0.41029,0.0723 0.71564,0.35677 0.30534,0.28447 0.67962,0.47082 0.83173,0.41412 0.33546,-0.12507 2.26093,0.89874 2.26093,1.20217 0,0.11873 0.14995,0.21587 0.33323,0.21587 0.18327,0 0.48918,0.24972 0.67979,0.55493 0.19061,0.30521 0.41693,0.48456 0.50293,0.39856 0.086,-0.086 0.32403,0.083 0.52894,0.37553 0.20491,0.29255 0.46639,0.47392 0.58107,0.40305 0.11468,-0.0709 0.58721,0.34237 1.05007,0.91834 0.46285,0.57596 0.98054,1.01891 1.15042,0.98433 0.16988,-0.0346 0.31428,0.0973 0.3209,0.29294 0.007,0.1957 0.36921,0.65525 0.80577,1.02123 0.43657,0.36597 0.61516,0.58374 0.39688,0.48392 -0.21828,-0.0998 -0.13405,0.0509 0.18718,0.335 0.32124,0.28406 0.51256,0.58798 0.42516,0.67538 -0.0874,0.0874 0.036,0.23372 0.27431,0.32516 0.23827,0.0914 0.37661,0.25785 0.30741,0.36982 -0.0692,0.11196 0.13985,0.50014 0.46454,0.86261 0.3247,0.36248 0.62967,0.82282 0.67772,1.02297 0.048,0.20016 0.16711,0.42459 0.26458,0.49872 0.0975,0.0741 0.21592,0.31339 0.26321,0.53167 0.0473,0.21829 0.18944,0.43434 0.31587,0.48012 0.12643,0.0458 0.1568,0.27367 0.0675,0.50642 -0.10713,0.27919 -0.0581,0.35873 0.14413,0.23375 0.2008,-0.1241 0.25172,-0.0466 0.14765,0.22455 -0.0874,0.22769 -0.0459,0.5613 0.0921,0.74135 0.70506,0.91983 2.18952,5.78678 2.18952,7.17857 0,0.37917 0.0893,0.68934 0.19844,0.68925 0.10914,-9e-5 0.16268,0.62498 0.11898,1.38906 -0.0502,0.8773 0.008,1.26162 0.15753,1.04293 0.32274,-0.47161 0.37737,90.75264 0.0559,93.34734 -0.13522,1.0914 -0.31544,3.29406 -0.40049,4.89479 -0.14589,2.74567 -0.27057,4.06301 -0.41319,4.36562 -0.0343,0.0728 -0.09,0.25136 -0.12382,0.39688 -0.0338,0.14552 -0.0901,0.35388 -0.12507,0.46302 -0.035,0.10914 -0.0905,0.28773 -0.12346,0.39688 -0.0329,0.10914 -0.22255,0.61515 -0.42139,1.12447 -0.19883,0.50933 -0.3356,1.01534 -0.30393,1.12448 0.0317,0.10914 -0.0685,0.19844 -0.22261,0.19844 -0.15411,0 -0.20662,0.11906 -0.11668,0.26458 0.0899,0.14553 0.0247,0.26459 -0.14498,0.26459 -0.16968,0 -0.23998,0.17859 -0.15622,0.39687 0.0838,0.21828 0.0299,0.39688 -0.11959,0.39688 -0.14955,0 -0.20425,0.10946 -0.12156,0.24325 0.0827,0.13379 4.2e-4,0.40452 -0.18282,0.60161 -0.18324,0.1971 -0.37248,0.53299 -0.42052,0.74643 -0.0481,0.21344 -0.22665,0.47668 -0.39688,0.58497 -0.17023,0.10828 -0.19946,0.19871 -0.065,0.20094 0.13451,0.002 -0.0351,0.3017 -0.37685,0.66551 -0.34177,0.3638 -0.51135,0.66508 -0.37685,0.6695 0.13451,0.004 0.0362,0.1294 -0.21846,0.27773 -0.25466,0.14833 -0.46302,0.41372 -0.46302,0.58977 0,0.17604 -0.24972,0.47603 -0.55493,0.66664 -0.30521,0.19061 -0.48456,0.41693 -0.39856,0.50294 0.086,0.086 -0.081,0.32263 -0.37111,0.52583 -0.29011,0.20321 -0.52748,0.48475 -0.52748,0.62564 0,0.1409 -0.71278,0.95363 -1.58395,1.80608 -0.87118,0.85244 -1.50682,1.41502 -1.41255,1.25017 0.14961,-0.2616 -0.53014,0.27761 -1.70682,1.35393 -0.19886,0.1819 -0.47212,0.34561 -0.60725,0.3638 -0.49833,0.0671 -0.66521,0.12565 -1.75458,0.61578 -0.61161,0.27518 -1.05191,0.59758 -0.97844,0.71645 0.0735,0.11887 -0.0512,0.14523 -0.27705,0.0586 -0.22641,-0.0869 -0.41061,-0.0192 -0.41061,0.15093 0,0.16968 -0.11906,0.23492 -0.26459,0.14499 -0.14552,-0.0899 -0.26458,-0.0412 -0.26458,0.10837 0,0.14954 -0.17859,0.20336 -0.39687,0.1196 -0.21829,-0.0838 -0.39688,-0.0135 -0.39688,0.15621 0,0.16968 -0.10538,0.24337 -0.23419,0.16377 -0.27228,-0.16828 -1.88219,0.34674 -1.88308,0.60241 -3.3e-4,0.0949 -0.37009,0.18587 -0.82169,0.20214 -0.45159,0.0163 -0.91111,0.17527 -1.02116,0.35333 -0.11005,0.17805 -0.27775,0.30548 -0.37267,0.28316 -0.0949,-0.0223 -0.85552,0.10492 -1.69021,0.28277 -0.83469,0.17784 -2.47012,0.30558 -3.63429,0.28385 -7.46687,-0.13932 -95.03055,-0.14146 -94.53715,-0.002 0.33553,0.0946 -0.61033,0.18393 -2.10191,0.19844 -1.79384,0.0174 -2.71198,-0.0711 -2.71198,-0.26147 z m 64.16146,-8.30793 c 1.40567,-0.085 1.89448,-0.0492 1.4552,0.10649 -0.42226,0.14967 1.56305,0.24399 5.49011,0.26082 3.94223,0.0169 6.15156,-0.0687 6.15156,-0.23821 0,-0.2943 14.36816,-0.32581 17.06563,-0.0374 1.75289,0.1874 8.73456,-0.0666 9.62838,-0.35027 0.31117,-0.0988 0.50433,-0.27896 0.42926,-0.40043 -0.0751,-0.12147 0.10179,-0.15855 0.39303,-0.0824 0.29124,0.0762 0.52953,0.009 0.52953,-0.14867 0,-0.15792 0.1786,-0.2186 0.39688,-0.13484 0.21828,0.0838 0.39687,0.0135 0.39687,-0.15621 0,-0.16968 0.12013,-0.23426 0.26696,-0.14352 0.14682,0.0907 0.51974,0.0848 0.8287,-0.0133 0.44917,-0.14256 0.48847,-0.229 0.19607,-0.43129 -0.27203,-0.1882 -0.23016,-0.21735 0.16348,-0.11383 0.60929,0.16022 2.61586,-0.96165 2.3145,-1.29405 -0.10881,-0.12001 -0.0649,-0.14239 0.0975,-0.0497 0.64347,0.36702 4.90795,-3.86063 5.18183,-5.13708 0.0435,-0.20272 0.22136,-0.48808 0.39527,-0.63412 0.1739,-0.14605 0.3525,-0.43422 0.39687,-0.64037 0.0444,-0.20615 0.29825,-0.60231 0.56417,-0.88035 0.26591,-0.27804 0.41848,-0.67492 0.33903,-0.88195 -0.0794,-0.20703 -0.0164,-0.37642 0.14014,-0.37642 0.15653,0 0.21368,-0.18477 0.12702,-0.41061 -0.10139,-0.26422 -0.0506,-0.34448 0.14257,-0.22512 0.21072,0.13023 0.24607,-0.03 0.11866,-0.5376 -0.13152,-0.52401 -0.0951,-0.6697 0.13229,-0.52916 0.2263,0.13986 0.26473,-0.001 0.13786,-0.507 -0.11228,-0.44735 -0.0681,-0.70092 0.12201,-0.70092 0.16386,0 0.2294,-0.1786 0.14563,-0.39688 -0.0838,-0.21828 -0.0224,-0.39687 0.13639,-0.39687 0.18689,0 0.16926,-0.14388 -0.05,-0.40809 -0.25653,-0.3091 -0.26439,-0.48238 -0.0324,-0.71438 0.4044,-0.4044 0.44594,-98.62545 0.0417,-98.62545 -0.14552,0 -0.26458,-0.18562 -0.26458,-0.41249 0,-0.22687 0.11741,-0.33993 0.2609,-0.25125 0.14349,0.0887 0.0114,-0.4103 -0.29362,-1.10886 -0.30498,-0.69856 -0.56725,-1.88627 -0.58282,-2.63935 -0.0156,-0.75308 -0.11046,-1.31846 -0.21088,-1.2564 -0.10041,0.0621 -0.12489,-0.10771 -0.0544,-0.37726 0.0705,-0.26955 -0.0395,-0.65773 -0.24438,-0.86262 -0.20489,-0.2049 -0.31775,-0.53688 -0.2508,-0.73773 0.081,-0.2429 0.008,-0.29487 -0.21805,-0.1552 -0.21511,0.13294 -0.27464,0.10458 -0.16224,-0.0773 0.22046,-0.35671 -0.63058,-2.20347 -0.93011,-2.01835 -0.11988,0.0741 -0.15179,-0.0377 -0.0709,-0.24847 0.0809,-0.21074 -0.0831,-0.54434 -0.36434,-0.74134 -0.49299,-0.34531 -0.58251,-0.49583 -0.58251,-0.97956 0,-0.26461 -3.04047,-3.28965 -3.27003,-3.25344 -0.0863,0.0136 -0.47023,-0.26557 -0.85312,-0.62042 -0.3829,-0.35486 -0.77269,-0.62298 -0.8662,-0.59583 -0.19885,0.0577 -1.68269,-0.87713 -1.91939,-1.20927 -0.089,-0.12494 -0.26763,-0.2185 -0.39688,-0.20793 -0.25404,0.0208 -2.28519,-0.66993 -3.14542,-1.06962 -0.29104,-0.13522 -0.88635,-0.24022 -1.32291,-0.23333 -0.43657,0.007 -23.71329,0.0124 -51.72605,0.0121 -42.86833,-3.4e-4 -51.20338,0.0587 -52.64449,0.37303 -0.94172,0.20539 -1.80492,0.31614 -1.91823,0.24611 -0.11332,-0.07 -0.20603,-0.005 -0.20603,0.14457 0,0.14954 -0.17859,0.20336 -0.39687,0.11959 -0.21828,-0.0838 -0.39688,-0.0135 -0.39688,0.15622 0,0.16967 -0.11906,0.23492 -0.26458,0.14498 -0.14552,-0.0899 -0.26458,-0.0412 -0.26458,0.10837 0,0.14954 -0.1786,0.20336 -0.39688,0.1196 -0.22476,-0.0863 -0.39687,-0.006 -0.39687,0.18469 0,0.18535 -0.0743,0.26272 -0.16506,0.17194 -0.23659,-0.23659 -2.21376,0.82098 -2.3891,1.27792 -0.0809,0.21087 -0.25427,0.31718 -0.38521,0.23625 -0.13095,-0.0809 -0.8555,0.4853 -1.61011,1.25829 -0.75461,0.77299 -1.45426,1.3804 -1.55477,1.34979 -0.10051,-0.0306 -0.40528,0.19823 -0.67727,0.50851 -0.3376,0.38512 -0.36858,0.50096 -0.0977,0.36502 0.21828,-0.10951 0.0628,0.10815 -0.34548,0.48369 -0.4083,0.37554 -0.64643,0.68463 -0.52917,0.68686 0.11725,0.002 0.0346,0.11694 -0.18368,0.25493 -0.21829,0.13798 -0.39688,0.35302 -0.39688,0.47787 0,0.12484 -0.20946,0.43644 -0.46546,0.69244 -0.256,0.256 -0.3978,0.57491 -0.31511,0.7087 0.0827,0.13379 0.0172,0.24325 -0.14548,0.24325 -0.16269,0 -0.22851,0.1089 -0.14625,0.24199 0.0823,0.13309 0.0286,0.28231 -0.1193,0.3316 -0.14787,0.0493 -0.32271,0.36927 -0.38853,0.71105 -0.0658,0.34179 -0.25782,0.78788 -0.42665,0.99132 -0.16884,0.20343 -0.2031,0.3717 -0.0761,0.37393 0.12696,0.002 0.08,0.0998 -0.10425,0.21674 -0.28871,0.18326 -0.54882,1.35491 -0.67052,3.02035 -0.0186,0.25467 -0.12364,0.46302 -0.23342,0.46302 -0.10977,0 -0.13567,0.16656 -0.0576,0.37012 0.0781,0.20356 0.023,0.4437 -0.12259,0.53365 -0.17485,0.10806 -0.26889,17.16261 -0.27722,50.27556 -0.0119,47.3238 0.0136,50.19471 0.45808,51.59824 0.25888,0.81742 0.54605,1.41088 0.63814,1.31878 0.0921,-0.0921 0.11196,0.0527 0.0442,0.32175 -0.14674,0.58226 1.59833,4.32565 2.0165,4.32565 0.15979,0 0.21756,0.11807 0.12838,0.26237 -0.0892,0.1443 0.13651,0.56102 0.50153,0.92604 0.36502,0.36502 0.58426,0.66367 0.4872,0.66367 -0.0971,0 0.4072,0.59257 1.12056,1.31682 0.71336,0.72426 1.34874,1.2651 1.41196,1.20188 0.0632,-0.0632 0.33433,0.14788 0.60246,0.46912 0.26814,0.32123 0.49148,0.46827 0.49632,0.32675 0.005,-0.14152 0.19527,0.009 0.42317,0.33427 0.46217,0.65985 2.33879,1.7119 2.59558,1.45511 0.0908,-0.0908 0.16506,-0.0299 0.16506,0.13532 0,0.16521 0.16323,0.23774 0.36273,0.16118 0.1995,-0.0765 0.42807,0.0311 0.50793,0.23919 0.16384,0.42696 3.71023,1.383 4.14149,1.11647 0.15373,-0.095 0.27957,-0.0764 0.27963,0.0413 6e-5,0.11773 12.65045,0.21405 28.1119796,0.21405 15.46152,0 29.1834204,0.0754 30.4931104,0.1676 1.30969,0.0922 3.0361,0.12168 3.83646,0.0656 0.80036,-0.0561 2.40771,-0.15961 3.57188,-0.22998 z m -65.88392,-13.89813 c -0.0914,-0.14789 -0.27935,-0.19896 -0.41767,-0.11348 -0.3307,0.20439 -2.09321,-0.38205 -2.09321,-0.69647 0,-0.13424 -0.14883,-0.24441 -0.33073,-0.24483 -0.1819,-4.1e-4 -0.56414,-0.34915 -0.84942,-0.77495 -0.28528,-0.42581 -0.61134,-0.71694 -0.72457,-0.64696 -0.11324,0.07 -0.12748,-0.0771 -0.0317,-0.32678 0.11741,-0.30597 0.0743,-0.39225 -0.13229,-0.26458 -0.20026,0.12377 -0.25189,0.0471 -0.14895,-0.22118 0.0873,-0.22745 0.019,-0.41062 -0.15315,-0.41062 -0.18576,0 -0.24602,-0.20385 -0.14984,-0.5069 0.0885,-0.27879 0.053,-0.57355 -0.0788,-0.65502 -0.13182,-0.0815 -0.20668,-0.44868 -0.16635,-0.81602 0.0403,-0.36734 -0.0353,-0.66789 -0.16797,-0.66789 -0.13271,0 -0.24129,-0.1786 -0.24129,-0.39688 0,-0.21828 0.13209,-0.39687 0.29353,-0.39687 0.17967,0 0.2516,-0.35922 0.18542,-0.92604 -0.0595,-0.50933 -2.1e-4,-0.92605 0.13166,-0.92605 0.13186,0 0.17418,-0.1709 0.094,-0.37978 -0.0802,-0.20888 -0.0269,-0.4194 0.11839,-0.46782 0.14527,-0.0484 0.29048,-0.26754 0.32268,-0.48692 0.05,-0.34101 1.10862,-1.60867 1.3017,-1.55881 0.0364,0.009 0.2745,-0.0629 0.52917,-0.1606 0.4014,-0.15404 0.45951,-0.53478 0.43664,-2.86135 -0.0145,-1.47602 -0.1038,-2.41036 -0.19843,-2.07631 -0.0946,0.33405 -0.17207,-2.46392 -0.17207,-6.21771 0,-3.75379 0.0756,-6.40835 0.1679,-5.89903 0.0923,0.50932 0.13184,-1.48896 0.0877,-4.44062 l -0.0802,-5.36667 0.8383,-0.89043 c 1.71955,-1.82649 0.70808,-1.73225 19.94768,-1.85845 9.5717196,-0.0628 17.8793696,-0.12079 18.4614496,-0.12889 0.58207996,-0.008 6.56563,0.0384 13.2967804,0.1034 6.73114,0.065 12.7438,0.0322 13.36146,-0.0728 l 1.12301,-0.19097 0.0773,-2.04395 c 0.0488,-1.29068 -0.0243,-2.04395 -0.19843,-2.04395 -0.17188,0 -0.27572,-0.94659 -0.27572,-2.51354 v -2.51354 l -2.18281,-0.057 c -1.20055,-0.0313 -2.65906,-0.0432 -3.24114,-0.0264 -5.47264,0.15829 -41.48787,0.16706 -41.58484,0.0101 -0.17629,-0.28528 -7.59504,-0.2269 -12.45109,0.098 -3.60454,0.24115 -4.13002,0.22197 -4.98075,-0.18173 -1.08784,-0.51621 -1.83727,-1.49849 -1.60503,-2.1037 0.0871,-0.22697 0.0489,-0.34501 -0.0849,-0.26231 -0.1338,0.0827 -0.31805,0.0293 -0.40946,-0.11855 -0.0914,-0.1479 -0.0463,-0.2689 0.10018,-0.2689 0.14651,0 0.30236,-0.62195 0.34635,-1.38211 0.0755,-1.30552 0.13861,-1.41523 1.1383,-1.98002 0.89515,-0.50572 1.4537,-0.59859 3.62241,-0.60227 1.41024,-0.002 2.62577,-0.10418 2.70117,-0.22618 0.0754,-0.12201 1.36236,-0.22929 2.85989,-0.2384 1.67834,-0.0102 2.5198,0.0678 2.19362,0.20323 -0.29104,0.12089 5.98248,0.22817 13.94115,0.2384 10.4115396,0.0134 14.5216896,-0.0645 14.6534396,-0.27768 0.13261,-0.21457 1.86989,-0.23917 6.29946,-0.0892 3.3640004,0.11388 6.3544904,0.19014 6.6455304,0.16947 0.29104,-0.0207 3.16967,-0.0528 6.39695,-0.0715 4.67562,-0.027 5.84113,-0.10331 5.73665,-0.3756 -0.0721,-0.18794 -0.004,-0.42031 0.15149,-0.51638 0.32108,-0.19844 0.39657,-4.70106 0.0842,-5.02096 -0.10914,-0.11176 -0.19843,-1.1734 -0.19843,-2.3592 0,-2.14 -0.005,-2.15553 -0.66146,-2.09348 -0.60192,0.0569 -28.5122204,0.0392 -52.69062,-0.0334 -5.3327,-0.016 -9.55942,0.0584 -9.39271,0.16527 0.17454,0.11194 0.0208,0.19611 -0.36247,0.19844 -0.85852,0.005 -2.50586,-0.87695 -2.52144,-1.35027 -0.007,-0.20101 -0.1356,-0.34232 -0.28663,-0.31402 -0.15103,0.0283 -0.28955,-0.0908 -0.30781,-0.26458 -0.0183,-0.17382 -0.15844,-0.85182 -0.31149,-1.50666 -0.17534,-0.7502 -0.27243,-5.84729 -0.26247,-13.77911 0.0148,-11.76341 -0.0154,-12.62262 -0.46021,-13.10934 -0.26182,-0.28648 -0.35902,-0.33666 -0.21601,-0.11152 0.17601,0.27708 0.0725,0.24956 -0.32022,-0.0852 -0.31914,-0.27199 -0.5642,-0.56964 -0.54458,-0.66146 0.0626,-0.2928 -0.66236,-1.62214 -0.88459,-1.62214 -0.1176,0 -0.14528,-0.17859 -0.0615,-0.39687 0.0838,-0.21829 0.0503,-0.39688 -0.0744,-0.39688 -0.12471,0 -0.22674,-0.83344 -0.22674,-1.85208 0,-1.01865 0.10203,-1.85209 0.22674,-1.85209 0.12471,0 0.15821,-0.17859 0.0744,-0.39687 -0.0838,-0.21828 -0.0242,-0.39688 0.13229,-0.39688 0.16042,0 0.20841,-0.19851 0.11001,-0.45495 -0.096,-0.25023 -0.0927,-0.3731 0.007,-0.27305 0.10005,0.10006 0.52306,-0.24737 0.94002,-0.77205 0.41696,-0.52468 0.75812,-0.88475 0.75812,-0.80016 0,0.0846 0.50601,-0.0616 1.12448,-0.32483 0.61846,-0.26325 1.3626,-0.56842 1.65364,-0.67816 0.7515,-0.28337 1.98438,-0.375 1.98438,-0.1475 0,0.10557 0.47088,0.33302 1.04641,0.50546 1.18306,0.35445 2.73757,1.54371 2.5065,1.91758 -0.084,0.13587 -0.0545,0.22998 0.0654,0.20914 0.62572,-0.1087 0.87956,0.0893 0.87956,0.68623 0,0.3638 0.11533,0.66146 0.25628,0.66146 0.14096,0 0.19237,0.16655 0.11426,0.37011 -0.0781,0.20357 -0.0365,0.43533 0.0924,0.51503 0.31422,0.19419 0.20209,2.20419 -0.14639,2.62407 -0.15224,0.18345 -0.31552,0.68931 -0.36284,1.12414 -0.0473,0.43484 -0.29639,0.94758 -0.55349,1.13944 -0.25709,0.19186 -0.38752,0.47815 -0.28984,0.63619 0.0977,0.15805 0.0581,0.2135 -0.088,0.12322 -0.58296,-0.36029 -1.34676,1.05135 -1.42422,2.6322 -0.1652,3.3714 0.0589,11.60282 0.30158,11.07623 0.15382,-0.33382 0.19911,1.40365 0.12268,4.70641 -0.0771,3.33173 -0.0282,5.17814 0.13445,5.07762 0.14057,-0.0869 0.25559,-0.0319 0.25559,0.12223 0,0.30892 9.95016,0.40087 11.72057,0.1083 l 1.00494,-0.16607 -0.14773,-9.15758 c -0.23922,-14.82826 -0.0832,-13.20122 -1.39392,-14.53916 -1.25057,-1.2766 -2.12275,-3.31988 -1.65675,-3.88137 0.15457,-0.18626 0.25733,-0.44047 0.22836,-0.56493 -0.0796,-0.34191 0.32364,-1.71422 0.7662,-2.60754 0.43306,-0.87413 2.0825,-2.52118 2.30351,-2.30017 0.0767,0.0767 0.13941,-0.006 0.13941,-0.18489 0,-0.17836 0.11906,-0.25071 0.26458,-0.16077 0.14552,0.0899 0.26458,0.0412 0.26458,-0.10837 0,-0.14955 0.1786,-0.20337 0.39688,-0.1196 0.21828,0.0838 0.39687,0.046 0.39687,-0.0839 0,-0.12991 0.20836,-0.25161 0.46302,-0.27045 0.25467,-0.0188 0.83955,-0.10939 1.29974,-0.20122 0.48748,-0.0973 0.90925,-0.0496 1.01047,0.11416 0.0956,0.15463 0.28459,0.21263 0.42006,0.12891 0.13546,-0.0837 0.2463,-0.039 0.2463,0.0993 0,0.23489 1.20133,0.66819 1.41967,0.51206 0.0545,-0.039 0.54546,0.4649 1.09097,1.11974 0.54551,0.65484 1.11022,1.26551 1.25491,1.35703 0.15735,0.0995 0.11813,0.22405 -0.0976,0.30985 -0.22845,0.0908 -0.16668,0.15257 0.16849,0.16837 0.44167,0.0208 0.46354,0.068 0.1323,0.28547 -0.33181,0.21782 -0.33737,0.29889 -0.0339,0.49451 0.19964,0.12869 0.30502,0.39658 0.23419,0.59532 -0.0708,0.19873 -0.0203,0.57215 0.11228,0.82981 0.13258,0.25767 0.14961,0.61486 0.0378,0.79375 -0.23203,0.37135 -0.37856,0.91175 -0.42897,1.58204 -0.0192,0.25466 -0.14111,0.46302 -0.27102,0.46302 -0.12991,0 -0.16529,0.18477 -0.0786,0.41061 0.0904,0.23546 0.046,0.34167 -0.10398,0.24897 -0.14385,-0.0889 -0.26155,-0.0618 -0.26155,0.0601 0,0.12197 -0.43827,0.67299 -0.97393,1.22448 l -0.97393,1.00271 -0.10518,10.43204 c -0.0773,7.66722 -0.0208,10.68769 0.21317,11.39662 l 0.31834,0.96458 5.9862796,-0.20085 c 3.29246,-0.11048 9.67723,-0.17103 14.18837,-0.13457 4.5111504,0.0365 10.8214604,0.0801 14.0229204,0.0969 l 5.82083,0.0306 0.0851,-0.59924 c 0.0468,-0.32958 0.19562,-0.53091 0.33073,-0.4474 0.14207,0.0878 0.22814,-0.49632 0.2041,-1.38514 l -0.0416,-1.53697 -0.18145,1.32292 c -0.153,1.11544 -0.18797,0.92664 -0.22302,-1.20386 -0.0281,-1.70662 0.0658,-2.64242 0.28916,-2.88308 0.26459,-0.28505 0.26459,-0.31897 0,-0.1696 -0.24441,0.13799 -0.33178,-0.14536 -0.33478,-1.08566 -0.002,-0.69981 -0.0999,-1.42345 -0.21712,-1.60809 -0.16905,-0.26633 -2.91527,-0.31226 -13.29126,-0.22224 -7.1930104,0.0624 -13.38475044,0.14231 -13.75944044,0.17758 -1.10592996,0.1041 -2.02371996,-0.23735 -2.17306996,-0.80846 -0.0997,-0.38136 -0.27246,-0.4821 -0.60671,-0.35383 -0.36107,0.13855 -0.42867,0.0787 -0.29738,-0.26349 0.10724,-0.27947 0.038,-0.44281 -0.18779,-0.44281 -0.73882,0 -0.9398,-2.69207 -0.27213,-3.6453 0.22653,-0.32342 0.32438,-0.58804 0.21745,-0.58804 -0.26065,0 1.82514,-1.57074 2.09826,-1.58014 0.11773,-0.004 0.15313,0.0912 0.0787,0.21173 -0.0745,0.12049 0.59668,0.11896 1.49144996,-0.003 0.94939,-0.12984 1.96334004,-0.12053 2.43489004,0.0224 2.54807,0.77207 8.6132404,0.48165 8.6132404,-0.41243 0,-0.19512 0.11907,-0.35477 0.26459,-0.35477 0.14552,0 0.26458,-0.41672 0.26458,-0.92604 0,-0.50933 -0.12883,-0.92604 -0.28629,-0.92604 -0.1861,0 -0.25555,-0.63674 -0.19844,-1.81937 0.0652,-1.35114 -0.0126,-1.9129 -0.30252,-2.18281 -0.2147,-0.1999 -0.4825904,-0.36345 -0.5953104,-0.36345 -0.11272,0 -0.21803,-0.11906 -0.23402,-0.26458 -0.016,-0.14552 -0.28389,-0.62177 -0.59532,-1.05834 -0.39504,-0.55378 -0.57256,-1.21239 -0.58718,-2.1785 -0.0294,-1.94291 0.15796,-3.00919 0.49243,-2.80248 0.17627,0.10894 0.2154,0.005 0.10569,-0.28102 -0.10349,-0.26969 -0.068,-0.38839 0.0873,-0.29237 0.14386,0.0889 0.26156,0.0468 0.26156,-0.0935 0,-0.14034 0.41672,-0.75395 0.9260404,-1.36357 0.50932,-0.60962 0.92604,-1.04342 0.92604,-0.96401 0,0.0794 0.50602,-0.0853 1.12448,-0.36603 1.41648,-0.64296 2.99618,-0.65958 4.26008,-0.0448 0.53962,0.26247 0.94783,0.53037 0.90714,0.59531 -0.0407,0.0649 -0.0254,0.0893 0.034,0.0542 0.0594,-0.0351 0.29058,0.0839 0.51381,0.26459 0.3326,0.26915 0.36544,0.26136 0.1819,-0.0432 -0.15203,-0.25225 -0.12585,-0.31097 0.0815,-0.18283 0.168,0.10384 0.30546,0.36409 0.30546,0.57835 0,0.21426 0.17791,0.45784 0.39536,0.54128 0.21744,0.0834 0.32948,0.2583 0.24897,0.38857 -0.0805,0.13027 -0.0133,0.23686 0.14942,0.23686 0.1627,0 0.22223,0.11906 0.1323,0.26458 -0.0899,0.14552 -0.0412,0.26459 0.10837,0.26459 0.14954,0 0.20336,0.17859 0.1196,0.39687 -0.0838,0.21828 -0.0316,0.39688 0.11582,0.39688 0.14747,0 0.20937,0.22469 0.13755,0.4993 -0.0718,0.27462 -0.0123,0.5724 0.13222,0.66173 0.2773,0.17137 0.12624,1.15294 -0.25261,1.64144 -0.12324,0.15891 -0.14573,0.36727 -0.05,0.46302 0.0958,0.0958 0.0605,0.17409 -0.0783,0.17409 -0.13881,0 -0.26971,0.2301 -0.29089,0.51133 -0.0556,0.73751 -0.87711,1.89543 -1.20225,1.69448 -0.16971,-0.10489 -0.19654,-0.0415 -0.0694,0.16414 0.12009,0.19432 0.0576,0.42744 -0.14886,0.55502 -0.24332,0.15038 -0.33622,0.69104 -0.29363,1.70883 0.0343,0.81887 -0.0292,1.43191 -0.14099,1.36231 -0.11181,-0.0696 -0.1638,0.83606 -0.11553,2.01255 0.0483,1.17649 0.18041,1.98916 0.29365,1.80594 0.14266,-0.23082 0.56265,-0.2812 1.36745,-0.16403 3.05335,0.44454 8.99649,0.33068 7.76933,-0.14884 -0.30838,-0.12051 0.47246,-0.21174 1.90614,-0.22272 1.87329,-0.0143 2.52355,0.0765 2.84427,0.39718 0.22868,0.22868 0.41577,0.32952 0.41577,0.2241 0,-0.17789 0.1936,0.0249 1.36733,1.43215 0.24271,0.291 0.37457,0.59581 0.29303,0.67735 -0.0815,0.0815 -0.0333,0.29996 0.10721,0.48538 0.36148,0.47699 0.38049,1.60941 0.0307,1.82562 -0.20491,0.12664 -0.27661,2.0159 -0.23608,6.22023 0.032,3.3211 0.10653,6.08668 0.16558,6.14574 0.0591,0.0591 2.16503,0.002 4.67993,-0.12667 l 4.57255,-0.23405 0.0753,-2.86555 c 0.0414,-1.57605 -0.0211,-2.80596 -0.13896,-2.73312 -0.11785,0.0728 -0.21127,-3.58134 -0.2076,-8.12038 l 0.007,-8.25279 -0.74004,-0.78804 c -0.40702,-0.43342 -0.9266,-1.17499 -1.15463,-1.64793 -0.22802,-0.47294 -0.52711,-0.8599 -0.66463,-0.8599 -0.13753,0 -0.17325,-0.12427 -0.0794,-0.27617 0.0939,-0.15189 0.0252,-0.45144 -0.15256,-0.66566 -0.43131,-0.51969 -0.17929,-3.80069 0.31604,-4.11455 0.19719,-0.12495 0.2583,-0.229 0.1358,-0.23123 -0.4311,-0.008 2.13757,-2.2923 2.96099,-2.63338 0.45848,-0.18991 0.83361,-0.4334 0.83361,-0.54108 0,-0.10769 0.31535,-0.13551 0.70078,-0.0618 0.40093,0.0766 0.63518,0.0278 0.54747,-0.1141 -0.32179,-0.52066 1.35624,-0.32999 2.66891,0.30326 0.75455,0.36401 1.43202,0.66183 1.5055,0.66183 0.0735,0 0.37171,0.23812 0.66275,0.52916 0.29105,0.29105 0.45506,0.52917 0.36448,0.52917 -0.0906,0 -10e-4,0.20145 0.19844,0.44767 0.29729,0.3665 0.29838,0.40868 0.006,0.23265 -0.28929,-0.17417 -0.30009,-0.10843 -0.0568,0.34609 0.16516,0.3086 0.41517,0.56109 0.55557,0.56109 0.1404,0 0.25527,0.1786 0.25527,0.39688 0,0.21828 0.10792,0.39687 0.23981,0.39687 0.1319,0 0.17738,0.23876 0.10107,0.53058 -0.0763,0.29181 0.009,0.70853 0.18946,0.92604 0.26132,0.31488 0.26109,0.39547 -0.001,0.39547 -0.26278,0 -0.26278,0.0802 0,0.39687 0.29315,0.35323 0.19639,0.49828 -0.29386,0.4405 -0.0889,-0.0105 -0.29813,0.28067 -0.46503,0.64698 -0.1788,0.39242 -0.19394,0.59834 -0.0369,0.50126 0.14662,-0.0906 0.26615,-0.0684 0.2656,0.0493 -0.002,0.35881 -1.09758,2.03722 -1.54276,2.36274 -0.36824,0.26927 -0.41976,1.4917 -0.42953,10.19114 -0.006,5.43685 0.0818,10.24236 0.19538,10.67892 0.14793,0.56867 0.13032,0.68121 -0.0621,0.39688 -0.23069,-0.3409 -0.26914,-0.33156 -0.27262,0.0661 -0.002,0.25466 0.11501,0.46302 0.26053,0.46302 0.14552,0 0.26458,0.29766 0.26458,0.66146 0,0.3638 0.14883,0.66328 0.33073,0.66551 0.22452,0.003 0.20328,0.0949 -0.0662,0.28686 -0.30057,0.21418 -0.18019,0.2453 0.4961,0.12824 0.49113,-0.085 3.32589,-0.15457 6.29947,-0.15457 3.53696,0 5.34995,-0.0915 5.24298,-0.26458 -0.0899,-0.14552 -0.0339,-0.26459 0.12452,-0.26459 0.2034,0 0.28084,-3.19284 0.26352,-10.86437 -0.0219,-9.71573 -0.0709,-10.91857 -0.46352,-11.37708 -0.24145,-0.28199 -0.5629,-0.51271 -0.71434,-0.51271 -0.15143,0 -0.39286,-0.22264 -0.53651,-0.49475 -0.14364,-0.27211 -0.54036,-1.00388 -0.88158,-1.62615 -0.72619,-1.32431 -0.80654,-3.15133 -0.20221,-4.59769 0.2193,-0.52488 0.33804,-0.95433 0.26386,-0.95433 -0.0742,0 0.4379,-0.47276 1.13798,-1.05059 0.70007,-0.57782 1.45512,-1.20289 1.67789,-1.38906 0.22277,-0.18616 0.81808,-0.37877 1.32292,-0.42802 0.50483,-0.0493 0.95347,-0.18577 0.99696,-0.30337 0.0435,-0.11761 0.6928,-0.0519 1.4429,0.14594 0.75011,0.19788 1.40648,0.31713 1.45861,0.265 0.0521,-0.0521 0.40007,0.18815 0.7732,0.53395 0.37312,0.3458 0.76658,0.57424 0.87435,0.50764 0.10776,-0.0666 0.40889,0.11422 0.66918,0.40183 0.26028,0.28761 0.39283,0.52293 0.29456,0.52293 -0.0983,0 0.0555,0.45898 0.34167,1.01995 0.61622,1.2079 1.02302,3.74255 0.60066,3.74255 -0.33595,0 -0.70958,1.00437 -0.61516,1.65365 0.037,0.25466 -0.0592,0.46302 -0.21387,0.46302 -0.15467,0 -0.28122,0.17859 -0.28122,0.39687 0,0.21828 -0.10518,0.39688 -0.23372,0.39688 -0.12855,0 -0.296,0.23812 -0.37211,0.52916 -0.0855,0.32694 -0.36089,0.52917 -0.72062,0.52917 -0.45084,0 -0.53917,0.1045 -0.39139,0.46302 0.10498,0.25466 0.31003,5.32676 0.45569,11.27134 0.20675,8.43818 0.19378,10.94107 -0.0592,11.41368 -0.21385,0.39959 -0.26118,1.06193 -0.13923,1.94861 0.22988,1.67141 -0.21684,3.2642 -0.8476,3.02215 -0.25338,-0.0972 -0.35731,-0.0542 -0.25783,0.10678 0.21246,0.34377 -0.93996,1.3564 -1.72819,1.51857 -1.28587,0.26456 -31.29169,0.40328 -30.76313,0.14222 0.40727,-0.20114 0.26509,-0.23504 -0.61716,-0.14715 -0.63049,0.0628 -1.22542,0.19328 -1.32207,0.28994 -0.28472,0.28472 -0.35949,9.75047 -0.0803,10.16462 0.20838,0.3091 2.03512,0.38815 10.52853,0.45561 6.06573,0.0482 10.00537,-0.013 9.61494,-0.14918 -0.61546,-0.21475 -0.59614,-0.23263 0.27781,-0.25717 0.5166,-0.0145 1.05238,0.0865 1.19062,0.22451 0.14033,0.14007 2.80717,0.26983 6.03758,0.29376 5.41156,0.0401 5.82642,0.0778 6.40712,0.58272 0.3415,0.29693 0.55925,0.63963 0.48389,0.76155 -0.0753,0.12193 0.0405,0.15357 0.25746,0.0703 0.28544,-0.10953 0.46732,0.12898 0.65806,0.86293 0.16314,0.62777 0.27453,9.04538 0.29231,22.08891 0.0232,17.01367 -0.0372,21.10104 -0.31359,21.21173 -0.22108,0.0886 0.0663,0.48891 0.81138,1.13045 1.24321,1.07041 2.13378,2.78979 2.30258,4.44549 0.0578,0.56707 0.0319,0.9578 -0.0576,0.86828 -0.20818,-0.20817 -1.75952,2.98299 -1.73425,3.5674 0.0105,0.2418 -0.28365,0.65852 -0.65356,0.92605 -0.36992,0.26752 -0.83706,0.64283 -1.0381,0.834 -0.20104,0.19118 -0.47728,0.27854 -0.61386,0.19413 -0.13658,-0.0844 -0.32432,-0.0305 -0.41719,0.11973 -0.0929,0.15027 -0.27969,0.20472 -0.41515,0.121 -0.13547,-0.0837 -0.24631,-0.0559 -0.24631,0.0618 0,0.11773 -0.53578,0.21405 -1.19062,0.21405 -0.65484,0 -1.19063,-0.0973 -1.19063,-0.21627 0,-0.11894 -0.22557,-0.14467 -0.50128,-0.0572 -0.28502,0.0905 -0.67231,-0.0119 -0.8977,-0.23731 -0.21802,-0.21802 -0.55557,-0.43042 -0.75011,-0.472 -0.47904,-0.10238 -1.78644,-1.73385 -2.2194,-2.76953 -0.48857,-1.16871 -0.90496,-4.05294 -0.58511,-4.05294 0.13905,0 0.19204,-0.23242 0.11776,-0.51648 -0.0743,-0.28406 -0.0376,-0.55195 0.0816,-0.59531 0.11916,-0.0434 0.25535,-0.24992 0.30264,-0.45903 0.0473,-0.20911 0.38365,-0.6652 0.74745,-1.01354 0.3638,-0.34833 0.48286,-0.55604 0.26458,-0.46157 -0.21828,0.0945 0.0153,-0.19359 0.51917,-0.64011 0.50383,-0.44653 1.00984,-0.81188 1.12448,-0.81188 0.11464,0 0.20661,-0.38695 0.20438,-0.85989 -0.002,-0.47294 -0.0915,-0.72228 -0.19843,-0.55409 -0.10692,0.16819 -0.187,-6.85649 -0.17797,-15.61042 0.009,-8.75392 -0.0552,-14.07075 -0.1428,-11.81518 -0.15906,4.09705 -0.15923,4.09538 -0.17731,-1.71979 -0.01,-3.20146 0.0672,-5.34458 0.1714,-4.7625 0.15401,0.86016 0.19,0.68676 0.19221,-0.92604 0.002,-1.5068 -0.0442,-1.76151 -0.19221,-1.05834 -0.19419,0.92257 -0.19506,0.92151 -0.22976,-0.28182 l -0.0348,-1.20787 -2.3151,0.0992 c -1.66174,0.0712 -2.2031,0.0212 -1.91823,-0.17714 0.45703,-0.31826 -3.47062,-0.39085 -6.35,-0.11736 l -1.71979,0.16334 -0.13229,11.67488 c -0.0728,6.42118 -0.13229,15.33186 -0.13229,19.80151 0,7.71209 0.0263,8.15072 0.51467,8.59896 0.49896,0.4579 0.50314,0.45617 0.13685,-0.0568 -0.3739,-0.52367 -0.37169,-0.52394 0.21293,-0.0251 0.32492,0.27722 0.59075,0.66417 0.59075,0.8599 0,0.19572 0.12609,0.35586 0.2802,0.35586 0.15411,0 0.20662,0.11907 0.11668,0.26459 -0.0899,0.14552 -0.0304,0.26458 0.13229,0.26458 0.1627,0 0.22731,0.11084 0.14359,0.2463 -0.0837,0.13547 -0.0364,0.31787 0.10512,0.40535 0.14154,0.0875 0.1897,0.33534 0.10701,0.55082 -0.0827,0.21547 -0.0124,0.55795 0.15614,0.76105 0.3935,0.47414 0.2459,1.57479 -0.29347,2.18842 -0.23121,0.26305 -0.49835,0.77593 -0.59364,1.13973 -0.16761,0.63994 -0.15975,0.63779 0.24174,-0.0661 0.49645,-0.87042 0.8138,-0.98311 0.37256,-0.13229 -1.46809,2.83082 -3.12442,4.30234 -4.49946,3.99739 -0.37551,-0.0833 -0.5098,-0.0503 -0.32909,0.0807 0.18229,0.1322 -0.22124,0.24403 -1.00166,0.27759 -0.8725,0.0375 -1.24881,-0.0379 -1.13205,-0.22678 0.116,-0.1877 -0.0256,-0.21935 -0.42054,-0.094 -0.44614,0.1416 -0.54307,0.10426 -0.3866,-0.14891 0.14847,-0.24025 0.0816,-0.28907 -0.23145,-0.16894 -0.24216,0.0929 -0.44028,0.0466 -0.44028,-0.10295 0,-0.14954 -0.11907,-0.19831 -0.26459,-0.10837 -0.14552,0.0899 -0.26458,0.0176 -0.26458,-0.16077 0,-0.17837 -0.0786,-0.24568 -0.17471,-0.14959 -0.0961,0.0961 -0.34235,-0.0647 -0.54727,-0.35721 -0.20491,-0.29255 -0.51324,-0.4513 -0.68519,-0.35277 -0.17194,0.0985 -0.22352,0.0809 -0.11463,-0.0392 0.1089,-0.1201 -0.085,-0.70474 -0.43095,-1.29919 -0.34592,-0.59445 -0.71206,-1.46641 -0.81366,-1.93769 -0.1016,-0.47127 -0.29462,-0.92478 -0.42895,-1.0078 -0.34722,-0.21459 -0.30352,-1.17804 0.0534,-1.17804 0.1907,0 0.23967,-0.28996 0.13628,-0.80691 -0.11476,-0.5738 -0.0731,-0.75234 0.14418,-0.61805 0.20362,0.12585 0.2492,0.042 0.13661,-0.25143 -0.0929,-0.24215 -0.0466,-0.44028 0.10295,-0.44028 0.14954,0 0.19831,-0.11906 0.10837,-0.26458 -0.0899,-0.14552 -0.0304,-0.26459 0.13229,-0.26459 0.1627,0 0.25538,-0.0893 0.20596,-0.19843 -0.0494,-0.10914 0.36028,-0.63265 0.91043,-1.16335 0.55015,-0.5307 1.00865,-0.88789 1.01887,-0.79375 0.0102,0.0941 0.12093,-0.067 0.24599,-0.35801 0.12507,-0.29104 0.22739,-1.30307 0.22739,-2.24896 0,-0.94588 -0.0809,-1.51586 -0.17984,-1.26661 -0.0989,0.24925 -0.17984,-7.09817 -0.17984,-16.32761 0,-9.22943 0.0809,-16.57711 0.17984,-16.32818 0.10112,0.25448 0.18798,-0.14306 0.19844,-0.90815 0.0133,-0.97203 -0.0936,-1.40381 -0.37425,-1.5115 -0.21606,-0.0829 -2.34499,-0.15299 -4.73095,-0.15574 l -4.33812,-0.005 -0.15306,3.23629 c -0.26134,5.52586 -0.16625,24.00609 0.12353,24.00609 0.14424,0 0.19374,0.11086 0.11,0.24636 -0.0837,0.13549 -0.16586,0.84987 -0.18248,1.5875 -0.0166,0.73762 -0.14074,1.34114 -0.27584,1.34114 -0.1351,0 -0.18093,0.10468 -0.10186,0.23263 0.0791,0.12795 -0.16825,0.54467 -0.54963,0.92604 -0.64259,0.6426 -0.97409,0.8048 -1.48114,0.72474 -0.10914,-0.0172 -0.19844,0.1046 -0.19844,0.27074 0,0.22171 -0.86212,0.24442 -3.24115,0.0854 -4.01505,-0.26843 -9.16674,-0.29156 -9.81172,-0.0441 -0.44342,0.17015 -0.47228,0.47257 -0.35226,3.69129 0.0742,1.98845 0.2388,3.48274 0.38041,3.45232 0.13733,-0.0295 0.5865,0.29792 0.99816,0.7276 0.41166,0.42968 0.65817,0.78124 0.54779,0.78124 -0.11038,0 -0.0225,0.17818 0.19525,0.39594 0.25652,0.25653 0.35541,0.72264 0.28085,1.3238 -0.0808,0.65154 -0.0158,0.90789 0.21827,0.86083 0.19923,-0.0401 0.29998,0.14589 0.2504,0.46214 -0.0456,0.29104 -0.0737,0.85349 -0.0625,1.24988 0.0145,0.5088 -0.0868,0.67954 -0.34438,0.5807 -0.27782,-0.10661 -0.34605,0.097 -0.28601,0.85368 0.0434,0.54652 -0.007,0.85551 -0.11093,0.68662 -0.12935,-0.20928 -0.29842,-0.1331 -0.53095,0.23924 -0.18764,0.30046 -0.21332,0.46728 -0.0571,0.3707 0.44906,-0.27753 0.33402,0.0739 -0.3112,0.95048 -0.55743,0.75735 -2.05052,1.77174 -2.05052,1.3931 0,-0.0943 -0.1635,-0.0358 -0.36334,0.13006 -0.19984,0.16585 -0.55702,0.22722 -0.79375,0.13638 -0.24403,-0.0936 -0.43041,-0.0331 -0.43041,0.13972 0,0.71314 -3.24589,-0.33108 -4.42358,-1.4231 -0.40171,-0.37249 -0.8279304,-0.67725 -0.9471404,-0.67725 -0.11922,0 -0.14266,-0.1199 -0.0521,-0.26645 0.0906,-0.14655 -0.0139,-0.335 -0.23227,-0.41877 -0.23265,-0.0893 -0.33049,-0.32548 -0.23639,-0.5707 0.11489,-0.2994 0.0609,-0.35679 -0.18987,-0.20181 -0.22821,0.14104 -0.2871,0.1141 -0.16884,-0.0772 0.0999,-0.1616 -7.9e-4,-0.73032 -0.2237,-1.26382 -0.47124,-1.12783 -0.53767,-2.75746 -0.11241,-2.75746 0.16109,0 0.22436,-0.17859 0.1406,-0.39687 -0.0838,-0.21829 -0.045,-0.39688 0.0862,-0.39688 0.13115,0 0.31375,-0.23722 0.40577,-0.52716 0.092,-0.28993 0.64896,-1.13649 1.2376404,-1.88122 0.94547,-1.19611 1.03606,-1.42929 0.77656,-1.99884 -0.16158,-0.35462 -0.29377,-1.78161 -0.29377,-3.17109 v -2.52632 l -4.8286504,0.15434 c -2.65575,0.0849 -5.48507004,0.20988 -6.28736004,0.27777 -1.66844996,0.14118 -3.10861996,-0.49028 -4.06777996,-1.78357 -0.66216,-0.89284 -0.80848,-4.01816 -0.20559,-4.39154 0.19433,-0.12035 0.32711,-0.32025 0.29506,-0.44422 -0.032,-0.12396 0.16112,-0.34878 0.42925,-0.49958 0.26813,-0.15081 0.64481,-0.41796 0.83707,-0.59368 0.19226,-0.17572 0.52471,-0.25228 0.73878,-0.17013 0.22401,0.086 0.39094,-0.003 0.39327,-0.20968 0.003,-0.28362 0.0489,-0.28841 0.21747,-0.0228 0.21466,0.33822 0.98142996,0.33522 1.52750996,-0.006 0.1616,-0.10097 0.37239,-0.10503 0.46841,-0.009 0.096,0.096 0.38052,0.20417 0.63222,0.24033 3.08493004,0.44322 6.28674004,0.5709 15.17514044,0.60512 l 10.48418,0.0404 0.16169,-0.60354 c 0.25945,-0.96845 0.1971,-4.22406 -0.0777,-4.05426 -0.14548,0.0899 -0.23971,-0.77527 -0.22985,-2.11042 0.009,-1.24454 -0.0684,-2.34788 -0.17249,-2.45187 -0.10406,-0.10399 -9.2056,-0.18907 -20.2256604,-0.18907 H -14.018047 l -0.0121,10.58704 c -0.007,5.82287 -0.0984,10.85897 -0.20385,11.19134 -0.17195,0.54175 0.277,1.56494 0.56172,1.28022 0.16344,-0.16344 1.8356,1.52228 1.73204,1.74609 -0.0505,0.10914 0.0413,0.19843 0.20399,0.19843 0.1627,0 0.23535,0.0978 0.16145,0.21741 -0.0739,0.11958 0.0267,0.52788 0.22358,0.90734 0.19686,0.37946 0.32451,0.72811 0.28365,0.77478 -0.0408,0.0467 -0.14557,0.7607 -0.2327,1.58675 -0.22139,2.09884 -0.24718,2.1791 -0.76886,2.39297 -0.25584,0.10489 -0.60628,0.52161 -0.77876,0.92604 -0.17248,0.40444 -0.49893,0.96416 -0.72545,1.24384 -0.35062,0.43288 -0.35285,0.4753 -0.015,0.28525 0.25566,-0.14381 0.21954,-0.021 -0.10151,0.34515 -0.27411,0.31263 -0.60153,0.50466 -0.7276,0.42675 -0.12607,-0.0779 -0.22922,-0.0285 -0.22922,0.10984 0,0.32686 -1.16302,0.6511 -2.57446,0.71774 -0.70381,0.0332 -1.05744,-0.0472 -0.95272,-0.21659 0.10644,-0.17222 -0.0864,-0.20597 -0.5344,-0.0935 -0.43352,0.10881 -0.70092,0.0671 -0.70092,-0.10932 0,-0.15688 -0.10115,-0.22272 -0.22478,-0.14632 -0.28088,0.1736 -2.98266,-2.10373 -2.75999,-2.32639 0.0894,-0.0894 0.0166,-0.16255 -0.16175,-0.16255 -0.17836,0 -0.25071,-0.11906 -0.16078,-0.26458 0.0899,-0.14552 0.0176,-0.26459 -0.16077,-0.26459 -0.17836,0 -0.24595,-0.0783 -0.1502,-0.17409 0.0957,-0.0958 0.0425,-0.33272 -0.11846,-0.52659 -0.52974,-0.6383 -0.61143,-3.60147 -0.12521,-4.54172 0.23977,-0.46366 0.3549,-0.84301 0.25585,-0.84301 -0.0991,0 -0.001,-0.20836 0.21757,-0.46302 0.21872,-0.25466 0.47246,-0.67372 0.56387,-0.93125 0.0914,-0.25752 0.60525,-0.72727 1.14188,-1.04389 0.53663,-0.31661 0.86689,-0.61184 0.73391,-0.65606 -0.14179,-0.0472 -0.20639,-3.70245 -0.15621,-8.83946 0.0605,-6.19125 0.002,-8.7076 -0.19843,-8.58353 -0.38944,0.24068 -0.37655,-2.03858 0.0137,-2.42886 0.18281,-0.18281 0.22925,-0.66282 0.12031,-1.24354 l -0.17744,-0.94581 h -6.488 -6.488 l 0.18875,2.81769 c 0.14138,2.11057 0.11172,2.77009 -0.11818,2.628 -0.23103,-0.14278 -0.28969,1.99022 -0.2372,8.62554 0.0395,4.99513 0.17157,8.77677 0.30474,8.72649 0.12925,-0.0488 0.33326,0.0702 0.45337,0.26458 0.1201,0.19433 0.37154,0.35874 0.55874,0.36535 0.18721,0.007 0.30951,0.15876 0.27178,0.33809 -0.0377,0.17934 0.11042,0.39476 0.32921,0.47872 0.2188,0.084 0.33194,0.25924 0.25143,0.38952 -0.0805,0.13027 -0.0133,0.23685 0.14942,0.23685 0.1627,0 0.22223,0.11907 0.13229,0.26459 -0.0899,0.14552 -0.0412,0.26458 0.10838,0.26458 0.14954,0 0.20336,0.17859 0.1196,0.39688 -0.0838,0.21828 -0.0493,0.39687 0.0766,0.39687 0.45627,0 0.12421,3.51674 -0.46064,4.87854 -0.82938,1.93118 -3.15171,3.94613 -3.96722,3.44211 -0.13331,-0.0824 -0.24238,-0.0237 -0.24238,0.1304 0,0.35849 -1.76626,0.36854 -1.98704,0.0113 z m 77.57403,-6.65988 c -0.0845,-0.21106 -0.14716,-0.14837 -0.15985,0.15986 -0.0115,0.27891 0.051,0.43518 0.13896,0.34726 0.0879,-0.0879 0.0973,-0.31612 0.0209,-0.50712 z m 28.69168,-49.23345 c -0.26131,-0.25936 -0.2917,-0.22897 -0.14812,0.14812 0.0994,0.26093 0.24731,0.40778 0.32877,0.32632 0.0815,-0.0815 1.7e-4,-0.29496 -0.18065,-0.47444 z m -102.50782,-23.93534 c -0.0671,-0.25743 -0.12638,-0.11087 -0.13177,0.32569 -0.005,0.43657 0.0495,0.64719 0.12197,0.46806 0.0725,-0.17913 0.0769,-0.53632 0.01,-0.79375 z m 62.18666,-12.66645 c -0.0879,-0.0879 -0.31612,-0.0973 -0.50712,-0.0209 -0.21107,0.0845 -0.14837,0.14716 0.15985,0.15985 0.27892,0.0115 0.43519,-0.0511 0.34727,-0.13896 z M 6.4705426,282.55062 c 0.191,-0.0764 0.4192,-0.067 0.50712,0.0209 0.0879,0.0879 -0.0684,0.15045 -0.34726,0.13897 -0.30823,-0.0127 -0.37092,-0.0754 -0.15986,-0.15986 z M -40.269317,253.62719 c 0,-0.3638 0.0601,-0.51263 0.13345,-0.33073 0.0734,0.18191 0.0734,0.47956 0,0.66146 -0.0734,0.1819 -0.13345,0.0331 -0.13345,-0.33073 z m 79.79933,-3.62671 c 0.32912,-0.0633 0.80537,-0.0609 1.05833,0.005 0.25297,0.0662 -0.0163,0.118 -0.59839,0.11507 -0.58209,-0.003 -0.78906,-0.0571 -0.45994,-0.12041 z m -20.90517,-17.46209 c 0.32742,-0.0631 0.8632,-0.0631 1.19063,0 0.32742,0.0631 0.0595,0.11466 -0.59532,0.11466 -0.65484,0 -0.92273,-0.0516 -0.59531,-0.11466 z"
       id="path3" /><path
       style="fill:#d8617d;fill-opacity:1"
       d="m 121.81038,336.23215 c -1.38827,-0.0817 -2.66775,-0.23725 -2.84328,-0.34573 -0.17553,-0.10849 -0.58749,-0.24597 -0.91546,-0.30551 -1.42286,-0.25833 -2.84526,-0.74329 -2.84526,-0.97007 0,-0.1352 -0.10442,-0.18128 -0.23204,-0.10241 -0.25574,0.15806 -4.55586,-2.49899 -5.75744,-3.55753 -1.49053,-1.31309 -4.3214,-4.55541 -4.17879,-4.78616 0.0799,-0.12933 0.0444,-0.23515 -0.079,-0.23515 -0.64641,0 -3.06258,-5.2183 -2.78703,-6.01927 0.0626,-0.1819 2.8e-4,-0.33073 -0.13844,-0.33073 -0.81308,0 -0.86743,-3.24536 -0.81389,-48.59361 0.0295,-25.00617 0.13627,-45.58483 0.2372,-45.73035 0.10093,-0.14552 0.19276,-0.62177 0.20407,-1.05833 0.0183,-0.70587 0.21246,-1.85208 0.31376,-1.85208 0.021,0 0.0913,-0.41672 0.15621,-0.92604 0.14839,-1.16357 1.42246,-4.56479 1.80725,-4.8246 0.17059,-0.11518 0.18008,-0.19769 0.0233,-0.20249 -0.17639,-0.005 -0.17639,-0.0729 0,-0.20249 0.14552,-0.10691 0.47101,-0.64087 0.72332,-1.18657 0.25231,-0.5457 0.57973,-0.99219 0.7276,-0.99219 0.14788,0 0.26887,-0.15847 0.26887,-0.35216 0,-0.52056 3.57686,-3.87653 5.55123,-5.2084 2.28144,-1.53902 4.60287,-2.47756 7.81908,-3.16121 l 2.65469,-0.56428 38.48802,0.12065 c 34.45719,0.10801 39.71949,0.16564 40.20781,0.44033 0.0728,0.0409 0.25135,0.0926 0.39687,0.11479 1.33261,0.2033 2.24896,0.47063 2.24896,0.65609 0,0.19095 0.30582,0.31849 1.65364,0.68965 0.10914,0.0301 0.32453,0.0695 0.47864,0.0877 0.15411,0.0182 0.20575,0.15353 0.11476,0.30076 -0.0919,0.14876 0.19501,0.33979 0.64584,0.42995 0.44621,0.0892 0.81129,0.28628 0.81129,0.43787 0,0.15158 0.0669,0.20872 0.14862,0.12698 0.0817,-0.0817 0.45631,0.13654 0.83238,0.48507 0.37607,0.34853 0.80373,0.63369 0.95036,0.63369 0.30362,0 2.3938,2.13382 2.41823,2.46873 0.009,0.12087 0.19899,0.35899 0.42262,0.52916 0.52493,0.39946 1.67136,2.0292 1.42743,2.0292 -0.10251,0 0.12565,0.31203 0.50702,0.6934 0.38137,0.38138 0.62871,0.7981 0.54963,0.92604 -0.0791,0.12795 -0.0257,0.23264 0.11859,0.23264 0.26312,0 0.71336,1.01686 0.61504,1.38906 -0.0288,0.10914 0.0737,0.19844 0.22777,0.19844 0.15411,0 0.20662,0.11906 0.11668,0.26458 -0.0899,0.14552 -0.0176,0.26459 0.16077,0.26459 0.17837,0 0.24596,0.0783 0.15021,0.17409 -0.0958,0.0958 -0.0415,0.33388 0.12059,0.52917 0.16207,0.19529 0.19081,0.35689 0.0639,0.35912 -0.12696,0.002 -0.0898,0.0938 0.0827,0.20339 0.17241,0.10964 0.3564,0.49477 0.40887,0.85585 0.0525,0.36107 0.24822,0.93414 0.43503,1.27349 0.7653,1.39023 0.84339,6.54864 0.76972,50.84447 l -0.075,45.11145 -0.64708,2.24896 c -0.35589,1.23693 -0.75301,2.3218 -0.88249,2.41083 -0.12948,0.089 -0.21688,0.2081 -0.19422,0.26459 0.1415,0.35278 -1.05514,2.88083 -1.36363,2.88083 -0.12093,0 -0.21988,0.19036 -0.21988,0.42302 0,0.23265 -0.36977,0.76843 -0.82173,1.19062 -0.45195,0.42219 -0.72481,0.76761 -0.60637,0.76761 0.11845,0 -0.31046,0.53578 -0.95315,1.19063 -0.64268,0.65484 -1.24297,1.19062 -1.33398,1.19062 -0.091,0 -0.67882,0.47393 -1.30625,1.05317 -0.62743,0.57924 -1.48068,1.20362 -1.89611,1.3875 -0.41543,0.18389 -0.75532,0.43137 -0.75532,0.54995 0,0.11859 -0.11906,0.14203 -0.26458,0.0521 -0.14553,-0.0899 -0.26459,-0.051 -0.26459,0.0865 0,0.27352 -1.78352,1.19194 -2.3151,1.19216 -0.1819,7e-5 -0.33073,0.0948 -0.33073,0.21042 0,0.17218 -1.22465,0.60006 -2.51354,0.8782 -0.14552,0.0314 -0.78431,0.20449 -1.41952,0.38465 -0.88913,0.25216 -9.62699,0.33853 -37.9677,0.37529 -20.24703,0.0263 -37.94863,-0.0191 -39.3369,-0.10073 z m 77.80571,-7.0219 c 4.03861,-1.19894 7.45509,-4.06983 9.38527,-7.88653 0.58198,-1.15079 1.05814,-2.18266 1.05814,-2.29306 0,-0.1104 0.0811,-0.28182 0.1802,-0.38093 0.0991,-0.0991 0.11615,-0.34716 0.0378,-0.55122 -0.0783,-0.20405 -0.019,-0.371 0.13172,-0.371 0.15074,0 0.26722,-0.38696 0.25883,-0.8599 -0.008,-0.47294 0.005,-20.98146 0.0298,-45.57448 0.0434,-43.04613 0.0231,-46.083 -0.3134,-46.96354 -0.2962,-0.77508 -1.00173,-3.09643 -1.10661,-3.64101 -0.0586,-0.30416 -0.29405,-0.83925 -0.52328,-1.1891 -0.22923,-0.34985 -0.33699,-0.71588 -0.23946,-0.8134 0.0975,-0.0975 0.0384,-0.17732 -0.13137,-0.17732 -0.16977,0 -0.30868,-0.16586 -0.30868,-0.36857 0,-0.20271 -0.18614,-0.43999 -0.41364,-0.5273 -0.22751,-0.0873 -0.36343,-0.24886 -0.30205,-0.35903 0.0614,-0.11017 -0.78886,-1.09328 -1.88941,-2.18468 -1.10056,-1.09141 -1.9068,-1.80579 -1.79166,-1.5875 0.11514,0.21828 -0.0228,0.11186 -0.30647,-0.23649 -0.32996,-0.40515 -0.63897,-0.55726 -0.85759,-0.42214 -0.21253,0.13135 -0.27686,0.10619 -0.17012,-0.0665 0.19432,-0.31441 -0.53888,-0.67855 -0.90752,-0.45072 -0.13239,0.0818 -0.2407,0.0156 -0.2407,-0.14705 0,-0.1627 -0.11907,-0.22223 -0.26459,-0.13229 -0.14552,0.0899 -0.26458,0.0567 -0.26458,-0.0738 0,-0.13053 -0.42258,-0.25321 -0.93906,-0.27263 -0.51649,-0.0194 -1.08204,-0.12385 -1.25677,-0.23207 -0.51654,-0.3199 -77.01238,-0.10446 -78.59542,0.22136 -0.74903,0.15416 -1.6,0.31743 -1.89104,0.36282 -0.29104,0.0454 -0.5887,0.10654 -0.66146,0.1359 -0.0728,0.0294 -0.22159,0.0393 -0.33073,0.0221 -0.10914,-0.0172 -0.19843,0.0948 -0.19843,0.24887 0,0.15411 -0.1046,0.21555 -0.23245,0.13654 -0.30312,-0.18734 -1.88422,0.60242 -1.88422,0.94117 0,0.14345 -0.10604,0.19528 -0.23564,0.11518 -0.1296,-0.0801 -0.43249,0.1548 -0.67308,0.52199 -0.2406,0.36719 -0.52537,0.61328 -0.63283,0.54686 -0.10746,-0.0664 -0.47476,0.28698 -0.81623,0.78532 -0.34146,0.49834 -0.72456,0.90607 -0.85132,0.90607 -0.12677,0 -0.23048,0.11115 -0.23048,0.24701 0,0.29526 -1.62295,2.99084 -1.94,3.22216 -0.12203,0.089 -0.20863,0.23875 -0.19245,0.33271 0.0324,0.18832 -0.72027,2.97599 -0.97378,3.60646 -0.0878,0.21828 -0.20076,0.69453 -0.25109,1.05833 -0.0503,0.3638 -0.0787,20.08281 -0.063,43.82003 0.0229,34.64861 -0.0383,43.2655 -0.31018,43.70091 -0.27531,0.44084 -0.27514,0.61892 9.2e-4,0.95155 0.22821,0.27498 0.28045,0.75935 0.15926,1.47669 -0.12704,0.75196 -0.0869,1.06748 0.1358,1.06748 0.18326,0 0.24672,0.18091 0.15098,0.43041 -0.0908,0.23673 -0.0271,0.59679 0.14169,0.80015 0.16876,0.20335 0.23138,0.4452 0.13915,0.53743 -0.0922,0.0922 -0.061,0.29772 0.0694,0.45663 0.1304,0.15891 0.31111,0.75927 0.40157,1.33415 0.0905,0.57487 0.34018,1.23937 0.55494,1.47668 0.21475,0.2373 0.31083,0.51109 0.2135,0.60842 -0.0973,0.0973 -0.0381,0.17697 0.13171,0.17697 0.16977,0 0.30868,0.17859 0.30868,0.39687 0,0.21828 0.12609,0.39688 0.2802,0.39688 0.15411,0 0.21466,0.10604 0.13456,0.23564 -0.0801,0.1296 0.1548,0.43249 0.52199,0.67308 0.36718,0.24059 0.60922,0.53192 0.53785,0.6474 -0.14636,0.23682 1.68834,2.11497 2.09728,2.14695 0.14552,0.0114 0.56223,0.28236 0.92604,0.60218 0.3638,0.31982 0.75407,0.55243 0.86725,0.51691 0.11319,-0.0355 0.2745,0.11444 0.35846,0.33324 0.084,0.21879 0.24964,0.33787 0.36818,0.2646 0.11854,-0.0733 0.38955,0.0408 0.60224,0.25351 0.21269,0.21269 0.46041,0.313 0.55049,0.22291 0.0901,-0.0901 0.16379,-0.0502 0.16379,0.0886 0,0.13881 0.20836,0.26867 0.46302,0.28858 0.25467,0.0199 0.82021,0.18253 1.25678,0.36139 0.43656,0.17885 1.44859,0.37756 2.24895,0.44157 0.80037,0.064 1.51474,0.17586 1.5875,0.24855 0.0728,0.0727 17.04261,0.063 37.71076,-0.0215 33.6196,-0.13746 37.73098,-0.19892 39.02604,-0.58338 z m -78.95711,-14.51878 c -1.22187,-0.43547 -3.14506,-2.24504 -3.75738,-3.5354 -0.77786,-1.63923 -0.59165,-4.59895 0.35646,-5.66554 0.22637,-0.25466 0.31084,-0.46302 0.18771,-0.46302 -0.12313,0 0.007,-0.17481 0.28972,-0.38846 0.28248,-0.21366 0.40354,-0.39225 0.26904,-0.39688 -0.38145,-0.0131 0.95427,-1.33133 1.34901,-1.33133 0.19291,0 0.35075,-0.11906 0.35075,-0.26458 0,-0.14552 0.29063,-0.26459 0.64585,-0.26459 0.35521,0 0.70316,-0.0927 0.77321,-0.20608 0.0701,-0.11335 0.14849,-5.38186 0.17431,-11.70781 0.0437,-10.70981 0.20668,-13.44843 0.77923,-13.09458 0.1173,0.0725 0.3453,-0.0273 0.50665,-0.22168 0.4129,-0.49751 2.07326,-0.32902 2.90777,0.29508 l 0.69527,0.51999 v 12.07015 12.07015 l 0.66146,0.45744 c 1.03995,0.71918 2.64584,2.46819 2.64584,2.88164 0,0.20641 0.12609,0.37529 0.28019,0.37529 0.15411,0 0.2129,0.10889 0.13065,0.24198 -0.0823,0.13309 -0.0244,0.28372 0.12864,0.33472 0.15301,0.051 0.31951,0.86484 0.36999,1.80854 0.069,1.28977 -0.0358,1.98965 -0.42201,2.81871 -0.60082,1.28973 -2.5144,3.14167 -3.80223,3.67976 -1.13779,0.4754 -4.16914,0.46799 -5.52013,-0.0135 z m 19.28911,-0.006 c -0.58033,-0.20807 -1.0971,-0.50416 -1.14838,-0.65799 -0.0513,-0.15382 -0.43966,-0.45882 -0.86307,-0.67778 -0.42342,-0.21896 -0.76985,-0.56772 -0.76985,-0.77504 0,-0.20731 -0.16246,-0.47214 -0.36103,-0.58851 -1.09175,-0.63984 -1.73507,-3.95679 -1.04801,-5.40356 0.18128,-0.38174 0.25498,-0.76869 0.16377,-0.8599 -0.0912,-0.0912 -0.007,-0.16584 0.18694,-0.16584 0.19403,0 0.28451,-0.0683 0.20108,-0.15169 -0.23115,-0.23115 2.57206,-3.02331 3.03526,-3.02331 0.31156,0 0.44506,-0.44494 0.57554,-1.91823 0.21868,-2.46913 0.15121,-4.69635 -0.14228,-4.69635 -0.12651,0 -0.23002,-4.04812 -0.23002,-8.99583 0,-6.15505 0.0885,-8.99584 0.2802,-8.99584 0.15411,0 0.2117,-0.11083 0.12798,-0.2463 -0.16362,-0.26473 0.28628,-0.62985 0.88825,-0.72085 0.20372,-0.0308 0.44184,-0.15578 0.52917,-0.27774 0.18573,-0.25937 1.61399,-0.34956 1.61399,-0.10191 0,0.0925 0.42876,0.39904 0.9528,0.68125 l 0.9528,0.51312 -0.14388,8.60903 c -0.0791,4.73497 -0.21269,8.90668 -0.29678,9.27049 -0.13548,0.58613 -0.12185,0.60119 0.11966,0.13229 0.19592,-0.38041 0.24334,0.41029 0.16868,2.8126 -0.10183,3.27613 0.0324,4.17005 0.57579,3.83423 0.14936,-0.0923 0.3115,-0.057 0.36031,0.0785 0.0488,0.13551 0.24978,0.28508 0.44661,0.33238 0.47016,0.11297 2.02637,1.61467 1.94751,1.87929 -0.0337,0.11319 0.11768,0.27449 0.33648,0.35845 0.21879,0.084 0.33193,0.25924 0.25142,0.38951 -0.0805,0.13028 -0.0133,0.23686 0.14943,0.23686 0.1627,0 0.22731,0.11084 0.14359,0.2463 -0.0837,0.13547 -0.0293,0.32229 0.12099,0.41516 0.15027,0.0929 0.2098,0.27147 0.13229,0.39688 -0.0775,0.12541 -0.0199,0.3028 0.12798,0.3942 0.79417,0.49083 -0.24988,3.90728 -1.7183,5.6228 -0.50855,0.59413 -1.4522,1.33562 -2.09701,1.64777 -1.49461,0.72352 -4.14479,0.91647 -5.56991,0.40551 z m 4.54581,-18.05327 c -0.0671,-0.25743 -0.12639,-0.11087 -0.13178,0.3257 -0.005,0.43656 0.0495,0.64718 0.12197,0.46805 0.0725,-0.17913 0.0769,-0.53632 0.01,-0.79375 z m -4.50053,-3.03121 c -0.0845,-0.21106 -0.14716,-0.14837 -0.15986,0.15986 -0.0115,0.27891 0.0511,0.43518 0.13897,0.34726 0.0879,-0.0879 0.0973,-0.31612 0.0209,-0.50712 z m 18.36409,20.92786 c -0.3506,-0.14018 -0.7933,-0.46005 -0.98377,-0.71083 -0.19048,-0.25078 -0.35011,-0.34331 -0.35473,-0.20562 -0.005,0.13769 -0.4205,-0.14907 -0.92416,-0.63723 -0.50367,-0.48817 -0.85383,-0.98778 -0.77814,-1.11024 0.0757,-0.12246 0.0252,-0.22266 -0.11216,-0.22266 -0.67005,0 -1.21432,-1.49732 -1.22625,-3.37344 -0.007,-1.05502 0.0902,-1.91823 0.21544,-1.91823 0.1252,0 0.1591,-0.17859 0.0753,-0.39687 -0.0838,-0.21828 -0.0299,-0.39688 0.1196,-0.39688 0.14954,0 0.20602,-0.10658 0.1255,-0.23686 -0.0805,-0.13027 0.0486,-0.31166 0.28684,-0.4031 0.23828,-0.0914 0.36069,-0.23878 0.27204,-0.32743 -0.0887,-0.0886 0.13015,-0.39035 0.48622,-0.67045 0.35608,-0.28009 0.61993,-0.65123 0.58634,-0.82477 -0.0336,-0.17353 0.0911,-0.28464 0.27702,-0.24691 0.18595,0.0377 0.40416,-0.10358 0.48492,-0.31402 0.0807,-0.21045 0.31556,-0.31788 0.5218,-0.23873 0.30234,0.11601 0.37612,-0.23319 0.38086,-1.80265 0.003,-1.07059 0.004,-6.53044 7.7e-4,-12.13299 -0.005,-9.75634 0.0779,-10.92892 0.77745,-11.01328 0.15083,-0.0182 0.40032,-0.048 0.55443,-0.0662 0.15411,-0.0182 0.22552,-0.12237 0.15869,-0.23151 -0.0668,-0.10914 0.3928,-0.2013 1.02139,-0.20481 0.6286,-0.004 1.0764,0.10124 0.99511,0.23276 -0.0813,0.13153 0.015,0.18486 0.21406,0.11852 0.19901,-0.0663 0.5638,0.0675 0.81063,0.29749 0.41054,0.38248 0.44485,1.43535 0.40258,12.35537 -0.0297,7.68106 0.0481,12.02313 0.21839,12.17808 0.14552,0.13244 0.5306,0.25929 0.85573,0.28187 0.60009,0.0417 3.24531,2.46445 3.24531,2.97239 0,0.15245 0.11062,0.27718 0.24582,0.27718 0.13521,0 0.37566,0.6254 0.53434,1.38977 0.3889,1.87332 -0.14636,3.67253 -1.57563,5.29627 -1.524,1.73135 -3.35954,2.5787 -5.54034,2.55761 -0.95369,-0.009 -2.02084,-0.13147 -2.37144,-0.27165 z m 28.28641,-10.85946 c -1.96431,-0.32141 -3.21152,-0.74981 -3.0314,-1.04125 0.0817,-0.13212 -0.0284,-0.17237 -0.24446,-0.0894 -0.49169,0.18867 -2.38284,-0.90515 -3.9501,-2.28471 -2.49774,-2.19859 -4.26894,-5.97907 -4.27142,-9.11693 -0.002,-1.92358 0.6725,-4.61544 1.31705,-5.25999 0.20105,-0.20105 0.29185,-0.43926 0.20176,-0.52934 -0.0901,-0.0901 -0.0179,-0.16379 0.16051,-0.16379 0.17836,0 0.25664,-0.10947 0.17395,-0.24326 -0.0827,-0.13378 0.0294,-0.42294 0.24897,-0.64255 0.21962,-0.21962 0.39931,-0.52688 0.39931,-0.68279 0,-0.15592 0.11906,-0.28349 0.26458,-0.28349 0.14552,0 0.26459,-0.16585 0.26459,-0.36856 0,-0.20272 0.17969,-0.43753 0.39933,-0.52181 0.21963,-0.0843 0.3749,-0.24584 0.34504,-0.35903 -0.0298,-0.11319 0.40893,-0.68205 0.97507,-1.26414 0.56614,-0.58208 0.93758,-0.87974 0.82542,-0.66146 -0.11216,0.21829 0.0285,0.13405 0.31255,-0.18718 0.28406,-0.32124 0.59079,-0.50975 0.68162,-0.41893 0.0908,0.0908 0.16513,0.0192 0.16513,-0.15915 0,-0.17837 0.11907,-0.25071 0.26459,-0.16078 0.14552,0.0899 0.26458,0.0304 0.26458,-0.13229 0,-0.1627 0.10889,-0.22851 0.24198,-0.14626 0.1331,0.0823 0.28192,0.0387 0.33073,-0.0968 0.0488,-0.13551 0.26451,-0.28508 0.47932,-0.33238 0.21482,-0.0473 0.55184,-0.23591 0.74894,-0.41915 0.1971,-0.18324 0.46782,-0.26551 0.60161,-0.18282 0.13379,0.0827 0.24325,0.0441 0.24325,-0.0858 0,-0.31752 0.22486,-0.34599 3.43959,-0.43538 1.52796,-0.0425 2.92173,0.0349 3.09726,0.17198 0.17553,0.13708 0.44342,0.17243 0.59531,0.0786 0.1519,-0.0939 0.27618,-0.0319 0.27618,0.13782 0,0.16967 0.17859,0.23997 0.39687,0.15621 0.21828,-0.0838 0.39688,-0.0407 0.39688,0.0957 0,0.13638 0.19812,0.17195 0.44027,0.079 0.31627,-0.12136 0.38042,-0.0721 0.22776,0.17492 -0.14245,0.23049 -0.0921,0.30374 0.15267,0.22214 0.20086,-0.0669 0.52469,0.0378 0.71962,0.23269 0.19493,0.19493 0.46388,0.28677 0.59767,0.20409 0.13379,-0.0827 0.24326,-0.0172 0.24326,0.14547 0,0.1627 0.10678,0.22982 0.2373,0.14915 0.32052,-0.19809 3.5111,2.78708 4.67828,4.37709 0.51672,0.70392 1.15024,1.8783 1.40783,2.60974 0.25759,0.73145 0.56233,1.24078 0.67721,1.13186 0.11487,-0.10893 0.12652,0.0698 0.0259,0.39726 -0.10064,0.32743 -0.0765,0.59532 0.0536,0.59532 0.13013,0 0.18401,0.35828 0.11974,0.79617 -0.0643,0.4379 0.0261,0.96846 0.20089,1.17904 0.17476,0.21057 0.24402,0.50214 0.15392,0.64794 -0.0901,0.1458 -0.22028,0.89515 -0.28927,1.66524 -0.38703,4.3202 -3.56821,8.75938 -7.66225,10.69227 -1.15645,0.54599 -1.68913,0.62102 -4.23333,0.59624 -1.60073,-0.0156 -3.56526,-0.13549 -4.36563,-0.26645 z m 4.49792,-5.54564 c 0,-0.12276 0.17859,-0.15467 0.39687,-0.0709 0.21847,0.0838 0.39688,0.008 0.39688,-0.1689 0,-0.17666 0.16157,-0.2592 0.35905,-0.18342 0.45603,0.175 1.82966,-0.70779 1.56131,-1.0034 -0.11031,-0.12152 -0.0661,-0.14418 0.0982,-0.0504 0.48066,0.27442 2.94239,-2.44492 2.55972,-2.82758 -0.0927,-0.0927 -0.0226,-0.16858 0.15573,-0.16858 0.17836,0 0.25071,-0.11906 0.16077,-0.26458 -0.0899,-0.14552 -0.0247,-0.26458 0.14498,-0.26458 0.16968,0 0.23998,-0.1786 0.15622,-0.39688 -0.0838,-0.21828 -0.0242,-0.39687 0.13229,-0.39687 0.15652,0 0.21605,-0.1786 0.13229,-0.39688 -0.0838,-0.21828 -0.0385,-0.39687 0.10064,-0.39687 0.20504,0 0.1941,-2.40616 -0.0132,-2.91042 -0.0299,-0.0728 -0.0403,-0.22159 -0.0231,-0.33073 0.0172,-0.10914 -0.0948,-0.19844 -0.24887,-0.19844 -0.15411,0 -0.2128,-0.10906 -0.13041,-0.24235 0.0824,-0.1333 -0.23617,-0.62831 -0.70789,-1.10003 -0.47172,-0.47172 -1.18694,-1.272 -1.58938,-1.7784 -0.40244,-0.5064 -0.7317,-0.84599 -0.7317,-0.75465 0,0.0914 -0.24199,-0.0411 -0.53775,-0.29434 -0.29576,-0.25324 -0.62318,-0.4712 -0.7276,-0.48435 -1.78278,-0.2246 -3.00819,-0.48854 -3.12183,-0.67242 -0.17473,-0.28272 -1.96282,-0.30799 -1.96282,-0.0277 0,0.18462 -2.32855,0.87704 -3.10886,0.92446 -0.1819,0.0111 -0.33073,0.17885 -0.33073,0.37288 0,0.19403 -0.1871,0.35278 -0.41577,0.35278 -0.47519,0 -1.17173,0.61789 -1.17173,1.03943 0,0.15592 -0.22633,0.28348 -0.50296,0.28348 -0.34559,0 -0.65467,0.36681 -0.98785,1.17237 -0.30317,0.733 -0.55937,1.05527 -0.68362,0.8599 -0.1128,-0.17739 -0.20047,0.0499 -0.20277,0.52578 -0.002,0.46104 -0.0748,1.05636 -0.1613,1.32292 -0.11993,0.36965 -0.0954,0.39795 0.10318,0.11927 0.24641,-0.34571 0.46533,0.39324 0.73533,2.48206 0.0376,0.29104 0.0874,0.52916 0.11069,0.52916 0.0233,0 0.0862,0.23597 0.13993,0.52437 0.0537,0.2884 0.22393,0.56646 0.37828,0.61791 0.15435,0.0515 0.21282,0.20328 0.12993,0.3374 -0.0829,0.13412 0.0348,0.31502 0.26142,0.402 0.22666,0.087 0.35366,0.25274 0.28221,0.36835 -0.1815,0.29366 1.6961,1.8973 2.00087,1.70893 0.13681,-0.0845 0.24875,-0.008 0.24875,0.17057 0,0.17836 0.0694,0.25484 0.15434,0.16995 0.0849,-0.0849 0.38863,0.0799 0.67499,0.36631 0.33241,0.33242 0.70708,0.46149 1.03628,0.357 0.2836,-0.09 0.51564,-0.0453 0.51564,0.0994 0,0.14465 0.20836,0.30988 0.46302,0.36717 0.88938,0.20008 3.77031,0.13121 3.77031,-0.0901 z M 119.572,266.13835 c -1.36676,-1.20731 -2.18635,-2.09549 -2.05493,-2.22691 0.0873,-0.0873 0.0451,-0.15875 -0.0938,-0.15875 -0.40277,0 -0.27353,-5.85128 0.14356,-6.49953 0.30184,-0.46912 0.64741,-0.55269 2.44337,-0.59088 2.01627,-0.0429 2.10105,-0.0201 2.34815,0.62977 0.14099,0.37084 0.25635,1.38088 0.25635,2.24453 v 1.57027 h 1.46723 c 1.21358,0 1.58198,0.11474 2.13092,0.66368 0.36502,0.36502 0.5907,0.78174 0.50152,0.92604 -0.0892,0.1443 -0.0658,0.26237 0.0519,0.26237 0.11773,0 0.21405,0.47625 0.21405,1.05833 0,0.58208 -0.0893,1.05833 -0.19843,1.05833 -0.10914,0 -0.16867,0.1391 -0.13229,0.3091 0.14184,0.66283 -1.24764,1.00605 -4.0349,0.99669 -1.52797,-0.005 -2.89719,-0.1145 -3.04271,-0.24304 z m 40.08437,1.2e-4 c 0,-0.16519 -0.10557,-0.2351 -0.2346,-0.15535 -0.12903,0.0797 -0.38174,-0.0323 -0.56156,-0.24897 -0.17983,-0.21668 -0.22309,-0.39579 -0.0961,-0.39801 0.12696,-0.002 0.0743,-0.10334 -0.1171,-0.22469 -0.19884,-0.12609 -0.37205,-0.79893 -0.40422,-1.5702 -0.0686,-1.64533 0.21959,-1.85733 2.88286,-2.12049 l 1.83805,-0.18161 0.0782,-1.78594 c 0.043,-0.98227 0.17895,-1.78594 0.30205,-1.78594 0.12309,0 0.29174,-0.26789 0.37478,-0.59531 0.13664,-0.53882 0.31341,-0.59642 1.86271,-0.60698 0.94146,-0.006 1.65331,0.0829 1.58189,0.19843 -0.0714,0.11556 0.0558,0.22499 0.28264,0.24318 0.97226,0.078 1.07415,0.11234 1.078,0.36381 0.002,0.14552 0.0971,0.41111 0.2109,0.59021 0.11377,0.1791 0.12701,1.54832 0.0294,3.04271 -0.25102,3.84425 -0.99882,4.91075 -3.59837,5.13198 -4.28717,0.36486 -5.50956,0.38775 -5.50956,0.10317 z m -29.04493,-3.17461 c -0.76615,-0.18164 -1.41469,-0.72933 -2.66745,-2.25265 -0.19759,-0.24027 -0.41262,-0.93415 -0.47784,-1.54196 -0.26626,-2.48133 -0.29262,-31.80362 -0.0289,-32.1275 0.14812,-0.1819 0.18108,-0.33073 0.0732,-0.33073 -0.24341,0 1.07428,-1.77751 1.90555,-2.57048 0.33793,-0.32237 1.07287,-0.70957 1.63321,-0.86045 1.0134,-0.27288 2.68495,-0.11334 2.94818,0.28139 0.0759,0.11376 0.47742,0.26839 0.89235,0.34363 0.41493,0.0753 0.95784,0.3209 1.20646,0.5459 0.24862,0.22499 0.53167,0.32945 0.629,0.23212 0.0973,-0.0973 0.17697,-0.0381 0.17697,0.13171 0,0.16978 0.0893,0.28509 0.19844,0.25626 0.3722,-0.0983 1.38906,0.35191 1.38906,0.61503 0,0.14431 0.11906,0.18879 0.26458,0.0988 0.14552,-0.0899 0.26459,-0.0304 0.26459,0.13229 0,0.1627 0.11906,0.22223 0.26458,0.13229 0.14552,-0.0899 0.26458,-0.0374 0.26458,0.11668 0,0.15411 0.0893,0.25661 0.19844,0.22778 0.36109,-0.0954 1.38906,0.3482 1.38906,0.59941 0,0.13572 0.0921,0.21699 0.20458,0.18061 0.36816,-0.11903 12.8,7.58491 12.98049,8.04393 0.0485,0.12337 0.25687,0.2243 0.46302,0.2243 0.20616,0 0.37483,0.10616 0.37483,0.2359 0,0.12975 0.29765,0.31061 0.66146,0.40192 0.3638,0.0913 0.66145,0.28983 0.66145,0.44117 0,0.15134 0.11907,0.20157 0.26459,0.11164 0.14552,-0.0899 0.26458,-0.0467 0.26458,0.0961 0,0.14283 0.41672,0.39721 0.92604,0.56531 0.50933,0.16809 0.92604,0.41545 0.92604,0.54968 0,0.13424 0.0893,0.2145 0.19844,0.17836 0.5009,-0.16584 2.26003,1.22742 2.97683,2.3577 1.23123,1.94144 1.08881,4.07568 -0.36997,5.54404 -0.67633,0.68077 -3.52417,2.51855 -4.01423,2.59047 -0.19425,0.0285 -0.56725,0.2397 -0.82889,0.4693 -0.60818,0.53371 -2.26463,1.40128 -2.5336,1.32697 -0.11319,-0.0313 -0.27449,0.12216 -0.35845,0.34096 -0.084,0.21879 -0.26008,0.33141 -0.39138,0.25027 -0.13131,-0.0811 -0.3099,0.0379 -0.39688,0.26458 -0.087,0.22667 -0.26557,0.34573 -0.39687,0.26458 -0.13131,-0.0811 -0.31016,0.0386 -0.39746,0.26611 -0.0873,0.2275 -0.27004,0.41364 -0.40607,0.41364 -0.13604,0 -0.50788,0.24273 -0.82633,0.53941 -0.31844,0.29667 -0.84924,0.60723 -1.17956,0.69014 -0.33032,0.0829 -0.60058,0.26392 -0.60058,0.40225 0,0.13833 -0.11906,0.17793 -0.26458,0.088 -0.14552,-0.0899 -0.26458,-0.0374 -0.26458,0.11668 0,0.15411 -0.1786,0.2802 -0.39688,0.2802 -0.21828,0 -0.39687,0.12609 -0.39687,0.2802 0,0.15411 -0.11175,0.21113 -0.24832,0.12672 -0.13658,-0.0844 -0.37109,0.0574 -0.52112,0.31512 -0.15004,0.25772 -0.27642,0.37465 -0.28085,0.25984 -0.004,-0.11481 -0.2642,0.0299 -0.57728,0.32158 -0.31308,0.29168 -0.65779,0.47559 -0.76603,0.4087 -0.10823,-0.0669 -0.26795,0.0638 -0.35493,0.2905 -0.087,0.22667 -0.27805,0.33802 -0.4246,0.24745 -0.14655,-0.0906 -0.26645,-0.0386 -0.26645,0.11552 0,0.15411 -0.1786,0.2802 -0.39688,0.2802 -0.21828,0 -0.39687,0.12609 -0.39687,0.2802 0,0.15411 -0.10104,0.21776 -0.22452,0.14144 -0.12348,-0.0763 -0.46799,0.0881 -0.76558,0.36533 -0.29759,0.27724 -0.58864,0.45652 -0.64677,0.39839 -0.0581,-0.0581 -0.44352,0.18459 -0.85642,0.53939 -0.4129,0.35479 -0.84179,0.5888 -0.95308,0.52002 -0.11129,-0.0688 -0.27352,0.0604 -0.3605,0.28706 -0.087,0.22667 -0.27805,0.33802 -0.4246,0.24745 -0.14655,-0.0906 -0.26645,-0.0316 -0.26645,0.13114 0,0.1627 -0.1199,0.22171 -0.26645,0.13113 -0.14655,-0.0906 -0.33762,0.0208 -0.4246,0.24745 -0.087,0.22667 -0.26474,0.34625 -0.39501,0.26574 -0.13027,-0.0805 -0.23686,-0.0133 -0.23686,0.14943 0,0.1627 -0.11906,0.22223 -0.26458,0.13229 -0.14552,-0.0899 -0.26458,-0.0405 -0.26458,0.10988 0,0.34334 -1.46185,1.1182 -1.68625,0.8938 -0.0912,-0.0912 -0.16584,-0.0399 -0.16584,0.11412 0,0.43684 -2.06065,1.1553 -2.78915,0.97246 -0.39783,-0.0999 -0.65043,-0.0494 -0.65043,0.13001 0,0.32734 -0.26473,0.33316 -1.52827,0.0336 z m 4.92997,-6.66903 c 0.31003,-0.21715 0.47514,-0.48335 0.36693,-0.59157 -0.10822,-0.10821 -0.0693,-0.15707 0.0865,-0.10856 0.40128,0.12496 4.89234,-3.1104 4.66602,-3.36141 -0.1027,-0.11391 -0.0622,-0.13646 0.0901,-0.0501 0.37308,0.2116 2.82613,-1.24121 2.57067,-1.52248 -0.11091,-0.12212 -0.061,-0.14144 0.11088,-0.0429 0.3797,0.21756 2.25525,-1.00177 1.99123,-1.29454 -0.1029,-0.1141 -0.0421,-0.12417 0.13517,-0.0224 0.18544,0.10651 0.67954,-0.15632 1.16372,-0.61904 0.4628,-0.44227 1.00613,-0.80413 1.20739,-0.80413 0.20127,0 0.43421,-0.17791 0.51765,-0.39536 0.0834,-0.21744 0.25396,-0.33216 0.37892,-0.25493 0.12497,0.0772 0.45976,-0.0921 0.74398,-0.37635 0.28422,-0.28422 0.58342,-0.45011 0.66488,-0.36865 0.0815,0.0815 0.22292,-0.0468 0.31436,-0.28511 0.0914,-0.23828 0.27283,-0.36736 0.4031,-0.28684 0.13027,0.0805 0.23686,4.5e-4 0.23686,-0.17791 0,-0.17836 0.0743,-0.25002 0.16505,-0.15924 0.0908,0.0908 0.5968,-0.0618 1.12448,-0.33895 1.60922,-0.84535 3.22155,-2.0178 3.03347,-2.20588 -0.0978,-0.0978 -0.0292,-0.17787 0.15241,-0.17787 0.18165,0 -0.16541,-0.47625 -0.77125,-1.05833 -0.60583,-0.58208 -1.21788,-1.05833 -1.36012,-1.05833 -0.14223,0 -0.2003,-0.0943 -0.12903,-0.20966 0.0713,-0.11531 -0.0824,-0.22563 -0.34141,-0.24514 -0.25904,-0.0195 -1.04211,-0.39768 -1.74016,-0.84037 -0.69805,-0.44269 -1.37083,-0.74207 -1.49506,-0.66529 -0.12424,0.0768 -0.22588,0.0211 -0.22588,-0.12366 0,-0.2568 -2.0788,-1.55298 -2.27996,-1.42161 -0.0557,0.0364 -0.34376,-0.17632 -0.64011,-0.47267 -0.29635,-0.29635 -0.64106,-0.47563 -0.76602,-0.3984 -0.12497,0.0772 -0.30022,-0.0498 -0.38946,-0.28238 -0.0925,-0.24106 -0.33188,-0.35771 -0.55689,-0.27137 -0.21705,0.0833 -0.39464,0.0501 -0.39464,-0.0738 0,-0.301 -3.38046,-2.49222 -3.84481,-2.49222 -0.20089,0 -0.31179,-0.0865 -0.24645,-0.19222 0.0653,-0.10572 -0.44131,-0.4555 -1.12589,-0.77729 -0.68458,-0.32179 -1.88113,-0.9922 -2.65901,-1.4898 -0.77787,-0.4976 -1.52662,-0.83533 -1.66387,-0.7505 -0.13726,0.0848 -0.24956,0.0282 -0.24956,-0.12596 0,-0.44801 -0.93861,-0.32357 -1.37893,0.18282 -0.22512,0.2589 -0.4243,1.04622 -0.4518,1.78594 -0.0271,0.7276 -0.1466,3.52557 -0.26564,6.21771 -0.24355,5.50761 -0.12605,11.90452 0.25515,13.89062 0.13965,0.7276 0.2705,1.91823 0.29077,2.64583 0.0203,0.72761 0.13794,1.52094 0.2615,1.76297 0.26563,0.52032 1.23217,0.47651 2.04482,-0.0927 z m 53.32763,-2.31597 c -0.13244,-0.12524 -0.8157,-0.28211 -1.51837,-0.3486 -1.11952,-0.10593 -1.42136,-0.2775 -2.4398,-1.38679 -0.63922,-0.69624 -1.10537,-1.35789 -1.03588,-1.47032 0.0695,-0.11244 -0.0232,-0.25427 -0.20603,-0.31519 -0.45961,-0.15315 -0.35456,-4.69694 0.10859,-4.69694 0.12127,0 0.22049,-0.28 0.22049,-0.62222 0,-0.6103 1.52651,-2.48439 1.9177,-2.35434 0.10943,0.0364 0.19897,-0.0449 0.19897,-0.18061 0,-0.20872 0.61963,-0.52068 1.38906,-0.69935 0.10914,-0.0254 0.2282,-0.0741 0.26458,-0.10844 0.17729,-0.16714 3.10886,-0.20643 3.10886,-0.0417 0,0.10442 0.2532,0.20893 0.56267,0.23224 0.30948,0.0233 0.78425,0.25701 1.05506,0.51933 0.27081,0.26231 0.74304,0.71506 1.0494,1.0061 1.14932,1.09186 1.68232,2.5338 1.69063,4.57372 0.005,1.32971 -0.10177,1.99563 -0.34547,2.14624 -0.19433,0.12011 -0.32868,0.30506 -0.29855,0.41101 0.22706,0.79867 -2.75905,3.04455 -4.28411,3.22212 -0.43681,0.0509 -0.88484,0.14848 -0.99561,0.21694 -0.11077,0.0685 -0.30975,0.022 -0.44219,-0.10323 z m 0.0458,-20.15963 c 0.12872,-0.20828 -0.0725,-0.26227 -0.65749,-0.17641 -0.46364,0.068 -0.9055,0.0226 -0.98191,-0.10106 -0.0764,-0.12363 -0.24976,-0.15629 -0.38523,-0.0726 -0.13546,0.0837 -0.2463,0.006 -0.2463,-0.17208 0,-0.17836 -0.0635,-0.26079 -0.14111,-0.18318 -0.1706,0.1706 -1.97555,-1.59407 -1.97555,-1.93146 0,-0.13097 -0.12609,-0.23812 -0.2802,-0.23812 -0.15411,0 -0.20662,-0.11907 -0.11668,-0.26459 0.0899,-0.14552 0.0304,-0.26458 -0.13229,-0.26458 -0.1627,0 -0.22731,-0.11084 -0.14359,-0.2463 0.0837,-0.13547 0.0312,-0.32109 -0.11668,-0.41249 -0.35835,-0.22148 -0.3464,-3.23083 0.0137,-3.4534 0.15545,-0.0961 0.21871,-0.34122 0.1406,-0.54478 -0.0781,-0.20356 -0.0406,-0.37011 0.0834,-0.37011 0.12399,0 0.31259,-0.2679 0.41913,-0.59532 0.10654,-0.32742 0.21369,-0.65484 0.23812,-0.7276 0.0858,-0.25573 2.08979,-2.14009 2.51106,-2.36122 0.7121,-0.37381 3.13207,-0.61546 3.30827,-0.33036 0.0886,0.14336 0.3991,0.19841 0.68999,0.12234 0.30733,-0.0804 0.52891,-0.008 0.52891,0.17274 0,0.17109 0.10658,0.24519 0.23685,0.16467 0.13028,-0.0805 0.30556,0.0326 0.38952,0.25143 0.084,0.21879 0.29684,0.36694 0.47308,0.32921 0.17624,-0.0377 0.4837,0.25882 0.68326,0.659 0.19955,0.40018 0.46737,0.72761 0.59514,0.72761 0.23163,0 0.54369,0.71492 0.5068,1.16104 -0.0107,0.12925 0.1334,0.32946 0.3202,0.44491 0.39324,0.24303 0.66674,3.43072 0.35548,4.14311 -0.11262,0.25775 -0.18586,0.55794 -0.16276,0.66708 0.0231,0.10914 -0.077,0.19844 -0.22257,0.19844 -0.14553,0 -0.26459,0.16343 -0.26459,0.36318 0,0.45294 -2.17313,2.48121 -2.99198,2.79253 -0.33367,0.12686 -0.94577,0.16584 -1.36021,0.0866 -0.5259,-0.10053 -0.69698,-0.0525 -0.56631,0.1589 0.11812,0.19112 -0.0196,0.30295 -0.37316,0.30295 -0.35047,0 -0.49092,-0.11243 -0.37491,-0.30013 z m -71.52561,-6.78681 c -0.54784,-0.55643 -0.59531,-0.84743 -0.59531,-3.64919 0,-3.16185 -0.001,-3.15809 1.35683,-4.62733 0.38246,-0.41381 0.65126,-0.7965 0.59734,-0.85043 -0.0539,-0.0539 0.25823,-0.0457 0.69368,0.0182 0.48025,0.0705 0.79173,-10e-4 0.79173,-0.18243 0,-0.20795 0.8839,-0.27733 2.91059,-0.22847 2.5104,0.0605 2.93137,0.13436 3.06176,0.53703 0.0831,0.25677 0.26029,0.39942 0.39367,0.31699 0.13338,-0.0824 0.1716,0.0349 0.0849,0.26074 -0.0867,0.22584 -0.0471,0.41062 0.0879,0.41062 0.46129,0 -0.0638,2.62821 -0.60475,3.02674 -0.28057,0.20672 -0.54524,0.27886 -0.58815,0.1603 -0.0429,-0.11855 -0.51915,-0.10194 -1.05833,0.0369 -0.53918,0.13885 -1.2604,0.31991 -1.60273,0.40236 -0.59533,0.14339 -0.61813,0.23468 -0.52403,2.09826 0.0541,1.07159 0.0148,1.94835 -0.0874,1.94835 -0.10216,0 -0.25188,0.20836 -0.3327,0.46302 -0.12219,0.38498 -0.47083,0.46302 -2.06835,0.46302 -1.65129,0 -2.00509,-0.085 -2.51671,-0.60464 z m 46.38861,-0.0174 c -0.23137,-0.44742 -0.3687,-1.34552 -0.33752,-2.20736 0.0742,-2.05262 -0.26506,-2.37972 -2.37042,-2.28517 -2.09008,0.0939 -2.51235,-0.25297 -2.60298,-2.13798 -0.0356,-0.74052 0.0488,-1.3464 0.18755,-1.3464 0.13876,0 0.20215,-0.14883 0.14087,-0.33073 -0.25891,-0.76856 0.72048,-0.97534 4.65945,-0.98378 l 3.93067,-0.008 0.56725,0.72248 c 0.31199,0.39736 0.53748,0.81408 0.5011,0.92604 -0.0364,0.11196 0.0529,0.20356 0.19844,0.20356 0.16287,0 0.26458,1.32715 0.26458,3.45228 0,3.43447 -0.004,3.45557 -0.7276,4.09268 -0.60011,0.52819 -1.01618,0.64187 -2.37446,0.64876 -1.54677,0.008 -1.67056,-0.0375 -2.03693,-0.74597 z m 42.18062,-11.78116 c 0,-0.0549 -0.20836,-0.2633 -0.46303,-0.46302 -0.41964,-0.3291 -0.429,-0.31975 -0.0999,0.0999 0.34564,0.44073 0.56292,0.58089 0.56292,0.36312 z"
       id="path4" /></g></svg>
