<?xml version="1.0" encoding="UTF-8" standalone="no"?>
<!-- Created with Inkscape (http://www.inkscape.org/) -->

<svg
   width="152.85806mm"
   height="151.04916mm"
   viewBox="0 0 152.85807 151.04917"
   version="1.1"
   id="svg1"
   xml:space="preserve"
   inkscape:version="1.3.1 (9b9bdc1480, 2023-11-25, custom)"
   sodipodi:docname="play.svg"
   xmlns:inkscape="http://www.inkscape.org/namespaces/inkscape"
   xmlns:sodipodi="http://sodipodi.sourceforge.net/DTD/sodipodi-0.dtd"
   xmlns="http://www.w3.org/2000/svg"
   xmlns:svg="http://www.w3.org/2000/svg"><sodipodi:namedview
     id="namedview1"
     pagecolor="#ffffff"
     bordercolor="#000000"
     borderopacity="0.25"
     inkscape:showpageshadow="2"
     inkscape:pageopacity="0.0"
     inkscape:pagecheckerboard="0"
     inkscape:deskcolor="#d1d1d1"
     inkscape:document-units="mm"
     inkscape:zoom="0.72693603"
     inkscape:cx="386.55396"
     inkscape:cy="475.97036"
     inkscape:window-width="1850"
     inkscape:window-height="1016"
     inkscape:window-x="0"
     inkscape:window-y="0"
     inkscape:window-maximized="1"
     inkscape:current-layer="layer1" /><defs
     id="defs1" /><g
     inkscape:label="Layer 1"
     inkscape:groupmode="layer"
     id="layer1"
     transform="translate(-104.61273,-39.844468)"><path
       style="fill:#d8617d;fill-opacity:1;stroke-width:2.84419"
       d="m 21.811321,150.33502 c -1.47804,-1.47804 -2.19969,-2.95932 -2.19969,-4.51515 v -2.31545 h 41.0126 41.012599 v 2.31545 c 0,1.55583 -0.72163,3.03711 -2.199669,4.51515 l -2.1997,2.1997 h -36.61323 -36.61321 z m -2.1998,-16.33067 c 2.5e-4,-6.63726 3.4763,-12.46392 9.18857,-15.40217 2.60647,-1.34072 4.73159,-1.43588 31.9823,-1.43227 l 29.19031,0.003 2.89993,1.75546 c 1.59499,0.9655 3.86133,3.18692 5.03635,4.93647 1.97128,2.93517 4.176259,10.39207 3.591559,12.14613 -0.16127,0.48393 -14.751419,0.81196 -41.069689,0.92337 l -40.81948,0.17263 z m 9.25393,-25.55447 c -4.0912,-4.23858 -4.69109,-6.67224 -5.52384,-22.408285 -1.0422,-19.69416 -0.87323,-37.62924 0.41221,-43.751782 2.62735,-12.513947 10.94045,-23.492372 22.19618,-29.312663 3.10415,-1.605147 6.67412,-3.6955675 7.93327,-4.6453835 3.17839,-2.397623 10.69992,-5.749528 11.62238,-5.179411 1.0652,0.658317 0.93827,3.135718 -0.38404,7.4948915 -0.90776,2.992571 -0.94319,3.892016 -0.18004,4.568763 0.52264,0.46346 8.29535,6.333069 17.27269,13.043563 8.97731,6.710521 17.18925,13.231108 18.248719,14.49023 1.61974,1.924946 1.92258,3.028719 1.90285,6.934871 -0.0393,7.783293 -4.602189,13.284491 -11.026959,13.294621 -2.60741,0.003 -4.3305,-0.785397 -10.0199,-4.590977 l -6.87102,-4.595953 -4.56376,2.0481 c -3.38598,1.519536 -5.31544,1.947274 -7.47629,1.657451 -1.60187,-0.214737 -2.9125,-0.154724 -2.9125,0.133677 0,0.9534 6.27189,6.545982 15.1498,13.508862 15.38461,12.06613 20.19766,18.72873 20.21151,27.97852 0.005,4.009315 -0.33877,5.414235 -1.88831,7.694585 -1.04263,1.53435 -2.63876,3.18742 -3.54699,3.67347 -1.16066,0.62117 -9.93242,0.93665 -29.52222,1.06174 l -27.87095,0.17805 z m 66.72122,-57.846192 c 1.89866,-2.287722 -0.56206,-5.069083 -3.85672,-4.359231 -1.63404,0.352054 -2.0876,1.657053 -1.30633,3.758738 0.72993,1.963713 3.74105,2.313918 5.16305,0.600493 z M 68.806821,34.165673 c 1.44806,-1.941331 1.48147,-2.261188 0.43251,-4.138864 -1.39126,-2.490457 -5.14153,-3.143454 -7.05629,-1.22869 -1.86707,1.867068 -1.26948,5.69654 1.07502,6.888966 2.53307,1.288333 3.68943,0.971291 5.54876,-1.521412 z"
       id="path1" /><path
       style="fill:#d8617d;fill-opacity:1"
       d="m -36.077757,330.59769 c 0,-0.18656 -0.35279,-0.22823 -1.00264,-0.11844 -0.55145,0.0932 -1.53372,0.0395 -2.18281,-0.11929 -0.6491,-0.15878 -1.29924,-0.31718 -1.44476,-0.35202 -0.14552,-0.0348 -0.41341,-0.15631 -0.59531,-0.26994 -0.18191,-0.11364 -0.4498,-0.13303 -0.59532,-0.0431 -0.14552,0.0899 -0.26458,0.0235 -0.26458,-0.14754 0,-0.18087 -0.22163,-0.2531 -0.52953,-0.17258 -0.3335,0.0872 -0.46511,0.0342 -0.3555,-0.14311 0.10871,-0.1759 -0.0182,-0.23131 -0.33818,-0.14764 -0.28171,0.0737 -0.66973,-0.0347 -0.86227,-0.2408 -0.19253,-0.20611 -0.51644,-0.3109 -0.71979,-0.23286 -0.20335,0.078 -0.36973,0.0195 -0.36973,-0.13002 0,-0.14954 -0.11906,-0.19831 -0.26458,-0.10837 -0.14552,0.0899 -0.26459,0.0565 -0.26459,-0.0742 0,-0.34622 -1.31266,-0.8894 -1.6482,-0.68202 -0.18298,0.11308 -0.2078,0.0506 -0.0691,-0.17389 0.15857,-0.25657 0.095,-0.30377 -0.23744,-0.17621 -0.26968,0.10349 -0.38839,0.068 -0.29237,-0.0873 0.14548,-0.2354 -0.20424,-0.37581 -0.72948,-0.29288 -0.10914,0.0172 -0.19844,-0.0948 -0.19844,-0.24887 0,-0.15411 -0.10103,-0.21775 -0.22451,-0.14144 -0.12348,0.0763 -0.47569,-0.0952 -0.78269,-0.38126 -0.30699,-0.28601 -0.65358,-0.52002 -0.77018,-0.52002 -0.1166,0 -0.36795,-0.24971 -0.55856,-0.55493 -0.19061,-0.30521 -0.40519,-0.49629 -0.47686,-0.42463 -0.0717,0.0717 -0.61799,-0.36323 -1.21406,-0.96642 -0.59607,-0.6032 -0.85963,-0.79907 -0.58569,-0.43527 0.27393,0.36381 -0.005,0.19082 -0.61969,-0.38442 -1.12965,-1.05701 -1.50485,-1.57328 -0.65752,-0.90474 0.25313,0.19972 0.1149,-0.0536 -0.30718,-0.56292 -0.42209,-0.50932 -0.87617,-0.89332 -1.00908,-0.85334 -0.1329,0.04 -0.17076,-0.042 -0.0841,-0.18218 0.0866,-0.14018 -0.0533,-0.37763 -0.31106,-0.52767 -0.25772,-0.15004 -0.38077,-0.27642 -0.27343,-0.28085 0.10733,-0.004 -0.23072,-0.67378 -0.75122,-1.48746 -0.52051,-0.81367 -1.11594,-1.88524 -1.32318,-2.38125 -0.20725,-0.49601 -0.50131,-0.90183 -0.65346,-0.90183 -0.15216,0 -0.20971,-0.10832 -0.12788,-0.24071 0.21005,-0.33987 -0.12472,-1.109 -0.40682,-0.93466 -0.1286,0.0795 -0.16881,-0.0249 -0.0894,-0.23198 0.0795,-0.20708 -0.0208,-0.54175 -0.22273,-0.74371 -0.20196,-0.20197 -0.31795,-0.51497 -0.25775,-0.69558 0.0602,-0.1806 -0.008,-0.32836 -0.1524,-0.32836 -0.14403,0 -0.19959,-0.23813 -0.12348,-0.52917 0.0761,-0.29104 0.0166,-0.52917 -0.1323,-0.52917 -0.14887,0 -0.2084,-0.23812 -0.13229,-0.52916 0.0761,-0.29104 0.0137,-0.52917 -0.13859,-0.52917 -0.18195,0 -0.19887,-0.27233 -0.0493,-0.79375 0.22103,-0.77069 -0.0667,-1.1285 -0.37238,-0.46302 -0.0835,0.1819 -0.0854,0.0628 -0.004,-0.26458 0.0823,-0.33178 0.0253,-0.59532 -0.1288,-0.59532 -0.19124,0 -0.27864,-15.28885 -0.28348,-49.59052 -0.004,-27.27478 -0.0863,-49.79713 -0.18319,-50.04965 -0.11119,-0.28975 -0.0731,-0.39542 0.10327,-0.28642 0.37681,0.23288 0.6372,-0.85281 0.33843,-1.41107 -0.14645,-0.27364 -0.13759,-0.54688 0.0229,-0.70741 0.14386,-0.14385 0.28711,-0.81611 0.31835,-1.4939 0.0312,-0.67779 0.15997,-1.23318 0.28609,-1.23419 0.12611,-0.001 0.16702,-0.23996 0.0909,-0.53101 -0.0761,-0.29104 -0.0166,-0.52916 0.13229,-0.52916 0.14887,0 0.2084,-0.23813 0.13229,-0.52917 -0.0761,-0.29104 -0.0166,-0.52917 0.13229,-0.52917 0.14887,0 0.20836,-0.23828 0.1322,-0.52953 -0.0834,-0.31897 -0.0318,-0.46361 0.12978,-0.36374 0.17012,0.10514 0.19912,-0.052 0.0793,-0.42964 -0.14078,-0.44355 -0.10364,-0.54269 0.14562,-0.38864 0.2457,0.15186 0.29315,0.0483 0.17856,-0.38991 -0.0858,-0.32819 -0.0939,-0.53459 -0.018,-0.45866 0.18268,0.18268 2.61028,-4.63913 2.5075,-4.9805 -0.0438,-0.14552 0.006,-0.17838 0.11189,-0.073 0.17138,0.17138 1.67939,-1.91622 1.7218,-2.38356 0.0218,-0.2399 3.50132,-3.24991 5.33713,-4.61693 0.76591,-0.57033 1.63903,-1.23617 1.94025,-1.47964 0.30122,-0.24347 0.71681,-0.48199 0.92354,-0.53004 0.20672,-0.048 0.43651,-0.17854 0.51065,-0.28999 0.0741,-0.11144 0.45389,-0.28067 0.8439,-0.37606 0.39001,-0.0954 0.86626,-0.32207 1.05833,-0.50375 0.19208,-0.18169 0.58736,-0.37101 0.8784,-0.42072 0.29104,-0.0497 0.5691,-0.19928 0.61791,-0.33238 0.0488,-0.13309 0.19764,-0.17469 0.33073,-0.0924 0.13309,0.0822 0.24199,0.0272 0.24199,-0.12234 0,-0.14954 0.17859,-0.20336 0.39687,-0.1196 0.21828,0.0838 0.39688,0.046 0.39688,-0.0839 0,-0.1299 0.20836,-0.2459 0.46302,-0.25777 0.25466,-0.0119 1.47505,-0.20802 2.71198,-0.43591 3.653,-0.67302 4.81323,-0.81915 6.35,-0.79979 9.089,0.1145 71.69846,0.0384 73.66103,-0.0895 2.04743,-0.13345 2.57621,-0.0993 2.41824,0.15633 -0.1568,0.2537 0.26468,0.29408 1.8775,0.17985 1.14383,-0.081 3.92515,-0.19384 6.18073,-0.25074 2.91336,-0.0735 3.3731,-0.0519 1.5875,0.0747 -1.83578,0.13013 -0.65862,0.19074 4.36562,0.22477 4.52107,0.0306 6.74313,-0.0413 6.48229,-0.20989 -0.33916,-0.21919 -0.32955,-0.25707 0.0661,-0.26053 0.25466,-0.002 0.46302,0.10488 0.46302,0.23802 0,0.13314 0.59414,0.23119 1.32031,0.21788 0.72617,-0.0133 1.40086,0.0564 1.4993,0.1548 0.0984,0.0985 0.45067,0.179 0.7827,0.179 0.33204,0 1.59212,0.32436 2.80018,0.7208 1.20806,0.39644 2.3453,0.70733 2.5272,0.69086 0.1819,-0.0165 0.33073,0.0957 0.33073,0.24933 0,0.15361 0.0722,0.20708 0.16045,0.11883 0.0883,-0.0882 0.41029,0.0723 0.71564,0.35677 0.30534,0.28447 0.67962,0.47082 0.83173,0.41412 0.33546,-0.12507 2.26093,0.89874 2.26093,1.20217 0,0.11873 0.14995,0.21587 0.33323,0.21587 0.18327,0 0.48918,0.24972 0.67979,0.55493 0.19061,0.30521 0.41693,0.48456 0.50293,0.39856 0.086,-0.086 0.32403,0.083 0.52894,0.37553 0.20491,0.29255 0.46639,0.47392 0.58107,0.40305 0.11468,-0.0709 0.58721,0.34237 1.05007,0.91834 0.46285,0.57596 0.98054,1.01891 1.15042,0.98433 0.16988,-0.0346 0.31428,0.0973 0.3209,0.29294 0.007,0.1957 0.36921,0.65525 0.80577,1.02123 0.43657,0.36597 0.61516,0.58374 0.39688,0.48392 -0.21828,-0.0998 -0.13405,0.0509 0.18718,0.335 0.32124,0.28406 0.51256,0.58798 0.42516,0.67538 -0.0874,0.0874 0.036,0.23372 0.27431,0.32516 0.23827,0.0914 0.37661,0.25785 0.30741,0.36982 -0.0692,0.11196 0.13985,0.50014 0.46454,0.86261 0.3247,0.36248 0.62967,0.82282 0.67772,1.02297 0.048,0.20016 0.16711,0.42459 0.26458,0.49872 0.0975,0.0741 0.21592,0.31339 0.26321,0.53167 0.0473,0.21829 0.18944,0.43434 0.31587,0.48012 0.12643,0.0458 0.1568,0.27367 0.0675,0.50642 -0.10713,0.27919 -0.0581,0.35873 0.14413,0.23375 0.2008,-0.1241 0.25172,-0.0466 0.14765,0.22455 -0.0874,0.22769 -0.0459,0.5613 0.0921,0.74135 0.70506,0.91983 2.18952,5.78678 2.18952,7.17857 0,0.37917 0.0893,0.68934 0.19844,0.68925 0.10914,-9e-5 0.16268,0.62498 0.11898,1.38906 -0.0502,0.8773 0.008,1.26162 0.15753,1.04293 0.32274,-0.47161 0.37737,90.75264 0.0559,93.34734 -0.13522,1.0914 -0.31544,3.29406 -0.40049,4.89479 -0.14589,2.74567 -0.27057,4.06301 -0.41319,4.36562 -0.0343,0.0728 -0.09,0.25136 -0.12382,0.39688 -0.0338,0.14552 -0.0901,0.35388 -0.12507,0.46302 -0.035,0.10914 -0.0905,0.28773 -0.12346,0.39688 -0.0329,0.10914 -0.22255,0.61515 -0.42139,1.12447 -0.19883,0.50933 -0.3356,1.01534 -0.30393,1.12448 0.0317,0.10914 -0.0685,0.19844 -0.22261,0.19844 -0.15411,0 -0.20662,0.11906 -0.11668,0.26458 0.0899,0.14553 0.0247,0.26459 -0.14498,0.26459 -0.16968,0 -0.23998,0.17859 -0.15622,0.39687 0.0838,0.21828 0.0299,0.39688 -0.11959,0.39688 -0.14955,0 -0.20425,0.10946 -0.12156,0.24325 0.0827,0.13379 4.2e-4,0.40452 -0.18282,0.60161 -0.18324,0.1971 -0.37248,0.53299 -0.42052,0.74643 -0.0481,0.21344 -0.22665,0.47668 -0.39688,0.58497 -0.17023,0.10828 -0.19946,0.19871 -0.065,0.20094 0.13451,0.002 -0.0351,0.3017 -0.37685,0.66551 -0.34177,0.3638 -0.51135,0.66508 -0.37685,0.6695 0.13451,0.004 0.0362,0.1294 -0.21846,0.27773 -0.25466,0.14833 -0.46302,0.41372 -0.46302,0.58977 0,0.17604 -0.24972,0.47603 -0.55493,0.66664 -0.30521,0.19061 -0.48456,0.41693 -0.39856,0.50294 0.086,0.086 -0.081,0.32263 -0.37111,0.52583 -0.29011,0.20321 -0.52748,0.48475 -0.52748,0.62564 0,0.1409 -0.71278,0.95363 -1.58395,1.80608 -0.87118,0.85244 -1.50682,1.41502 -1.41255,1.25017 0.14961,-0.2616 -0.53014,0.27761 -1.70682,1.35393 -0.19886,0.1819 -0.47212,0.34561 -0.60725,0.3638 -0.49833,0.0671 -0.66521,0.12565 -1.75458,0.61578 -0.61161,0.27518 -1.05191,0.59758 -0.97844,0.71645 0.0735,0.11887 -0.0512,0.14523 -0.27705,0.0586 -0.22641,-0.0869 -0.41061,-0.0192 -0.41061,0.15093 0,0.16968 -0.11906,0.23492 -0.26459,0.14499 -0.14552,-0.0899 -0.26458,-0.0412 -0.26458,0.10837 0,0.14954 -0.17859,0.20336 -0.39687,0.1196 -0.21829,-0.0838 -0.39688,-0.0135 -0.39688,0.15621 0,0.16968 -0.10538,0.24337 -0.23419,0.16377 -0.27228,-0.16828 -1.88219,0.34674 -1.88308,0.60241 -3.3e-4,0.0949 -0.37009,0.18587 -0.82169,0.20214 -0.45159,0.0163 -0.91111,0.17527 -1.02116,0.35333 -0.11005,0.17805 -0.27775,0.30548 -0.37267,0.28316 -0.0949,-0.0223 -0.85552,0.10492 -1.69021,0.28277 -0.83469,0.17784 -2.47012,0.30558 -3.63429,0.28385 -7.46687,-0.13932 -95.03055,-0.14146 -94.53715,-0.002 0.33553,0.0946 -0.61033,0.18393 -2.10191,0.19844 -1.79384,0.0174 -2.71198,-0.0711 -2.71198,-0.26147 z m 64.16146,-8.30793 c 1.40567,-0.085 1.89448,-0.0492 1.4552,0.10649 -0.42226,0.14967 1.56305,0.24399 5.49011,0.26082 3.94223,0.0169 6.15156,-0.0687 6.15156,-0.23821 0,-0.2943 14.36816,-0.32581 17.06563,-0.0374 1.75289,0.1874 8.73456,-0.0666 9.62838,-0.35027 0.31117,-0.0988 0.50433,-0.27896 0.42926,-0.40043 -0.0751,-0.12147 0.10179,-0.15855 0.39303,-0.0824 0.29124,0.0762 0.52953,0.009 0.52953,-0.14867 0,-0.15792 0.1786,-0.2186 0.39688,-0.13484 0.21828,0.0838 0.39687,0.0135 0.39687,-0.15621 0,-0.16968 0.12013,-0.23426 0.26696,-0.14352 0.14682,0.0907 0.51974,0.0848 0.8287,-0.0133 0.44917,-0.14256 0.48847,-0.229 0.19607,-0.43129 -0.27203,-0.1882 -0.23016,-0.21735 0.16348,-0.11383 0.60929,0.16022 2.61586,-0.96165 2.3145,-1.29405 -0.10881,-0.12001 -0.0649,-0.14239 0.0975,-0.0497 0.64347,0.36702 4.90795,-3.86063 5.18183,-5.13708 0.0435,-0.20272 0.22136,-0.48808 0.39527,-0.63412 0.1739,-0.14605 0.3525,-0.43422 0.39687,-0.64037 0.0444,-0.20615 0.29825,-0.60231 0.56417,-0.88035 0.26591,-0.27804 0.41848,-0.67492 0.33903,-0.88195 -0.0794,-0.20703 -0.0164,-0.37642 0.14014,-0.37642 0.15653,0 0.21368,-0.18477 0.12702,-0.41061 -0.10139,-0.26422 -0.0506,-0.34448 0.14257,-0.22512 0.21072,0.13023 0.24607,-0.03 0.11866,-0.5376 -0.13152,-0.52401 -0.0951,-0.6697 0.13229,-0.52916 0.2263,0.13986 0.26473,-0.001 0.13786,-0.507 -0.11228,-0.44735 -0.0681,-0.70092 0.12201,-0.70092 0.16386,0 0.2294,-0.1786 0.14563,-0.39688 -0.0838,-0.21828 -0.0224,-0.39687 0.13639,-0.39687 0.18689,0 0.16926,-0.14388 -0.05,-0.40809 -0.25653,-0.3091 -0.26439,-0.48238 -0.0324,-0.71438 0.4044,-0.4044 0.44594,-98.62545 0.0417,-98.62545 -0.14552,0 -0.26458,-0.18562 -0.26458,-0.41249 0,-0.22687 0.11741,-0.33993 0.2609,-0.25125 0.14349,0.0887 0.0114,-0.4103 -0.29362,-1.10886 -0.30498,-0.69856 -0.56725,-1.88627 -0.58282,-2.63935 -0.0156,-0.75308 -0.11046,-1.31846 -0.21088,-1.2564 -0.10041,0.0621 -0.12489,-0.10771 -0.0544,-0.37726 0.0705,-0.26955 -0.0395,-0.65773 -0.24438,-0.86262 -0.20489,-0.2049 -0.31775,-0.53688 -0.2508,-0.73773 0.081,-0.2429 0.008,-0.29487 -0.21805,-0.1552 -0.21511,0.13294 -0.27464,0.10458 -0.16224,-0.0773 0.22046,-0.35671 -0.63058,-2.20347 -0.93011,-2.01835 -0.11988,0.0741 -0.15179,-0.0377 -0.0709,-0.24847 0.0809,-0.21074 -0.0831,-0.54434 -0.36434,-0.74134 -0.49299,-0.34531 -0.58251,-0.49583 -0.58251,-0.97956 0,-0.26461 -3.04047,-3.28965 -3.27003,-3.25344 -0.0863,0.0136 -0.47023,-0.26557 -0.85312,-0.62042 -0.3829,-0.35486 -0.77269,-0.62298 -0.8662,-0.59583 -0.19885,0.0577 -1.68269,-0.87713 -1.91939,-1.20927 -0.089,-0.12494 -0.26763,-0.2185 -0.39688,-0.20793 -0.25404,0.0208 -2.28519,-0.66993 -3.14542,-1.06962 -0.29104,-0.13522 -0.88635,-0.24022 -1.32291,-0.23333 -0.43657,0.007 -23.71329,0.0124 -51.72605,0.0121 -42.86833,-3.4e-4 -51.20338,0.0587 -52.64449,0.37303 -0.94172,0.20539 -1.80492,0.31614 -1.91823,0.24611 -0.11332,-0.07 -0.20603,-0.005 -0.20603,0.14457 0,0.14954 -0.17859,0.20336 -0.39687,0.11959 -0.21828,-0.0838 -0.39688,-0.0135 -0.39688,0.15622 0,0.16967 -0.11906,0.23492 -0.26458,0.14498 -0.14552,-0.0899 -0.26458,-0.0412 -0.26458,0.10837 0,0.14954 -0.1786,0.20336 -0.39688,0.1196 -0.22476,-0.0863 -0.39687,-0.006 -0.39687,0.18469 0,0.18535 -0.0743,0.26272 -0.16506,0.17194 -0.23659,-0.23659 -2.21376,0.82098 -2.3891,1.27792 -0.0809,0.21087 -0.25427,0.31718 -0.38521,0.23625 -0.13095,-0.0809 -0.8555,0.4853 -1.61011,1.25829 -0.75461,0.77299 -1.45426,1.3804 -1.55477,1.34979 -0.10051,-0.0306 -0.40528,0.19823 -0.67727,0.50851 -0.3376,0.38512 -0.36858,0.50096 -0.0977,0.36502 0.21828,-0.10951 0.0628,0.10815 -0.34548,0.48369 -0.4083,0.37554 -0.64643,0.68463 -0.52917,0.68686 0.11725,0.002 0.0346,0.11694 -0.18368,0.25493 -0.21829,0.13798 -0.39688,0.35302 -0.39688,0.47787 0,0.12484 -0.20946,0.43644 -0.46546,0.69244 -0.256,0.256 -0.3978,0.57491 -0.31511,0.7087 0.0827,0.13379 0.0172,0.24325 -0.14548,0.24325 -0.16269,0 -0.22851,0.1089 -0.14625,0.24199 0.0823,0.13309 0.0286,0.28231 -0.1193,0.3316 -0.14787,0.0493 -0.32271,0.36927 -0.38853,0.71105 -0.0658,0.34179 -0.25782,0.78788 -0.42665,0.99132 -0.16884,0.20343 -0.2031,0.3717 -0.0761,0.37393 0.12696,0.002 0.08,0.0998 -0.10425,0.21674 -0.28871,0.18326 -0.54882,1.35491 -0.67052,3.02035 -0.0186,0.25467 -0.12364,0.46302 -0.23342,0.46302 -0.10977,0 -0.13567,0.16656 -0.0576,0.37012 0.0781,0.20356 0.023,0.4437 -0.12259,0.53365 -0.17485,0.10806 -0.26889,17.16261 -0.27722,50.27556 -0.0119,47.3238 0.0136,50.19471 0.45808,51.59824 0.25888,0.81742 0.54605,1.41088 0.63814,1.31878 0.0921,-0.0921 0.11196,0.0527 0.0442,0.32175 -0.14674,0.58226 1.59833,4.32565 2.0165,4.32565 0.15979,0 0.21756,0.11807 0.12838,0.26237 -0.0892,0.1443 0.13651,0.56102 0.50153,0.92604 0.36502,0.36502 0.58426,0.66367 0.4872,0.66367 -0.0971,0 0.4072,0.59257 1.12056,1.31682 0.71336,0.72426 1.34874,1.2651 1.41196,1.20188 0.0632,-0.0632 0.33433,0.14788 0.60246,0.46912 0.26814,0.32123 0.49148,0.46827 0.49632,0.32675 0.005,-0.14152 0.19527,0.009 0.42317,0.33427 0.46217,0.65985 2.33879,1.7119 2.59558,1.45511 0.0908,-0.0908 0.16506,-0.0299 0.16506,0.13532 0,0.16521 0.16323,0.23774 0.36273,0.16118 0.1995,-0.0765 0.42807,0.0311 0.50793,0.23919 0.16384,0.42696 3.71023,1.383 4.14149,1.11647 0.15373,-0.095 0.27957,-0.0764 0.27963,0.0413 6e-5,0.11773 12.65045,0.21405 28.1119796,0.21405 15.46152,0 29.1834204,0.0754 30.4931104,0.1676 1.30969,0.0922 3.0361,0.12168 3.83646,0.0656 0.80036,-0.0561 2.40771,-0.15961 3.57188,-0.22998 z m -65.88392,-13.89813 c -0.0914,-0.14789 -0.27935,-0.19896 -0.41767,-0.11348 -0.3307,0.20439 -2.09321,-0.38205 -2.09321,-0.69647 0,-0.13424 -0.14883,-0.24441 -0.33073,-0.24483 -0.1819,-4.1e-4 -0.56414,-0.34915 -0.84942,-0.77495 -0.28528,-0.42581 -0.61134,-0.71694 -0.72457,-0.64696 -0.11324,0.07 -0.12748,-0.0771 -0.0317,-0.32678 0.11741,-0.30597 0.0743,-0.39225 -0.13229,-0.26458 -0.20026,0.12377 -0.25189,0.0471 -0.14895,-0.22118 0.0873,-0.22745 0.019,-0.41062 -0.15315,-0.41062 -0.18576,0 -0.24602,-0.20385 -0.14984,-0.5069 0.0885,-0.27879 0.053,-0.57355 -0.0788,-0.65502 -0.13182,-0.0815 -0.20668,-0.44868 -0.16635,-0.81602 0.0403,-0.36734 -0.0353,-0.66789 -0.16797,-0.66789 -0.13271,0 -0.24129,-0.1786 -0.24129,-0.39688 0,-0.21828 0.13209,-0.39687 0.29353,-0.39687 0.17967,0 0.2516,-0.35922 0.18542,-0.92604 -0.0595,-0.50933 -2.1e-4,-0.92605 0.13166,-0.92605 0.13186,0 0.17418,-0.1709 0.094,-0.37978 -0.0802,-0.20888 -0.0269,-0.4194 0.11839,-0.46782 0.14527,-0.0484 0.29048,-0.26754 0.32268,-0.48692 0.05,-0.34101 1.10862,-1.60867 1.3017,-1.55881 0.0364,0.009 0.2745,-0.0629 0.52917,-0.1606 0.4014,-0.15404 0.45951,-0.53478 0.43664,-2.86135 -0.0145,-1.47602 -0.1038,-2.41036 -0.19843,-2.07631 -0.0946,0.33405 -0.17207,-2.46392 -0.17207,-6.21771 0,-3.75379 0.0756,-6.40835 0.1679,-5.89903 0.0923,0.50932 0.13184,-1.48896 0.0877,-4.44062 l -0.0802,-5.36667 0.8383,-0.89043 c 1.71955,-1.82649 0.70808,-1.73225 19.94768,-1.85845 9.5717196,-0.0628 17.8793696,-0.12079 18.4614496,-0.12889 0.58207996,-0.008 6.56563,0.0384 13.2967804,0.1034 6.73114,0.065 12.7438,0.0322 13.36146,-0.0728 l 1.12301,-0.19097 0.0773,-2.04395 c 0.0488,-1.29068 -0.0243,-2.04395 -0.19843,-2.04395 -0.17188,0 -0.27572,-0.94659 -0.27572,-2.51354 v -2.51354 l -2.18281,-0.057 c -1.20055,-0.0313 -2.65906,-0.0432 -3.24114,-0.0264 -5.47264,0.15829 -41.48787,0.16706 -41.58484,0.0101 -0.17629,-0.28528 -7.59504,-0.2269 -12.45109,0.098 -3.60454,0.24115 -4.13002,0.22197 -4.98075,-0.18173 -1.08784,-0.51621 -1.83727,-1.49849 -1.60503,-2.1037 0.0871,-0.22697 0.0489,-0.34501 -0.0849,-0.26231 -0.1338,0.0827 -0.31805,0.0293 -0.40946,-0.11855 -0.0914,-0.1479 -0.0463,-0.2689 0.10018,-0.2689 0.14651,0 0.30236,-0.62195 0.34635,-1.38211 0.0755,-1.30552 0.13861,-1.41523 1.1383,-1.98002 0.89515,-0.50572 1.4537,-0.59859 3.62241,-0.60227 1.41024,-0.002 2.62577,-0.10418 2.70117,-0.22618 0.0754,-0.12201 1.36236,-0.22929 2.85989,-0.2384 1.67834,-0.0102 2.5198,0.0678 2.19362,0.20323 -0.29104,0.12089 5.98248,0.22817 13.94115,0.2384 10.4115396,0.0134 14.5216896,-0.0645 14.6534396,-0.27768 0.13261,-0.21457 1.86989,-0.23917 6.29946,-0.0892 3.3640004,0.11388 6.3544904,0.19014 6.6455304,0.16947 0.29104,-0.0207 3.16967,-0.0528 6.39695,-0.0715 4.67562,-0.027 5.84113,-0.10331 5.73665,-0.3756 -0.0721,-0.18794 -0.004,-0.42031 0.15149,-0.51638 0.32108,-0.19844 0.39657,-4.70106 0.0842,-5.02096 -0.10914,-0.11176 -0.19843,-1.1734 -0.19843,-2.3592 0,-2.14 -0.005,-2.15553 -0.66146,-2.09348 -0.60192,0.0569 -28.5122204,0.0392 -52.69062,-0.0334 -5.3327,-0.016 -9.55942,0.0584 -9.39271,0.16527 0.17454,0.11194 0.0208,0.19611 -0.36247,0.19844 -0.85852,0.005 -2.50586,-0.87695 -2.52144,-1.35027 -0.007,-0.20101 -0.1356,-0.34232 -0.28663,-0.31402 -0.15103,0.0283 -0.28955,-0.0908 -0.30781,-0.26458 -0.0183,-0.17382 -0.15844,-0.85182 -0.31149,-1.50666 -0.17534,-0.7502 -0.27243,-5.84729 -0.26247,-13.77911 0.0148,-11.76341 -0.0154,-12.62262 -0.46021,-13.10934 -0.26182,-0.28648 -0.35902,-0.33666 -0.21601,-0.11152 0.17601,0.27708 0.0725,0.24956 -0.32022,-0.0852 -0.31914,-0.27199 -0.5642,-0.56964 -0.54458,-0.66146 0.0626,-0.2928 -0.66236,-1.62214 -0.88459,-1.62214 -0.1176,0 -0.14528,-0.17859 -0.0615,-0.39687 0.0838,-0.21829 0.0503,-0.39688 -0.0744,-0.39688 -0.12471,0 -0.22674,-0.83344 -0.22674,-1.85208 0,-1.01865 0.10203,-1.85209 0.22674,-1.85209 0.12471,0 0.15821,-0.17859 0.0744,-0.39687 -0.0838,-0.21828 -0.0242,-0.39688 0.13229,-0.39688 0.16042,0 0.20841,-0.19851 0.11001,-0.45495 -0.096,-0.25023 -0.0927,-0.3731 0.007,-0.27305 0.10005,0.10006 0.52306,-0.24737 0.94002,-0.77205 0.41696,-0.52468 0.75812,-0.88475 0.75812,-0.80016 0,0.0846 0.50601,-0.0616 1.12448,-0.32483 0.61846,-0.26325 1.3626,-0.56842 1.65364,-0.67816 0.7515,-0.28337 1.98438,-0.375 1.98438,-0.1475 0,0.10557 0.47088,0.33302 1.04641,0.50546 1.18306,0.35445 2.73757,1.54371 2.5065,1.91758 -0.084,0.13587 -0.0545,0.22998 0.0654,0.20914 0.62572,-0.1087 0.87956,0.0893 0.87956,0.68623 0,0.3638 0.11533,0.66146 0.25628,0.66146 0.14096,0 0.19237,0.16655 0.11426,0.37011 -0.0781,0.20357 -0.0365,0.43533 0.0924,0.51503 0.31422,0.19419 0.20209,2.20419 -0.14639,2.62407 -0.15224,0.18345 -0.31552,0.68931 -0.36284,1.12414 -0.0473,0.43484 -0.29639,0.94758 -0.55349,1.13944 -0.25709,0.19186 -0.38752,0.47815 -0.28984,0.63619 0.0977,0.15805 0.0581,0.2135 -0.088,0.12322 -0.58296,-0.36029 -1.34676,1.05135 -1.42422,2.6322 -0.1652,3.3714 0.0589,11.60282 0.30158,11.07623 0.15382,-0.33382 0.19911,1.40365 0.12268,4.70641 -0.0771,3.33173 -0.0282,5.17814 0.13445,5.07762 0.14057,-0.0869 0.25559,-0.0319 0.25559,0.12223 0,0.30892 9.95016,0.40087 11.72057,0.1083 l 1.00494,-0.16607 -0.14773,-9.15758 c -0.23922,-14.82826 -0.0832,-13.20122 -1.39392,-14.53916 -1.25057,-1.2766 -2.12275,-3.31988 -1.65675,-3.88137 0.15457,-0.18626 0.25733,-0.44047 0.22836,-0.56493 -0.0796,-0.34191 0.32364,-1.71422 0.7662,-2.60754 0.43306,-0.87413 2.0825,-2.52118 2.30351,-2.30017 0.0767,0.0767 0.13941,-0.006 0.13941,-0.18489 0,-0.17836 0.11906,-0.25071 0.26458,-0.16077 0.14552,0.0899 0.26458,0.0412 0.26458,-0.10837 0,-0.14955 0.1786,-0.20337 0.39688,-0.1196 0.21828,0.0838 0.39687,0.046 0.39687,-0.0839 0,-0.12991 0.20836,-0.25161 0.46302,-0.27045 0.25467,-0.0188 0.83955,-0.10939 1.29974,-0.20122 0.48748,-0.0973 0.90925,-0.0496 1.01047,0.11416 0.0956,0.15463 0.28459,0.21263 0.42006,0.12891 0.13546,-0.0837 0.2463,-0.039 0.2463,0.0993 0,0.23489 1.20133,0.66819 1.41967,0.51206 0.0545,-0.039 0.54546,0.4649 1.09097,1.11974 0.54551,0.65484 1.11022,1.26551 1.25491,1.35703 0.15735,0.0995 0.11813,0.22405 -0.0976,0.30985 -0.22845,0.0908 -0.16668,0.15257 0.16849,0.16837 0.44167,0.0208 0.46354,0.068 0.1323,0.28547 -0.33181,0.21782 -0.33737,0.29889 -0.0339,0.49451 0.19964,0.12869 0.30502,0.39658 0.23419,0.59532 -0.0708,0.19873 -0.0203,0.57215 0.11228,0.82981 0.13258,0.25767 0.14961,0.61486 0.0378,0.79375 -0.23203,0.37135 -0.37856,0.91175 -0.42897,1.58204 -0.0192,0.25466 -0.14111,0.46302 -0.27102,0.46302 -0.12991,0 -0.16529,0.18477 -0.0786,0.41061 0.0904,0.23546 0.046,0.34167 -0.10398,0.24897 -0.14385,-0.0889 -0.26155,-0.0618 -0.26155,0.0601 0,0.12197 -0.43827,0.67299 -0.97393,1.22448 l -0.97393,1.00271 -0.10518,10.43204 c -0.0773,7.66722 -0.0208,10.68769 0.21317,11.39662 l 0.31834,0.96458 5.9862796,-0.20085 c 3.29246,-0.11048 9.67723,-0.17103 14.18837,-0.13457 4.5111504,0.0365 10.8214604,0.0801 14.0229204,0.0969 l 5.82083,0.0306 0.0851,-0.59924 c 0.0468,-0.32958 0.19562,-0.53091 0.33073,-0.4474 0.14207,0.0878 0.22814,-0.49632 0.2041,-1.38514 l -0.0416,-1.53697 -0.18145,1.32292 c -0.153,1.11544 -0.18797,0.92664 -0.22302,-1.20386 -0.0281,-1.70662 0.0658,-2.64242 0.28916,-2.88308 0.26459,-0.28505 0.26459,-0.31897 0,-0.1696 -0.24441,0.13799 -0.33178,-0.14536 -0.33478,-1.08566 -0.002,-0.69981 -0.0999,-1.42345 -0.21712,-1.60809 -0.16905,-0.26633 -2.91527,-0.31226 -13.29126,-0.22224 -7.1930104,0.0624 -13.38475044,0.14231 -13.75944044,0.17758 -1.10592996,0.1041 -2.02371996,-0.23735 -2.17306996,-0.80846 -0.0997,-0.38136 -0.27246,-0.4821 -0.60671,-0.35383 -0.36107,0.13855 -0.42867,0.0787 -0.29738,-0.26349 0.10724,-0.27947 0.038,-0.44281 -0.18779,-0.44281 -0.73882,0 -0.9398,-2.69207 -0.27213,-3.6453 0.22653,-0.32342 0.32438,-0.58804 0.21745,-0.58804 -0.26065,0 1.82514,-1.57074 2.09826,-1.58014 0.11773,-0.004 0.15313,0.0912 0.0787,0.21173 -0.0745,0.12049 0.59668,0.11896 1.49144996,-0.003 0.94939,-0.12984 1.96334004,-0.12053 2.43489004,0.0224 2.54807,0.77207 8.6132404,0.48165 8.6132404,-0.41243 0,-0.19512 0.11907,-0.35477 0.26459,-0.35477 0.14552,0 0.26458,-0.41672 0.26458,-0.92604 0,-0.50933 -0.12883,-0.92604 -0.28629,-0.92604 -0.1861,0 -0.25555,-0.63674 -0.19844,-1.81937 0.0652,-1.35114 -0.0126,-1.9129 -0.30252,-2.18281 -0.2147,-0.1999 -0.4825904,-0.36345 -0.5953104,-0.36345 -0.11272,0 -0.21803,-0.11906 -0.23402,-0.26458 -0.016,-0.14552 -0.28389,-0.62177 -0.59532,-1.05834 -0.39504,-0.55378 -0.57256,-1.21239 -0.58718,-2.1785 -0.0294,-1.94291 0.15796,-3.00919 0.49243,-2.80248 0.17627,0.10894 0.2154,0.005 0.10569,-0.28102 -0.10349,-0.26969 -0.068,-0.38839 0.0873,-0.29237 0.14386,0.0889 0.26156,0.0468 0.26156,-0.0935 0,-0.14034 0.41672,-0.75395 0.9260404,-1.36357 0.50932,-0.60962 0.92604,-1.04342 0.92604,-0.96401 0,0.0794 0.50602,-0.0853 1.12448,-0.36603 1.41648,-0.64296 2.99618,-0.65958 4.26008,-0.0448 0.53962,0.26247 0.94783,0.53037 0.90714,0.59531 -0.0407,0.0649 -0.0254,0.0893 0.034,0.0542 0.0594,-0.0351 0.29058,0.0839 0.51381,0.26459 0.3326,0.26915 0.36544,0.26136 0.1819,-0.0432 -0.15203,-0.25225 -0.12585,-0.31097 0.0815,-0.18283 0.168,0.10384 0.30546,0.36409 0.30546,0.57835 0,0.21426 0.17791,0.45784 0.39536,0.54128 0.21744,0.0834 0.32948,0.2583 0.24897,0.38857 -0.0805,0.13027 -0.0133,0.23686 0.14942,0.23686 0.1627,0 0.22223,0.11906 0.1323,0.26458 -0.0899,0.14552 -0.0412,0.26459 0.10837,0.26459 0.14954,0 0.20336,0.17859 0.1196,0.39687 -0.0838,0.21828 -0.0316,0.39688 0.11582,0.39688 0.14747,0 0.20937,0.22469 0.13755,0.4993 -0.0718,0.27462 -0.0123,0.5724 0.13222,0.66173 0.2773,0.17137 0.12624,1.15294 -0.25261,1.64144 -0.12324,0.15891 -0.14573,0.36727 -0.05,0.46302 0.0958,0.0958 0.0605,0.17409 -0.0783,0.17409 -0.13881,0 -0.26971,0.2301 -0.29089,0.51133 -0.0556,0.73751 -0.87711,1.89543 -1.20225,1.69448 -0.16971,-0.10489 -0.19654,-0.0415 -0.0694,0.16414 0.12009,0.19432 0.0576,0.42744 -0.14886,0.55502 -0.24332,0.15038 -0.33622,0.69104 -0.29363,1.70883 0.0343,0.81887 -0.0292,1.43191 -0.14099,1.36231 -0.11181,-0.0696 -0.1638,0.83606 -0.11553,2.01255 0.0483,1.17649 0.18041,1.98916 0.29365,1.80594 0.14266,-0.23082 0.56265,-0.2812 1.36745,-0.16403 3.05335,0.44454 8.99649,0.33068 7.76933,-0.14884 -0.30838,-0.12051 0.47246,-0.21174 1.90614,-0.22272 1.87329,-0.0143 2.52355,0.0765 2.84427,0.39718 0.22868,0.22868 0.41577,0.32952 0.41577,0.2241 0,-0.17789 0.1936,0.0249 1.36733,1.43215 0.24271,0.291 0.37457,0.59581 0.29303,0.67735 -0.0815,0.0815 -0.0333,0.29996 0.10721,0.48538 0.36148,0.47699 0.38049,1.60941 0.0307,1.82562 -0.20491,0.12664 -0.27661,2.0159 -0.23608,6.22023 0.032,3.3211 0.10653,6.08668 0.16558,6.14574 0.0591,0.0591 2.16503,0.002 4.67993,-0.12667 l 4.57255,-0.23405 0.0753,-2.86555 c 0.0414,-1.57605 -0.0211,-2.80596 -0.13896,-2.73312 -0.11785,0.0728 -0.21127,-3.58134 -0.2076,-8.12038 l 0.007,-8.25279 -0.74004,-0.78804 c -0.40702,-0.43342 -0.9266,-1.17499 -1.15463,-1.64793 -0.22802,-0.47294 -0.52711,-0.8599 -0.66463,-0.8599 -0.13753,0 -0.17325,-0.12427 -0.0794,-0.27617 0.0939,-0.15189 0.0252,-0.45144 -0.15256,-0.66566 -0.43131,-0.51969 -0.17929,-3.80069 0.31604,-4.11455 0.19719,-0.12495 0.2583,-0.229 0.1358,-0.23123 -0.4311,-0.008 2.13757,-2.2923 2.96099,-2.63338 0.45848,-0.18991 0.83361,-0.4334 0.83361,-0.54108 0,-0.10769 0.31535,-0.13551 0.70078,-0.0618 0.40093,0.0766 0.63518,0.0278 0.54747,-0.1141 -0.32179,-0.52066 1.35624,-0.32999 2.66891,0.30326 0.75455,0.36401 1.43202,0.66183 1.5055,0.66183 0.0735,0 0.37171,0.23812 0.66275,0.52916 0.29105,0.29105 0.45506,0.52917 0.36448,0.52917 -0.0906,0 -10e-4,0.20145 0.19844,0.44767 0.29729,0.3665 0.29838,0.40868 0.006,0.23265 -0.28929,-0.17417 -0.30009,-0.10843 -0.0568,0.34609 0.16516,0.3086 0.41517,0.56109 0.55557,0.56109 0.1404,0 0.25527,0.1786 0.25527,0.39688 0,0.21828 0.10792,0.39687 0.23981,0.39687 0.1319,0 0.17738,0.23876 0.10107,0.53058 -0.0763,0.29181 0.009,0.70853 0.18946,0.92604 0.26132,0.31488 0.26109,0.39547 -0.001,0.39547 -0.26278,0 -0.26278,0.0802 0,0.39687 0.29315,0.35323 0.19639,0.49828 -0.29386,0.4405 -0.0889,-0.0105 -0.29813,0.28067 -0.46503,0.64698 -0.1788,0.39242 -0.19394,0.59834 -0.0369,0.50126 0.14662,-0.0906 0.26615,-0.0684 0.2656,0.0493 -0.002,0.35881 -1.09758,2.03722 -1.54276,2.36274 -0.36824,0.26927 -0.41976,1.4917 -0.42953,10.19114 -0.006,5.43685 0.0818,10.24236 0.19538,10.67892 0.14793,0.56867 0.13032,0.68121 -0.0621,0.39688 -0.23069,-0.3409 -0.26914,-0.33156 -0.27262,0.0661 -0.002,0.25466 0.11501,0.46302 0.26053,0.46302 0.14552,0 0.26458,0.29766 0.26458,0.66146 0,0.3638 0.14883,0.66328 0.33073,0.66551 0.22452,0.003 0.20328,0.0949 -0.0662,0.28686 -0.30057,0.21418 -0.18019,0.2453 0.4961,0.12824 0.49113,-0.085 3.32589,-0.15457 6.29947,-0.15457 3.53696,0 5.34995,-0.0915 5.24298,-0.26458 -0.0899,-0.14552 -0.0339,-0.26459 0.12452,-0.26459 0.2034,0 0.28084,-3.19284 0.26352,-10.86437 -0.0219,-9.71573 -0.0709,-10.91857 -0.46352,-11.37708 -0.24145,-0.28199 -0.5629,-0.51271 -0.71434,-0.51271 -0.15143,0 -0.39286,-0.22264 -0.53651,-0.49475 -0.14364,-0.27211 -0.54036,-1.00388 -0.88158,-1.62615 -0.72619,-1.32431 -0.80654,-3.15133 -0.20221,-4.59769 0.2193,-0.52488 0.33804,-0.95433 0.26386,-0.95433 -0.0742,0 0.4379,-0.47276 1.13798,-1.05059 0.70007,-0.57782 1.45512,-1.20289 1.67789,-1.38906 0.22277,-0.18616 0.81808,-0.37877 1.32292,-0.42802 0.50483,-0.0493 0.95347,-0.18577 0.99696,-0.30337 0.0435,-0.11761 0.6928,-0.0519 1.4429,0.14594 0.75011,0.19788 1.40648,0.31713 1.45861,0.265 0.0521,-0.0521 0.40007,0.18815 0.7732,0.53395 0.37312,0.3458 0.76658,0.57424 0.87435,0.50764 0.10776,-0.0666 0.40889,0.11422 0.66918,0.40183 0.26028,0.28761 0.39283,0.52293 0.29456,0.52293 -0.0983,0 0.0555,0.45898 0.34167,1.01995 0.61622,1.2079 1.02302,3.74255 0.60066,3.74255 -0.33595,0 -0.70958,1.00437 -0.61516,1.65365 0.037,0.25466 -0.0592,0.46302 -0.21387,0.46302 -0.15467,0 -0.28122,0.17859 -0.28122,0.39687 0,0.21828 -0.10518,0.39688 -0.23372,0.39688 -0.12855,0 -0.296,0.23812 -0.37211,0.52916 -0.0855,0.32694 -0.36089,0.52917 -0.72062,0.52917 -0.45084,0 -0.53917,0.1045 -0.39139,0.46302 0.10498,0.25466 0.31003,5.32676 0.45569,11.27134 0.20675,8.43818 0.19378,10.94107 -0.0592,11.41368 -0.21385,0.39959 -0.26118,1.06193 -0.13923,1.94861 0.22988,1.67141 -0.21684,3.2642 -0.8476,3.02215 -0.25338,-0.0972 -0.35731,-0.0542 -0.25783,0.10678 0.21246,0.34377 -0.93996,1.3564 -1.72819,1.51857 -1.28587,0.26456 -31.29169,0.40328 -30.76313,0.14222 0.40727,-0.20114 0.26509,-0.23504 -0.61716,-0.14715 -0.63049,0.0628 -1.22542,0.19328 -1.32207,0.28994 -0.28472,0.28472 -0.35949,9.75047 -0.0803,10.16462 0.20838,0.3091 2.03512,0.38815 10.52853,0.45561 6.06573,0.0482 10.00537,-0.013 9.61494,-0.14918 -0.61546,-0.21475 -0.59614,-0.23263 0.27781,-0.25717 0.5166,-0.0145 1.05238,0.0865 1.19062,0.22451 0.14033,0.14007 2.80717,0.26983 6.03758,0.29376 5.41156,0.0401 5.82642,0.0778 6.40712,0.58272 0.3415,0.29693 0.55925,0.63963 0.48389,0.76155 -0.0753,0.12193 0.0405,0.15357 0.25746,0.0703 0.28544,-0.10953 0.46732,0.12898 0.65806,0.86293 0.16314,0.62777 0.27453,9.04538 0.29231,22.08891 0.0232,17.01367 -0.0372,21.10104 -0.31359,21.21173 -0.22108,0.0886 0.0663,0.48891 0.81138,1.13045 1.24321,1.07041 2.13378,2.78979 2.30258,4.44549 0.0578,0.56707 0.0319,0.9578 -0.0576,0.86828 -0.20818,-0.20817 -1.75952,2.98299 -1.73425,3.5674 0.0105,0.2418 -0.28365,0.65852 -0.65356,0.92605 -0.36992,0.26752 -0.83706,0.64283 -1.0381,0.834 -0.20104,0.19118 -0.47728,0.27854 -0.61386,0.19413 -0.13658,-0.0844 -0.32432,-0.0305 -0.41719,0.11973 -0.0929,0.15027 -0.27969,0.20472 -0.41515,0.121 -0.13547,-0.0837 -0.24631,-0.0559 -0.24631,0.0618 0,0.11773 -0.53578,0.21405 -1.19062,0.21405 -0.65484,0 -1.19063,-0.0973 -1.19063,-0.21627 0,-0.11894 -0.22557,-0.14467 -0.50128,-0.0572 -0.28502,0.0905 -0.67231,-0.0119 -0.8977,-0.23731 -0.21802,-0.21802 -0.55557,-0.43042 -0.75011,-0.472 -0.47904,-0.10238 -1.78644,-1.73385 -2.2194,-2.76953 -0.48857,-1.16871 -0.90496,-4.05294 -0.58511,-4.05294 0.13905,0 0.19204,-0.23242 0.11776,-0.51648 -0.0743,-0.28406 -0.0376,-0.55195 0.0816,-0.59531 0.11916,-0.0434 0.25535,-0.24992 0.30264,-0.45903 0.0473,-0.20911 0.38365,-0.6652 0.74745,-1.01354 0.3638,-0.34833 0.48286,-0.55604 0.26458,-0.46157 -0.21828,0.0945 0.0153,-0.19359 0.51917,-0.64011 0.50383,-0.44653 1.00984,-0.81188 1.12448,-0.81188 0.11464,0 0.20661,-0.38695 0.20438,-0.85989 -0.002,-0.47294 -0.0915,-0.72228 -0.19843,-0.55409 -0.10692,0.16819 -0.187,-6.85649 -0.17797,-15.61042 0.009,-8.75392 -0.0552,-14.07075 -0.1428,-11.81518 -0.15906,4.09705 -0.15923,4.09538 -0.17731,-1.71979 -0.01,-3.20146 0.0672,-5.34458 0.1714,-4.7625 0.15401,0.86016 0.19,0.68676 0.19221,-0.92604 0.002,-1.5068 -0.0442,-1.76151 -0.19221,-1.05834 -0.19419,0.92257 -0.19506,0.92151 -0.22976,-0.28182 l -0.0348,-1.20787 -2.3151,0.0992 c -1.66174,0.0712 -2.2031,0.0212 -1.91823,-0.17714 0.45703,-0.31826 -3.47062,-0.39085 -6.35,-0.11736 l -1.71979,0.16334 -0.13229,11.67488 c -0.0728,6.42118 -0.13229,15.33186 -0.13229,19.80151 0,7.71209 0.0263,8.15072 0.51467,8.59896 0.49896,0.4579 0.50314,0.45617 0.13685,-0.0568 -0.3739,-0.52367 -0.37169,-0.52394 0.21293,-0.0251 0.32492,0.27722 0.59075,0.66417 0.59075,0.8599 0,0.19572 0.12609,0.35586 0.2802,0.35586 0.15411,0 0.20662,0.11907 0.11668,0.26459 -0.0899,0.14552 -0.0304,0.26458 0.13229,0.26458 0.1627,0 0.22731,0.11084 0.14359,0.2463 -0.0837,0.13547 -0.0364,0.31787 0.10512,0.40535 0.14154,0.0875 0.1897,0.33534 0.10701,0.55082 -0.0827,0.21547 -0.0124,0.55795 0.15614,0.76105 0.3935,0.47414 0.2459,1.57479 -0.29347,2.18842 -0.23121,0.26305 -0.49835,0.77593 -0.59364,1.13973 -0.16761,0.63994 -0.15975,0.63779 0.24174,-0.0661 0.49645,-0.87042 0.8138,-0.98311 0.37256,-0.13229 -1.46809,2.83082 -3.12442,4.30234 -4.49946,3.99739 -0.37551,-0.0833 -0.5098,-0.0503 -0.32909,0.0807 0.18229,0.1322 -0.22124,0.24403 -1.00166,0.27759 -0.8725,0.0375 -1.24881,-0.0379 -1.13205,-0.22678 0.116,-0.1877 -0.0256,-0.21935 -0.42054,-0.094 -0.44614,0.1416 -0.54307,0.10426 -0.3866,-0.14891 0.14847,-0.24025 0.0816,-0.28907 -0.23145,-0.16894 -0.24216,0.0929 -0.44028,0.0466 -0.44028,-0.10295 0,-0.14954 -0.11907,-0.19831 -0.26459,-0.10837 -0.14552,0.0899 -0.26458,0.0176 -0.26458,-0.16077 0,-0.17837 -0.0786,-0.24568 -0.17471,-0.14959 -0.0961,0.0961 -0.34235,-0.0647 -0.54727,-0.35721 -0.20491,-0.29255 -0.51324,-0.4513 -0.68519,-0.35277 -0.17194,0.0985 -0.22352,0.0809 -0.11463,-0.0392 0.1089,-0.1201 -0.085,-0.70474 -0.43095,-1.29919 -0.34592,-0.59445 -0.71206,-1.46641 -0.81366,-1.93769 -0.1016,-0.47127 -0.29462,-0.92478 -0.42895,-1.0078 -0.34722,-0.21459 -0.30352,-1.17804 0.0534,-1.17804 0.1907,0 0.23967,-0.28996 0.13628,-0.80691 -0.11476,-0.5738 -0.0731,-0.75234 0.14418,-0.61805 0.20362,0.12585 0.2492,0.042 0.13661,-0.25143 -0.0929,-0.24215 -0.0466,-0.44028 0.10295,-0.44028 0.14954,0 0.19831,-0.11906 0.10837,-0.26458 -0.0899,-0.14552 -0.0304,-0.26459 0.13229,-0.26459 0.1627,0 0.25538,-0.0893 0.20596,-0.19843 -0.0494,-0.10914 0.36028,-0.63265 0.91043,-1.16335 0.55015,-0.5307 1.00865,-0.88789 1.01887,-0.79375 0.0102,0.0941 0.12093,-0.067 0.24599,-0.35801 0.12507,-0.29104 0.22739,-1.30307 0.22739,-2.24896 0,-0.94588 -0.0809,-1.51586 -0.17984,-1.26661 -0.0989,0.24925 -0.17984,-7.09817 -0.17984,-16.32761 0,-9.22943 0.0809,-16.57711 0.17984,-16.32818 0.10112,0.25448 0.18798,-0.14306 0.19844,-0.90815 0.0133,-0.97203 -0.0936,-1.40381 -0.37425,-1.5115 -0.21606,-0.0829 -2.34499,-0.15299 -4.73095,-0.15574 l -4.33812,-0.005 -0.15306,3.23629 c -0.26134,5.52586 -0.16625,24.00609 0.12353,24.00609 0.14424,0 0.19374,0.11086 0.11,0.24636 -0.0837,0.13549 -0.16586,0.84987 -0.18248,1.5875 -0.0166,0.73762 -0.14074,1.34114 -0.27584,1.34114 -0.1351,0 -0.18093,0.10468 -0.10186,0.23263 0.0791,0.12795 -0.16825,0.54467 -0.54963,0.92604 -0.64259,0.6426 -0.97409,0.8048 -1.48114,0.72474 -0.10914,-0.0172 -0.19844,0.1046 -0.19844,0.27074 0,0.22171 -0.86212,0.24442 -3.24115,0.0854 -4.01505,-0.26843 -9.16674,-0.29156 -9.81172,-0.0441 -0.44342,0.17015 -0.47228,0.47257 -0.35226,3.69129 0.0742,1.98845 0.2388,3.48274 0.38041,3.45232 0.13733,-0.0295 0.5865,0.29792 0.99816,0.7276 0.41166,0.42968 0.65817,0.78124 0.54779,0.78124 -0.11038,0 -0.0225,0.17818 0.19525,0.39594 0.25652,0.25653 0.35541,0.72264 0.28085,1.3238 -0.0808,0.65154 -0.0158,0.90789 0.21827,0.86083 0.19923,-0.0401 0.29998,0.14589 0.2504,0.46214 -0.0456,0.29104 -0.0737,0.85349 -0.0625,1.24988 0.0145,0.5088 -0.0868,0.67954 -0.34438,0.5807 -0.27782,-0.10661 -0.34605,0.097 -0.28601,0.85368 0.0434,0.54652 -0.007,0.85551 -0.11093,0.68662 -0.12935,-0.20928 -0.29842,-0.1331 -0.53095,0.23924 -0.18764,0.30046 -0.21332,0.46728 -0.0571,0.3707 0.44906,-0.27753 0.33402,0.0739 -0.3112,0.95048 -0.55743,0.75735 -2.05052,1.77174 -2.05052,1.3931 0,-0.0943 -0.1635,-0.0358 -0.36334,0.13006 -0.19984,0.16585 -0.55702,0.22722 -0.79375,0.13638 -0.24403,-0.0936 -0.43041,-0.0331 -0.43041,0.13972 0,0.71314 -3.24589,-0.33108 -4.42358,-1.4231 -0.40171,-0.37249 -0.8279304,-0.67725 -0.9471404,-0.67725 -0.11922,0 -0.14266,-0.1199 -0.0521,-0.26645 0.0906,-0.14655 -0.0139,-0.335 -0.23227,-0.41877 -0.23265,-0.0893 -0.33049,-0.32548 -0.23639,-0.5707 0.11489,-0.2994 0.0609,-0.35679 -0.18987,-0.20181 -0.22821,0.14104 -0.2871,0.1141 -0.16884,-0.0772 0.0999,-0.1616 -7.9e-4,-0.73032 -0.2237,-1.26382 -0.47124,-1.12783 -0.53767,-2.75746 -0.11241,-2.75746 0.16109,0 0.22436,-0.17859 0.1406,-0.39687 -0.0838,-0.21829 -0.045,-0.39688 0.0862,-0.39688 0.13115,0 0.31375,-0.23722 0.40577,-0.52716 0.092,-0.28993 0.64896,-1.13649 1.2376404,-1.88122 0.94547,-1.19611 1.03606,-1.42929 0.77656,-1.99884 -0.16158,-0.35462 -0.29377,-1.78161 -0.29377,-3.17109 v -2.52632 l -4.8286504,0.15434 c -2.65575,0.0849 -5.48507004,0.20988 -6.28736004,0.27777 -1.66844996,0.14118 -3.10861996,-0.49028 -4.06777996,-1.78357 -0.66216,-0.89284 -0.80848,-4.01816 -0.20559,-4.39154 0.19433,-0.12035 0.32711,-0.32025 0.29506,-0.44422 -0.032,-0.12396 0.16112,-0.34878 0.42925,-0.49958 0.26813,-0.15081 0.64481,-0.41796 0.83707,-0.59368 0.19226,-0.17572 0.52471,-0.25228 0.73878,-0.17013 0.22401,0.086 0.39094,-0.003 0.39327,-0.20968 0.003,-0.28362 0.0489,-0.28841 0.21747,-0.0228 0.21466,0.33822 0.98142996,0.33522 1.52750996,-0.006 0.1616,-0.10097 0.37239,-0.10503 0.46841,-0.009 0.096,0.096 0.38052,0.20417 0.63222,0.24033 3.08493004,0.44322 6.28674004,0.5709 15.17514044,0.60512 l 10.48418,0.0404 0.16169,-0.60354 c 0.25945,-0.96845 0.1971,-4.22406 -0.0777,-4.05426 -0.14548,0.0899 -0.23971,-0.77527 -0.22985,-2.11042 0.009,-1.24454 -0.0684,-2.34788 -0.17249,-2.45187 -0.10406,-0.10399 -9.2056,-0.18907 -20.2256604,-0.18907 H -14.018047 l -0.0121,10.58704 c -0.007,5.82287 -0.0984,10.85897 -0.20385,11.19134 -0.17195,0.54175 0.277,1.56494 0.56172,1.28022 0.16344,-0.16344 1.8356,1.52228 1.73204,1.74609 -0.0505,0.10914 0.0413,0.19843 0.20399,0.19843 0.1627,0 0.23535,0.0978 0.16145,0.21741 -0.0739,0.11958 0.0267,0.52788 0.22358,0.90734 0.19686,0.37946 0.32451,0.72811 0.28365,0.77478 -0.0408,0.0467 -0.14557,0.7607 -0.2327,1.58675 -0.22139,2.09884 -0.24718,2.1791 -0.76886,2.39297 -0.25584,0.10489 -0.60628,0.52161 -0.77876,0.92604 -0.17248,0.40444 -0.49893,0.96416 -0.72545,1.24384 -0.35062,0.43288 -0.35285,0.4753 -0.015,0.28525 0.25566,-0.14381 0.21954,-0.021 -0.10151,0.34515 -0.27411,0.31263 -0.60153,0.50466 -0.7276,0.42675 -0.12607,-0.0779 -0.22922,-0.0285 -0.22922,0.10984 0,0.32686 -1.16302,0.6511 -2.57446,0.71774 -0.70381,0.0332 -1.05744,-0.0472 -0.95272,-0.21659 0.10644,-0.17222 -0.0864,-0.20597 -0.5344,-0.0935 -0.43352,0.10881 -0.70092,0.0671 -0.70092,-0.10932 0,-0.15688 -0.10115,-0.22272 -0.22478,-0.14632 -0.28088,0.1736 -2.98266,-2.10373 -2.75999,-2.32639 0.0894,-0.0894 0.0166,-0.16255 -0.16175,-0.16255 -0.17836,0 -0.25071,-0.11906 -0.16078,-0.26458 0.0899,-0.14552 0.0176,-0.26459 -0.16077,-0.26459 -0.17836,0 -0.24595,-0.0783 -0.1502,-0.17409 0.0957,-0.0958 0.0425,-0.33272 -0.11846,-0.52659 -0.52974,-0.6383 -0.61143,-3.60147 -0.12521,-4.54172 0.23977,-0.46366 0.3549,-0.84301 0.25585,-0.84301 -0.0991,0 -0.001,-0.20836 0.21757,-0.46302 0.21872,-0.25466 0.47246,-0.67372 0.56387,-0.93125 0.0914,-0.25752 0.60525,-0.72727 1.14188,-1.04389 0.53663,-0.31661 0.86689,-0.61184 0.73391,-0.65606 -0.14179,-0.0472 -0.20639,-3.70245 -0.15621,-8.83946 0.0605,-6.19125 0.002,-8.7076 -0.19843,-8.58353 -0.38944,0.24068 -0.37655,-2.03858 0.0137,-2.42886 0.18281,-0.18281 0.22925,-0.66282 0.12031,-1.24354 l -0.17744,-0.94581 h -6.488 -6.488 l 0.18875,2.81769 c 0.14138,2.11057 0.11172,2.77009 -0.11818,2.628 -0.23103,-0.14278 -0.28969,1.99022 -0.2372,8.62554 0.0395,4.99513 0.17157,8.77677 0.30474,8.72649 0.12925,-0.0488 0.33326,0.0702 0.45337,0.26458 0.1201,0.19433 0.37154,0.35874 0.55874,0.36535 0.18721,0.007 0.30951,0.15876 0.27178,0.33809 -0.0377,0.17934 0.11042,0.39476 0.32921,0.47872 0.2188,0.084 0.33194,0.25924 0.25143,0.38952 -0.0805,0.13027 -0.0133,0.23685 0.14942,0.23685 0.1627,0 0.22223,0.11907 0.13229,0.26459 -0.0899,0.14552 -0.0412,0.26458 0.10838,0.26458 0.14954,0 0.20336,0.17859 0.1196,0.39688 -0.0838,0.21828 -0.0493,0.39687 0.0766,0.39687 0.45627,0 0.12421,3.51674 -0.46064,4.87854 -0.82938,1.93118 -3.15171,3.94613 -3.96722,3.44211 -0.13331,-0.0824 -0.24238,-0.0237 -0.24238,0.1304 0,0.35849 -1.76626,0.36854 -1.98704,0.0113 z m 77.57403,-6.65988 c -0.0845,-0.21106 -0.14716,-0.14837 -0.15985,0.15986 -0.0115,0.27891 0.051,0.43518 0.13896,0.34726 0.0879,-0.0879 0.0973,-0.31612 0.0209,-0.50712 z m 28.69168,-49.23345 c -0.26131,-0.25936 -0.2917,-0.22897 -0.14812,0.14812 0.0994,0.26093 0.24731,0.40778 0.32877,0.32632 0.0815,-0.0815 1.7e-4,-0.29496 -0.18065,-0.47444 z m -102.50782,-23.93534 c -0.0671,-0.25743 -0.12638,-0.11087 -0.13177,0.32569 -0.005,0.43657 0.0495,0.64719 0.12197,0.46806 0.0725,-0.17913 0.0769,-0.53632 0.01,-0.79375 z m 62.18666,-12.66645 c -0.0879,-0.0879 -0.31612,-0.0973 -0.50712,-0.0209 -0.21107,0.0845 -0.14837,0.14716 0.15985,0.15985 0.27892,0.0115 0.43519,-0.0511 0.34727,-0.13896 z M 6.4705426,282.55062 c 0.191,-0.0764 0.4192,-0.067 0.50712,0.0209 0.0879,0.0879 -0.0684,0.15045 -0.34726,0.13897 -0.30823,-0.0127 -0.37092,-0.0754 -0.15986,-0.15986 z M -40.269317,253.62719 c 0,-0.3638 0.0601,-0.51263 0.13345,-0.33073 0.0734,0.18191 0.0734,0.47956 0,0.66146 -0.0734,0.1819 -0.13345,0.0331 -0.13345,-0.33073 z m 79.79933,-3.62671 c 0.32912,-0.0633 0.80537,-0.0609 1.05833,0.005 0.25297,0.0662 -0.0163,0.118 -0.59839,0.11507 -0.58209,-0.003 -0.78906,-0.0571 -0.45994,-0.12041 z m -20.90517,-17.46209 c 0.32742,-0.0631 0.8632,-0.0631 1.19063,0 0.32742,0.0631 0.0595,0.11466 -0.59532,0.11466 -0.65484,0 -0.92273,-0.0516 -0.59531,-0.11466 z"
       id="path3" /><path
       style="fill:#d8617d;fill-opacity:1;stroke-width:1.20727"
       d="m 132.28482,190.43148 c -1.77978,-0.0928 -3.4201,-0.26972 -3.64514,-0.39305 -0.22502,-0.12334 -0.75317,-0.27964 -1.17362,-0.34732 -1.82413,-0.29369 -3.64769,-0.84504 -3.64769,-1.10285 0,-0.1537 -0.13386,-0.20611 -0.29747,-0.11642 -0.32785,0.17968 -5.84068,-2.84105 -7.38114,-4.04449 -1.91088,-1.49282 -5.54011,-5.17893 -5.35727,-5.44127 0.10238,-0.14703 0.057,-0.26733 -0.10132,-0.26733 -0.82872,0 -3.92627,-5.93257 -3.57302,-6.84316 0.0802,-0.20681 3.6e-4,-0.37601 -0.17748,-0.37601 -1.04238,0 -1.11206,-3.68959 -1.04343,-55.24496 0.0379,-28.428934 0.17472,-51.824337 0.3041,-51.989774 0.1294,-0.16544 0.24713,-0.706877 0.26162,-1.203193 0.0234,-0.802487 0.27238,-2.105587 0.40225,-2.105587 0.0268,0 0.11704,-0.473758 0.20026,-1.052792 0.19024,-1.322836 1.82362,-5.189605 2.31693,-5.484977 0.21869,-0.130945 0.23086,-0.224749 0.0299,-0.230204 -0.22613,-0.0057 -0.22613,-0.08287 0,-0.230208 0.18657,-0.121543 0.60384,-0.72859 0.92733,-1.348983 0.32345,-0.620394 0.74322,-1.128 0.93278,-1.128 0.18958,0 0.34469,-0.180159 0.34469,-0.400362 0,-0.591812 4.58559,-4.407137 7.11678,-5.921309 2.92483,-1.749676 5.90094,-2.81668 10.02419,-3.593906 l 3.40334,-0.641517 49.34227,0.137164 c 44.17469,0.122795 50.92104,0.188312 51.54708,0.5006 0.0934,0.04649 0.32223,0.105276 0.50879,0.130503 1.70844,0.231127 2.88321,0.535049 2.88321,0.745894 0,0.217086 0.39206,0.362084 2.11999,0.784047 0.13991,0.03422 0.41605,0.07901 0.61362,0.09971 0.19757,0.02069 0.26378,0.174544 0.14713,0.341927 -0.11783,0.169122 0.25,0.386299 0.82797,0.4888 0.57205,0.101408 1.0401,0.325466 1.0401,0.497804 0,0.172329 0.0857,0.23729 0.19053,0.144361 0.10471,-0.09289 0.58499,0.155229 1.06713,0.551465 0.48212,0.396236 1.03039,0.720427 1.21837,0.720427 0.38926,0 3.06889,2.425891 3.10022,2.806643 0.0116,0.137414 0.25509,0.408128 0.5418,0.60159 0.67296,0.454137 2.1427,2.306949 1.82998,2.306949 -0.13141,0 0.16109,0.354741 0.65001,0.788311 0.48893,0.433582 0.80601,0.907341 0.70464,1.052793 -0.10142,0.145465 -0.033,0.264483 0.15204,0.264483 0.33731,0 0.91453,1.156045 0.78849,1.57919 -0.0369,0.12408 0.0945,0.225602 0.292,0.225602 0.19757,0 0.26488,0.135358 0.14959,0.300797 -0.11526,0.165436 -0.0225,0.300805 0.2061,0.300805 0.22868,0 0.31533,0.08902 0.19257,0.197919 -0.12281,0.108912 -0.0532,0.379581 0.1546,0.601601 0.20778,0.222021 0.24463,0.40574 0.082,0.408275 -0.16277,0.0022 -0.11513,0.106639 0.10588,0.23123 0.22103,0.124647 0.45692,0.562492 0.52418,0.972996 0.0674,0.410492 0.31822,1.062003 0.55772,1.447801 0.98112,1.58052 1.08124,7.444996 0.98678,57.803895 l -0.0962,51.28616 -0.82957,2.55679 c -0.45626,1.40624 -0.96536,2.63961 -1.13137,2.74082 -0.16599,0.10112 -0.27804,0.23659 -0.24898,0.3008 0.1814,0.40108 -1.35272,3.27517 -1.7482,3.27517 -0.15504,0 -0.28189,0.21641 -0.28189,0.48091 0,0.2645 -0.47405,0.87361 -1.05347,1.35359 -0.57941,0.47997 -0.92923,0.87268 -0.77738,0.87268 0.15185,0 -0.39801,0.60911 -1.22197,1.3536 -0.82391,0.74447 -1.59349,1.35358 -1.71017,1.35358 -0.11666,0 -0.87026,0.53881 -1.67463,1.19733 -0.80438,0.65853 -1.89826,1.36837 -2.43085,1.57742 -0.53258,0.20905 -0.96832,0.49041 -0.96832,0.62523 0,0.13483 -0.15265,0.16147 -0.3392,0.0592 -0.18657,-0.1022 -0.33921,-0.058 -0.33921,0.0983 0,0.31096 -2.2865,1.35509 -2.968,1.35533 -0.2332,9e-5 -0.42401,0.10778 -0.42401,0.23924 0,0.19573 -1.57001,0.68219 -3.2224,0.99839 -0.18656,0.0357 -1.00549,0.23248 -1.81984,0.4373 -1.13988,0.28667 -12.34195,0.38487 -48.6752,0.42666 -25.95704,0.0299 -48.65077,-0.0217 -50.43057,-0.11452 z m 99.7482,-7.98303 c 5.17754,-1.36304 9.55754,-4.62689 12.03206,-8.96601 0.74611,-1.30831 1.35656,-2.48142 1.35656,-2.60693 0,-0.1255 0.10386,-0.3204 0.23102,-0.43307 0.12704,-0.11267 0.1489,-0.39467 0.0485,-0.62666 -0.10036,-0.23198 -0.0244,-0.42179 0.16888,-0.42179 0.19325,0 0.34258,-0.43993 0.33182,-0.9776 -0.0106,-0.53767 0.006,-23.85333 0.0382,-51.81257 0.0557,-48.938156 0.0297,-52.390703 -0.40179,-53.391769 -0.37972,-0.881169 -1.28423,-3.520258 -1.41868,-4.139379 -0.0752,-0.345793 -0.37698,-0.954125 -0.67086,-1.351861 -0.29387,-0.397736 -0.43202,-0.813867 -0.30699,-0.924735 0.12499,-0.110846 0.0492,-0.201591 -0.16841,-0.201591 -0.21766,0 -0.39573,-0.188562 -0.39573,-0.419019 0,-0.230457 -0.23865,-0.500214 -0.5303,-0.599476 -0.29166,-0.09925 -0.46593,-0.282923 -0.38724,-0.408172 0.0787,-0.12525 -1.01132,-1.242926 -2.42226,-2.483712 -1.41093,-1.2408 -2.44454,-2.052962 -2.29693,-1.804792 0.14761,0.248158 -0.0293,0.127171 -0.3929,-0.26886 -0.42302,-0.460606 -0.81917,-0.633537 -1.09944,-0.479922 -0.27248,0.149329 -0.35494,0.120725 -0.2181,-0.07561 0.24912,-0.357444 -0.69085,-0.771426 -1.16345,-0.512412 -0.16973,0.093 -0.30857,0.01774 -0.30857,-0.167177 0,-0.18497 -0.15268,-0.252649 -0.33923,-0.150398 -0.18654,0.102205 -0.33919,0.06445 -0.33919,-0.08391 0,-0.148398 -0.54175,-0.287868 -1.20389,-0.309947 -0.66216,-0.02206 -1.38719,-0.140802 -1.6112,-0.263835 -0.66222,-0.363686 -98.73113,-0.118758 -100.76061,0.25166 -0.96028,0.17526 -2.05123,0.360879 -2.42435,0.412481 -0.37312,0.05161 -0.75472,0.121122 -0.84801,0.154501 -0.0934,0.03342 -0.28407,0.04467 -0.42399,0.02513 -0.13993,-0.01955 -0.2544,0.107775 -0.2544,0.282933 0,0.175205 -0.13409,0.245055 -0.298,0.15523 -0.38861,-0.212983 -2.4156,0.684877 -2.4156,1.069995 0,0.163084 -0.13594,0.222009 -0.30209,0.130945 -0.16616,-0.09106 -0.55447,0.175989 -0.8629,0.593439 -0.30845,0.417449 -0.67354,0.697223 -0.8113,0.621711 -0.13778,-0.07548 -0.60865,0.326263 -1.04643,0.892814 -0.43776,0.56655 -0.9289,1.030089 -1.09141,1.030089 -0.16251,0 -0.29547,0.126364 -0.29547,0.28082 0,0.335675 -2.08065,3.400217 -2.48712,3.6632 -0.15643,0.101183 -0.26746,0.271429 -0.24671,0.37825 0.0415,0.214096 -0.92341,3.383334 -1.24841,4.100101 -0.11259,0.248156 -0.25737,0.789594 -0.3219,1.20319 -0.0645,0.413597 -0.101,22.831683 -0.0808,49.817978 0.0294,39.3912 -0.0491,49.18755 -0.39765,49.68256 -0.35295,0.50116 -0.35274,0.70363 0.001,1.08179 0.29257,0.31262 0.35954,0.86329 0.20417,1.67882 -0.16286,0.85488 -0.11136,1.21359 0.1741,1.21359 0.23494,0 0.3163,0.20568 0.19356,0.48933 -0.1164,0.26912 -0.0347,0.67848 0.18165,0.90968 0.21636,0.23117 0.29662,0.50613 0.17839,0.61098 -0.11821,0.10482 -0.0782,0.33848 0.089,0.51913 0.16717,0.18066 0.39885,0.8632 0.51483,1.51676 0.11603,0.65357 0.43611,1.40902 0.71144,1.67881 0.2753,0.26978 0.39849,0.58105 0.27371,0.6917 -0.12475,0.11062 -0.0489,0.20119 0.16885,0.20119 0.21765,0 0.39573,0.20304 0.39573,0.45119 0,0.24816 0.16164,0.45121 0.35922,0.45121 0.19757,0 0.27521,0.12056 0.17251,0.26789 -0.1027,0.14734 0.19847,0.49169 0.6692,0.76522 0.47074,0.27352 0.78104,0.60472 0.68954,0.73601 -0.18764,0.26923 2.16447,2.40445 2.68875,2.44081 0.18654,0.0129 0.72078,0.321 1.18719,0.6846 0.4664,0.3636 0.96673,0.62805 1.11183,0.58766 0.14511,-0.0403 0.3519,0.13011 0.45954,0.37886 0.10775,0.24874 0.32006,0.38412 0.47203,0.30082 0.15196,-0.0834 0.4994,0.0463 0.77206,0.28821 0.27269,0.24181 0.59028,0.35584 0.70574,0.25341 0.11552,-0.10243 0.20999,-0.0571 0.20999,0.10072 0,0.15781 0.26712,0.30545 0.59361,0.32808 0.32648,0.0226 1.05151,0.20751 1.61121,0.41085 0.55968,0.20333 1.85712,0.42924 2.8832,0.50202 1.02607,0.0728 1.94191,0.19993 2.03519,0.28257 0.0934,0.0827 21.8489,0.0717 48.34581,-0.0244 43.10088,-0.15628 48.37173,-0.22616 50.03203,-0.66324 z M 130.80871,165.94239 c -1.56646,-0.49507 -4.03203,-2.55234 -4.81704,-4.01932 -0.99721,-1.86361 -0.75849,-5.22843 0.457,-6.44103 0.2902,-0.2895 0.3985,-0.52638 0.24064,-0.52638 -0.15785,0 0.01,-0.19874 0.37143,-0.44164 0.36215,-0.24291 0.51735,-0.44594 0.34492,-0.45121 -0.48903,-0.0149 1.22339,-1.51355 1.72945,-1.51355 0.24731,0 0.44966,-0.13536 0.44966,-0.3008 0,-0.16542 0.3726,-0.3008 0.828,-0.3008 0.45538,0 0.90145,-0.10539 0.99127,-0.23429 0.0899,-0.12887 0.19036,-6.11851 0.22347,-13.31035 0.056,-12.17572 0.26496,-15.28919 0.99897,-14.88691 0.15039,0.0824 0.44269,-0.0311 0.64953,-0.25202 0.52936,-0.56561 2.65796,-0.37405 3.72781,0.33547 l 0.89135,0.59117 v 13.72226 13.72227 l 0.848,0.52006 c 1.33324,0.81762 3.39202,2.80602 3.39202,3.27607 0,0.23466 0.16165,0.42665 0.3592,0.42665 0.19757,0 0.27295,0.1238 0.1675,0.27511 -0.10545,0.15131 -0.0313,0.32255 0.16493,0.38054 0.19615,0.058 0.4096,0.98321 0.47433,2.05608 0.0885,1.46631 -0.0458,2.26198 -0.54103,3.20453 -0.77026,1.46626 -3.22349,3.57169 -4.87452,4.18343 -1.45866,0.54048 -5.3449,0.53205 -7.07689,-0.0154 z m 24.72895,-0.007 c -0.74399,-0.23654 -1.40651,-0.57317 -1.47224,-0.74804 -0.0658,-0.17489 -0.56367,-0.52163 -1.10647,-0.77056 -0.54283,-0.24892 -0.98697,-0.64542 -0.98697,-0.88112 0,-0.23569 -0.20827,-0.53677 -0.46284,-0.66906 -1.39964,-0.72743 -2.22439,-4.49838 -1.34356,-6.14319 0.23239,-0.43399 0.32689,-0.87389 0.20994,-0.9776 -0.11692,-0.10368 -0.01,-0.18854 0.23966,-0.18854 0.24877,0 0.36475,-0.0777 0.2578,-0.17246 -0.29634,-0.26278 3.29743,-3.43712 3.89125,-3.43712 0.39944,0 0.57056,-0.50584 0.73784,-2.18079 0.28037,-2.8071 0.19387,-5.33918 -0.1824,-5.33918 -0.16219,0 -0.29488,-4.6022 -0.29488,-10.22715 0,-6.99753 0.11345,-10.22715 0.35922,-10.22715 0.19757,0 0.27141,-0.126 0.16408,-0.28002 -0.20978,-0.30096 0.36701,-0.71607 1.13874,-0.81952 0.26117,-0.035 0.56645,-0.17711 0.6784,-0.31575 0.23811,-0.29488 2.06916,-0.3974 2.06916,-0.11587 0,0.10517 0.54968,0.45367 1.22151,0.7745 l 1.22152,0.58335 -0.18446,9.78741 c -0.10142,5.38308 -0.27267,10.1258 -0.38049,10.5394 -0.17368,0.66637 -0.15621,0.68349 0.15341,0.15041 0.25117,-0.43249 0.31196,0.46645 0.21626,3.19757 -0.13056,3.72456 0.0415,4.74084 0.73817,4.35906 0.19147,-0.10494 0.39934,-0.0649 0.46192,0.0893 0.0626,0.15406 0.32022,0.32411 0.57256,0.37788 0.60276,0.12844 2.59783,1.83569 2.49672,2.13653 -0.0433,0.12868 0.1509,0.31206 0.4314,0.40751 0.28049,0.0955 0.42553,0.29473 0.32232,0.44283 -0.10323,0.1481 -0.0171,0.26927 0.19156,0.26927 0.20859,0 0.29142,0.12601 0.18409,0.28001 -0.1074,0.15402 -0.0376,0.36641 0.15511,0.47199 0.19265,0.10561 0.26897,0.30863 0.1696,0.45122 -0.0994,0.14256 -0.0256,0.34423 0.16409,0.44814 1.01813,0.55802 -0.32037,4.4421 -2.2029,6.39244 -0.65196,0.67546 -1.86175,1.51843 -2.6884,1.87331 -1.91613,0.82255 -5.3137,1.04191 -7.14072,0.46101 z m 5.82781,-20.52433 c -0.0859,-0.29268 -0.16204,-0.12606 -0.16896,0.37028 -0.006,0.49631 0.0634,0.73576 0.15638,0.53211 0.0928,-0.20365 0.0986,-0.60973 0.0128,-0.90239 z m -5.76976,-3.44612 c -0.10831,-0.23995 -0.18866,-0.16867 -0.20494,0.18175 -0.0147,0.31707 0.0654,0.49473 0.17815,0.39479 0.11271,-0.1 0.12475,-0.35939 0.0267,-0.57654 z m 23.54306,23.7924 c -0.44947,-0.15936 -1.01703,-0.52302 -1.26121,-0.80812 -0.24419,-0.28511 -0.44884,-0.3903 -0.45477,-0.23377 -0.006,0.15654 -0.53909,-0.16947 -1.18479,-0.72445 -0.6457,-0.55498 -1.09462,-1.12298 -0.99759,-1.2622 0.097,-0.13923 0.0323,-0.25314 -0.14378,-0.25314 -0.85901,0 -1.55679,-1.70227 -1.57207,-3.83519 -0.01,-1.19943 0.11563,-2.18078 0.27619,-2.18078 0.16051,0 0.20397,-0.20305 0.0965,-0.4512 -0.10752,-0.24817 -0.0384,-0.45121 0.15333,-0.45121 0.19171,0 0.26412,-0.12118 0.1609,-0.26927 -0.10323,-0.14811 0.0624,-0.35434 0.36773,-0.45827 0.30547,-0.10392 0.4624,-0.27148 0.34877,-0.37225 -0.1137,-0.10072 0.16684,-0.44379 0.62333,-0.76223 0.4565,-0.31844 0.79476,-0.74037 0.75169,-0.93767 -0.0432,-0.19727 0.1168,-0.32359 0.35515,-0.28071 0.23838,0.0427 0.51813,-0.11774 0.62167,-0.35699 0.10344,-0.23926 0.40456,-0.36139 0.66896,-0.27141 0.3876,0.1319 0.4822,-0.2651 0.48826,-2.04938 0.003,-1.21714 0.004,-7.42431 0.001,-13.79373 -0.006,-11.09176 0.0998,-12.42484 0.99669,-12.52074 0.19338,-0.0207 0.51323,-0.0546 0.7108,-0.0752 0.19757,-0.0207 0.28911,-0.13912 0.20345,-0.26321 -0.0856,-0.12406 0.50356,-0.22884 1.30943,-0.23283 0.80587,-0.004 1.37995,0.1151 1.27575,0.26463 -0.10429,0.14953 0.0192,0.21015 0.27443,0.13473 0.25512,-0.0754 0.72279,0.0767 1.03924,0.33822 0.52631,0.43482 0.5703,1.63182 0.51611,14.04653 -0.0381,8.73241 0.0617,13.66881 0.27998,13.84497 0.18657,0.15057 0.68024,0.29479 1.09706,0.32046 0.76932,0.0474 4.16054,2.80178 4.16054,3.37923 0,0.17332 0.14183,0.31512 0.31514,0.31512 0.17334,0 0.48161,0.71101 0.68505,1.58 0.49855,2.12974 -0.18764,4.17521 -2.01999,6.02121 -1.9538,1.96834 -4.307,2.93167 -7.10281,2.90769 -1.22265,-0.0103 -2.59074,-0.14946 -3.04023,-0.30883 z m 36.26364,-12.34586 c -2.51827,-0.36541 -4.11722,-0.85246 -3.8863,-1.18378 0.10471,-0.1502 -0.0365,-0.19597 -0.31341,-0.10163 -0.63034,0.21449 -3.05483,-1.02904 -5.06408,-2.59744 -3.20216,-2.49953 -5.47286,-6.79747 -5.47604,-10.36483 -0.002,-2.18688 0.86216,-5.24718 1.68848,-5.97997 0.25774,-0.22856 0.37416,-0.49938 0.25867,-0.60178 -0.11552,-0.10243 -0.023,-0.18622 0.20577,-0.18622 0.22866,0 0.32903,-0.12444 0.22301,-0.27655 -0.10609,-0.15209 0.0378,-0.48082 0.31918,-0.73051 0.28155,-0.24967 0.51192,-0.59898 0.51192,-0.77625 0,-0.17725 0.15263,-0.32228 0.33919,-0.32228 0.18656,0 0.33921,-0.18856 0.33921,-0.41901 0,-0.23047 0.23036,-0.49741 0.51195,-0.59323 0.28157,-0.0958 0.48063,-0.27949 0.44235,-0.40817 -0.0382,-0.12868 0.52426,-0.77541 1.25006,-1.43717 0.72579,-0.66177 1.20198,-1.00016 1.05821,-0.75201 -0.1438,0.24817 0.0366,0.15241 0.40068,-0.2128 0.36416,-0.36521 0.75741,-0.57951 0.87384,-0.47627 0.11642,0.10324 0.21171,0.0218 0.21171,-0.18092 0,-0.2028 0.15265,-0.28504 0.3392,-0.1828 0.18657,0.10221 0.3392,0.0346 0.3392,-0.15039 0,-0.18497 0.1396,-0.25979 0.31022,-0.16628 0.17064,0.0935 0.36144,0.044 0.42401,-0.11006 0.0626,-0.15405 0.3391,-0.32409 0.6145,-0.37787 0.2754,-0.0538 0.70746,-0.2682 0.96014,-0.47652 0.25269,-0.20833 0.59975,-0.30186 0.77129,-0.20784 0.17151,0.0939 0.31184,0.0502 0.31184,-0.0975 0,-0.36099 0.28828,-0.39336 4.40961,-0.49498 1.95888,-0.0483 3.74571,0.0396 3.97075,0.19551 0.22502,0.15585 0.56847,0.19604 0.76318,0.0894 0.19475,-0.10676 0.35408,-0.0363 0.35408,0.15668 0,0.19289 0.22894,0.27281 0.50879,0.17758 0.27984,-0.0953 0.50881,-0.0463 0.50881,0.10881 0,0.15505 0.25398,0.19548 0.56443,0.0899 0.40547,-0.13799 0.4877,-0.082 0.29198,0.19886 -0.1826,0.26203 -0.11806,0.34531 0.19573,0.25254 0.25751,-0.076 0.67267,0.043 0.92258,0.26454 0.24989,0.22161 0.59469,0.32603 0.76621,0.23203 0.17152,-0.0939 0.31187,-0.0195 0.31187,0.16538 0,0.18497 0.1369,0.26127 0.30422,0.16955 0.41091,-0.22519 4.50129,3.16859 5.99763,4.97622 0.66245,0.80028 1.47464,2.13541 1.80486,2.96697 0.33024,0.83156 0.72091,1.4106 0.8682,1.28677 0.14726,-0.12384 0.1622,0.0793 0.0332,0.45163 -0.12902,0.37226 -0.098,0.67681 0.0687,0.67681 0.16684,0 0.23591,0.40733 0.15351,0.90516 -0.0824,0.49783 0.0334,1.10101 0.25755,1.34042 0.22405,0.23939 0.31283,0.57086 0.19732,0.73663 -0.11551,0.16575 -0.2824,1.01767 -0.37086,1.89317 -0.49618,4.91153 -4.57448,9.95834 -9.82311,12.15579 -1.48259,0.62072 -2.1655,0.70602 -5.4272,0.67785 -2.05217,-0.0177 -4.57073,-0.15404 -5.59681,-0.30293 z m 5.76641,-6.30471 c 0,-0.13957 0.22895,-0.17585 0.5088,-0.0806 0.28007,0.0953 0.50879,0.009 0.50879,-0.19202 0,-0.20085 0.20714,-0.2947 0.46032,-0.20854 0.58463,0.19896 2.34565,-0.80467 2.00163,-1.14075 -0.14143,-0.13814 -0.0847,-0.1639 0.12589,-0.0573 0.61622,0.31198 3.77218,-2.77958 3.28159,-3.21462 -0.11883,-0.10539 -0.0291,-0.19165 0.19965,-0.19165 0.22867,0 0.32142,-0.13536 0.20611,-0.30079 -0.11524,-0.16544 -0.0316,-0.3008 0.18586,-0.3008 0.21754,0 0.30766,-0.20305 0.2003,-0.4512 -0.10752,-0.24817 -0.0311,-0.45119 0.16959,-0.45119 0.20066,0 0.27697,-0.20305 0.16961,-0.45121 -0.10752,-0.24816 -0.0493,-0.45121 0.12902,-0.45121 0.26286,0 0.24883,-2.73549 -0.017,-3.30877 -0.0383,-0.0829 -0.0516,-0.25192 -0.0297,-0.376 0.0221,-0.12408 -0.12153,-0.22561 -0.31906,-0.22561 -0.19757,0 -0.27281,-0.12398 -0.16718,-0.27552 0.10556,-0.15153 -0.30278,-0.7143 -0.90754,-1.2506 -0.60474,-0.53628 -1.52166,-1.4461 -2.03761,-2.02181 -0.51592,-0.57572 -0.93804,-0.9618 -0.93804,-0.85795 0,0.1039 -0.31023,-0.0467 -0.68942,-0.33463 -0.37916,-0.2879 -0.79892,-0.5357 -0.93278,-0.55065 -2.28555,-0.25533 -3.85655,-0.55541 -4.00223,-0.76445 -0.22401,-0.32142 -2.51637,-0.35015 -2.51637,-0.0316 0,0.20988 -2.98525,0.99709 -3.98562,1.05099 -0.23319,0.0127 -0.424,0.20333 -0.424,0.42392 0,0.22058 -0.23985,0.40107 -0.53302,0.40107 -0.60921,0 -1.50218,0.70246 -1.50218,1.1817 0,0.17727 -0.29016,0.32228 -0.64481,0.32228 -0.44304,0 -0.83929,0.41702 -1.26644,1.33284 -0.38866,0.83334 -0.71712,1.19971 -0.8764,0.9776 -0.14461,-0.20166 -0.25701,0.0568 -0.25996,0.59775 -0.002,0.52415 -0.0959,1.20094 -0.20679,1.504 -0.15375,0.42024 -0.1223,0.45242 0.13228,0.13559 0.31591,-0.39303 0.59657,0.44706 0.9427,2.8218 0.0483,0.33088 0.11204,0.60159 0.14191,0.60159 0.0299,0 0.11045,0.26826 0.1794,0.59615 0.0688,0.32787 0.28708,0.64398 0.48495,0.70248 0.19788,0.0585 0.27285,0.23111 0.16657,0.38358 -0.10638,0.15248 0.0445,0.35813 0.33515,0.45702 0.29057,0.0988 0.4534,0.28734 0.36179,0.41877 -0.23267,0.33386 2.17445,2.15701 2.56516,1.94284 0.17539,-0.096 0.3189,-0.009 0.3189,0.19393 0,0.20277 0.089,0.28972 0.19788,0.19322 0.10887,-0.0965 0.49822,0.0908 0.86534,0.41644 0.42614,0.37791 0.90649,0.52466 1.32852,0.40586 0.36358,-0.10232 0.66106,-0.0515 0.66106,0.113 0,0.16446 0.26713,0.35231 0.5936,0.41743 1.14021,0.22746 4.83359,0.14918 4.83359,-0.10242 z m -91.75364,-36.36346 c -1.75221,-1.37257 -2.80293,-2.38232 -2.63446,-2.53173 0.11192,-0.0992 0.0578,-0.18048 -0.12026,-0.18048 -0.51635,0 -0.35067,-6.65219 0.18406,-7.38917 0.38696,-0.53333 0.82999,-0.62833 3.13243,-0.671757 2.5849,-0.04881 2.69358,-0.02281 3.01038,0.715977 0.18075,0.42159 0.32864,1.56989 0.32864,2.55175 v 1.7852 h 1.88102 c 1.55583,0 2.02812,0.13046 2.73187,0.75452 0.46795,0.41499 0.75727,0.88874 0.64296,1.0528 -0.11438,0.16405 -0.0843,0.29828 0.0665,0.29828 0.15094,0 0.27441,0.54144 0.27441,1.2032 0,0.66174 -0.11448,1.20318 -0.25438,1.20318 -0.13993,0 -0.21625,0.15815 -0.1696,0.3514 0.18184,0.75357 -1.5995,1.14376 -5.17281,1.13312 -1.95888,-0.006 -3.71425,-0.13017 -3.9008,-0.27629 z m 51.38881,1.3e-4 c 0,-0.18781 -0.13534,-0.26728 -0.30076,-0.17662 -0.16542,0.0906 -0.48939,-0.0367 -0.71991,-0.28304 -0.23056,-0.24634 -0.28603,-0.44997 -0.12322,-0.45249 0.16278,-0.002 0.0953,-0.11749 -0.15012,-0.25545 -0.25491,-0.14335 -0.47697,-0.90828 -0.51822,-1.78513 -0.088,-1.87053 0.28152,-2.11154 3.69588,-2.41073 l 2.35641,-0.20646 0.10025,-2.0304 c 0.0553,-1.11671 0.22942,-2.0304 0.38723,-2.0304 0.15781,0 0.37402,-0.30456 0.48049,-0.67679 0.17516,-0.612575 0.40178,-0.678053 2.38801,-0.690061 1.20697,-0.007 2.11957,0.09424 2.02801,0.225589 -0.0914,0.131372 0.0715,0.255782 0.36234,0.276462 1.24647,0.0887 1.37709,0.12772 1.38203,0.41361 0.002,0.16544 0.12448,0.46738 0.27037,0.671 0.14586,0.20361 0.16283,1.76025 0.0378,3.45919 -0.3218,4.37043 -1.28048,5.58292 -4.61316,5.83442 -5.49621,0.41481 -7.06334,0.44083 -7.06334,0.1173 z m -37.23607,-3.60915 c -0.98222,-0.20649 -1.81366,-0.82916 -3.41972,-2.56098 -0.25332,-0.27316 -0.52899,-1.06202 -0.61259,-1.75301 -0.34134,-2.820972 -0.37515,-36.15681 -0.037,-36.525022 0.18989,-0.206797 0.23213,-0.375999 0.0939,-0.375999 -0.31204,0 1.37725,-2.020811 2.44295,-2.922321 0.43323,-0.366494 1.37544,-0.806692 2.0938,-0.978225 1.2992,-0.31023 3.44216,-0.128853 3.77962,0.319907 0.0972,0.12933 0.61206,0.305126 1.14401,0.390664 0.53195,0.08561 1.22797,0.364824 1.5467,0.620621 0.31873,0.255786 0.68161,0.374544 0.80639,0.263892 0.12474,-0.110618 0.22688,-0.04332 0.22688,0.149738 0,0.193019 0.11449,0.324113 0.25441,0.291336 0.47716,-0.111755 1.78079,0.400077 1.78079,0.699214 0,0.164062 0.15264,0.21463 0.3392,0.112324 0.18655,-0.102206 0.33921,-0.03456 0.33921,0.150397 0,0.18497 0.15263,0.252648 0.33919,0.150397 0.18655,-0.102205 0.3392,-0.04252 0.3392,0.132651 0,0.175204 0.11449,0.291735 0.25439,0.258959 0.46292,-0.10846 1.7808,0.39586 1.7808,0.681454 0,0.154297 0.11807,0.246691 0.26227,0.205331 0.472,-0.135323 16.40981,8.623109 16.6412,9.144958 0.0623,0.140257 0.32932,0.255002 0.5936,0.255002 0.26431,0 0.48055,0.12069 0.48055,0.268189 0,0.147509 0.38159,0.353125 0.848,0.456934 0.4664,0.103797 0.84799,0.3295 0.84799,0.501557 0,0.172053 0.15264,0.229159 0.3392,0.126921 0.18657,-0.102206 0.3392,-0.05309 0.3392,0.109253 0,0.162379 0.53425,0.451579 1.1872,0.642688 0.65297,0.191097 1.18719,0.472315 1.18719,0.624917 0,0.152616 0.1145,0.243861 0.25442,0.202774 0.64216,-0.18854 2.89739,1.395426 3.81634,2.680414 1.57845,2.207179 1.39586,4.633547 -0.47431,6.302891 -0.86707,0.773953 -4.51804,2.863283 -5.14631,2.945046 -0.24904,0.0324 -0.72722,0.27251 -1.06265,0.533538 -0.77969,0.606762 -2.90329,1.59308 -3.24812,1.5086 -0.1451,-0.03558 -0.35188,0.138881 -0.45953,0.387629 -0.10775,0.248737 -0.33343,0.376773 -0.50175,0.284527 -0.16836,-0.09221 -0.39731,0.0431 -0.50882,0.300795 -0.11147,0.257696 -0.34046,0.393052 -0.50878,0.300795 -0.16836,-0.0922 -0.39764,0.04389 -0.50955,0.302535 -0.11193,0.258638 -0.3462,0.470256 -0.52061,0.470256 -0.1744,0 -0.65111,0.275955 -1.05935,0.613243 -0.40826,0.337278 -1.08876,0.690346 -1.51223,0.784604 -0.42348,0.09424 -0.76994,0.300046 -0.76994,0.45731 0,0.157263 -0.15264,0.202283 -0.3392,0.100038 -0.18656,-0.102205 -0.33919,-0.04252 -0.33919,0.132652 0,0.175204 -0.22898,0.318553 -0.50882,0.318553 -0.27983,0 -0.50878,0.143348 -0.50878,0.318551 0,0.175205 -0.14327,0.24003 -0.31836,0.144066 -0.1751,-0.09595 -0.47575,0.06526 -0.66809,0.358252 -0.19235,0.292996 -0.35436,0.425931 -0.36004,0.295407 -0.004,-0.130526 -0.33871,0.034 -0.74009,0.365602 -0.40138,0.331605 -0.84329,0.54068 -0.98206,0.464634 -0.13876,-0.07604 -0.34353,0.07258 -0.45503,0.330272 -0.11147,0.257684 -0.35646,0.384286 -0.54434,0.28132 -0.18788,-0.103004 -0.3416,-0.04387 -0.3416,0.131323 0,0.175216 -0.22896,0.318556 -0.50881,0.318556 -0.27983,0 -0.50878,0.14334 -0.50878,0.31856 0,0.1752 -0.12955,0.24757 -0.28784,0.16079 -0.1583,-0.0867 -0.59997,0.10022 -0.98149,0.41535 -0.38151,0.31518 -0.75464,0.519 -0.82917,0.45291 -0.0746,-0.0661 -0.56861,0.20985 -1.09794,0.61322 -0.52935,0.40335 -1.0792,0.6694 -1.22188,0.59121 -0.14266,-0.0782 -0.35065,0.0687 -0.46216,0.32635 -0.11147,0.25769 -0.35647,0.38427 -0.54434,0.28131 -0.18789,-0.103 -0.34159,-0.0359 -0.34159,0.1491 0,0.18496 -0.15371,0.25204 -0.3416,0.14907 -0.18787,-0.10299 -0.43283,0.0236 -0.54434,0.28133 -0.11147,0.25769 -0.3394,0.39364 -0.50641,0.3021 -0.167,-0.0915 -0.30366,-0.0151 -0.30366,0.1699 0,0.18496 -0.15263,0.25265 -0.3392,0.15039 -0.18655,-0.10221 -0.33919,-0.0461 -0.33919,0.12492 0,0.39033 -1.87412,1.27126 -2.1618,1.01614 -0.11691,-0.10368 -0.21262,-0.0454 -0.21262,0.12975 0,0.49663 -2.64178,1.31342 -3.57573,1.10555 -0.51001,-0.11357 -0.83385,-0.0562 -0.83385,0.14781 0,0.37214 -0.33939,0.37877 -1.95928,0.0382 z m 6.3203,-7.58186 c 0.39747,-0.246877 0.60914,-0.54951 0.47043,-0.67254 -0.13876,-0.123028 -0.0889,-0.178575 0.11089,-0.123426 0.51445,0.142071 6.27205,-3.536139 5.98191,-3.821507 -0.13166,-0.129501 -0.0798,-0.155138 0.11551,-0.05696 0.47829,0.240564 3.62316,-1.411104 3.29564,-1.730873 -0.14218,-0.138835 -0.0782,-0.1608 0.14214,-0.04878 0.48681,0.247339 2.89127,-1.138889 2.5528,-1.471733 -0.13192,-0.129716 -0.054,-0.141165 0.17329,-0.02547 0.23775,0.121089 0.87119,-0.177717 1.4919,-0.703773 0.59333,-0.502807 1.28988,-0.914197 1.5479,-0.914197 0.25803,0 0.55666,-0.202261 0.66365,-0.449475 0.10694,-0.247202 0.32557,-0.377626 0.48577,-0.289823 0.16021,0.08777 0.58942,-0.104708 0.95379,-0.427865 0.36437,-0.323123 0.74796,-0.51172 0.8524,-0.419108 0.10449,0.09264 0.28578,-0.0532 0.40301,-0.324136 0.11719,-0.270896 0.34977,-0.417643 0.51678,-0.326102 0.16701,0.09152 0.30365,5.12e-4 0.30365,-0.202262 0,-0.202773 0.0953,-0.284241 0.2116,-0.181035 0.1164,0.103229 0.76511,-0.07025 1.44161,-0.385346 2.06305,-0.961059 4.13009,-2.29399 3.88896,-2.507814 -0.12538,-0.111185 -0.0375,-0.202216 0.19537,-0.202216 0.23289,0 -0.21204,-0.541437 -0.98874,-1.203191 -0.77668,-0.661752 -1.56133,-1.20319 -1.74369,-1.20319 -0.18234,0 -0.25679,-0.107208 -0.16541,-0.238359 0.0913,-0.131092 -0.10556,-0.256512 -0.4377,-0.278693 -0.33209,-0.02217 -1.33601,-0.452113 -2.23093,-0.955397 -0.8949,-0.503285 -1.75741,-0.843642 -1.91669,-0.756353 -0.15927,0.08731 -0.28957,0.02398 -0.28957,-0.140587 0,-0.291949 -2.66506,-1.765546 -2.92295,-1.616195 -0.0714,0.04138 -0.44071,-0.200454 -0.82063,-0.537368 -0.37992,-0.336913 -0.82184,-0.540733 -0.98206,-0.452931 -0.1602,0.08777 -0.38488,-0.05662 -0.49929,-0.321032 -0.11858,-0.274054 -0.42547,-0.406672 -0.71394,-0.308514 -0.27826,0.09471 -0.50593,0.05696 -0.50593,-0.08391 0,-0.342201 -4.3338,-2.833348 -4.92911,-2.833348 -0.25754,0 -0.39972,-0.09834 -0.31596,-0.21853 0.0837,-0.120192 -0.56576,-0.517847 -1.44341,-0.883684 -0.87763,-0.365835 -2.41163,-1.128008 -3.40889,-1.693718 -0.99724,-0.56571 -1.95715,-0.949668 -2.13311,-0.853227 -0.17596,0.09641 -0.31994,0.03205 -0.31994,-0.143201 0,-0.509332 -1.20331,-0.367858 -1.76781,0.207845 -0.28861,0.294337 -0.54396,1.189423 -0.57922,2.030394 -0.0347,0.82719 -0.18794,4.008139 -0.34055,7.06877 -0.31224,6.261474 -0.16159,13.533974 0.32712,15.791925 0.17903,0.827191 0.34677,2.180791 0.37277,3.007983 0.026,0.827203 0.17684,1.729128 0.33524,2.004279 0.34055,0.591543 1.57966,0.541723 2.6215,-0.105387 z m 68.3669,-2.632974 c -0.1698,-0.142384 -1.04575,-0.320725 -1.94656,-0.396316 -1.43526,-0.12043 -1.82222,-0.315483 -3.12788,-1.57661 -0.8195,-0.791538 -1.41709,-1.543753 -1.32802,-1.671573 0.0891,-0.12783 -0.0298,-0.289073 -0.26413,-0.358332 -0.58923,-0.174112 -0.45456,-5.339841 0.13921,-5.339841 0.15548,0 0.28268,-0.318328 0.28268,-0.707388 0,-0.693836 1.95701,-2.824445 2.45851,-2.676596 0.1403,0.0414 0.2551,-0.05105 0.2551,-0.205331 0,-0.237288 0.79437,-0.591948 1.78079,-0.795074 0.13991,-0.02889 0.29255,-0.08425 0.3392,-0.123282 0.22728,-0.19002 3.9856,-0.234686 3.9856,-0.04741 0,0.118712 0.32461,0.237527 0.72135,0.264028 0.39677,0.02648 1.00543,0.29219 1.35261,0.590415 0.34719,0.298214 0.9526,0.812935 1.34535,1.143812 1.47344,1.241309 2.15675,2.880618 2.16741,5.199755 0.006,1.511717 -0.13047,2.268787 -0.44289,2.440012 -0.24915,0.13655 -0.42138,0.346815 -0.38275,0.467268 0.29109,0.907989 -3.53715,3.461277 -5.4923,3.663153 -0.56,0.05786 -1.13438,0.168804 -1.27639,0.246634 -0.142,0.07787 -0.3971,0.02502 -0.56689,-0.11736 z m 0.0588,-22.919017 c 0.16503,-0.23679 -0.0928,-0.298171 -0.8429,-0.200556 -0.5944,0.0773 -1.16088,0.02569 -1.25882,-0.114895 -0.0979,-0.14055 -0.32021,-0.177682 -0.49389,-0.08254 -0.17364,0.09516 -0.31575,0.0068 -0.31575,-0.195634 0,-0.202773 -0.0815,-0.296485 -0.18091,-0.208252 -0.2187,0.193951 -2.53268,-1.812262 -2.53268,-2.195832 0,-0.148897 -0.16165,-0.270713 -0.35922,-0.270713 -0.19758,0 -0.2649,-0.135368 -0.14959,-0.300807 0.11525,-0.165438 0.0389,-0.300795 -0.16961,-0.300795 -0.20858,0 -0.2914,-0.126011 -0.18408,-0.280014 0.10729,-0.154011 0.04,-0.365039 -0.14958,-0.468948 -0.45941,-0.251797 -0.44408,-3.673057 0.0176,-3.92609 0.1993,-0.109255 0.2804,-0.387926 0.18026,-0.619348 -0.10004,-0.231424 -0.0521,-0.420771 0.10695,-0.420771 0.15896,0 0.40075,-0.304568 0.53733,-0.676805 0.1366,-0.372237 0.27397,-0.744473 0.3053,-0.827192 0.10999,-0.290734 2.67912,-2.433019 3.2192,-2.684417 0.91292,-0.424976 4.01537,-0.699701 4.24126,-0.375577 0.11357,0.162981 0.51165,0.225567 0.88458,0.139084 0.394,-0.09141 0.67807,-0.0091 0.67807,0.196384 0,0.194509 0.13665,0.278752 0.30364,0.18721 0.16703,-0.09152 0.39174,0.03706 0.49938,0.285845 0.10773,0.248737 0.38055,0.417165 0.6065,0.374271 0.22594,-0.04286 0.62011,0.294246 0.87595,0.749203 0.25582,0.454955 0.59917,0.827202 0.76298,0.827202 0.29693,0 0.69701,0.812776 0.64972,1.319959 -0.0137,0.146942 0.17102,0.374556 0.41049,0.505809 0.50415,0.276295 0.85479,3.900306 0.45574,4.710206 -0.14438,0.29303 -0.23827,0.634308 -0.20866,0.758388 0.0297,0.124078 -0.0987,0.225601 -0.28533,0.225601 -0.18658,0 -0.33921,0.1858 -0.33921,0.412891 0,0.514937 -2.786,2.82083 -3.83578,3.174763 -0.42778,0.144224 -1.21249,0.18854 -1.74381,0.09845 -0.67421,-0.11429 -0.89354,-0.05969 -0.72602,0.180649 0.15144,0.21728 -0.0251,0.344417 -0.47839,0.344417 -0.44931,0 -0.62938,-0.127819 -0.48065,-0.341212 z m -91.697,-7.715768 c -0.70234,-0.632594 -0.76319,-0.963424 -0.76319,-4.148679 0,-3.594635 -0.001,-3.59036 1.73947,-5.260706 0.49032,-0.470451 0.83494,-0.905522 0.7658,-0.966834 -0.0691,-0.06127 0.33107,-0.05195 0.88932,0.02069 0.61569,0.08015 1.015,-0.0011 1.015,-0.2074 0,-0.236413 1.13319,-0.31529 3.73143,-0.259742 3.21837,0.06878 3.75807,0.152751 3.92523,0.610536 0.10649,0.291916 0.33368,0.454093 0.50469,0.36038 0.171,-0.09368 0.22,0.03968 0.10887,0.296428 -0.11113,0.256753 -0.0603,0.466826 0.11271,0.466826 0.59137,0 -0.0819,2.987951 -0.77531,3.441029 -0.35969,0.235016 -0.699,0.31703 -0.75401,0.182241 -0.0551,-0.134776 -0.66556,-0.115891 -1.35679,0.04195 -0.69124,0.157856 -1.61586,0.363699 -2.05474,0.457434 -0.76322,0.163016 -0.79244,0.266803 -0.67181,2.385462 0.0694,1.218267 0.019,2.215035 -0.11203,2.215035 -0.13097,0 -0.32292,0.23688 -0.42654,0.526397 -0.15664,0.437674 -0.60361,0.526396 -2.65166,0.526396 -2.11697,0 -2.57056,-0.09664 -3.22646,-0.6874 z m 59.47096,-0.01978 c -0.29661,-0.508663 -0.47268,-1.529692 -0.43271,-2.509498 0.0952,-2.333575 -0.3398,-2.705448 -3.03891,-2.597956 -2.67952,0.106753 -3.22087,-0.287596 -3.33706,-2.43062 -0.0456,-0.84188 0.0626,-1.530692 0.24044,-1.530692 0.17789,0 0.25915,-0.169201 0.18061,-0.375998 -0.33194,-0.873758 0.92365,-1.108842 5.97348,-1.118437 l 5.03918,-0.0091 0.72723,0.821371 c 0.39997,0.451749 0.68905,0.925509 0.64241,1.052793 -0.0467,0.127285 0.0678,0.231422 0.25441,0.231422 0.2088,0 0.3392,1.508806 0.3392,3.924818 0,3.904569 -0.004,3.928558 -0.93281,4.652873 -0.76935,0.600487 -1.30275,0.729727 -3.04409,0.737561 -1.98298,0.0091 -2.14169,-0.04263 -2.61138,-0.848077 z m 54.07619,-13.393767 c 0,-0.06241 -0.26713,-0.29934 -0.59363,-0.526397 -0.53798,-0.374146 -0.54998,-0.363517 -0.12807,0.113574 0.44312,0.501056 0.72168,0.660401 0.72168,0.412823 z"
       id="path4" /></g></svg>
