<?xml version="1.0" encoding="UTF-8" standalone="no"?>
<!-- Created with Inkscape (http://www.inkscape.org/) -->

<svg
   version="1.1"
   id="svg1"
   width="160"
   height="160"
   viewBox="0 0 160 160"
   sodipodi:docname="sunflower.svg"
   inkscape:version="1.3.1 (9b9bdc1480, 2023-11-25, custom)"
   xmlns:inkscape="http://www.inkscape.org/namespaces/inkscape"
   xmlns:sodipodi="http://sodipodi.sourceforge.net/DTD/sodipodi-0.dtd"
   xmlns="http://www.w3.org/2000/svg"
   xmlns:svg="http://www.w3.org/2000/svg">
  <defs
     id="defs1" />
  <sodipodi:namedview
     id="namedview1"
     pagecolor="#ffffff"
     bordercolor="#000000"
     borderopacity="0.25"
     inkscape:showpageshadow="2"
     inkscape:pageopacity="0.0"
     inkscape:pagecheckerboard="0"
     inkscape:deskcolor="#d1d1d1"
     showgrid="false"
     inkscape:zoom="1.8031223"
     inkscape:cx="79.861472"
     inkscape:cy="79.861472"
     inkscape:window-width="1850"
     inkscape:window-height="1016"
     inkscape:window-x="0"
     inkscape:window-y="0"
     inkscape:window-maximized="1"
     inkscape:current-layer="g1" />
  <g
     inkscape:groupmode="layer"
     inkscape:label="Image"
     id="g1">
    <circle
       style="fill:#d8617d;fill-opacity:1;stroke:#d8617d;stroke-width:10.3168;stroke-linecap:round;stroke-opacity:1"
       id="path2"
       cx="80.147675"
       cy="80.016815"
       r="74.280952" />
    <path
       style="fill:#f8d8db;fill-opacity:1"
       d="m 78.406415,155.6 c -0.30162,-0.63756 -0.458667,-3.56889 -0.570041,-10.64 -0.09683,-6.14753 -0.275111,-9.83688 -0.48168,-9.9677 -0.180374,-0.11424 -0.246223,-0.42069 -0.14633,-0.68101 0.09989,-0.26032 0.06133,-0.59885 -0.0857,-0.7523 -0.147029,-0.15344 -0.315776,-0.63899 -0.374993,-1.07899 -0.05922,-0.44 -0.184384,-0.872 -0.27815,-0.96 -0.09377,-0.088 -0.569631,-1.19161 -1.057477,-2.45247 -0.487847,-1.26086 -1.092702,-2.37141 -1.344122,-2.46789 -0.251421,-0.0965 -0.376388,-0.38582 -0.277704,-0.64299 0.105532,-0.27501 -0.09437,-0.61409 -0.485395,-0.82337 -0.36565,-0.19569 -0.664819,-0.55132 -0.664819,-0.7903 0,-0.23898 -0.216,-0.51739 -0.48,-0.6187 -0.264,-0.10131 -0.481817,-0.36871 -0.484038,-0.59424 -0.0022,-0.22552 -0.758645,-1.07168 -1.680941,-1.88036 l -1.676904,-1.47031 -1.439058,0.64615 c -2.295327,1.03063 -4.744247,1.44962 -7.839059,1.34121 -1.584,-0.0555 -3.24,-0.17181 -3.68,-0.2585 -0.947386,-0.18665 -4.889767,-1.59271 -5.12,-1.82606 -0.088,-0.0892 -0.808,-0.48542 -1.6,-0.88051 -1.616987,-0.80663 -2.340597,-1.26193 -3.324267,-2.09162 -0.371653,-0.31348 -1.277599,-1.07708 -2.013213,-1.69689 -0.735614,-0.61981 -1.794267,-1.83877 -2.352563,-2.7088 -0.571288,-0.89028 -1.164526,-1.48951 -1.3569,-1.37062 -0.21637,0.13373 -0.265119,0.0114 -0.132832,-0.33335 0.129253,-0.33683 0.02861,-0.61382 -0.263782,-0.72602 -0.260022,-0.0998 -0.40318,-0.29402 -0.318128,-0.43163 0.08505,-0.13762 -0.05978,-0.42816 -0.321838,-0.64565 -0.262063,-0.2175 -0.476477,-0.57439 -0.476477,-0.79311 0,-0.21871 -0.298452,-0.77708 -0.663226,-1.24082 C 37.052,106.29942 36.858318,105.92 36.98637,105.92 c 0.128052,0 -0.02781,-0.288 -0.34637,-0.64 -0.318556,-0.352 -0.49263,-0.64 -0.386832,-0.64 0.105799,0 -0.09494,-0.828 -0.446091,-1.84 -0.806602,-2.3246 -1.448354,-5.623195 -1.736363,-8.924873 l -0.224285,-2.571163 1.049803,-0.821594 c 0.577391,-0.451877 1.241945,-0.747863 1.476785,-0.657746 0.234841,0.09012 0.426983,0.0044 0.426983,-0.190388 0,-0.19483 0.288,-0.354236 0.64,-0.354236 0.352,0 0.64,0.145702 0.64,0.323782 0,0.198452 0.494792,0.244661 1.278266,0.119378 0.72192,-0.115439 1.453115,-0.06197 1.68,0.12284 0.220954,0.179983 1.22993,0.4069 2.24217,0.50426 2.939564,0.282735 8.962093,1.497982 9.891004,1.995843 0.468292,0.250986 1.224292,0.487197 1.68,0.524912 0.455708,0.03772 0.82856,0.196573 0.82856,0.353016 0,0.156443 0.204083,0.206128 0.453517,0.110411 0.249435,-0.09572 0.532915,0.03288 0.629957,0.285764 0.09704,0.252886 0.374926,0.459794 0.61752,0.459794 0.242594,0 0.773147,0.288 1.179006,0.64 0.405859,0.352 0.916486,0.64 1.134727,0.64 0.21824,0 0.48319,0.225127 0.588776,0.500282 0.105587,0.275156 0.331742,0.413903 0.502565,0.308328 0.170824,-0.105574 0.578042,0.0653 0.904931,0.379718 0.326888,0.31442 1.155399,1.003672 1.841135,1.531672 0.685736,0.528 1.503534,1.212 1.817329,1.52 0.313795,0.308 0.714537,0.56 0.890537,0.56 0.176,0 0.32,0.22052 0.32,0.49004 0,0.26953 0.196514,0.56546 0.436698,0.65762 0.641912,0.24633 3.723302,4.1862 3.723302,4.76063 0,0.27044 0.115164,0.49171 0.25592,0.49171 0.600488,0 1.440314,4.749 1.260433,7.12743 l -0.179458,2.37286 2.371552,2.49788 C 75.732801,119.932 76.8,121.32244 76.8,121.64803 c 0,0.32558 0.133441,0.59197 0.296536,0.59197 0.163095,0 0.362391,0.252 0.44288,0.56 0.14611,0.55911 0.262022,-3.42026 0.368243,-12.64213 0.05285,-4.58868 0.09879,-4.92177 0.764182,-5.54168 1.075548,-1.00203 2.560233,-0.91052 3.465151,0.21358 0.74466,0.92502 0.748081,0.96968 0.610365,7.97023 -0.07617,3.872 -0.23002,7.832 -0.341889,8.8 -0.193309,1.6727 -0.176974,1.72826 0.329327,1.12 0.292999,-0.352 0.702566,-1.02753 0.910149,-1.50118 0.409426,-0.9342 1.916309,-2.64412 3.900205,-4.42571 L 88.8,115.66622 l 0.0076,-3.19311 c 0.0056,-2.37551 0.14576,-3.44901 0.547238,-4.19254 0.296811,-0.54969 0.45288,-1.08621 0.346819,-1.19227 -0.10606,-0.10606 -0.01592,-0.40601 0.200312,-0.66655 0.216231,-0.26054 0.300253,-0.62402 0.186714,-0.80773 -0.113538,-0.18371 -0.05574,-0.33402 0.128437,-0.33402 0.184179,0 0.718204,-0.612 1.186723,-1.36 0.468518,-0.748 1.001701,-1.45742 1.184852,-1.57649 0.183151,-0.11906 0.558977,-0.69506 0.835169,-1.28 0.276192,-0.58493 0.580224,-0.99151 0.675626,-0.90351 0.0954,0.088 0.669052,-0.38 1.274778,-1.04 0.605726,-0.66 1.26129,-1.2 1.456809,-1.2 0.195519,0 0.727628,-0.344888 1.182466,-0.766417 0.454837,-0.421529 0.904264,-0.689129 0.998726,-0.594668 0.09446,0.09446 0.427349,-0.1182 0.73975,-0.472583 0.312401,-0.354383 1.636541,-1.028826 2.942541,-1.498764 1.306,-0.469937 2.53248,-1.070419 2.72551,-1.334404 0.19303,-0.263984 0.85249,-0.52316 1.46546,-0.575945 0.61297,-0.05279 1.51986,-0.262753 2.01532,-0.466596 0.49546,-0.203843 1.07721,-0.370623 1.29277,-0.370623 0.21557,0 1.25019,-0.228211 2.29917,-0.507136 2.22269,-0.591018 2.791,-0.688103 5.58677,-0.954402 1.14374,-0.108942 2.18774,-0.364664 2.32,-0.56827 0.17821,-0.274352 0.30947,-0.263424 0.50701,0.04221 0.1997,0.30897 0.48295,0.330128 1.12937,0.08436 0.47454,-0.180423 1.2546,-0.30305 1.73345,-0.272503 1.06313,0.06782 2.63063,1.091231 2.63063,1.717532 0,0.252016 0.144,0.45821 0.32,0.45821 0.176,0 0.32,0.36 0.32,0.8 0,0.44 -0.15544,0.8 -0.34543,0.8 -0.21732,0 -0.26723,0.356004 -0.13457,0.96 0.11597,0.528 0.0914,0.96 -0.0546,0.96 -0.14599,0 -0.27966,0.324 -0.29706,0.72 -0.0895,2.037605 -1.30432,7.23354 -1.90582,8.15155 -0.26252,0.40065 -0.38542,0.72845 -0.27312,0.72845 0.1123,0 -0.0317,0.36 -0.32,0.8 -0.2883,0.44 -0.41286,0.80221 -0.27681,0.8049 0.13606,0.003 0.10338,0.1107 -0.0726,0.24 -0.176,0.12931 -0.67635,0.9551 -1.11189,1.8351 -0.43553,0.88 -0.97553,1.71516 -1.2,1.8559 -0.22446,0.14075 -0.40811,0.44934 -0.40811,0.68576 0,0.23643 -0.216,0.51275 -0.48,0.61406 -0.264,0.10131 -0.48,0.32834 -0.48,0.50451 0,0.39598 -3.24757,3.91887 -3.43751,3.72893 -0.13302,-0.13302 -1.1775,0.66257 -2.37734,1.81084 -0.32183,0.308 -0.72915,0.56 -0.90515,0.56 -0.176,0 -0.32,0.1525 -0.32,0.33889 0,0.18638 -0.144,0.24988 -0.32,0.14111 -0.176,-0.10877 -0.32,-0.0368 -0.32,0.16 0,0.19677 -0.12768,0.27886 -0.28374,0.18241 -0.15606,-0.0964 -0.46713,0.0456 -0.69127,0.31568 -0.22414,0.27007 -0.60046,0.417 -0.83626,0.32652 -0.2358,-0.0905 -0.42873,-0.025 -0.42873,0.14543 0,0.17048 -0.29747,0.30996 -0.66104,0.30996 -0.36357,0 -0.94981,0.15455 -1.30276,0.34344 -2.25695,1.20788 -7.601,1.61433 -10.6762,0.81199 -2.028691,-0.52929 -3.68,-1.22284 -3.68,-1.54559 0,-0.78955 -1.390301,0.0246 -3.263816,1.91128 -2.938091,2.95873 -3.136184,3.18461 -3.136184,3.57602 0,0.18857 -0.118475,0.34286 -0.263278,0.34286 -0.497779,0 -3.256722,6.0353 -3.256722,7.12421 0,0.45235 -0.161377,0.87625 -0.358616,0.942 -0.255432,0.0851 -0.349613,2.97007 -0.327328,10.02666 0.03068,9.71435 -0.143382,11.78585 -1.040428,12.38223 -0.194495,0.1293 -0.942514,0.2373 -1.662263,0.24 -1.115647,0.004 -1.370031,-0.12488 -1.72495,-0.8751 z M 62.424502,116.71404 c 0.687813,-0.39272 1.251678,-0.84604 1.253033,-1.00737 0.0014,-0.16134 -0.08928,-0.20159 -0.201414,-0.0895 -0.112133,0.11214 -0.602363,-0.0799 -1.089398,-0.42666 -0.487036,-0.3468 -1.043291,-0.63055 -1.236122,-0.63055 -0.19283,0 -0.350601,-0.144 -0.350601,-0.32 0,-0.176 -0.288,-0.32 -0.64,-0.32 -0.352,0 -0.64,-0.14126 -0.64,-0.3139 0,-0.17265 -0.36,-0.40426 -0.8,-0.51469 -0.44,-0.11044 -0.8,-0.40968 -0.8,-0.66499 0,-0.2553 -0.13405,-0.38134 -0.297889,-0.28009 -0.163838,0.10126 -0.388045,0.0382 -0.498236,-0.14006 -0.110191,-0.17829 -0.901839,-0.62594 -1.759217,-0.99478 -0.857378,-0.36883 -1.639245,-0.88006 -1.737481,-1.13606 -0.09824,-0.256 -0.360539,-0.44164 -0.582894,-0.41253 C 52.076261,109.58963 51.52,109.4061 51.52,108.96 c 0,-0.264 -0.200771,-0.48 -0.446158,-0.48 -0.245387,0 -0.893387,-0.41777 -1.44,-0.92839 -1.124434,-1.05038 -1.345201,-2.71789 -0.525464,-3.96896 0.457864,-0.69879 0.771111,-0.74439 3.277852,-0.47716 0.212426,0.0226 0.459906,0.23318 0.549956,0.46784 0.09005,0.23467 0.384247,0.42667 0.653771,0.42667 0.269524,0 0.490043,0.144 0.490043,0.32 0,0.176 0.222021,0.32 0.49338,0.32 0.271359,0 0.797167,0.28302 1.168462,0.62893 0.371295,0.34592 0.808782,0.54631 0.972193,0.44531 0.163412,-0.10099 0.491149,0.0934 0.728305,0.43199 0.237156,0.33859 1.053648,0.89232 1.814426,1.23051 0.760779,0.33819 1.662387,0.86878 2.003574,1.17908 0.341186,0.3103 0.86578,0.56418 1.165763,0.56418 0.299983,0 0.620226,0.19493 0.71165,0.43318 0.09142,0.23825 0.841494,0.82891 1.666822,1.31258 0.825328,0.48368 1.785933,1.16475 2.134677,1.51349 0.348745,0.34875 0.704884,0.56328 0.79142,0.47674 0.306527,-0.30652 -0.295258,-3.13486 -0.767479,-3.60708 -0.263661,-0.26366 -0.391157,-0.56761 -0.283324,-0.67545 0.107833,-0.10783 -0.09102,-0.39714 -0.441905,-0.6429 C 65.887084,107.68479 65.6,107.21587 65.6,106.88852 c 0,-0.32735 -0.108,-0.64319 -0.24,-0.70185 -0.132,-0.0587 -0.643328,-0.64667 -1.136285,-1.30667 -0.492957,-0.66 -1.069954,-1.2 -1.282216,-1.2 -0.212262,0 -0.848485,-0.504 -1.41383,-1.12 -0.565344,-0.616 -1.248347,-1.12 -1.517784,-1.12 -0.269437,0 -0.489885,-0.14812 -0.489885,-0.32915 0,-0.18103 -0.864,-0.70385 -1.92,-1.161826 -1.056,-0.457974 -1.92,-0.935988 -1.92,-1.062252 0,-0.126265 -0.612,-0.483178 -1.36,-0.79314 -0.748,-0.309963 -1.72,-0.71682 -2.16,-0.904127 -0.44,-0.187307 -1.232,-0.393256 -1.76,-0.457665 -0.528,-0.06441 -1.176,-0.20517 -1.44,-0.312806 -0.929889,-0.379124 -1.452234,-0.467976 -2.694476,-0.458335 -0.689962,0.0054 -1.409875,-0.08631 -1.599808,-0.203691 -0.189932,-0.117385 -0.741418,-0.17188 -1.225524,-0.1211 C 42.956087,95.686688 42.56,95.591786 42.56,95.425016 c 0,-0.16677 -0.563411,-0.393312 -1.252026,-0.503426 -0.688614,-0.110114 -1.46004,-0.28003 -1.714282,-0.377591 -0.351316,-0.134813 -0.449035,0.07622 -0.407168,0.879308 0.0303,0.581181 0.147948,1.272693 0.261442,1.536693 0.113495,0.264 0.493613,1.661591 0.844707,3.10576 0.697057,2.86722 1.788725,5.53424 2.265282,5.53424 0.166077,0 0.223618,0.20415 0.127869,0.45367 -0.09802,0.25543 0.325859,0.98371 0.970043,1.66667 0.629273,0.66715 1.148924,1.363 1.154779,1.54633 0.01529,0.47862 1.149328,1.77333 1.553271,1.77333 0.187731,0 0.575217,0.35696 0.861081,0.79324 0.605397,0.92395 3.455831,3.04676 4.091088,3.04676 0.239032,0 0.991877,0.37818 1.672988,0.84039 0.68111,0.46221 1.637205,0.85669 2.124654,0.87661 0.48745,0.0199 0.886272,0.16115 0.886272,0.31385 0,0.15269 0.205472,0.19878 0.456604,0.10241 0.251132,-0.0964 0.642189,0.0484 0.869015,0.32171 0.565662,0.68158 3.428175,0.33299 5.098883,-0.62093 z m 41.255498,0.0418 c 0,-0.12645 0.828,-0.40138 1.84,-0.61096 2.40345,-0.49772 4.21383,-1.32062 5.17578,-2.35259 0.42668,-0.45774 0.9075,-0.83226 1.06848,-0.83226 0.38772,0 2.79574,-2.291 2.79574,-2.65988 0,-0.15841 0.36,-0.57119 0.8,-0.91729 0.44,-0.34611 0.8,-0.91533 0.8,-1.26494 0,-0.34961 0.144,-0.54666 0.32,-0.43789 0.31113,0.19229 0.44955,-0.22633 0.34389,-1.04 -0.0286,-0.22 0.18577,-0.4 0.47632,-0.4 0.34595,0 0.4625,-0.17139 0.33769,-0.49662 -0.10928,-0.28478 -0.0556,-0.41322 0.12577,-0.30111 0.17398,0.10752 0.31633,0.021 0.31633,-0.19239 0,-0.21335 0.43387,-1.30618 0.96415,-2.42852 0.53028,-1.12235 1.03942,-2.63973 1.13142,-3.371972 0.092,-0.732238 0.28764,-1.483903 0.43476,-1.670365 0.14711,-0.186463 0.22671,-0.591023 0.17689,-0.899023 -0.0498,-0.308 0.0407,-0.56 0.20109,-0.56 0.16043,0 0.29169,-0.213257 0.29169,-0.473903 0,-0.653709 -1.48551,-0.979483 -2.10854,-0.462407 -0.40875,0.33923 -0.54699,0.339517 -0.75585,0.0016 -0.18715,-0.302822 -0.31639,-0.31525 -0.48254,-0.04641 -0.12481,0.201949 -0.49069,0.283465 -0.81307,0.181147 -0.32238,-0.102318 -0.67908,-0.03565 -0.79268,0.148158 -0.1136,0.183805 -0.54201,0.249995 -0.95202,0.147088 -0.41001,-0.102907 -0.83622,-0.04029 -0.94712,0.139156 -0.1109,0.179442 -0.48661,0.271378 -0.83491,0.204302 -0.3483,-0.06708 -0.63327,0.0011 -0.63327,0.151542 0,0.150425 -0.612,0.375475 -1.36,0.500111 -2.15549,0.359162 -5.36,1.424174 -5.36,1.781386 0,0.179315 -0.144,0.237031 -0.32,0.128257 -0.176,-0.108774 -0.32,-0.0518 -0.32,0.126614 0,0.178412 -0.51638,0.421259 -1.14751,0.53966 -0.63113,0.1184 -1.51616,0.556925 -1.96673,0.974496 -0.45057,0.41758 -1.01419,0.75923 -1.25249,0.75923 -0.2383,0 -0.43327,0.11967 -0.43327,0.26593 0,0.14626 -0.3359,0.44569 -0.74644,0.6654 -0.410537,0.21972 -1.307697,1.10805 -1.993685,1.97408 -0.685989,0.86602 -1.394092,1.57608 -1.573564,1.57789 -0.479115,0.005 -2.411657,4.16999 -2.408777,5.19156 l 0.0025,0.87487 1.36,-0.69087 c 0.748,-0.37997 1.620584,-0.95686 1.939076,-1.28196 0.318492,-0.3251 0.714492,-0.5074 0.88,-0.40511 0.165508,0.10229 0.300924,0.025 0.300924,-0.17179 0,-0.19677 0.145017,-0.26815 0.32226,-0.1586 0.177243,0.10954 0.40865,-0.026 0.514237,-0.30112 0.105586,-0.27515 0.365417,-0.50028 0.5774,-0.50028 0.211983,0 0.664573,-0.25303 1.005763,-0.5623 0.34119,-0.30926 1.01634,-0.73817 1.50034,-0.95313 0.484,-0.21497 0.88,-0.53794 0.88,-0.71771 0,-0.17977 0.276,-0.32686 0.61333,-0.32686 0.33734,0 0.66134,-0.108 0.72,-0.24 0.0587,-0.132 0.67918,-0.528 1.37891,-0.88 0.69973,-0.352 1.55473,-0.919 1.9,-1.26 0.34527,-0.341 0.67627,-0.47446 0.73557,-0.29657 0.0593,0.17789 0.51851,0.26316 1.02048,0.18948 0.68485,-0.10051 1.04235,0.0512 1.43219,0.60777 0.95068,1.35729 0.51287,4.43932 -0.63062,4.43932 -0.2682,0 -0.39863,0.144 -0.28986,0.32 0.10877,0.176 -0.0267,0.32 -0.30111,0.32 -0.27439,0 -0.49889,0.1525 -0.49889,0.33889 0,0.18638 -0.14502,0.24926 -0.32226,0.13971 -0.17724,-0.10954 -0.40865,0.026 -0.51424,0.30112 -0.10558,0.27515 -0.46457,0.50028 -0.79774,0.50028 -0.33317,0 -0.60576,0.12095 -0.60576,0.26878 0,0.14783 -0.59505,0.46517 -1.32233,0.70519 -0.72729,0.24003 -1.545,0.65907 -1.81715,0.93122 -0.27214,0.27215 -0.57709,0.49991 -0.67766,0.50615 -0.35248,0.0219 -1.7485,0.88078 -2.36489,1.45503 -0.34229,0.31889 -1.431359,0.98342 -2.420157,1.47672 -1.640544,0.81845 -1.720832,0.90577 -0.917813,0.99817 0.484,0.0557 0.880015,0.19969 0.880033,0.32 1.9e-5,0.1203 1.152019,0.22453 2.559997,0.2316 1.40798,0.007 2.55997,-0.0906 2.55997,-0.21705 z M 59.938655,137.59693 C 57.280668,136.52628 58.017416,132.16 60.85606,132.16 c 2.352471,0 3.46394,1.08446 3.46394,3.37976 0,0.9085 -0.188518,1.22459 -1.04,1.74375 -1.104183,0.67323 -2.194233,0.77548 -3.341345,0.31342 z m 35.451092,-0.66494 c -0.820409,-1.34906 -0.63064,-2.94223 0.472206,-3.96431 1.079404,-1.00036 1.948663,-1.02006 3.134604,-0.0711 0.735861,0.58884 0.9365,1.03177 1.017723,2.2467 0.13148,1.96677 -0.638365,2.77668 -2.639323,2.77668 -1.203835,0 -1.462718,-0.12884 -1.98521,-0.98801 z m 9.671173,0.68068 c -0.73474,-0.3117 -1.56258,-1.53768 -1.24962,-1.85063 0.10073,-0.10074 0.0228,-0.3764 -0.17326,-0.6126 -0.26419,-0.31833 -0.2579,-0.42944 0.0243,-0.42944 0.2235,0 0.3039,-0.24214 0.19466,-0.58631 -0.11525,-0.36312 0.0593,-0.80835 0.45844,-1.1696 0.35448,-0.3208 0.64452,-0.4839 0.64452,-0.36243 0,0.12147 0.27621,0.073 0.6138,-0.10764 1.10701,-0.59245 2.60826,-0.0394 3.10225,1.14291 0.60763,1.45425 0.55684,2.45498 -0.16694,3.2895 -0.68768,0.79291 -2.39554,1.1328 -3.44819,0.68624 z m -54.125365,-0.59712 c -0.321445,-0.32144 -0.806915,-0.66981 -1.078823,-0.77415 -0.694542,-0.26652 -1.001528,-1.77585 -0.572073,-2.81265 0.198852,-0.48007 0.834079,-1.12733 1.411616,-1.43835 0.918962,-0.4949 1.171911,-0.51157 2.025955,-0.13353 1.496774,0.66254 2.104036,1.9201 1.682727,3.48472 -0.548476,2.03689 -2.273951,2.86942 -3.469402,1.67396 z M 78.067914,96.145437 C 77.842166,95.873428 77.486535,95.716466 77.277622,95.796633 76.849994,95.960729 73.28,92.743672 73.28,92.194222 73.28,91.9994 73.162984,91.84 73.019964,91.84 c -0.351677,0 -1.558441,-2.813419 -1.831821,-4.270662 -0.121382,-0.647024 -0.35072,-1.256767 -0.509639,-1.354984 -0.158919,-0.09822 -0.206096,-0.312627 -0.104838,-0.476465 0.101258,-0.163839 0.01526,-0.297889 -0.1911,-0.297889 -0.233792,0 -0.322781,-0.357193 -0.236109,-0.947722 0.08775,-0.597894 -0.01696,-1.007608 -0.283681,-1.109957 C 69.630249,83.293092 69.44,83.340756 69.44,83.488242 69.44,84.114247 66.781583,87.04 66.212779,87.04 65.87575,87.04 65.6,87.172833 65.6,87.335183 c 0,0.162351 -0.492481,0.457717 -1.094403,0.656369 -0.601921,0.198652 -1.272992,0.576373 -1.491268,0.83938 -0.218276,0.263006 -0.580492,0.40773 -0.804923,0.321608 -0.224431,-0.08612 -0.4559,-0.01306 -0.514375,0.162366 -0.16017,0.480512 -2.449411,1.036627 -4.255031,1.033655 -1.775209,-0.0029 -4.222126,-1.059144 -4.547663,-1.963019 C 52.784272,88.085494 52.395288,87.408 52.027928,86.88 51.437514,86.031409 51.36,85.455797 51.36,81.92 c 0,-2.2 0.107912,-4.485559 0.239804,-5.07902 0.187424,-0.843334 0.152476,-1.008122 -0.16,-0.754437 -1.768242,1.435551 -9.824423,2.057509 -12.159216,0.938723 C 38.122769,76.470461 36.147387,74.88 36.61613,74.88 c 0.126271,0 0.0033,-0.226286 -0.273273,-0.502857 -0.548299,-0.548299 -0.557284,-0.590909 -0.568735,-2.697143 -0.01306,-2.402014 0.48742,-4.48 1.079,-4.48 0.167557,0 0.215652,-0.144 0.106878,-0.32 -0.108774,-0.176 -0.06274,-0.32 0.102292,-0.32 0.165035,0 0.474945,-0.422202 0.68869,-0.938228 0.420282,-1.014651 1.872935,-3.102073 2.086173,-2.997772 0.187654,0.09179 2.447588,-2.205924 2.30747,-2.346041 -0.06419,-0.06419 -1.107982,-0.361329 -2.319539,-0.660311 -1.422924,-0.351142 -2.92987,-1.031136 -4.256333,-1.920626 C 34.439328,56.93966 33.463416,56.32 33.40006,56.32 33.138262,56.32 31.68,54.903257 31.68,54.648912 31.68,54.497292 31.392,54.064108 31.04,53.68628 30.286371,52.877354 30.13949,49.737405 30.8,48.555658 31.417201,47.451395 32.716569,46.08 33.145633,46.08 c 0.212242,0 0.460799,-0.195198 0.552349,-0.433774 C 33.891028,45.143156 37.213736,43.2 37.880916,43.2 c 0.247836,0 0.521419,-0.184523 0.607962,-0.410051 0.08654,-0.225528 0.893624,-0.598751 1.793513,-0.829386 0.899889,-0.230635 1.713861,-0.545056 1.808828,-0.698715 0.09497,-0.153659 -0.408708,-0.843584 -1.119277,-1.533167 C 40.261374,39.039098 39.68,38.329449 39.68,38.151683 c 0,-0.177766 -0.225127,-0.4096 -0.500282,-0.515186 C 38.904562,37.53091 38.769061,37.299503 38.878603,37.12226 38.988145,36.945017 38.935691,36.8 38.762037,36.8 c -0.173654,0 -0.569865,-0.576 -0.880469,-1.28 -0.310604,-0.704 -0.696429,-1.28 -0.857388,-1.28 -0.160959,0 -0.209766,-0.216 -0.10846,-0.48 0.101307,-0.264 0.06106,-0.48 -0.08944,-0.48 -0.150501,0 -0.368815,-0.468 -0.485143,-1.04 -0.54113,-2.660806 -0.567175,-3.12 -0.176962,-3.12 0.306313,0 0.309167,-0.102449 0.0128,-0.459545 -0.264392,-0.318574 -0.283988,-0.641538 -0.06388,-1.052815 0.577192,-1.078492 2.467356,-2.949942 3.102456,-3.071738 0.343446,-0.06586 0.912448,-0.249387 1.264448,-0.407828 1.064015,-0.47893 8.454913,-0.348045 10.08,0.178506 0.792,0.25662 1.557433,0.61662 1.700962,0.8 0.28429,0.363225 0.218332,0.0524 -0.606909,-2.860047 -0.701163,-2.474547 -0.482925,-8.053228 0.386355,-9.876126 0.717226,-1.504039 2.77775,-2.5377271 5.079592,-2.5482424 1.807371,-0.00826 6.232146,1.3871894 7.148504,2.2544314 1.079632,1.021763 1.974317,1.683404 2.276335,1.683404 0.163638,0 1.061992,0.733787 1.996342,1.630638 1.243007,1.193119 1.72658,1.493628 1.802283,1.12 C 70.400369,16.229787 70.571545,16 70.723856,16 c 0.152311,0 0.379288,-0.682574 0.504392,-1.516832 0.520011,-3.467681 2.898276,-7.0937982 6.016407,-9.1731567 C 78.152321,4.7047248 78.905305,4.48 80.02577,4.48 c 0.845052,0 1.626908,0.1463489 1.737456,0.3252198 0.110548,0.1788709 0.335047,0.2423725 0.498885,0.1411146 C 82.42595,4.8450765 82.56,4.923226 82.56,5.12 c 0,0.196774 0.13209,0.2761347 0.293534,0.1763572 0.34964,-0.21609 2.898053,2.3679853 2.903017,2.9436428 0.0019,0.22 0.153564,0.4 0.337037,0.4 0.389605,0 2.225788,3.745607 2.22616,4.541115 1.38e-4,0.297613 0.144252,0.630111 0.320252,0.738885 0.176,0.108774 0.32,0.693272 0.32,1.298885 0,0.605613 0.139481,1.101115 0.309957,1.101115 0.170476,0 0.22707,0.216 0.125763,0.48 -0.101306,0.264 -0.02122,0.48 0.177964,0.48 0.199186,0 0.499028,-0.36 0.666316,-0.8 0.167288,-0.44 0.415724,-0.8023 0.55208,-0.805111 0.224573,-0.0046 0.751189,-0.432633 3.299452,-2.681599 2.180779,-1.924644 6.480508,-3.4218628 9.309698,-3.2417525 2.98005,0.1897138 4.42764,1.4463845 5.3547,4.6484625 0.45237,1.562482 0.40107,6.312485 -0.091,8.429426 l -0.41105,1.768291 0.83307,-0.129753 c 0.4582,-0.07136 1.48108,-0.289677 2.27308,-0.485139 1.88422,-0.46502 8.06639,-0.271664 8.72244,0.272806 0.27074,0.224697 0.83095,0.473658 1.24491,0.553245 1.07206,0.206114 2.86278,2.225884 3.16619,3.571171 0.43142,1.912846 -0.46951,6.179953 -1.3048,6.179953 -0.16981,0 -0.30874,0.194394 -0.30874,0.431988 0,0.237593 -0.432,1.028346 -0.96,1.757229 -0.528,0.728883 -0.96,1.45698 -0.96,1.617994 0,0.161015 -0.72,0.810022 -1.6,1.442239 -1.77308,1.273828 -2.00394,1.79055 -0.8,1.79055 0.44,0 0.8,0.130519 0.8,0.290042 0,0.159523 0.29273,0.21349 0.65052,0.119926 0.35779,-0.09356 0.89779,0.02792 1.2,0.269958 0.61428,0.491971 1.40733,0.952639 3.37296,1.959287 1.48531,0.76067 2.1561,1.292106 4.46386,3.536522 1.13078,1.099749 1.53275,1.71287 1.41591,2.159681 -0.0897,0.343171 -0.0327,0.704588 0.12679,0.803151 0.37736,0.233222 0.37729,1.421433 -8e-5,1.421433 -0.15952,0 -0.21656,0.281006 -0.12674,0.624458 0.10635,0.406716 -0.12725,0.893727 -0.66996,1.396694 -0.45829,0.424731 -0.83326,0.901228 -0.83326,1.058884 0,0.566495 -5.70266,3.607289 -7.71242,4.112447 -1.12617,0.283066 -2.2164,0.571748 -2.42274,0.641516 -0.60726,0.205331 -0.0867,1.467981 0.76523,1.856154 0.4297,0.195781 1.04917,0.867589 1.37662,1.492906 0.32744,0.625318 1.02753,1.632223 1.55575,2.237567 0.52822,0.605345 0.87476,1.23919 0.77009,1.408545 -0.10467,0.169356 0.049,0.482937 0.34158,0.696848 0.68565,0.501358 1.28038,3.715062 1.01501,5.484708 -0.15945,1.063315 -0.48461,1.60945 -1.45043,2.436155 -1.38944,1.189306 -4.04661,2.152179 -5.94682,2.154932 -1.81275,0.0026 -7.55349,-1.304468 -8.21943,-1.871461 -0.94035,-0.800625 -1.19584,-0.06092 -0.64577,1.869647 0.2871,1.007627 0.51683,3.12795 0.5374,4.96 0.0307,2.730682 -0.0755,3.446392 -0.72348,4.88 -0.44126,0.976182 -0.96694,1.68 -1.2548,1.68 -0.27247,0 -0.75338,0.233475 -1.0687,0.518834 -1.00576,0.910202 -4.43504,0.863049 -7.108758,-0.09775 C 97.50975,89.248819 96.408,88.772399 96.32,88.642377 96.232,88.512355 95.512,88.07968 94.72,87.680875 93.928,87.282071 92.604119,86.254727 91.778043,85.397888 90.951967,84.54105 90.195967,83.84 90.098043,83.84 90.000119,83.84 89.92,84.127427 89.92,84.478726 c 0,1.426668 -2.608615,7.9342 -3.363038,8.38954 -0.208009,0.125546 -0.959942,0.810008 -1.670962,1.521028 -0.711019,0.711019 -1.808616,1.5083 -2.439103,1.771734 -1.51565,0.633279 -3.847359,0.624977 -4.378983,-0.01559 z m 3.183582,-5.461457 c 0.3998,-0.459812 0.871855,-1.251812 1.049011,-1.76 C 82.477663,88.415791 82.723982,88 82.847884,88 c 0.123901,0 0.23956,-0.503948 0.25702,-1.119885 0.01746,-0.615937 0.334157,-1.632438 0.703773,-2.25889 0.761888,-1.291304 1.478264,-7.609485 1.127784,-9.946652 -0.313296,-2.089205 -0.03498,-2.519933 1.93334,-2.992126 1.542261,-0.369983 1.831441,-0.355926 2.564938,0.12468 0.454686,0.297921 0.799772,0.715195 0.766858,0.927274 -0.03292,0.21208 0.178261,0.920974 0.469279,1.575321 0.291018,0.654347 0.529124,1.399317 0.529124,1.655489 0,0.256172 0.503049,1.124797 1.117886,1.930278 0.614838,0.805481 1.010838,1.466716 0.88,1.469411 -0.130837,0.0027 -0.02189,0.141443 0.242114,0.308328 0.264,0.166886 0.483692,0.416681 0.488205,0.5551 0.01095,0.335851 1.911855,2.15029 2.358974,2.251672 0.194052,0.044 0.655515,0.382694 1.025473,0.752652 0.783394,0.783394 3.514808,2.053211 4.989478,2.319576 1.01172,0.182744 1.02411,0.169268 1.21667,-1.323802 0.107,-0.829634 0.24557,-1.760426 0.30792,-2.068426 0.0624,-0.308 0.0137,-0.56 -0.10811,-0.56 -0.12181,0 -0.24562,-0.252 -0.27515,-0.56 -0.20893,-2.179577 -0.5172,-3.92 -0.69431,-3.92 -0.11519,0 -0.40085,-0.648318 -0.63482,-1.440706 -0.23396,-0.792388 -0.8414,-1.964189 -1.34986,-2.604001 C 100.25601,72.43548 99.84,71.715798 99.84,71.475999 99.84,71.236199 99.696,71.04 99.52,71.04 c -0.176,0 -0.32,-0.17112 -0.32,-0.380266 0,-0.209146 -0.667744,-0.984678 -1.483875,-1.723405 C 96.455273,67.795061 96.263808,67.467451 96.442221,66.756595 96.557706,66.296468 96.86545,65.92 97.126097,65.92 97.386743,65.92 97.6,65.726318 97.6,65.489596 c 0,-0.834539 1.193231,-1.58067 2.147106,-1.342591 1.016724,0.253766 2.012894,1.050591 2.012894,1.610097 0,0.311016 2.42728,2.756075 2.65164,2.671066 0.0376,-0.01425 0.80092,0.406031 1.69627,0.933948 2.40026,1.415243 7.06724,2.689944 10.38432,2.836284 2.2127,0.09762 2.83528,0.02783 2.97388,-0.333357 C 119.70243,71.249195 118.2607,68.4209 117.0508,67.12686 116.51247,66.551087 115.71472,65.612 115.27803,65.04 114.84133,64.468 114.30276,64 114.0812,64 c -0.22156,0 -0.5895,-0.22492 -0.81765,-0.499821 -0.83781,-1.009498 -3.81089,-2.734365 -6.10571,-3.542293 -1.29681,-0.456565 -2.51771,-1.029865 -2.71312,-1.274002 -0.1954,-0.244136 -0.5279,-0.443884 -0.73888,-0.443884 -0.21099,0 -0.29461,-0.144 -0.18584,-0.32 0.10877,-0.176 0.0453,-0.32 -0.14111,-0.32 -0.42226,0 -0.44921,-1.174048 -0.0329,-1.431363 0.16832,-0.104023 0.24437,-0.364521 0.16901,-0.578885 -0.0754,-0.214364 0.067,-0.658432 0.31636,-0.986819 0.48886,-0.643805 0.81272,-0.633978 4.56861,0.138622 1.1,0.226275 2,0.497912 2,0.603637 0,0.338656 6.29904,-0.261509 8.36594,-0.797095 2.1142,-0.547845 4.43406,-1.59716 4.43406,-2.005606 0,-0.134476 0.432,-0.499691 0.96,-0.811588 0.528,-0.311897 0.96,-0.70649 0.96,-0.876873 0,-0.170382 -0.67206,-0.702241 -1.49347,-1.181908 -0.82141,-0.479667 -1.72812,-1.094825 -2.0149,-1.367018 -1.44363,-1.370185 -9.38078,-2.757005 -12.65163,-2.210559 -0.88,0.147017 -2.356,0.275888 -3.28,0.286379 -1.69555,0.01925 -1.94509,-0.222013 -1.71789,-1.660924 0.0208,-0.132 -0.0996,-0.24 -0.26761,-0.24 -0.44053,0 -0.79649,-2.226006 -0.41669,-2.605806 0.1749,-0.1749 1.44721,-0.607279 2.82736,-0.960841 1.38016,-0.353562 2.8031,-0.805917 3.1621,-1.005234 0.359,-0.199317 0.83273,-0.32587 1.05273,-0.281229 0.22,0.04464 0.4,-0.07102 0.4,-0.257021 0,-0.186003 0.648,-0.65301 1.44,-1.037793 0.792,-0.384783 1.44,-0.814912 1.44,-0.955841 0,-0.140929 0.19286,-0.256235 0.42858,-0.256235 0.45172,0 2.45142,-2.032102 2.45142,-2.491132 0,-0.147504 0.30711,-0.597829 0.68246,-1.000723 1.01462,-1.089064 2.20408,-3.478756 1.99837,-4.014828 -0.25247,-0.657927 -0.97377,-0.826145 -3.51163,-0.818966 -2.20093,0.0062 -3.05741,0.09204 -3.9692,0.397697 -0.264,0.0885 -1.056,0.311616 -1.76,0.495813 -1.96052,0.512956 -3.72261,1.223493 -3.95267,1.593856 -0.11403,0.183569 -0.56733,0.387697 -1.00733,0.453619 -0.44,0.06592 -0.77261,0.270623 -0.73912,0.454892 0.0335,0.184268 -0.46072,0.523643 -1.09822,0.754166 -1.20567,0.435978 -1.27042,0.478068 -2.73915,1.780576 -1.207368,1.070731 -1.741459,1.005037 -3.170018,-0.389913 -1.380394,-1.347919 -1.595006,-2.582847 -0.561075,-3.228548 0.358829,-0.224093 0.566331,-0.546732 0.461115,-0.716975 C 97.008315,30.21929 97.14303,30.08 97.412897,30.08 c 0.269867,0 0.69633,-0.396 0.947695,-0.88 0.251366,-0.484 0.903064,-1.208311 1.448218,-1.60958 0.54515,-0.401269 0.99119,-0.933104 0.99119,-1.181855 0,-0.248751 0.26452,-0.64044 0.58783,-0.87042 0.54807,-0.38987 1.97217,-4.367043 1.97217,-5.507821 0,-0.280678 0.108,-0.510234 0.24,-0.510125 0.132,1.09e-4 0.1901,-0.719891 0.12912,-1.6 -0.0766,-1.105737 0.01,-1.600199 0.27918,-1.600199 0.30523,0 0.30595,-0.10135 0.003,-0.465982 -0.2127,-0.256291 -0.3149,-0.582196 -0.22712,-0.724233 0.30888,-0.499775 -2.05224,-0.147231 -3.46663,0.51761 C 99.530883,16.017328 98.819801,16.32 98.737698,16.32 c -0.304227,0 -2.519675,1.617139 -2.867937,2.093415 -0.198363,0.271279 -0.718208,0.671452 -1.155211,0.889274 -0.437002,0.217822 -0.979122,0.780971 -1.20471,1.251442 -0.225587,0.47047 -0.731188,1.114256 -1.123556,1.430635 -0.810516,0.653545 -1.642628,2.431192 -2.174572,4.645557 -0.489975,2.039656 -0.843008,2.281805 -2.659749,1.824344 C 86.742383,28.250812 86.08,27.957117 86.08,27.802011 86.08,27.646905 85.740936,27.52 85.326525,27.52 l -0.753474,0 0.0101,-4.458978 c 0.006,-2.637602 -0.126622,-4.630954 -0.324619,-4.88 C 84.000294,17.8562 83.333394,15.616778 83.037251,14.08 82.869534,13.209666 81.451253,10.621056 80.981328,10.327583 80.240997,9.8652383 78.815794,10.420776 78.537954,11.28 c -0.09959,0.308 -0.300916,0.56 -0.44738,0.56 -0.146464,0 -0.525207,0.72 -0.84165,1.6 -0.316444,0.88 -0.654906,1.601033 -0.752138,1.602296 -0.09723,0.0013 -0.213471,0.749187 -0.258308,1.662055 -0.04484,0.912867 -0.253224,1.765877 -0.463082,1.895577 -0.262645,0.162323 -0.386833,1.54725 -0.398478,4.443782 L 75.36,27.251675 73.96697,27.890279 c -0.766167,0.351232 -1.943771,0.689016 -2.6169,0.75063 -1.100223,0.100708 -1.255892,0.02016 -1.54084,-0.797238 -0.174334,-0.500095 -0.236209,-0.990025 -0.1375,-1.088734 0.09871,-0.09871 0.02422,-0.36654 -0.165537,-0.595179 -0.189754,-0.22864 -0.392864,-0.773064 -0.451355,-1.209831 -0.113346,-0.846382 -1.151945,-2.675593 -2.28521,-4.024776 C 65.650613,19.592932 64.162116,18.089456 63.829333,17.955266 63.6592,17.886663 63.088,17.513677 62.56,17.126409 c -0.528,-0.387267 -1.464,-0.893367 -2.08,-1.124665 -0.616,-0.231299 -1.265356,-0.594458 -1.443014,-0.807021 -0.502792,-0.601576 -2.221768,-0.206284 -2.575071,0.592159 -0.381258,0.86162 0.191456,5.424127 1.004726,8.004119 0.596733,1.893052 1.873321,3.607106 4.803069,6.448999 2.298288,2.229369 2.368491,2.6575 0.70113,4.275845 -1.218938,1.183106 -2.49084,1.735747 -2.49084,1.082271 0,-0.133037 -0.396,-0.419423 -0.88,-0.636415 -0.484,-0.216992 -1.331821,-0.820323 -1.884048,-1.340735 -0.552226,-0.520412 -1.069656,-0.880596 -1.149844,-0.800408 -0.08019,0.08019 -0.496941,-0.179633 -0.926118,-0.577381 -0.429177,-0.397747 -0.884725,-0.757247 -1.012329,-0.798888 -0.127604,-0.04164 -0.91503,-0.417832 -1.749835,-0.835981 -1.373402,-0.687929 -3.039642,-1.082281 -7.044028,-1.667124 -2.014853,-0.29427 -4.491992,0.11555 -4.632146,0.766346 -0.113702,0.527964 0.59949,2.625022 0.997308,2.93247 0.113866,0.088 0.617762,0.808 1.119768,1.6 0.919083,1.45001 2.90056,3.52 3.369484,3.52 0.138928,0 0.510159,0.284604 0.824959,0.632454 0.3148,0.34785 0.688268,0.560821 0.829929,0.47327 0.141661,-0.08755 0.385462,0.06935 0.54178,0.348678 0.260316,0.465159 4.393944,1.909346 6.597687,2.305069 0.507412,0.09111 1.197291,0.440387 1.533063,0.776159 0.593779,0.593779 0.594804,0.658354 0.03743,2.358355 -0.316531,0.965427 -0.809278,1.824131 -1.100739,1.918242 -0.290221,0.09371 -1.442221,0.02553 -2.56,-0.151513 C 52.274546,46.243672 50.496,46.079248 49.44,46.055327 c -2.67183,-0.06052 -8.026849,1.126776 -9.4279,2.090323 -0.622655,0.42822 -1.4921,0.936813 -1.9321,1.130207 -1.496849,0.657911 -2.400185,1.2823 -2.32,1.603593 0.105696,0.423512 1.357948,1.669751 1.367115,1.36055 0.0039,-0.132 0.255914,0.06432 0.56,0.43626 0.304087,0.371943 1.344885,0.932013 2.312885,1.244599 0.968,0.312586 1.976,0.640262 2.24,0.72817 0.670219,0.223171 1.074063,0.27627 4.164395,0.547554 2.091593,0.18361 3.194327,0.118769 4.747592,-0.279159 1.112759,-0.285075 2.802781,-0.609944 3.755605,-0.72193 1.60623,-0.18878 1.732408,-0.155163 1.732408,0.461563 0,0.365844 0.144,0.754169 0.32,0.862943 0.176,0.108774 0.318034,0.585272 0.315631,1.058885 -0.0098,1.938761 -0.216658,2.134046 -3.427255,3.236103 -1.687321,0.579184 -3.643079,1.46975 -4.346129,1.979037 C 48.799198,62.303311 48.029581,62.72 47.791988,62.72 47.554394,62.72 47.36,62.84653 47.36,63.001177 c 0,0.154648 -0.396,0.446213 -0.88,0.647923 -0.484,0.201709 -1.384,1.076434 -2,1.943833 -0.616,0.867398 -1.228,1.583834 -1.36,1.592078 -0.132,0.0082 -0.24,0.215583 -0.24,0.460753 0,0.24517 -0.216,0.52865 -0.48,0.629956 -0.264,0.101307 -0.48,0.468215 -0.48,0.815351 0,0.347137 -0.126806,0.709529 -0.281791,0.805315 -0.412297,0.254813 -0.623407,1.674494 -0.321633,2.162927 0.303862,0.491813 2.893857,0.507555 5.083424,0.0309 2.861972,-0.623037 6.72,-2.000966 6.72,-2.400108 0,-0.128517 0.429718,-0.455882 0.954928,-0.727479 C 55.092584,68.436373 57.28,66.38945 57.28,65.963407 c 0,-0.140393 0.36,-0.447926 0.8,-0.683407 0.44,-0.235481 0.8,-0.520291 0.8,-0.632912 0,-0.112621 0.18428,-0.456783 0.409512,-0.764806 0.345729,-0.472812 0.557554,-0.503834 1.36,-0.199174 1.448471,0.549932 2.782279,2.087739 2.923675,3.370835 0.09401,0.853075 -0.01195,1.169628 -0.444894,1.329074 -0.58744,0.216347 -2.008293,1.579421 -2.008293,1.926626 0,0.108168 -0.209316,0.424749 -0.465146,0.703513 -2.034177,2.21653 -2.977215,3.969005 -3.417152,6.350196 -0.186632,1.010156 -0.410555,1.952079 -0.497607,2.093161 -0.08705,0.141082 -0.157256,1.509082 -0.156008,3.04 l 0.0023,2.783487 1.064709,-0.08916 c 1.441417,-0.120704 3.726049,-1.241287 4.980385,-2.442815 0.567298,-0.543414 1.359298,-1.301697 1.76,-1.685072 2.422829,-2.318063 3.82542,-4.244309 4.412156,-6.059427 0.9213,-2.850119 1.917846,-4.0928 3.036394,-3.786351 0.352,0.09644 1.072,0.251933 1.6,0.345544 0.528,0.09361 1.099548,0.305043 1.270107,0.469849 0.170559,0.164805 0.33335,2.492897 0.361757,5.173538 0.0506,4.775337 0.309324,7.274694 0.786076,7.593893 0.131436,0.088 0.313229,0.592 0.403985,1.12 0.21643,1.259146 1.650917,4.152842 2.459537,4.961462 0.864795,0.864795 1.660391,0.802694 2.530034,-0.197482 z M 77.92,69.741339 C 76.864,69.60365 75.568,69.313067 75.04,69.095599 74.512,68.878131 73.936,68.686657 73.76,68.670102 72.628049,68.563622 68.20688,66.006591 66.856608,64.67745 65.989474,63.823885 65.28,63.03592 65.28,62.926415 c 0,-0.193815 -0.727959,-1.143954 -1.504762,-1.964029 -0.211619,-0.223408 -0.299009,-0.491949 -0.194199,-0.596758 0.10481,-0.10481 -0.03865,-0.27852 -0.318797,-0.386023 -0.280147,-0.107503 -0.736938,-0.938892 -1.01509,-1.847532 -0.278151,-0.90864 -0.734686,-2.343509 -1.014521,-3.188598 -0.884736,-2.671859 -0.376748,-9.5985 0.890263,-12.139133 C 62.275302,42.49873 62.4,42.038896 62.4,41.782487 c 0,-0.256408 0.29853,-0.675295 0.663401,-0.93086 0.36487,-0.255566 0.692411,-0.659731 0.727869,-0.898146 0.092,-0.618613 3.74038,-4.433481 4.239995,-4.433481 0.229313,0 0.532089,-0.201571 0.672834,-0.447936 0.305865,-0.535395 4.781272,-2.760026 5.037341,-2.503957 0.09821,0.09821 0.17856,0.02407 0.17856,-0.164746 0,-0.49722 2.861914,-0.837604 6.671552,-0.793487 3.219557,0.03728 6.768448,0.581313 6.768448,1.037573 0,0.124082 0.612,0.460251 1.36,0.747041 0.748,0.286791 1.778398,0.882354 2.289773,1.323475 0.511374,0.44112 1.093098,0.802037 1.292719,0.802037 0.340657,0 1.798171,1.525498 4.014972,4.202245 0.529395,0.639234 0.962536,1.467234 0.962536,1.84 0,0.372765 0.126443,0.677755 0.280984,0.677755 0.154541,0 0.598108,0.9 0.985704,2 0.387595,1.1 0.843373,2.260007 1.012839,2.577793 0.169466,0.317786 0.304843,1.181786 0.300838,1.92 -0.0094,1.727574 -0.0092,2.627516 9.21e-4,4.302207 0.0045,0.748 -0.142432,1.36 -0.326541,1.36 -0.18411,0 -0.334745,0.356713 -0.334745,0.792695 0,1.194623 -1.526027,5.055489 -2.232234,5.64758 -0.341303,0.286151 -0.548592,0.592232 -0.460643,0.680181 0.08795,0.08795 -0.250153,0.50495 -0.751337,0.926669 -0.501184,0.421719 -1.011993,1.029308 -1.13513,1.350199 -0.123137,0.32089 -0.511159,0.658561 -0.862271,0.750379 C 93.407273,64.63952 93.12,64.913849 93.12,65.157322 93.12,65.400795 92.904,65.6 92.64,65.6 c -0.264,0 -0.48,0.128142 -0.48,0.284759 0,0.262535 -0.942177,0.756172 -4.32,2.263388 -3.406467,1.519996 -6.576592,2.029132 -9.92,1.593192 z m 5.548456,-5.608503 c 0.996349,-0.28706 2.027544,-0.65127 2.291544,-0.809355 0.264,-0.158085 0.984,-0.538539 1.6,-0.845454 0.616,-0.306915 1.171102,-0.675333 1.23356,-0.818707 0.06246,-0.143374 0.478429,-0.399402 0.92438,-0.568953 0.445951,-0.16955 0.71592,-0.403173 0.599931,-0.519162 -0.115989,-0.115989 0.286327,-0.72396 0.894035,-1.351047 C 92.066093,58.132355 93.76,55.181907 93.76,54.433527 93.76,54.239087 93.919406,54.08 94.114236,54.08 c 0.19483,0 0.273119,-0.211388 0.173976,-0.469752 -0.09914,-0.258364 -0.04255,-0.554862 0.125764,-0.658885 C 94.803565,52.710583 94.818771,48 94.429958,48 94.270435,48 94.219993,47.693788 94.317864,47.31953 94.432899,46.879632 94.309176,46.534614 93.967905,46.343629 93.677557,46.181142 93.44,45.824237 93.44,45.550507 c 0,-0.27373 -0.432,-1.137794 -0.96,-1.920141 -0.528,-0.782348 -0.96,-1.525053 -0.96,-1.650457 0,-0.125403 -0.393551,-0.514184 -0.874557,-0.863957 C 90.164436,40.766178 89.437891,40.156 89.030897,39.76 c -0.406993,-0.396 -0.865442,-0.72 -1.018776,-0.72 -0.153333,0 -0.329402,-0.151842 -0.391263,-0.337426 -0.06186,-0.185584 -0.340237,-0.370854 -0.618613,-0.411711 -0.278376,-0.04086 -0.918388,-0.344402 -1.422248,-0.674544 -1.869562,-1.224983 -9.865914,-0.964687 -11.195021,0.364419 -0.272499,0.272499 -0.585912,0.404993 -0.696474,0.29443 C 73.57794,38.164606 73.152797,38.388565 72.74374,38.772854 72.334683,39.157143 72,39.386831 72,39.283271 72,39.179712 71.171043,39.911168 70.157873,40.908729 68.288625,42.749181 66.654576,44.8 67.057392,44.8 c 0.121535,0 0.03882,0.21948 -0.18381,0.487733 -0.22263,0.268253 -0.327585,0.564931 -0.233233,0.659283 0.09435,0.09435 -0.01924,0.894799 -0.252427,1.77877 -0.560098,2.123231 -0.636654,4.68967 -0.174485,5.849398 0.204976,0.514351 0.299326,1.126351 0.209667,1.36 -0.08966,0.233649 -0.03324,0.424816 0.125375,0.424816 0.158616,0 0.387818,0.324 0.509339,0.72 0.594222,1.936402 4.45822,6.32 5.570874,6.32 0.193267,0 0.42809,0.199866 0.521829,0.444146 0.09374,0.24428 0.84522,0.625509 1.669957,0.847176 0.824737,0.221667 1.618703,0.508182 1.76437,0.636702 0.517937,0.456969 5.067851,0.327954 6.883608,-0.195188 z"
       id="path1" />
  </g>
</svg>
