<?xml version="1.0" encoding="UTF-8" standalone="no"?>
<!-- Created with Inkscape (http://www.inkscape.org/) -->

<svg
   version="1.1"
   id="svg1"
   width="160"
   height="160"
   viewBox="0 0 160 160"
   sodipodi:docname="sunflower.svg"
   inkscape:version="1.3.1 (9b9bdc1480, 2023-11-25, custom)"
   xmlns:inkscape="http://www.inkscape.org/namespaces/inkscape"
   xmlns:sodipodi="http://sodipodi.sourceforge.net/DTD/sodipodi-0.dtd"
   xmlns="http://www.w3.org/2000/svg"
   xmlns:svg="http://www.w3.org/2000/svg">
  <defs
     id="defs1" />
  <sodipodi:namedview
     id="namedview1"
     pagecolor="#ffffff"
     bordercolor="#000000"
     borderopacity="0.25"
     inkscape:showpageshadow="2"
     inkscape:pageopacity="0.0"
     inkscape:pagecheckerboard="0"
     inkscape:deskcolor="#d1d1d1"
     showgrid="false"
     inkscape:zoom="1.8031223"
     inkscape:cx="79.861472"
     inkscape:cy="79.861472"
     inkscape:window-width="1850"
     inkscape:window-height="1016"
     inkscape:window-x="0"
     inkscape:window-y="0"
     inkscape:window-maximized="1"
     inkscape:current-layer="g1" />
  <g
     inkscape:groupmode="layer"
     inkscape:label="Image"
     id="g1">
    <circle
       style="fill:#d8617d;fill-opacity:1;stroke:#d8617d;stroke-width:10.3168;stroke-linecap:round;stroke-opacity:1"
       id="path2"
       cx="80.147675"
       cy="80.016815"
       r="74.280952" />
    <path
       style="fill:#f8d8db;fill-opacity:1;stroke-width:0.859028"
       d="m 78.453828,145.71235 c -0.255357,-0.5557 -0.388316,-3.11072 -0.482607,-9.27404 -0.08197,-5.35833 -0.232914,-8.57404 -0.407799,-8.68807 -0.152708,-0.0996 -0.208457,-0.36668 -0.123885,-0.59357 0.08457,-0.22691 0.05192,-0.52197 -0.07255,-0.65572 -0.124476,-0.13375 -0.267341,-0.55696 -0.317475,-0.94048 -0.05013,-0.38351 -0.156103,-0.76005 -0.235488,-0.83676 -0.07939,-0.0767 -0.482259,-1.03862 -0.895279,-2.13761 -0.413021,-1.099 -0.925102,-2.06699 -1.137959,-2.15108 -0.212857,-0.0841 -0.318656,-0.33628 -0.235109,-0.56043 0.08935,-0.23972 -0.07989,-0.53526 -0.410945,-0.71767 -0.309566,-0.17057 -0.562848,-0.48054 -0.562848,-0.68884 0,-0.2083 -0.182869,-0.45097 -0.406376,-0.53928 -0.223507,-0.0883 -0.407916,-0.32137 -0.409795,-0.51795 -0.0018,-0.19656 -0.642283,-0.93409 -1.423116,-1.63896 l -1.419698,-1.28155 -1.218334,0.56319 c -1.943266,0.89832 -4.016567,1.26353 -6.636692,1.16903 -1.341044,-0.0484 -2.743043,-0.14975 -3.115556,-0.22531 -0.802075,-0.16269 -4.139766,-1.38824 -4.334686,-1.59164 -0.0745,-0.0777 -0.684068,-0.4231 -1.35459,-0.76747 -1.368971,-0.70307 -1.981592,-1.09992 -2.814386,-1.8231 -0.314649,-0.27324 -1.081639,-0.9388 -1.704424,-1.47905 -0.622784,-0.54023 -1.51906,-1.6027 -1.991723,-2.36104 -0.483663,-0.77598 -0.985909,-1.29829 -1.148777,-1.19466 -0.183183,0.11657 -0.224454,0.01 -0.112457,-0.29055 0.109427,-0.2936 0.02422,-0.53502 -0.223323,-0.63282 -0.22014,-0.087 -0.34134,-0.25627 -0.269334,-0.37622 0.07201,-0.11994 -0.05061,-0.37319 -0.272474,-0.56276 -0.221867,-0.18958 -0.403393,-0.50065 -0.403393,-0.6913 0,-0.19062 -0.252676,-0.6773 -0.5615,-1.08152 -0.308828,-0.40419 -0.472802,-0.73491 -0.364392,-0.73491 0.108413,0 -0.02354,-0.25102 -0.293242,-0.55783 -0.269695,-0.30681 -0.41707,-0.55784 -0.3275,-0.55784 0.08957,0 -0.08038,-0.7217 -0.377668,-1.60378 -0.682884,-2.026171 -1.226205,-4.901303 -1.470038,-7.77911 l -0.189884,-2.24108 0.888784,-0.716119 c 0.488829,-0.393866 1.051453,-0.651854 1.250272,-0.573306 0.198821,0.07856 0.361492,0.0039 0.361492,-0.165946 0,-0.169818 0.243826,-0.308759 0.541836,-0.308759 0.298009,0 0.541836,0.126996 0.541836,0.282215 0,0.172975 0.418901,0.213251 1.082204,0.104051 0.611191,-0.100618 1.230234,-0.05401 1.422319,0.107071 0.187063,0.156877 1.041281,0.354663 1.898262,0.439524 2.48869,0.246438 7.587474,1.305672 8.373907,1.739619 0.396465,0.218765 1.036508,0.424651 1.422319,0.457524 0.385812,0.03288 0.701474,0.171338 0.701474,0.307697 0,0.136359 0.172781,0.179665 0.383957,0.09623 0.211177,-0.08343 0.451175,0.02867 0.533332,0.249078 0.08217,0.220421 0.31742,0.400767 0.522804,0.400767 0.205386,0 0.654561,0.251027 0.99817,0.557837 0.343606,0.306811 0.775913,0.557835 0.96068,0.557835 0.184765,0 0.409077,0.196227 0.498468,0.436061 0.0894,0.239825 0.280859,0.360768 0.425482,0.268742 0.144622,-0.09198 0.48938,0.0569 0.76613,0.330972 0.27675,0.274055 0.978183,0.874819 1.55874,1.335028 0.580556,0.460223 1.272919,1.056414 1.538583,1.324885 0.265665,0.268451 0.604941,0.488101 0.753945,0.488101 0.149006,0 0.270919,0.1922 0.270919,0.427112 0,0.234931 0.166372,0.492881 0.369717,0.573201 0.543454,0.21472 3.152215,3.64879 3.152215,4.14947 0,0.23572 0.0975,0.42858 0.216668,0.42858 0.508384,0 1.219395,4.13933 1.067105,6.21243 l -0.151932,2.06823 2.0078,2.1772 c 1.10429,1.19747 2.0078,2.4094 2.0078,2.69319 0,0.28378 0.112975,0.51598 0.251053,0.51598 0.138079,0 0.306807,0.21964 0.374951,0.4881 0.123699,0.48733 0.221833,-2.98117 0.311762,-11.01915 0.04475,-3.99958 0.08364,-4.28992 0.64697,-4.83024 0.910579,-0.87338 2.16754,-0.79363 2.93366,0.18616 0.630443,0.80627 0.63334,0.84519 0.516746,6.94702 -0.06449,3.37491 -0.194739,6.82653 -0.289449,7.67027 -0.163658,1.45796 -0.14983,1.50639 0.278814,0.97622 0.248058,-0.30682 0.594806,-0.89563 0.770549,-1.30847 0.346628,-0.81426 1.622383,-2.30467 3.301986,-3.85754 l 1.06238,-0.98221 0.0064,-2.7832 c 0.0048,-2.07053 0.123402,-3.00622 0.463302,-3.6543 0.251286,-0.47912 0.383416,-0.94677 0.293623,-1.03921 -0.08979,-0.0925 -0.01348,-0.35388 0.169588,-0.58096 0.183065,-0.22709 0.254199,-0.54392 0.158075,-0.70405 -0.09612,-0.16012 -0.04719,-0.29113 0.108737,-0.29113 0.155929,0 0.608045,-0.53343 1.004702,-1.1854 0.396656,-0.65199 0.848059,-1.27033 1.003117,-1.37411 0.155059,-0.10378 0.473241,-0.60583 0.70707,-1.11568 0.23383,-0.50983 0.491229,-0.864222 0.571997,-0.787513 0.08076,0.07665 0.566432,-0.331211 1.079252,-0.906488 0.512817,-0.575267 1.067831,-1.045938 1.233361,-1.045938 0.16553,0 0.616021,-0.300625 1.001093,-0.668038 0.385071,-0.367414 0.765571,-0.60066 0.845545,-0.518323 0.07997,0.08233 0.361796,-0.10303 0.626282,-0.41191 0.264485,-0.308889 1.385524,-0.89675 2.4912,-1.306357 1.10569,-0.409608 2.14404,-0.933001 2.30747,-1.163095 0.16342,-0.230094 0.72173,-0.455998 1.24068,-0.502006 0.51896,-0.04602 1.28675,-0.229021 1.7062,-0.406695 0.41948,-0.177674 0.91199,-0.323043 1.0945,-0.323043 0.1825,0 1.05843,-0.198914 1.94652,-0.442031 1.88177,-0.515143 2.36291,-0.599765 4.72986,-0.831877 0.9683,-0.09496 1.85218,-0.317848 1.96415,-0.495316 0.15088,-0.239132 0.262,-0.229606 0.42925,0.03679 0.16907,0.269305 0.40887,0.287747 0.95614,0.07353 0.40175,-0.15726 1.06217,-0.264145 1.46757,-0.237519 0.90007,0.05911 2.22714,0.95114 2.22714,1.497037 0,0.219663 0.12192,0.399386 0.27092,0.399386 0.14901,0 0.27092,0.313783 0.27092,0.697297 0,0.383513 -0.1316,0.697297 -0.29245,0.697297 -0.18399,0 -0.22624,0.310301 -0.11392,0.836756 0.0982,0.460216 0.0774,0.836757 -0.0462,0.836757 -0.1236,0 -0.23676,0.282411 -0.2515,0.627572 -0.0758,1.776012 -1.10426,6.304897 -1.61351,7.105047 -0.22225,0.34922 -0.3263,0.63495 -0.23123,0.63495 0.0951,0 -0.0268,0.31377 -0.27091,0.69728 -0.24408,0.38353 -0.34954,0.69923 -0.23435,0.70158 0.11518,0.003 0.0875,0.0965 -0.0614,0.20918 -0.14901,0.11271 -0.57261,0.83249 -0.94134,1.59952 -0.36873,0.76702 -0.82591,1.49496 -1.01595,1.61764 -0.19002,0.12268 -0.34551,0.39166 -0.34551,0.59773 0,0.20607 -0.18287,0.44692 -0.40637,0.53522 -0.22351,0.0883 -0.40637,0.28618 -0.40637,0.43974 0,0.34515 -2.74947,3.41577 -2.91027,3.25022 -0.11262,-0.11595 -0.99689,0.57751 -2.0127,1.57836 -0.27247,0.26846 -0.61731,0.4881 -0.76631,0.4881 -0.14901,0 -0.27092,0.13294 -0.27092,0.2954 0,0.16244 -0.12192,0.21779 -0.27093,0.12299 -0.149,-0.0948 -0.27091,-0.032 -0.27091,0.13945 0,0.17152 -0.10809,0.24307 -0.24022,0.15899 -0.13212,-0.084 -0.39548,0.0398 -0.58525,0.27516 -0.18974,0.23539 -0.50835,0.36347 -0.70799,0.2846 -0.19962,-0.0789 -0.36297,-0.0218 -0.36297,0.12677 0,0.14859 -0.25183,0.27017 -0.55964,0.27017 -0.30781,0 -0.80413,0.1347 -1.10294,0.29934 -1.91078,1.05282 -6.435148,1.40709 -9.038671,0.70775 -1.717528,-0.46133 -3.115556,-1.06585 -3.115556,-1.34717 0,-0.68818 -1.177055,0.0215 -2.763208,1.66591 -2.487442,2.5789 -2.65515,2.77578 -2.65515,3.11694 0,0.16436 -0.100304,0.29885 -0.222896,0.29885 -0.42143,0 -2.757202,5.26048 -2.757202,6.2096 0,0.39428 -0.136625,0.76377 -0.303611,0.82107 -0.216254,0.0742 -0.295989,2.58878 -0.277122,8.73945 0.02598,8.46723 -0.12139,10.2728 -0.880845,10.79262 -0.164664,0.1127 -0.79795,0.20683 -1.407302,0.20918 -0.944529,0.004 -1.159894,-0.10884 -1.460375,-0.76276 z M 64.923245,111.81853 c 0.582315,-0.34231 1.059693,-0.73743 1.06084,-0.87805 0.0012,-0.14062 -0.07558,-0.1757 -0.17052,-0.078 -0.09494,0.0978 -0.509972,-0.0696 -0.922305,-0.37188 -0.412333,-0.30229 -0.883269,-0.54961 -1.046524,-0.54961 -0.163253,0 -0.296825,-0.12551 -0.296825,-0.27892 0,-0.15341 -0.243826,-0.27892 -0.541835,-0.27892 -0.29801,0 -0.541836,-0.12312 -0.541836,-0.2736 0,-0.15048 -0.304783,-0.35236 -0.677295,-0.44861 -0.372512,-0.0963 -0.677295,-0.35709 -0.677295,-0.57962 0,-0.22253 -0.113489,-0.3324 -0.252198,-0.24414 -0.138709,0.0883 -0.328526,0.0333 -0.421816,-0.12208 -0.09329,-0.15539 -0.763514,-0.54558 -1.489385,-0.86707 -0.725872,-0.32149 -1.387816,-0.76707 -1.470985,-0.99021 -0.08317,-0.22314 -0.305238,-0.38495 -0.493488,-0.35957 -0.819545,0.11049 -1.290486,-0.0494 -1.290486,-0.43831 0,-0.2301 -0.169977,-0.41837 -0.377725,-0.41837 -0.20775,0 -0.756359,-0.36414 -1.219132,-0.80921 -0.951967,-0.91554 -1.138871,-2.36897 -0.444867,-3.45943 0.387636,-0.60908 0.652838,-0.64882 2.775091,-0.4159 0.179844,0.0196 0.389364,0.20324 0.465602,0.40778 0.07623,0.20455 0.325311,0.37189 0.553495,0.37189 0.228184,0 0.414879,0.12551 0.414879,0.27892 0,0.1534 0.187967,0.27892 0.417705,0.27892 0.229737,0 0.674897,0.24669 0.989241,0.54819 0.314345,0.30151 0.68473,0.47617 0.823077,0.38814 0.138347,-0.088 0.415816,0.0814 0.616596,0.37653 0.200781,0.29513 0.892039,0.77777 1.536127,1.07254 0.644089,0.29477 1.407407,0.75725 1.696263,1.02771 0.288854,0.27047 0.732985,0.49176 0.986957,0.49176 0.25397,0 0.525094,0.1699 0.602495,0.37756 0.07739,0.20767 0.712424,0.72249 1.411163,1.14408 0.698738,0.42159 1.512004,1.01522 1.807256,1.31918 0.295254,0.30399 0.596768,0.49096 0.670032,0.41554 0.259511,-0.26717 -0.249971,-2.7324 -0.649762,-3.144 -0.22322,-0.22981 -0.331161,-0.49475 -0.239868,-0.58874 0.0913,-0.094 -0.07706,-0.34615 -0.374124,-0.56037 -0.297062,-0.21422 -0.540112,-0.62293 -0.540112,-0.90826 0,-0.28533 -0.09144,-0.56062 -0.203189,-0.61176 -0.111754,-0.0512 -0.544653,-0.56364 -0.962,-1.13892 -0.417347,-0.57526 -0.905843,-1.04594 -1.085548,-1.04594 -0.179705,0 -0.718342,-0.43929 -1.196975,-0.97621 -0.47863,-0.53692 -1.056873,-0.97621 -1.284984,-0.97621 -0.228109,0 -0.414745,-0.12911 -0.414745,-0.2869 0,-0.15779 -0.731478,-0.613489 -1.625508,-1.012674 -0.894029,-0.399176 -1.625508,-0.815821 -1.625508,-0.925875 0,-0.110063 -0.518129,-0.421159 -1.1514,-0.691323 -0.633271,-0.270174 -1.456184,-0.624797 -1.828696,-0.788061 -0.372512,-0.163256 -1.043034,-0.342769 -1.490049,-0.398902 -0.447014,-0.05616 -0.995623,-0.178834 -1.21913,-0.272656 -0.787262,-0.330452 -1.229488,-0.407892 -2.281194,-0.399488 -0.584134,0.0048 -1.193626,-0.07525 -1.354427,-0.177548 -0.160799,-0.102311 -0.627698,-0.149813 -1.037551,-0.105553 -0.409852,0.04424 -0.745187,-0.03847 -0.745187,-0.183815 0,-0.145361 -0.476994,-0.342818 -1.059989,-0.438797 -0.582993,-0.09598 -1.236096,-0.24408 -1.451342,-0.329116 -0.29743,-0.117506 -0.380162,0.06644 -0.344716,0.766428 0.02565,0.506563 0.125256,1.109302 0.221341,1.33941 0.09609,0.230107 0.417902,1.448283 0.715145,2.707042 0.590141,2.499138 1.514368,4.823768 1.91783,4.823768 0.140603,0 0.189319,0.17793 0.108256,0.39542 -0.08299,0.22264 0.275879,0.85743 0.821256,1.45271 0.532755,0.58151 0.972701,1.18802 0.977658,1.34782 0.01295,0.41717 0.973042,1.54567 1.315027,1.54567 0.158937,0 0.48699,0.31112 0.729008,0.6914 0.51254,0.80534 2.92577,2.65562 3.46359,2.65562 0.202369,0 0.839743,0.32963 1.416383,0.7325 0.57664,0.40288 1.386089,0.74671 1.798772,0.76408 0.412683,0.0173 0.750334,0.14046 0.750334,0.27355 0,0.13309 0.173956,0.17326 0.386569,0.0892 0.212613,-0.084 0.543689,0.0421 0.735725,0.28041 0.4789,0.59408 2.902355,0.29024 4.316808,-0.54121 z m 34.927665,0.0364 c 0,-0.11021 0.70101,-0.34984 1.55778,-0.53252 2.0348,-0.43383 3.56751,-1.15108 4.38191,-2.05057 0.36125,-0.39898 0.7683,-0.72541 0.9046,-0.72541 0.32825,0 2.36692,-1.99688 2.36692,-2.31841 0,-0.13807 0.30479,-0.49786 0.67729,-0.79952 0.37251,-0.30168 0.6773,-0.79783 0.6773,-1.10256 0,-0.30473 0.12191,-0.47648 0.27093,-0.38168 0.26339,0.16761 0.38059,-0.19727 0.29113,-0.90648 -0.0242,-0.19176 0.15729,-0.34865 0.40326,-0.34865 0.29289,0 0.39157,-0.14939 0.28589,-0.43286 -0.0925,-0.24822 -0.0471,-0.36017 0.10649,-0.26245 0.1473,0.0937 0.26781,0.0184 0.26781,-0.1677 0,-0.18595 0.36732,-1.13849 0.81627,-2.11675 0.44894,-0.97826 0.87999,-2.30084 0.95788,-2.939081 0.0779,-0.638231 0.24352,-1.293398 0.36807,-1.455919 0.12455,-0.162527 0.19195,-0.515156 0.14976,-0.783614 -0.0422,-0.26846 0.0344,-0.488102 0.17025,-0.488102 0.13582,0 0.24695,-0.185886 0.24695,-0.413063 0,-0.56979 -1.25767,-0.853742 -1.78513,-0.403052 -0.34606,0.295684 -0.46309,0.295939 -0.63992,9.46e-4 -0.15844,-0.263947 -0.26786,-0.274779 -0.40852,-0.04046 -0.10567,0.176017 -0.41543,0.247076 -0.68836,0.157886 -0.27294,-0.08914 -0.57493,-0.0311 -0.6711,0.129139 -0.0962,0.160211 -0.45887,0.217903 -0.80599,0.128203 -0.34713,-0.08971 -0.70798,-0.03507 -0.80186,0.121293 -0.0939,0.156411 -0.41197,0.236544 -0.70685,0.178077 -0.29488,-0.05852 -0.53613,9.45e-4 -0.53613,0.132088 0,0.131115 -0.51814,0.327267 -1.15141,0.435901 -1.82487,0.313059 -4.53788,1.241341 -4.53788,1.552699 0,0.156297 -0.12191,0.206596 -0.27091,0.111785 -0.149,-0.09484 -0.27092,-0.04513 -0.27092,0.110356 0,0.155518 -0.43718,0.367182 -0.9715,0.470378 -0.53433,0.103206 -1.28361,0.485437 -1.66507,0.8494 -0.38146,0.363972 -0.858638,0.66176 -1.060383,0.66176 -0.201755,0 -0.366821,0.10431 -0.366821,0.23179 0,0.12749 -0.284379,0.38847 -0.631942,0.57998 -0.347573,0.19152 -1.107121,0.9658 -1.687897,1.72065 -0.580767,0.75484 -1.18026,1.37374 -1.332204,1.37532 -0.405628,0.005 -2.041754,3.63466 -2.039315,4.52507 l 0.0021,0.76256 1.1514,-0.60217 c 0.633271,-0.3312 1.372018,-0.83402 1.641658,-1.11739 0.269645,-0.28336 0.604905,-0.44226 0.745031,-0.35309 0.140116,0.0891 0.254762,0.0218 0.254762,-0.14975 0,-0.17151 0.122781,-0.23372 0.272832,-0.13824 0.15006,0.0954 0.345975,-0.0227 0.435362,-0.26246 0.08943,-0.23983 0.309375,-0.43606 0.488846,-0.43606 0.179451,0 0.562627,-0.22053 0.85149,-0.49011 0.288853,-0.26956 0.860451,-0.6434 1.270211,-0.83077 0.40976,-0.18736 0.74502,-0.46887 0.74502,-0.62556 0,-0.1567 0.23367,-0.2849 0.51927,-0.2849 0.2856,0 0.55991,-0.0942 0.60957,-0.20919 0.0496,-0.11505 0.575,-0.46021 1.16741,-0.76704 0.5924,-0.3068 1.31626,-0.80101 1.60857,-1.09824 0.29232,-0.29722 0.57255,-0.41354 0.62274,-0.25849 0.0502,0.15505 0.43899,0.22938 0.86397,0.16515 0.5798,-0.0876 0.88246,0.0447 1.21251,0.52975 0.80487,1.18304 0.43421,3.8694 -0.5339,3.8694 -0.22706,0 -0.33747,0.12552 -0.24539,0.27893 0.0921,0.15341 -0.0226,0.27891 -0.25493,0.27891 -0.2323,0 -0.42236,0.13293 -0.42236,0.29539 0,0.16246 -0.12278,0.21726 -0.27283,0.12177 -0.15006,-0.0955 -0.34598,0.0227 -0.43538,0.26247 -0.0893,0.23982 -0.39331,0.43605 -0.67537,0.43605 -0.28207,0 -0.51285,0.10542 -0.51285,0.23427 0,0.12886 -0.50378,0.40546 -1.11951,0.61466 -0.61574,0.20921 -1.30803,0.57446 -1.53843,0.81167 -0.2304,0.23722 -0.48859,0.43573 -0.57373,0.44118 -0.29841,0.0191 -1.4803,0.76771 -2.002147,1.26823 -0.289793,0.27795 -1.211821,0.85716 -2.048956,1.28714 -1.388921,0.71338 -1.456893,0.78948 -0.77704,0.87002 0.409762,0.0486 0.74504,0.17406 0.74505,0.27893 1.8e-5,0.10485 0.975323,0.19569 2.167354,0.20186 1.192019,0.006 2.167309,-0.0789 2.167309,-0.18918 z m -37.032229,18.16555 c -2.250301,-0.93321 -1.626557,-4.73895 0.776692,-4.73895 1.991646,0 2.932636,0.94524 2.932636,2.94587 0,0.79187 -0.159604,1.06738 -0.880484,1.51989 -0.934821,0.5868 -1.857678,0.67592 -2.828844,0.27319 z m 30.01355,-0.57958 c -0.694574,-1.17587 -0.533911,-2.56452 0.399778,-3.45539 0.913844,-0.87193 1.64977,-0.8891 2.653814,-0.062 0.622994,0.51325 0.792861,0.89931 0.861624,1.95826 0.111313,1.71429 -0.540448,2.42022 -2.2345,2.42022 -1.019189,0 -1.238365,-0.1123 -1.680716,-0.86117 z m 8.187789,0.59329 c -0.62204,-0.27168 -1.32291,-1.34028 -1.05795,-1.61305 0.0853,-0.0878 0.0193,-0.32808 -0.14668,-0.53396 -0.22368,-0.27745 -0.21835,-0.3743 0.0206,-0.3743 0.18921,0 0.25729,-0.21106 0.1648,-0.51105 -0.0976,-0.31649 0.0502,-0.70457 0.38813,-1.01945 0.3001,-0.27961 0.54566,-0.42176 0.54566,-0.31589 0,0.10587 0.23384,0.0636 0.51966,-0.0938 0.9372,-0.5164 2.20819,-0.0343 2.62642,0.99618 0.51443,1.26755 0.47142,2.13981 -0.14134,2.8672 -0.5822,0.69111 -2.02811,0.98737 -2.91929,0.59814 z m -45.823531,-0.52046 c -0.27214,-0.28017 -0.683148,-0.58382 -0.913351,-0.67477 -0.588012,-0.2323 -0.847912,-1.54787 -0.484327,-2.45157 0.168352,-0.41843 0.706146,-0.9826 1.195101,-1.25369 0.778009,-0.43137 0.99216,-0.44589 1.715211,-0.11639 1.267196,0.57749 1.781315,1.6736 1.424627,3.03736 -0.46435,1.77539 -1.925169,2.50105 -2.937261,1.45906 z M 78.167247,93.890459 C 77.976125,93.653374 77.67504,93.51656 77.498171,93.586437 77.136133,93.729463 74.11371,90.925412 74.11371,90.446499 c 0,-0.16981 -0.09907,-0.308747 -0.220151,-0.308747 -0.297737,0 -1.319404,-2.452235 -1.550854,-3.7224 -0.102764,-0.563959 -0.296925,-1.095425 -0.431469,-1.181033 -0.134544,-0.08561 -0.174485,-0.272492 -0.08876,-0.415296 0.08572,-0.142806 0.01292,-0.259647 -0.161788,-0.259647 -0.197934,0 -0.273273,-0.311337 -0.199894,-0.826055 0.07429,-0.521137 -0.01436,-0.878252 -0.24017,-0.967461 -0.196863,-0.07777 -0.357931,-0.03623 -0.357931,0.09232 0,0.54564 -2.250665,3.095787 -2.732225,3.095787 -0.285335,0 -0.518789,0.11578 -0.518789,0.257289 0,0.141507 -0.416944,0.398955 -0.926542,0.572105 -0.509598,0.173148 -1.07774,0.502378 -1.262536,0.73162 -0.184796,0.229242 -0.491455,0.355387 -0.681462,0.280321 -0.190008,-0.07507 -0.385974,-0.01138 -0.43548,0.141522 -0.135602,0.418824 -2.073717,0.903546 -3.602388,0.900955 -1.502924,-0.0025 -3.57453,-0.923172 -3.850135,-1.711009 -0.09149,-0.261528 -0.42081,-0.852045 -0.731824,-1.312262 -0.499856,-0.73965 -0.565481,-1.241366 -0.565481,-4.323241 0,-1.917567 0.09136,-3.909708 0.203023,-4.426982 0.158676,-0.735068 0.129089,-0.8787 -0.135459,-0.657583 -1.497027,1.251256 -8.317539,1.793369 -10.294217,0.818212 -0.980231,-0.483581 -2.652626,-1.86986 -2.255781,-1.86986 0.106904,0 0.0028,-0.197236 -0.231357,-0.438301 -0.464201,-0.477909 -0.471807,-0.515048 -0.481502,-2.350887 -0.01106,-2.093646 0.412659,-3.904863 0.913502,-3.904863 0.141856,0 0.182574,-0.125514 0.09049,-0.278919 -0.09209,-0.153405 -0.05312,-0.278918 0.0866,-0.278918 0.139721,0 0.402097,-0.368 0.583058,-0.81778 0.355818,-0.884391 1.585661,-2.703832 1.766192,-2.612922 0.158871,0.08001 2.072173,-1.922729 1.953547,-2.044858 -0.05435,-0.05595 -0.938039,-0.314943 -1.963765,-0.575542 -1.204674,-0.306062 -2.480482,-0.89876 -3.603491,-1.674057 -0.956191,-0.660134 -1.782417,-1.200243 -1.836055,-1.200243 -0.221642,0 -1.456234,-1.234862 -1.456234,-1.456555 0,-0.132155 -0.243827,-0.509728 -0.541836,-0.839051 -0.638036,-0.705076 -0.762388,-3.441922 -0.203189,-4.471959 0.522534,-0.962498 1.622603,-2.157836 1.985856,-2.157836 0.179688,0 0.390122,-0.170139 0.467629,-0.378086 0.163436,-0.438486 2.976503,-2.132182 3.54135,-2.132182 0.209822,0 0.441443,-0.160835 0.514711,-0.35741 0.07326,-0.196575 0.756559,-0.521883 1.518422,-0.72291 0.761862,-0.201026 1.450986,-0.475082 1.531387,-0.609015 0.0804,-0.133932 -0.34602,-0.735286 -0.9476,-1.33634 -0.60158,-0.601056 -1.093782,-1.219601 -1.093782,-1.374546 0,-0.154944 -0.190597,-0.357015 -0.423548,-0.449047 -0.232952,-0.09204 -0.347671,-0.293731 -0.25493,-0.448219 0.09274,-0.154489 0.04833,-0.280889 -0.09869,-0.280889 -0.147018,0 -0.482458,-0.502054 -0.745421,-1.115675 -0.262964,-0.613622 -0.589609,-1.115675 -0.725881,-1.115675 -0.136271,0 -0.177591,-0.188271 -0.09182,-0.418378 0.08577,-0.230108 0.05169,-0.418378 -0.07572,-0.418378 -0.127417,0 -0.312245,-0.407919 -0.410731,-0.906487 -0.45813,-2.319215 -0.480181,-2.719458 -0.14982,-2.719458 0.25933,0 0.261747,-0.0893 0.01084,-0.400549 -0.223839,-0.277676 -0.240429,-0.559177 -0.05408,-0.917656 0.488662,-0.940036 2.088909,-2.571231 2.626597,-2.677391 0.290767,-0.05741 0.772495,-0.217372 1.070505,-0.355472 0.900815,-0.417446 7.158085,-0.303364 8.533915,0.155589 0.670521,0.223676 1.31855,0.537459 1.440065,0.697298 0.240686,0.316595 0.184844,0.04568 -0.513821,-2.492877 -0.593617,-2.156869 -0.408853,-7.019365 0.327096,-8.608242 0.607216,-1.310952 2.351694,-2.211936 4.300476,-2.221101 1.530154,-0.0072 5.27625,1.209102 6.052056,1.965009 0.914037,0.890591 1.671494,1.467291 1.927188,1.467291 0.138538,0 0.899102,0.639584 1.69014,1.421298 1.052352,1.039949 1.461754,1.301878 1.525846,0.976216 0.04818,-0.244796 0.193098,-0.445082 0.322047,-0.445082 0.128949,0 0.321112,-0.594947 0.427028,-1.322104 0.440251,-3.022504 2.453734,-6.183105 5.093601,-7.995518 0.768448,-0.52758 1.405937,-0.723454 2.354545,-0.723454 0.715435,0 1.377369,0.12756 1.470961,0.283467 0.0936,0.155909 0.283657,0.211258 0.422366,0.123 0.138708,-0.08826 0.252198,-0.02015 0.252198,0.15137 0,0.171513 0.111829,0.240685 0.248511,0.153717 0.296012,-0.188349 2.453545,2.063985 2.457748,2.565741 0.0016,0.191757 0.13001,0.348648 0.285342,0.348648 0.329847,0 1.884394,3.26475 1.884708,3.958132 1.17e-4,0.259406 0.122127,0.549219 0.271131,0.644028 0.149006,0.09481 0.270918,0.604272 0.270918,1.132136 0,0.527865 0.118087,0.959755 0.262415,0.959755 0.144328,0 0.192243,0.18827 0.106474,0.418379 -0.08577,0.230108 -0.01797,0.418378 0.150668,0.418378 0.168634,0 0.422486,-0.313784 0.564115,-0.697297 0.141629,-0.383514 0.35196,-0.699303 0.467402,-0.701752 0.190127,-0.004 0.63597,-0.377092 2.793376,-2.337339 1.846289,-1.67756 5.486526,-2.982568 7.881764,-2.82558 2.52297,0.165359 3.74852,1.2607 4.53339,4.051699 0.38298,1.361892 0.33956,5.502096 -0.077,7.347266 l -0.34799,1.541279 0.70529,-0.113095 c 0.38792,-0.0622 1.2539,-0.252489 1.92443,-0.422858 1.59522,-0.40532 6.82916,-0.236787 7.38458,0.237785 0.2292,0.19585 0.70349,0.41285 1.05396,0.482219 0.90763,0.179653 2.42368,1.940127 2.68055,3.112709 0.36525,1.667277 -0.39749,5.386578 -1.10467,5.386578 -0.14376,0 -0.26138,0.169437 -0.26138,0.37653 0,0.20709 -0.36573,0.896327 -0.81276,1.531637 -0.44701,0.635311 -0.81275,1.269935 -0.81275,1.410279 0,0.140343 -0.60956,0.706032 -1.35459,1.257085 -1.50111,1.110296 -1.69657,1.560682 -0.67729,1.560682 0.37251,0 0.67729,0.113764 0.67729,0.252806 0,0.139044 0.24783,0.186083 0.55074,0.104531 0.30291,-0.08155 0.76009,0.02433 1.01595,0.2353 0.52007,0.428813 1.19147,0.830341 2.85561,1.707757 1.25749,0.663015 1.8254,1.126227 3.77919,3.082508 0.95734,0.958564 1.29764,1.492973 1.19873,1.882423 -0.076,0.299115 -0.0276,0.614134 0.10735,0.700043 0.31947,0.203281 0.31942,1.238951 -7e-5,1.238951 -0.13506,0 -0.18334,0.244932 -0.10731,0.544291 0.0901,0.354503 -0.10773,0.778992 -0.56719,1.217388 -0.38801,0.370205 -0.70546,0.785529 -0.70546,0.922946 0,0.493769 -4.82797,3.14419 -6.52947,3.584496 -0.95344,0.246727 -1.87645,0.498348 -2.05114,0.559159 -0.51412,0.178971 -0.0734,1.279523 0.64786,1.617862 0.36378,0.170648 0.88824,0.75621 1.16547,1.30125 0.27722,0.54504 0.86993,1.42268 1.31712,1.95031 0.44721,0.527631 0.74059,1.080105 0.65198,1.227718 -0.0886,0.147614 0.0415,0.420938 0.28918,0.607387 0.58049,0.436995 1.084,3.238127 0.85933,4.780588 -0.135,0.926808 -0.41028,1.402831 -1.22796,2.123405 -1.17633,1.036624 -3.42594,1.875884 -5.03469,1.878284 -1.5347,0.0022 -6.39493,-1.137002 -6.95872,-1.631205 -0.79612,-0.697842 -1.01242,-0.0531 -0.54672,1.629624 0.24306,0.878269 0.43756,2.726388 0.45497,4.323241 0.026,2.38012 -0.0639,3.003948 -0.6125,4.253512 -0.37358,0.850861 -0.81864,1.464323 -1.06235,1.464323 -0.23067,0 -0.63782,0.203502 -0.90477,0.452227 -0.8515,0.793351 -3.754786,0.752251 -6.018414,-0.0852 -1.065563,-0.394204 -1.998326,-0.809461 -2.072829,-0.92279 -0.0745,-0.113331 -0.684068,-0.49046 -1.354589,-0.838067 -0.670522,-0.347605 -1.791344,-1.243061 -2.490716,-1.989899 -0.699371,-0.746838 -1.339414,-1.357889 -1.422318,-1.357889 -0.0829,0 -0.150735,0.250528 -0.150735,0.556728 0,1.243513 -2.208502,6.915616 -2.84721,7.312501 -0.176104,0.109428 -0.812705,0.706019 -1.414667,1.32576 -0.601962,0.619738 -1.531207,1.314668 -2.06499,1.544283 -1.283178,0.551977 -3.257245,0.544745 -3.707328,-0.01361 z m 2.695279,-4.760319 c 0.338478,-0.400781 0.738128,-1.091106 0.888112,-1.534053 0.149984,-0.442948 0.358522,-0.805361 0.46342,-0.805361 0.104896,0 0.202816,-0.439251 0.217598,-0.976115 0.01478,-0.536863 0.282903,-1.422868 0.595827,-1.968896 0.645029,-1.125528 1.251526,-6.632589 0.954803,-8.669713 -0.265243,-1.820995 -0.02961,-2.196427 1.636801,-2.608 1.305707,-0.322485 1.550532,-0.310232 2.171524,0.108674 0.384945,0.259673 0.677102,0.623379 0.649236,0.808231 -0.02786,0.184854 0.150919,0.80274 0.397301,1.373084 0.24638,0.570342 0.447966,1.219673 0.447966,1.442958 0,0.223285 0.42589,0.980397 0.946422,1.682472 0.520534,0.702074 0.855795,1.27842 0.745025,1.280769 -0.110768,0.0023 -0.01853,0.123285 0.204977,0.268745 0.223509,0.145462 0.409504,0.363188 0.413324,0.483837 0.0093,0.292735 1.618612,1.874239 1.997152,1.962605 0.164287,0.03835 0.554971,0.333565 0.868184,0.656028 0.66324,0.682823 2.975703,1.789622 4.224182,2.021791 0.85654,0.159284 0.86703,0.147538 1.03006,-1.153853 0.0906,-0.723127 0.2079,-1.534425 0.26069,-1.802884 0.0528,-0.268459 0.0116,-0.488108 -0.0915,-0.488108 -0.10314,0 -0.20794,-0.219649 -0.23295,-0.488108 -0.17689,-1.899766 -0.43787,-3.416755 -0.58782,-3.416755 -0.0975,0 -0.33935,-0.565088 -0.53744,-1.25575 -0.19808,-0.690662 -0.712349,-1.712029 -1.142822,-2.269702 -0.430465,-0.557676 -0.782674,-1.184965 -0.782674,-1.393978 0,-0.209016 -0.121909,-0.380027 -0.270914,-0.380027 -0.149004,0 -0.270922,-0.149151 -0.270922,-0.331448 0,-0.182296 -0.565322,-0.858265 -1.256272,-1.502156 -1.067461,-0.994753 -1.229559,-1.280305 -1.078511,-1.899902 0.09777,-0.401057 0.358314,-0.729194 0.578982,-0.729194 0.220668,0 0.401218,-0.168818 0.401218,-0.37515 0,-0.727401 1.010205,-1.377745 1.817775,-1.17023 0.860781,0.221187 1.70415,0.915717 1.70415,1.403394 0,0.271088 2.05499,2.402253 2.24494,2.328158 0.0318,-0.01242 0.67806,0.353905 1.43609,0.814049 2.03209,1.233556 5.98325,2.344613 8.79155,2.472165 1.87332,0.08508 2.4004,0.02426 2.51774,-0.290561 0.20008,-0.536785 -1.02051,-3.001988 -2.04484,-4.129901 -0.45576,-0.501856 -1.13115,-1.320384 -1.50086,-1.818951 -0.36973,-0.498568 -0.82568,-0.906485 -1.01326,-0.906485 -0.18757,0 -0.49908,-0.196045 -0.69224,-0.435656 -0.7093,-0.8799 -3.22637,-2.38333 -5.16919,-3.087538 -1.09792,-0.397951 -2.13155,-0.897652 -2.29699,-1.110446 -0.16543,-0.212795 -0.44693,-0.386899 -0.62554,-0.386899 -0.17864,0 -0.24943,-0.125513 -0.15735,-0.278919 0.0921,-0.153405 0.0384,-0.278918 -0.11946,-0.278918 -0.35749,0 -0.38031,-1.023326 -0.0278,-1.247607 0.14251,-0.09067 0.20689,-0.317725 0.14308,-0.504569 -0.0638,-0.186844 0.0567,-0.573903 0.26784,-0.860131 0.41388,-0.561154 0.68807,-0.552588 3.86788,0.120825 0.93127,0.197226 1.69324,0.433991 1.69324,0.526143 0,0.295179 5.33287,-0.227938 7.08274,-0.694765 1.78993,-0.477513 3.75396,-1.392118 3.75396,-1.748128 0,-0.117212 0.36575,-0.435542 0.81276,-0.707398 0.44701,-0.271856 0.81275,-0.615792 0.81275,-0.764301 0,-0.148509 -0.56898,-0.612088 -1.2644,-1.030175 -0.69542,-0.418088 -1.46305,-0.954274 -1.70585,-1.191523 -1.2222,-1.194282 -7.94193,-2.403064 -10.7111,-1.92677 -0.74503,0.128143 -1.99463,0.240471 -2.77691,0.249614 -1.43548,0.01678 -1.64675,-0.193511 -1.4544,-1.447697 0.0176,-0.115053 -0.0843,-0.209189 -0.22657,-0.209189 -0.37295,0 -0.67432,-1.940233 -0.35277,-2.271275 0.14808,-0.152446 1.22524,-0.529318 2.3937,-0.83749 1.16846,-0.308171 2.37316,-0.702454 2.67708,-0.876183 0.30395,-0.173729 0.70501,-0.284035 0.89126,-0.245126 0.18626,0.03891 0.33865,-0.06189 0.33865,-0.224023 0,-0.162125 0.54862,-0.569178 1.21914,-0.904563 0.67052,-0.335386 1.21913,-0.710295 1.21913,-0.833132 0,-0.122836 0.16328,-0.22334 0.36284,-0.22334 0.38244,0 2.07542,-1.771222 2.07542,-2.171323 0,-0.128567 0.26001,-0.521081 0.57779,-0.872251 0.85899,-0.949251 1.86601,-3.032158 1.69185,-3.49941 -0.21375,-0.573462 -0.82441,-0.720085 -2.97301,-0.713827 -1.86334,0.0053 -2.58846,0.08022 -3.3604,0.346641 -0.2235,0.07714 -0.89403,0.271611 -1.49005,0.43216 -1.65981,0.447104 -3.15163,1.066423 -3.3464,1.389239 -0.0965,0.160003 -0.48031,0.337925 -0.85283,0.395385 -0.37251,0.05746 -0.6541,0.23588 -0.62575,0.396493 0.0284,0.160612 -0.39005,0.456418 -0.92977,0.657346 -1.02075,0.380008 -1.07556,0.416695 -2.319016,1.551989 -1.022178,0.933272 -1.474352,0.876012 -2.683796,-0.339856 -1.168668,-1.174876 -1.350361,-2.251265 -0.475017,-2.814072 0.303792,-0.195324 0.479467,-0.476543 0.390388,-0.62493 -0.08905,-0.148389 0.025,-0.269797 0.253475,-0.269797 0.228474,0 0.589527,-0.345161 0.802336,-0.767026 0.212809,-0.421865 0.764552,-1.05319 1.226091,-1.402944 0.46153,-0.349755 0.839151,-0.813314 0.839151,-1.03013 0,-0.216817 0.223956,-0.558221 0.49767,-0.758677 0.464008,-0.339819 1.669678,-3.806408 1.669678,-4.800734 0,-0.244644 0.0914,-0.44473 0.20319,-0.444635 0.11176,9.5e-5 0.16094,-0.627472 0.10931,-1.394594 -0.0649,-0.963783 0.009,-1.394767 0.23637,-1.394767 0.2584,0 0.25902,-0.08834 0.003,-0.40616 -0.18007,-0.223389 -0.26659,-0.507455 -0.19228,-0.631257 0.26151,-0.435613 -1.73747,-0.12833 -2.934908,0.451161 -0.666012,0.322441 -1.268024,0.586256 -1.337532,0.586256 -0.257562,0 -2.133205,1.409533 -2.42805,1.824665 -0.167937,0.236453 -0.608048,0.585251 -0.978022,0.77511 -0.369974,0.189858 -0.828943,0.680711 -1.01993,1.090783 -0.190987,0.410072 -0.619037,0.971209 -0.951223,1.246972 -0.686198,0.569644 -1.390679,2.119079 -1.841033,4.049166 -0.414822,1.777807 -0.713706,1.988869 -2.251793,1.590137 -0.685406,-0.177685 -1.246191,-0.433675 -1.246191,-0.568868 0,-0.135194 -0.287058,-0.245808 -0.637906,-0.245808 h -0.637905 l 0.0085,-3.88654 c 0.0051,-2.298989 -0.1072,-4.036437 -0.274829,-4.253511 -0.218629,-0.283122 -0.783238,-2.23505 -1.033959,-3.574537 -0.141992,-0.758602 -1.342734,-3.014889 -1.740581,-3.270687 -0.626779,-0.402989 -1.833382,0.08123 -2.068606,0.830147 -0.08432,0.268459 -0.254761,0.488108 -0.37876,0.488108 -0.124,0 -0.44465,0.627567 -0.712557,1.394594 -0.267906,0.767027 -0.554455,1.395495 -0.636774,1.396595 -0.08232,0.0012 -0.180728,0.653008 -0.218688,1.448683 -0.03795,0.795674 -0.214384,1.539176 -0.392055,1.652225 -0.222359,0.141484 -0.327498,1.348615 -0.337358,3.873294 l -0.01432,3.667751 -1.179364,0.556621 c -0.648652,0.306142 -1.645634,0.600561 -2.215517,0.654265 -0.931469,0.08778 -1.063261,0.01758 -1.304504,-0.69489 -0.147594,-0.435893 -0.199979,-0.862926 -0.116409,-0.948963 0.08356,-0.08604 0.0205,-0.319483 -0.140148,-0.51877 -0.160648,-0.199289 -0.332605,-0.67382 -0.382125,-1.054515 -0.09596,-0.737725 -0.975257,-2.332104 -1.934701,-3.50808 -0.947379,-1.16119 -2.207567,-2.471652 -2.489308,-2.588614 -0.144037,-0.0598 -0.627625,-0.384898 -1.074641,-0.72245 -0.447014,-0.33755 -1.239449,-0.778678 -1.760966,-0.980281 -0.521517,-0.201606 -1.071274,-0.518143 -1.221682,-0.703417 -0.425673,-0.524347 -1.88099,-0.179802 -2.180104,0.516138 -0.322779,0.751007 0.162091,4.727785 0.85062,6.976559 0.505206,1.650026 1.585989,3.144031 4.066368,5.621085 1.945772,1.943165 2.005208,2.316333 0.593589,3.726917 -1.031975,1.03122 -2.108791,1.512914 -2.108791,0.94333 0,-0.115958 -0.335261,-0.365578 -0.745024,-0.554712 -0.409764,-0.189135 -1.127544,-0.715012 -1.59507,-1.168614 -0.467525,-0.453602 -0.905591,-0.767546 -0.97348,-0.697652 -0.06789,0.0699 -0.420719,-0.156572 -0.784068,-0.503257 -0.363349,-0.346685 -0.749025,-0.660033 -0.857056,-0.696329 -0.108032,-0.03629 -0.774682,-0.364191 -1.481443,-0.728658 -1.162748,-0.599613 -2.573417,-0.94334 -5.963605,-1.453101 -1.705812,-0.256492 -3.803003,0.100716 -3.92166,0.667963 -0.09626,0.460185 0.507539,2.288026 0.844339,2.556004 0.0964,0.0767 0.52301,0.704269 0.948017,1.394594 0.778112,1.263859 2.455667,3.068106 2.852667,3.068106 0.117619,0 0.43191,0.248067 0.698426,0.551261 0.266514,0.303193 0.5827,0.488823 0.702633,0.412512 0.119932,-0.07632 0.326339,0.06045 0.45868,0.303915 0.220389,0.405443 3.719995,1.664226 5.585725,2.009147 0.429584,0.07941 1.013648,0.38385 1.297919,0.676516 0.502705,0.517551 0.503572,0.573836 0.03169,2.055593 -0.26798,0.841486 -0.68515,1.58995 -0.931905,1.67198 -0.245708,0.08167 -1.221012,0.02226 -2.167344,-0.132063 -0.946328,-0.154312 -2.452079,-0.297628 -3.346108,-0.318478 -2.26202,-0.05275 -6.795679,0.982121 -7.981835,1.821969 -0.527151,0.373247 -1.263239,0.816547 -1.635752,0.985113 -1.26726,0.573449 -2.03204,1.117681 -1.964155,1.397726 0.08949,0.369142 1.149665,1.45539 1.157426,1.185884 0.0033,-0.115054 0.216661,0.05607 0.474106,0.380254 0.257445,0.324193 1.138604,0.812361 1.958131,1.084818 0.819527,0.272457 1.672918,0.558066 1.896425,0.634689 0.56742,0.19452 0.909322,0.240803 3.525655,0.47726 1.770781,0.160038 2.704376,0.103521 4.019399,-0.243322 0.942082,-0.248477 2.372886,-0.531639 3.179565,-0.62925 1.359863,-0.164544 1.466688,-0.135242 1.466688,0.402309 0,0.318877 0.121913,0.65735 0.270918,0.75216 0.149004,0.09481 0.269253,0.510135 0.267219,0.922946 -0.0082,1.689865 -0.183427,1.86008 -2.901577,2.820655 -1.428518,0.50483 -3.084299,1.281067 -3.679514,1.724972 -0.595214,0.443904 -1.246786,0.807099 -1.447937,0.807099 -0.201151,0 -0.365728,0.110286 -0.365728,0.24508 0,0.134795 -0.335261,0.388929 -0.745026,0.564743 -0.409762,0.175814 -1.171718,0.938243 -1.693236,1.694286 -0.521518,0.756042 -1.039648,1.380503 -1.1514,1.387689 -0.111755,0.0072 -0.203189,0.187907 -0.203189,0.401602 0,0.213695 -0.182869,0.460782 -0.406378,0.549083 -0.223507,0.0883 -0.406376,0.408106 -0.406376,0.710677 0,0.302572 -0.107356,0.618441 -0.23857,0.70193 -0.349059,0.2221 -0.527787,1.459524 -0.2723,1.885252 0.257255,0.428676 2.449993,0.442397 4.30372,0.02693 2.422999,-0.543053 5.689278,-1.744085 5.689278,-2.091985 0,-0.112019 0.363807,-0.397358 0.808458,-0.634087 0.861567,-0.458693 2.713474,-2.242835 2.713474,-2.614183 0,-0.122369 0.304782,-0.390421 0.677295,-0.595672 0.372512,-0.205249 0.677294,-0.453497 0.677294,-0.55166 0,-0.09816 0.156015,-0.398141 0.346701,-0.666621 0.2927,-0.412113 0.472035,-0.439151 1.151401,-0.173604 1.226302,0.479333 2.355529,1.819717 2.475237,2.938092 0.07959,0.743558 -0.01012,1.019472 -0.376655,1.158448 -0.497337,0.188574 -1.700258,1.376658 -1.700258,1.679288 0,0.09429 -0.177211,0.37022 -0.393801,0.613197 -1.722172,1.931975 -2.520566,3.45947 -2.893025,5.534966 -0.158005,0.880473 -0.347583,1.701473 -0.421282,1.824444 -0.07369,0.122969 -0.133137,1.315347 -0.13208,2.649727 l 0.0019,2.426147 0.901401,-0.07771 c 1.220331,-0.105208 3.154543,-1.081932 4.216487,-2.12921 0.480285,-0.473651 1.150807,-1.134586 1.490049,-1.468743 2.051212,-2.020474 3.238671,-3.69943 3.735412,-5.281526 0.77999,-2.484223 1.623683,-3.567371 2.570668,-3.300263 0.298009,0.08405 0.907575,0.21959 1.354588,0.301184 0.447016,0.08159 0.9309,0.265881 1.075298,0.409529 0.144397,0.143647 0.282219,2.172862 0.30627,4.509366 0.04284,4.162284 0.261878,6.340777 0.665507,6.618998 0.111275,0.0767 0.265185,0.516 0.34202,0.976215 0.183234,1.097499 1.397697,3.619706 2.08229,4.324516 0.732151,0.753773 1.405717,0.699645 2.141973,-0.17213 z M 78.04202,70.876091 c -0.894028,-0.120013 -1.991247,-0.373292 -2.438261,-0.562841 -0.447015,-0.18955 -0.934667,-0.356442 -1.083672,-0.370871 -0.95833,-0.09281 -4.701374,-2.321574 -5.844539,-3.480082 -0.734132,-0.743984 -1.334786,-1.430792 -1.334786,-1.526238 0,-0.168933 -0.616303,-0.997095 -1.273959,-1.711889 -0.179161,-0.194728 -0.253147,-0.428793 -0.164413,-0.520147 0.08874,-0.09136 -0.03272,-0.242764 -0.269899,-0.336467 -0.237178,-0.0937 -0.623905,-0.818357 -0.859394,-1.610347 -0.235487,-0.79199 -0.621999,-2.042653 -0.858913,-2.77925 -0.749033,-2.328849 -0.318961,-8.366255 0.753714,-10.580726 0.129031,-0.266377 0.234604,-0.667178 0.234604,-0.89067 0,-0.223491 0.25274,-0.588602 0.561646,-0.811357 0.308906,-0.222757 0.586208,-0.575035 0.616228,-0.782844 0.07789,-0.539195 3.166676,-3.864316 3.589658,-3.864316 0.19414,0 0.450477,-0.175692 0.569634,-0.390429 0.258951,-0.466662 4.047913,-2.405698 4.264706,-2.182502 0.08314,0.0856 0.151172,0.02097 0.151172,-0.143597 0,-0.433387 2.422949,-0.730073 5.648259,-0.69162 2.725737,0.03249 5.730293,0.506684 5.730293,0.904371 0,0.108153 0.518131,0.401164 1.151402,0.651137 0.63327,0.249973 1.505625,0.769078 1.938564,1.153568 0.432939,0.38449 0.925437,0.699072 1.09444,0.699072 0.288407,0 1.522365,1.329657 3.399149,3.662767 0.448196,0.557169 0.814901,1.278872 0.814901,1.603783 0,0.324909 0.107051,0.590746 0.237885,0.590746 0.130843,0 0.506374,0.784459 0.834518,1.743241 0.328144,0.958784 0.714014,1.96987 0.857483,2.246859 0.143476,0.276989 0.258085,1.030071 0.254697,1.673513 -0.0082,1.505791 -0.0074,2.290199 7.81e-4,3.749895 0.0036,0.651972 -0.120587,1.185405 -0.276459,1.185405 -0.155864,0 -0.283401,0.310918 -0.283401,0.69093 0,1.041259 -1.291962,4.406471 -1.889846,4.922549 -0.288954,0.249416 -0.46445,0.516203 -0.389989,0.592861 0.07446,0.07666 -0.211785,0.440125 -0.636096,0.807704 -0.424312,0.36758 -0.856773,0.897167 -0.961022,1.176863 -0.10425,0.279694 -0.432757,0.574015 -0.730015,0.654046 -0.297257,0.08002 -0.540469,0.319141 -0.540469,0.531356 0,0.212217 -0.182869,0.385849 -0.406377,0.385849 -0.223507,0 -0.406376,0.11169 -0.406376,0.248201 0,0.228831 -0.797665,0.659095 -3.657392,1.972817 -2.883979,1.324861 -5.567864,1.768634 -8.398456,1.38866 z m 4.697425,-4.88849 c 0.843529,-0.250208 1.716556,-0.567661 1.940065,-0.705451 0.223507,-0.13779 0.833071,-0.469402 1.354588,-0.736917 0.521519,-0.267512 0.991477,-0.588634 1.044356,-0.713601 0.05288,-0.124968 0.405046,-0.348127 0.782597,-0.495912 0.37755,-0.147783 0.606111,-0.351414 0.507912,-0.452513 -0.0982,-0.101098 0.24241,-0.631018 0.756907,-1.177601 0.892494,-0.948152 2.326588,-3.519825 2.326588,-4.172128 0,-0.169478 0.134956,-0.308143 0.299903,-0.308143 0.164946,0 0.231226,-0.18425 0.14729,-0.409445 -0.08394,-0.225196 -0.03602,-0.483629 0.106474,-0.574298 0.329833,-0.209869 0.342707,-4.315712 0.01353,-4.315712 -0.135055,0 -0.17776,-0.266901 -0.0949,-0.593113 0.09739,-0.383424 -0.0074,-0.68415 -0.296283,-0.850616 -0.245813,-0.141627 -0.446934,-0.452712 -0.446934,-0.691302 0,-0.238588 -0.365738,-0.991725 -0.812753,-1.673636 -0.447014,-0.681911 -0.812754,-1.329268 -0.812754,-1.438572 0,-0.109305 -0.333187,-0.448174 -0.740416,-0.753044 -0.407229,-0.30487 -1.022336,-0.836715 -1.366904,-1.181876 -0.344568,-0.345163 -0.7327,-0.627567 -0.862514,-0.627567 -0.129816,0 -0.278879,-0.132349 -0.331252,-0.294109 -0.05237,-0.161758 -0.28805,-0.323244 -0.523728,-0.358856 -0.235679,-0.03562 -0.777525,-0.300187 -1.204102,-0.587947 -1.582806,-1.06772 -8.352665,-0.840841 -9.477912,0.317636 -0.230703,0.237516 -0.496043,0.353001 -0.589647,0.256632 -0.0936,-0.09637 -0.453538,0.09884 -0.799853,0.433793 -0.346316,0.334955 -0.629664,0.535155 -0.629664,0.444891 0,-0.09027 -0.701811,0.547288 -1.559579,1.416783 -1.58254,1.604177 -2.965957,3.391715 -2.624925,3.391715 0.102893,0 0.03287,0.191303 -0.155617,0.425118 -0.188482,0.233815 -0.27734,0.492406 -0.197459,0.574645 0.07988,0.08224 -0.01629,0.779925 -0.213709,1.550414 -0.47419,1.850652 -0.539003,4.087615 -0.147723,5.098459 0.173537,0.448319 0.253415,0.981752 0.177508,1.185404 -0.07591,0.203654 -0.02814,0.370279 0.106145,0.370279 0.134286,0 0.328334,0.282405 0.431215,0.627568 0.50308,1.687809 3.774412,5.508646 4.716406,5.508646 0.163623,0 0.362429,0.174206 0.44179,0.387126 0.07936,0.21292 0.715578,0.545207 1.413816,0.738417 0.698237,0.19321 1.370424,0.442942 1.493748,0.554963 0.438496,0.398303 4.290537,0.285851 5.82779,-0.17013 z"
       id="path1" />
  </g>
</svg>
