<?xml version="1.0" encoding="UTF-8" standalone="no"?>
<!-- Created with Inkscape (http://www.inkscape.org/) -->

<svg
   width="152.85806mm"
   height="151.04916mm"
   viewBox="0 0 152.85807 151.04917"
   version="1.1"
   id="svg1"
   xml:space="preserve"
   inkscape:version="1.3.1 (9b9bdc1480, 2023-11-25, custom)"
   sodipodi:docname="tablet.svg"
   xmlns:inkscape="http://www.inkscape.org/namespaces/inkscape"
   xmlns:sodipodi="http://sodipodi.sourceforge.net/DTD/sodipodi-0.dtd"
   xmlns="http://www.w3.org/2000/svg"
   xmlns:svg="http://www.w3.org/2000/svg"><sodipodi:namedview
     id="namedview1"
     pagecolor="#ffffff"
     bordercolor="#000000"
     borderopacity="0.25"
     inkscape:showpageshadow="2"
     inkscape:pageopacity="0.0"
     inkscape:pagecheckerboard="0"
     inkscape:deskcolor="#d1d1d1"
     inkscape:document-units="mm"
     inkscape:zoom="0.72693603"
     inkscape:cx="0"
     inkscape:cy="411.31542"
     inkscape:window-width="1850"
     inkscape:window-height="1016"
     inkscape:window-x="0"
     inkscape:window-y="0"
     inkscape:window-maximized="1"
     inkscape:current-layer="layer1" /><defs
     id="defs1" /><g
     inkscape:label="Layer 1"
     inkscape:groupmode="layer"
     id="layer1"
     transform="translate(-104.61273,-39.844468)"><path
       style="fill:#d8617d;fill-opacity:1"
       d="m 55.709092,105.45576 c -0.51967,-0.51967 -0.7734,-1.04048 -0.7734,-1.5875 v -0.8141 h 14.41979 14.41979 v 0.8141 c 0,0.54702 -0.25372,1.06783 -0.77339,1.5875 l -0.7734,0.7734 h -12.873 -12.87299 z m -0.77344,-5.741767 c 9e-5,-2.33362 1.22225,-4.38224 3.23065,-5.41531 0.91642,-0.47139 1.6636,-0.50485 11.24479,-0.50358 l 10.26314,0.001 1.0196,0.61721 c 0.56079,0.33946 1.35762,1.1205 1.77075,1.73563 0.69309,1.03199 1.46835,3.65379 1.26277,4.270507 -0.0567,0.17015 -5.18651,0.28548 -14.43986,0.32465 l -14.35189,0.0607 z m 3.25363,-8.9848 c -1.43844,-1.49026 -1.64936,-2.34592 -1.94215,-7.87862 -0.36643,-6.92435 -0.30702,-13.23022 0.14493,-15.38287 0.92376,-4.39983 3.8466,-8.25978 7.80405,-10.30616 1.0914,-0.56436 2.34658,-1.29934 2.78929,-1.63329 1.1175,-0.84299 3.76203,-2.0215 4.08636,-1.82105 0.37452,0.23146 0.32989,1.1025 -0.13503,2.63516 -0.31916,1.05217 -0.33162,1.36841 -0.0633,1.60635 0.18376,0.16295 2.9166,2.22667 6.07298,4.58604 3.15637,2.35938 6.04364,4.65198 6.41614,5.09468 0.56949,0.6768 0.67597,1.06488 0.66903,2.43826 -0.0138,2.73656 -1.6181,4.67075 -3.87701,4.67431 -0.91675,0.001 -1.52258,-0.27614 -3.52294,-1.61416 l -2.41581,-1.61591 -1.60459,0.7201 c -1.19049,0.53426 -1.86888,0.68465 -2.62862,0.58275 -0.56321,-0.0755 -1.02402,-0.0544 -1.02402,0.047 0,0.33521 2.20516,2.30153 5.32658,4.74964 5.40914,4.24238 7.10138,6.58491 7.10625,9.83708 0.002,1.40965 -0.11911,1.90361 -0.66392,2.70537 -0.36658,0.53947 -0.92777,1.12068 -1.2471,1.29157 -0.40808,0.2184 -3.49218,0.32932 -10.37984,0.3733 l -9.79926,0.0626 z m 23.45879,-20.33838 c 0.66756,-0.80435 -0.19762,-1.78226 -1.356,-1.53268 -0.57452,0.12378 -0.73399,0.58261 -0.4593,1.32155 0.25664,0.69043 1.31533,0.81356 1.8153,0.21113 z m -9.41564,-5.77951 c 0.50913,-0.68256 0.52088,-0.79502 0.15207,-1.4552 -0.48916,-0.87563 -1.80773,-1.10522 -2.48095,-0.432 -0.65645,0.65645 -0.44634,2.00287 0.37797,2.42212 0.89061,0.45297 1.29718,0.3415 1.95091,-0.53492 z"
       id="path1" /><path
       style="fill:#d8617d;fill-opacity:1"
       d="m 51.598776,161.81009 v -2.19526 l 1.05833,-1.03344 c 0.58209,-0.56839 1.05834,-1.12833 1.05834,-1.24432 0,-0.11599 -1.51805,-0.21607 -3.37344,-0.22241 -4.49588,-0.0154 -5.52372,-0.23331 -6.59065,-1.39753 -0.46859,-0.51132 -0.98138,-1.4102 -1.13952,-1.99751 -0.19402,-0.72052 -0.26374,-5.44543 -0.21436,-14.52679 l 0.0732,-13.45896 0.70399,-1.06353 c 1.35293,-2.04389 0.16487,-1.93999 22.18246,-1.93999 22.0176,0 20.82954,-0.1039 22.18247,1.93999 l 0.70399,1.06354 0.0804,13.64563 c 0.0537,9.11391 -0.0133,13.96699 -0.2017,14.61328 -0.34337,1.17786 -1.76154,2.47771 -3.11259,2.8529 -0.54968,0.15265 -2.577,0.27821 -4.50515,0.27902 -1.92815,8.1e-4 -3.50573,0.0964 -3.50573,0.21236 0,0.11599 0.47625,0.67593 1.05833,1.24432 l 1.05834,1.03344 v 2.19526 2.19526 h -13.75834 -13.75833 z m 32.27917,-22.0159 v -12.83408 l -18.58698,0.0679 -18.58698,0.0679 -0.0689,12.43542 c -0.0379,6.83948 -0.0119,12.58425 0.0578,12.76615 0.0998,0.26023 4.0766,0.33073 18.65591,0.33073 h 18.52914 z"
       id="path2" /><path
       style="fill:#d8617d;fill-opacity:1"
       d="m 131.0473,190.62967 c 0,-0.18656 -0.35279,-0.22823 -1.00264,-0.11844 -0.55145,0.0932 -1.53372,0.0395 -2.18281,-0.11929 -0.6491,-0.15878 -1.29924,-0.31718 -1.44476,-0.35202 -0.14552,-0.0348 -0.41341,-0.15631 -0.59531,-0.26994 -0.18191,-0.11364 -0.4498,-0.13303 -0.59532,-0.0431 -0.14552,0.0899 -0.26458,0.0235 -0.26458,-0.14754 0,-0.18087 -0.22163,-0.2531 -0.52953,-0.17258 -0.3335,0.0872 -0.46511,0.0342 -0.3555,-0.14311 0.10871,-0.1759 -0.0182,-0.23131 -0.33818,-0.14764 -0.28171,0.0737 -0.66973,-0.0347 -0.86227,-0.2408 -0.19253,-0.20611 -0.51644,-0.3109 -0.71979,-0.23286 -0.20335,0.078 -0.36973,0.0195 -0.36973,-0.13002 0,-0.14954 -0.11906,-0.19831 -0.26458,-0.10837 -0.14552,0.0899 -0.26459,0.0565 -0.26459,-0.0742 0,-0.34622 -1.31266,-0.8894 -1.6482,-0.68202 -0.18298,0.11308 -0.2078,0.0506 -0.0691,-0.17389 0.15857,-0.25657 0.095,-0.30377 -0.23744,-0.17621 -0.26968,0.10349 -0.38839,0.068 -0.29237,-0.0873 0.14548,-0.2354 -0.20424,-0.37581 -0.72948,-0.29288 -0.10914,0.0172 -0.19844,-0.0948 -0.19844,-0.24887 0,-0.15411 -0.10103,-0.21775 -0.22451,-0.14144 -0.12348,0.0763 -0.47569,-0.0952 -0.78269,-0.38126 -0.30699,-0.28601 -0.65358,-0.52002 -0.77018,-0.52002 -0.1166,0 -0.36795,-0.24971 -0.55856,-0.55493 -0.19061,-0.30521 -0.40519,-0.49629 -0.47686,-0.42463 -0.0717,0.0717 -0.61799,-0.36323 -1.21406,-0.96642 -0.59607,-0.6032 -0.85963,-0.79907 -0.58569,-0.43527 0.27393,0.36381 -0.005,0.19082 -0.61969,-0.38442 -1.12965,-1.05701 -1.50485,-1.57328 -0.65752,-0.90474 0.25313,0.19972 0.1149,-0.0536 -0.30718,-0.56292 -0.42209,-0.50932 -0.87617,-0.89332 -1.00908,-0.85334 -0.1329,0.04 -0.17076,-0.042 -0.0841,-0.18218 0.0866,-0.14018 -0.0533,-0.37763 -0.31106,-0.52767 -0.25772,-0.15004 -0.38077,-0.27642 -0.27343,-0.28085 0.10733,-0.004 -0.23072,-0.67378 -0.75122,-1.48746 -0.52051,-0.81367 -1.11594,-1.88524 -1.32318,-2.38125 -0.20725,-0.49601 -0.50131,-0.90183 -0.65346,-0.90183 -0.15216,0 -0.20971,-0.10832 -0.12788,-0.24071 0.21005,-0.33987 -0.12472,-1.109 -0.40682,-0.93466 -0.1286,0.0795 -0.16881,-0.0249 -0.0894,-0.23198 0.0795,-0.20708 -0.0208,-0.54175 -0.22273,-0.74371 -0.20196,-0.20197 -0.31795,-0.51497 -0.25775,-0.69558 0.0602,-0.1806 -0.008,-0.32836 -0.1524,-0.32836 -0.14403,0 -0.19959,-0.23813 -0.12348,-0.52917 0.0761,-0.29104 0.0166,-0.52917 -0.1323,-0.52917 -0.14887,0 -0.2084,-0.23812 -0.13229,-0.52916 0.0761,-0.29104 0.0137,-0.52917 -0.13859,-0.52917 -0.18195,0 -0.19887,-0.27233 -0.0493,-0.79375 0.22103,-0.77069 -0.0667,-1.1285 -0.37238,-0.46302 -0.0835,0.1819 -0.0854,0.0628 -0.004,-0.26458 0.0823,-0.33178 0.0253,-0.59532 -0.1288,-0.59532 -0.19124,0 -0.27864,-15.28885 -0.28348,-49.59052 -0.004,-27.274781 -0.0863,-49.797126 -0.18319,-50.04965 -0.11119,-0.289749 -0.0731,-0.395414 0.10327,-0.286414 0.37681,0.232881 0.6372,-0.852813 0.33843,-1.411072 -0.14645,-0.273642 -0.13759,-0.546884 0.0229,-0.70741 0.14386,-0.143854 0.28711,-0.81611 0.31835,-1.493901 0.0312,-0.677792 0.15997,-1.233177 0.28609,-1.234189 0.12611,-10e-4 0.16702,-0.239965 0.0909,-0.531007 -0.0761,-0.291042 -0.0166,-0.529167 0.13229,-0.529167 0.14887,0 0.2084,-0.238125 0.13229,-0.529166 -0.0761,-0.291042 -0.0166,-0.529167 0.13229,-0.529167 0.14887,0 0.20836,-0.238289 0.1322,-0.529532 -0.0834,-0.318974 -0.0318,-0.463608 0.12978,-0.363741 0.17012,0.105143 0.19912,-0.05202 0.0793,-0.429644 -0.14078,-0.44355 -0.10364,-0.542684 0.14562,-0.388635 0.2457,0.151854 0.29315,0.04826 0.17856,-0.389912 -0.0858,-0.328191 -0.0939,-0.53459 -0.018,-0.458663 0.18268,0.182678 2.61028,-4.639126 2.5075,-4.980498 -0.0438,-0.145521 0.006,-0.178384 0.11189,-0.07303 0.17138,0.171377 1.67939,-1.916222 1.7218,-2.383557 0.0218,-0.239902 3.50132,-3.249916 5.33713,-4.616931 0.76591,-0.57033 1.63903,-1.236169 1.94025,-1.479641 0.30122,-0.243472 0.71681,-0.481989 0.92354,-0.530037 0.20672,-0.04805 0.43651,-0.178543 0.51065,-0.28999 0.0741,-0.111447 0.45389,-0.280674 0.8439,-0.376059 0.39001,-0.09539 0.86626,-0.322077 1.05833,-0.503759 0.19208,-0.181683 0.58736,-0.371004 0.8784,-0.420715 0.29104,-0.04971 0.5691,-0.19928 0.61791,-0.332377 0.0488,-0.133098 0.19764,-0.174696 0.33073,-0.09244 0.13309,0.08225 0.24199,0.0272 0.24199,-0.12234 0,-0.149541 0.17859,-0.203361 0.39687,-0.119599 0.21828,0.08376 0.39688,0.04601 0.39688,-0.0839 0,-0.129907 0.20836,-0.245903 0.46302,-0.25777 0.25466,-0.01187 1.47505,-0.208028 2.71198,-0.435915 3.653,-0.673016 4.81323,-0.819148 6.35,-0.799789 9.089,0.114496 71.69846,0.03844 73.66103,-0.08949 2.04743,-0.133452 2.57621,-0.09927 2.41824,0.156334 -0.1568,0.253698 0.26468,0.294071 1.8775,0.179847 1.14383,-0.08101 3.92515,-0.193844 6.18073,-0.250746 2.91336,-0.0735 3.3731,-0.05186 1.5875,0.07472 -1.83578,0.130133 -0.65862,0.190741 4.36562,0.224771 4.52107,0.03062 6.74313,-0.04132 6.48229,-0.209886 -0.33916,-0.219188 -0.32955,-0.25707 0.0661,-0.260532 0.25466,-0.0022 0.46302,0.104882 0.46302,0.238023 0,0.133141 0.59414,0.231186 1.32031,0.217877 0.72617,-0.01331 1.40086,0.05635 1.4993,0.154801 0.0984,0.09845 0.45067,0.178997 0.7827,0.178997 0.33204,0 1.59212,0.324362 2.80018,0.720804 1.20806,0.396442 2.3453,0.707327 2.5272,0.690856 0.1819,-0.01647 0.33073,0.09573 0.33073,0.249336 0,0.153605 0.0722,0.207077 0.16045,0.118826 0.0883,-0.08825 0.41029,0.0723 0.71564,0.356768 0.30534,0.284474 0.67962,0.470828 0.83173,0.414121 0.33546,-0.125066 2.26093,0.89874 2.26093,1.202177 0,0.118724 0.14995,0.215862 0.33323,0.215862 0.18327,0 0.48918,0.24972 0.67979,0.554932 0.19061,0.305212 0.41693,0.484563 0.50293,0.398558 0.086,-0.086 0.32403,0.08299 0.52894,0.375537 0.20491,0.29255 0.46639,0.47392 0.58107,0.403044 0.11468,-0.07088 0.58721,0.342376 1.05007,0.918338 0.46285,0.575961 0.98054,1.018912 1.15042,0.984334 0.16988,-0.03458 0.31428,0.09725 0.3209,0.292942 0.007,0.195695 0.36921,0.655246 0.80577,1.021225 0.43657,0.365978 0.61516,0.583746 0.39688,0.483928 -0.21828,-0.09982 -0.13405,0.05093 0.18718,0.334992 0.32124,0.284063 0.51256,0.587988 0.42516,0.675388 -0.0874,0.0874 0.036,0.23372 0.27431,0.325154 0.23827,0.09143 0.37661,0.257852 0.30741,0.369817 -0.0692,0.111965 0.13985,0.500143 0.46454,0.862618 0.3247,0.362476 0.62967,0.822812 0.67772,1.02297 0.048,0.200158 0.16711,0.424582 0.26458,0.49872 0.0975,0.07414 0.21592,0.313389 0.26321,0.53167 0.0473,0.218282 0.18944,0.434333 0.31587,0.480115 0.12643,0.04578 0.1568,0.273673 0.0675,0.506425 -0.10713,0.279189 -0.0581,0.358725 0.14413,0.233747 0.2008,-0.1241 0.25172,-0.04665 0.14765,0.224549 -0.0874,0.227693 -0.0459,0.561299 0.0921,0.741346 0.70506,0.919838 2.18952,5.786781 2.18952,7.178572 0,0.379177 0.0893,0.689339 0.19844,0.689249 0.10914,-9.1e-5 0.16268,0.624988 0.11898,1.389062 -0.0502,0.877297 0.008,1.261617 0.15753,1.042932 0.32274,-0.471612 0.37737,90.752637 0.0559,93.347337 -0.13522,1.0914 -0.31544,3.29406 -0.40049,4.89479 -0.14589,2.74567 -0.27057,4.06301 -0.41319,4.36562 -0.0343,0.0728 -0.09,0.25136 -0.12382,0.39688 -0.0338,0.14552 -0.0901,0.35388 -0.12507,0.46302 -0.035,0.10914 -0.0905,0.28773 -0.12346,0.39688 -0.0329,0.10914 -0.22255,0.61515 -0.42139,1.12447 -0.19883,0.50933 -0.3356,1.01534 -0.30393,1.12448 0.0317,0.10914 -0.0685,0.19844 -0.22261,0.19844 -0.15411,0 -0.20662,0.11906 -0.11668,0.26458 0.0899,0.14553 0.0247,0.26459 -0.14498,0.26459 -0.16968,0 -0.23998,0.17859 -0.15622,0.39687 0.0838,0.21828 0.0299,0.39688 -0.11959,0.39688 -0.14955,0 -0.20425,0.10946 -0.12156,0.24325 0.0827,0.13379 4.2e-4,0.40452 -0.18282,0.60161 -0.18324,0.1971 -0.37248,0.53299 -0.42052,0.74643 -0.0481,0.21344 -0.22665,0.47668 -0.39688,0.58497 -0.17023,0.10828 -0.19946,0.19871 -0.065,0.20094 0.13451,0.002 -0.0351,0.3017 -0.37685,0.66551 -0.34177,0.3638 -0.51135,0.66508 -0.37685,0.6695 0.13451,0.004 0.0362,0.1294 -0.21846,0.27773 -0.25466,0.14833 -0.46302,0.41372 -0.46302,0.58977 0,0.17604 -0.24972,0.47603 -0.55493,0.66664 -0.30521,0.19061 -0.48456,0.41693 -0.39856,0.50294 0.086,0.086 -0.081,0.32263 -0.37111,0.52583 -0.29011,0.20321 -0.52748,0.48475 -0.52748,0.62564 0,0.1409 -0.71278,0.95363 -1.58395,1.80608 -0.87118,0.85244 -1.50682,1.41502 -1.41255,1.25017 0.14961,-0.2616 -0.53014,0.27761 -1.70682,1.35393 -0.19886,0.1819 -0.47212,0.34561 -0.60725,0.3638 -0.49833,0.0671 -0.66521,0.12565 -1.75458,0.61578 -0.61161,0.27518 -1.05191,0.59758 -0.97844,0.71645 0.0735,0.11887 -0.0512,0.14523 -0.27705,0.0586 -0.22641,-0.0869 -0.41061,-0.0192 -0.41061,0.15093 0,0.16968 -0.11906,0.23492 -0.26459,0.14499 -0.14552,-0.0899 -0.26458,-0.0412 -0.26458,0.10837 0,0.14954 -0.17859,0.20336 -0.39687,0.1196 -0.21829,-0.0838 -0.39688,-0.0135 -0.39688,0.15621 0,0.16968 -0.10538,0.24337 -0.23419,0.16377 -0.27228,-0.16828 -1.88219,0.34674 -1.88308,0.60241 -3.3e-4,0.0949 -0.37009,0.18587 -0.82169,0.20214 -0.45159,0.0163 -0.91111,0.17527 -1.02116,0.35333 -0.11005,0.17805 -0.27775,0.30548 -0.37267,0.28316 -0.0949,-0.0223 -0.85552,0.10492 -1.69021,0.28277 -0.83469,0.17784 -2.47012,0.30558 -3.63429,0.28385 -7.46687,-0.13932 -95.03055,-0.14146 -94.53715,-0.002 0.33553,0.0946 -0.61033,0.18393 -2.10191,0.19844 -1.79384,0.0174 -2.71198,-0.0711 -2.71198,-0.26147 z m 64.16146,-8.30793 c 1.40567,-0.085 1.89448,-0.0492 1.4552,0.10649 -0.42226,0.14967 1.56305,0.24399 5.49011,0.26082 3.94223,0.0169 6.15156,-0.0687 6.15156,-0.23821 0,-0.2943 14.36816,-0.32581 17.06563,-0.0374 1.75289,0.1874 8.73456,-0.0666 9.62838,-0.35027 0.31117,-0.0988 0.50433,-0.27896 0.42926,-0.40043 -0.0751,-0.12147 0.10179,-0.15855 0.39303,-0.0824 0.29124,0.0762 0.52953,0.009 0.52953,-0.14867 0,-0.15792 0.1786,-0.2186 0.39688,-0.13484 0.21828,0.0838 0.39687,0.0135 0.39687,-0.15621 0,-0.16968 0.12013,-0.23426 0.26696,-0.14352 0.14682,0.0907 0.51974,0.0848 0.8287,-0.0133 0.44917,-0.14256 0.48847,-0.229 0.19607,-0.43129 -0.27203,-0.1882 -0.23016,-0.21735 0.16348,-0.11383 0.60929,0.16022 2.61586,-0.96165 2.3145,-1.29405 -0.10881,-0.12001 -0.0649,-0.14239 0.0975,-0.0497 0.64347,0.36702 4.90795,-3.86063 5.18183,-5.13708 0.0435,-0.20272 0.22136,-0.48808 0.39527,-0.63412 0.1739,-0.14605 0.3525,-0.43422 0.39687,-0.64037 0.0444,-0.20615 0.29825,-0.60231 0.56417,-0.88035 0.26591,-0.27804 0.41848,-0.67492 0.33903,-0.88195 -0.0794,-0.20703 -0.0164,-0.37642 0.14014,-0.37642 0.15653,0 0.21368,-0.18477 0.12702,-0.41061 -0.10139,-0.26422 -0.0506,-0.34448 0.14257,-0.22512 0.21072,0.13023 0.24607,-0.03 0.11866,-0.5376 -0.13152,-0.52401 -0.0951,-0.6697 0.13229,-0.52916 0.2263,0.13986 0.26473,-0.001 0.13786,-0.507 -0.11228,-0.44735 -0.0681,-0.70092 0.12201,-0.70092 0.16386,0 0.2294,-0.1786 0.14563,-0.39688 -0.0838,-0.21828 -0.0224,-0.39687 0.13639,-0.39687 0.18689,0 0.16926,-0.14388 -0.05,-0.40809 -0.25653,-0.3091 -0.26439,-0.48238 -0.0324,-0.71438 0.4044,-0.4044 0.44594,-98.62545 0.0417,-98.62545 -0.14552,0 -0.26458,-0.18562 -0.26458,-0.41249 0,-0.226869 0.11741,-0.33993 0.2609,-0.251246 0.14349,0.08868 0.0114,-0.410305 -0.29362,-1.108864 -0.30498,-0.69856 -0.56725,-1.886265 -0.58282,-2.639347 -0.0156,-0.753081 -0.11046,-1.318463 -0.21088,-1.256405 -0.10041,0.06206 -0.12489,-0.107708 -0.0544,-0.377256 0.0705,-0.269549 -0.0395,-0.65773 -0.24438,-0.862624 -0.20489,-0.204894 -0.31775,-0.536872 -0.2508,-0.73773 0.081,-0.242894 0.008,-0.294868 -0.21805,-0.155195 -0.21511,0.132941 -0.27464,0.104579 -0.16224,-0.07729 0.22046,-0.356711 -0.63058,-2.203475 -0.93011,-2.018353 -0.11988,0.07409 -0.15179,-0.03772 -0.0709,-0.248464 0.0809,-0.21074 -0.0831,-0.544346 -0.36434,-0.741346 -0.49299,-0.345304 -0.58251,-0.495832 -0.58251,-0.979554 0,-0.264613 -3.04047,-3.289657 -3.27003,-3.253439 -0.0863,0.01362 -0.47023,-0.265574 -0.85312,-0.620429 -0.3829,-0.354855 -0.77269,-0.622975 -0.8662,-0.595823 -0.19885,0.05774 -1.68269,-0.877128 -1.91939,-1.209277 -0.089,-0.124931 -0.26763,-0.218498 -0.39688,-0.207927 -0.25404,0.02078 -2.28519,-0.669925 -3.14542,-1.069615 -0.29104,-0.135228 -0.88635,-0.240226 -1.32291,-0.233329 -0.43657,0.0069 -23.71329,0.01236 -51.72605,0.01213 -42.86833,-3.42e-4 -51.20338,0.05872 -52.64449,0.37303 -0.94172,0.20539 -1.80492,0.316137 -1.91823,0.246106 -0.11332,-0.07003 -0.20603,-0.005 -0.20603,0.144565 0,0.149542 -0.17859,0.203362 -0.39687,0.119599 -0.21828,-0.08376 -0.39688,-0.01347 -0.39688,0.156211 0,0.169678 -0.11906,0.234921 -0.26458,0.144984 -0.14552,-0.08994 -0.26458,-0.04117 -0.26458,0.108373 0,0.149542 -0.1786,0.203361 -0.39688,0.119599 -0.22476,-0.08625 -0.39687,-0.0062 -0.39687,0.184693 0,0.185343 -0.0743,0.262714 -0.16506,0.171935 -0.23659,-0.236594 -2.21376,0.820981 -2.3891,1.277917 -0.0809,0.210871 -0.25427,0.317186 -0.38521,0.236256 -0.13095,-0.08093 -0.8555,0.4853 -1.61011,1.25829 -0.75461,0.77299 -1.45426,1.380397 -1.55477,1.349792 -0.10051,-0.0306 -0.40528,0.198221 -0.67727,0.508502 -0.3376,0.385123 -0.36858,0.500959 -0.0977,0.365028 0.21828,-0.109514 0.0628,0.108145 -0.34548,0.483687 -0.4083,0.375541 -0.64643,0.684626 -0.52917,0.686855 0.11725,0.0022 0.0346,0.116948 -0.18368,0.254932 -0.21829,0.137985 -0.39688,0.353026 -0.39688,0.477868 0,0.124843 -0.20946,0.436441 -0.46546,0.69244 -0.256,0.255999 -0.3978,0.574916 -0.31511,0.708705 0.0827,0.133789 0.0172,0.243253 -0.14548,0.243253 -0.16269,0 -0.22851,0.108893 -0.14625,0.241985 0.0823,0.133092 0.0286,0.282314 -0.1193,0.331603 -0.14787,0.04929 -0.32271,0.369263 -0.38853,0.711052 -0.0658,0.341788 -0.25782,0.787879 -0.42665,0.991313 -0.16884,0.203435 -0.2031,0.371704 -0.0761,0.373932 0.12696,0.0022 0.08,0.09976 -0.10425,0.216745 -0.28871,0.183255 -0.54882,1.354903 -0.67052,3.020349 -0.0186,0.254662 -0.12364,0.463021 -0.23342,0.463021 -0.10977,0 -0.13567,0.166551 -0.0576,0.370113 0.0781,0.203561 0.023,0.443705 -0.12259,0.533653 -0.17485,0.108064 -0.26889,17.162609 -0.27722,50.275557 -0.0119,47.3238 0.0136,50.19471 0.45808,51.59824 0.25888,0.81742 0.54605,1.41088 0.63814,1.31878 0.0921,-0.0921 0.11196,0.0527 0.0442,0.32175 -0.14674,0.58226 1.59833,4.32565 2.0165,4.32565 0.15979,0 0.21756,0.11807 0.12838,0.26237 -0.0892,0.1443 0.13651,0.56102 0.50153,0.92604 0.36502,0.36502 0.58426,0.66367 0.4872,0.66367 -0.0971,0 0.4072,0.59257 1.12056,1.31682 0.71336,0.72426 1.34874,1.2651 1.41196,1.20188 0.0632,-0.0632 0.33433,0.14788 0.60246,0.46912 0.26814,0.32123 0.49148,0.46827 0.49632,0.32675 0.005,-0.14152 0.19527,0.009 0.42317,0.33427 0.46217,0.65985 2.33879,1.7119 2.59558,1.45511 0.0908,-0.0908 0.16506,-0.0299 0.16506,0.13532 0,0.16521 0.16323,0.23774 0.36273,0.16118 0.1995,-0.0765 0.42807,0.0311 0.50793,0.23919 0.16384,0.42696 3.71023,1.383 4.14149,1.11647 0.15373,-0.095 0.27957,-0.0764 0.27963,0.0413 6e-5,0.11773 12.65045,0.21405 28.11198,0.21405 15.46152,0 29.18342,0.0754 30.49311,0.1676 1.30969,0.0922 3.0361,0.12168 3.83646,0.0656 0.80036,-0.0561 2.40771,-0.15961 3.57188,-0.22998 z m -65.88392,-13.89813 c -0.0914,-0.14789 -0.27935,-0.19896 -0.41767,-0.11348 -0.3307,0.20439 -2.09321,-0.38205 -2.09321,-0.69647 0,-0.13424 -0.14883,-0.24441 -0.33073,-0.24483 -0.1819,-4.1e-4 -0.56414,-0.34915 -0.84942,-0.77495 -0.28528,-0.42581 -0.61134,-0.71694 -0.72457,-0.64696 -0.11324,0.07 -0.12748,-0.0771 -0.0317,-0.32678 0.11741,-0.30597 0.0743,-0.39225 -0.13229,-0.26458 -0.20026,0.12377 -0.25189,0.0471 -0.14895,-0.22118 0.0873,-0.22745 0.019,-0.41062 -0.15315,-0.41062 -0.18576,0 -0.24602,-0.20385 -0.14984,-0.5069 0.0885,-0.27879 0.053,-0.57355 -0.0788,-0.65502 -0.13182,-0.0815 -0.20668,-0.44868 -0.16635,-0.81602 0.0403,-0.36734 -0.0353,-0.66789 -0.16797,-0.66789 -0.13271,0 -0.24129,-0.1786 -0.24129,-0.39688 0,-0.21828 0.13209,-0.39687 0.29353,-0.39687 0.17967,0 0.2516,-0.35922 0.18542,-0.92604 -0.0595,-0.50933 -2.1e-4,-0.92605 0.13166,-0.92605 0.13186,0 0.17418,-0.1709 0.094,-0.37978 -0.0802,-0.20888 -0.0269,-0.4194 0.11839,-0.46782 0.14527,-0.0484 0.29048,-0.26754 0.32268,-0.48692 0.05,-0.34101 1.10862,-1.60867 1.3017,-1.55881 0.0364,0.009 0.2745,-0.0629 0.52917,-0.1606 0.4014,-0.15404 0.45951,-0.53478 0.43664,-2.86135 -0.0145,-1.47602 -0.1038,-2.41036 -0.19843,-2.07631 -0.0946,0.33405 -0.17207,-2.46392 -0.17207,-6.21771 0,-3.75379 0.0756,-6.40835 0.1679,-5.89903 0.0923,0.50932 0.13184,-1.48896 0.0877,-4.44062 l -0.0802,-5.36667 0.8383,-0.89043 c 1.71955,-1.82649 0.70808,-1.73225 19.94768,-1.85845 9.57172,-0.0628 17.87937,-0.12079 18.46145,-0.12889 0.58208,-0.008 6.56563,0.0384 13.29678,0.1034 6.73114,0.065 12.7438,0.0322 13.36146,-0.0728 l 1.12301,-0.19097 0.0773,-2.04395 c 0.0488,-1.29068 -0.0243,-2.04395 -0.19843,-2.04395 -0.17188,0 -0.27572,-0.94659 -0.27572,-2.51354 v -2.51354 l -2.18281,-0.057 c -1.20055,-0.0313 -2.65906,-0.0432 -3.24114,-0.0264 -5.47264,0.15829 -41.48787,0.16706 -41.58484,0.0101 -0.17629,-0.28528 -7.59504,-0.2269 -12.45109,0.098 -3.60454,0.24115 -4.13002,0.22197 -4.98075,-0.18173 -1.08784,-0.51621 -1.83727,-1.49849 -1.60503,-2.1037 0.0871,-0.22697 0.0489,-0.34501 -0.0849,-0.26231 -0.1338,0.0827 -0.31805,0.0293 -0.40946,-0.11855 -0.0914,-0.1479 -0.0463,-0.2689 0.10018,-0.2689 0.14651,0 0.30236,-0.62195 0.34635,-1.38211 0.0755,-1.30552 0.13861,-1.41523 1.1383,-1.98002 0.89515,-0.50572 1.4537,-0.59859 3.62241,-0.60227 1.41024,-0.002 2.62577,-0.10418 2.70117,-0.22618 0.0754,-0.12201 1.36236,-0.22929 2.85989,-0.2384 1.67834,-0.0102 2.5198,0.0678 2.19362,0.20323 -0.29104,0.12089 5.98248,0.22817 13.94115,0.2384 10.41154,0.0134 14.52169,-0.0645 14.65344,-0.27768 0.13261,-0.21457 1.86989,-0.23917 6.29946,-0.0892 3.364,0.11388 6.35449,0.19014 6.64553,0.16947 0.29104,-0.0207 3.16967,-0.0528 6.39695,-0.0715 4.67562,-0.027 5.84113,-0.10331 5.73665,-0.3756 -0.0721,-0.18794 -0.004,-0.42031 0.15149,-0.51638 0.32108,-0.19844 0.39657,-4.70106 0.0842,-5.02096 -0.10914,-0.11176 -0.19843,-1.1734 -0.19843,-2.3592 0,-2.139996 -0.005,-2.155526 -0.66146,-2.093476 -0.60192,0.0569 -28.51222,0.0392 -52.69062,-0.0334 -5.3327,-0.016 -9.55942,0.0584 -9.39271,0.16527 0.17454,0.111936 0.0208,0.196106 -0.36247,0.198436 -0.85852,0.005 -2.50586,-0.876946 -2.52144,-1.350266 -0.007,-0.20101 -0.1356,-0.34232 -0.28663,-0.31402 -0.15103,0.0283 -0.28955,-0.0908 -0.30781,-0.26458 -0.0183,-0.17382 -0.15844,-0.85182 -0.31149,-1.50666 -0.17534,-0.7502 -0.27243,-5.847291 -0.26247,-13.779107 0.0148,-11.763411 -0.0154,-12.622622 -0.46021,-13.109346 -0.26182,-0.286474 -0.35902,-0.336657 -0.21601,-0.111517 0.17601,0.277082 0.0725,0.24956 -0.32022,-0.08518 -0.31914,-0.271988 -0.5642,-0.569644 -0.54458,-0.661458 0.0626,-0.292799 -0.66236,-1.622142 -0.88459,-1.622142 -0.1176,0 -0.14528,-0.178594 -0.0615,-0.396875 0.0838,-0.218282 0.0503,-0.396875 -0.0744,-0.396875 -0.12471,0 -0.22674,-0.833438 -0.22674,-1.852084 0,-1.018646 0.10203,-1.852083 0.22674,-1.852083 0.12471,0 0.15821,-0.178594 0.0744,-0.396875 -0.0838,-0.218281 -0.0242,-0.396875 0.13229,-0.396875 0.16042,0 0.20841,-0.198514 0.11001,-0.454956 -0.096,-0.250226 -0.0927,-0.373096 0.007,-0.273045 0.10005,0.100052 0.52306,-0.247371 0.94002,-0.77205 0.41696,-0.524679 0.75812,-0.884754 0.75812,-0.800167 0,0.08459 0.50601,-0.06159 1.12448,-0.324829 0.61846,-0.263243 1.3626,-0.568414 1.65364,-0.678157 0.7515,-0.283366 1.98438,-0.375005 1.98438,-0.147497 0,0.105567 0.47088,0.333021 1.04641,0.505452 1.18306,0.354456 2.73757,1.543719 2.5065,1.917588 -0.084,0.135862 -0.0545,0.229972 0.0654,0.209134 0.62572,-0.108696 0.87956,0.08935 0.87956,0.686235 0,0.363802 0.11533,0.661459 0.25628,0.661459 0.14096,0 0.19237,0.16655 0.11426,0.370112 -0.0781,0.203562 -0.0365,0.435323 0.0924,0.515024 0.31422,0.194197 0.20209,2.204188 -0.14639,2.624075 -0.15224,0.183443 -0.31552,0.689306 -0.36284,1.12414 -0.0473,0.434834 -0.29639,0.947582 -0.55349,1.13944 -0.25709,0.191857 -0.38752,0.478144 -0.28984,0.636192 0.0977,0.158049 0.0581,0.213494 -0.088,0.123213 -0.58296,-0.360287 -1.34676,1.051348 -1.42422,2.632198 -0.1652,3.371407 0.0589,11.602828 0.30158,11.076231 0.15382,-0.333815 0.19911,1.403649 0.12268,4.706416 -0.0771,3.33173 -0.0282,5.178139 0.13445,5.077614 0.14057,-0.08688 0.25559,-0.03188 0.25559,0.12223 0,0.308923 9.95016,0.400869 11.72057,0.108306 l 1.00494,-0.166068 -0.14773,-9.157582 c -0.23922,-14.828265 -0.0832,-13.20122 -1.39392,-14.539167 -1.25057,-1.276591 -2.12275,-3.31988 -1.65675,-3.88137 0.15457,-0.186251 0.25733,-0.440467 0.22836,-0.564925 -0.0796,-0.341908 0.32364,-1.714219 0.7662,-2.607538 0.43306,-0.874133 2.0825,-2.521183 2.30351,-2.300172 0.0767,0.07667 0.13941,-0.0065 0.13941,-0.184887 0,-0.178363 0.11906,-0.250711 0.26458,-0.160774 0.14552,0.08994 0.26458,0.04117 0.26458,-0.108373 0,-0.149542 0.1786,-0.203362 0.39688,-0.119599 0.21828,0.08376 0.39687,0.04601 0.39687,-0.0839 0,-0.129907 0.20836,-0.251608 0.46302,-0.270446 0.25467,-0.01884 0.83955,-0.109388 1.29974,-0.201222 0.48748,-0.09728 0.90925,-0.04963 1.01047,0.114162 0.0956,0.154624 0.28459,0.212633 0.42006,0.128911 0.13546,-0.08372 0.2463,-0.03904 0.2463,0.09929 0,0.234884 1.20133,0.668191 1.41967,0.512061 0.0545,-0.03899 0.54546,0.464893 1.09097,1.119737 0.54551,0.654844 1.11022,1.265509 1.25491,1.357034 0.15735,0.09954 0.11813,0.22405 -0.0976,0.309841 -0.22845,0.09085 -0.16668,0.152575 0.16849,0.168372 0.44167,0.02081 0.46354,0.06802 0.1323,0.285471 -0.33181,0.217817 -0.33737,0.298894 -0.0339,0.494515 0.19964,0.128691 0.30502,0.396581 0.23419,0.595313 -0.0708,0.198731 -0.0203,0.572149 0.11228,0.829818 0.13258,0.257669 0.14961,0.614856 0.0378,0.79375 -0.23203,0.371348 -0.37856,0.911743 -0.42897,1.582032 -0.0192,0.254661 -0.14111,0.463021 -0.27102,0.463021 -0.12991,0 -0.16529,0.184777 -0.0786,0.410617 0.0904,0.235459 0.046,0.341662 -0.10398,0.248968 -0.14385,-0.08891 -0.26155,-0.06185 -0.26155,0.06012 0,0.121972 -0.43827,0.672986 -0.97393,1.224477 l -0.97393,1.00271 -0.10518,10.432041 c -0.0773,7.667221 -0.0208,10.687685 0.21317,11.396622 l 0.31834,0.964581 5.98628,-0.200858 c 3.29246,-0.110472 9.67723,-0.171026 14.18837,-0.134564 4.51115,0.03646 10.82146,0.08008 14.02292,0.09694 l 5.82083,0.03064 0.0851,-0.599237 c 0.0468,-0.32958 0.19562,-0.530912 0.33073,-0.447405 0.14207,0.0878 0.22814,-0.496316 0.2041,-1.385139 l -0.0416,-1.536969 -0.18145,1.322917 c -0.153,1.115444 -0.18797,0.926644 -0.22302,-1.203855 -0.0281,-1.706625 0.0658,-2.642424 0.28916,-2.883086 0.26459,-0.285052 0.26459,-0.318971 0,-0.169593 -0.24441,0.137989 -0.33178,-0.145361 -0.33478,-1.085664 -0.002,-0.699812 -0.0999,-1.423451 -0.21712,-1.608086 -0.16905,-0.266339 -2.91527,-0.31226 -13.29126,-0.222248 -7.19301,0.0624 -13.38475,0.142311 -13.75944,0.177582 -1.10593,0.104105 -2.02372,-0.237344 -2.17307,-0.808457 -0.0997,-0.381358 -0.27246,-0.482098 -0.60671,-0.353835 -0.36107,0.138554 -0.42867,0.07865 -0.29738,-0.263491 0.10724,-0.279462 0.038,-0.442809 -0.18779,-0.442809 -0.73882,0 -0.9398,-2.692069 -0.27213,-3.645296 0.22653,-0.323421 0.32438,-0.588038 0.21745,-0.588038 -0.26065,0 1.82514,-1.570747 2.09826,-1.580139 0.11773,-0.004 0.15313,0.09123 0.0787,0.211722 -0.0745,0.120495 0.59668,0.118963 1.49145,-0.0034 0.94939,-0.129837 1.96334,-0.120529 2.43489,0.02235 2.54807,0.772073 8.61324,0.481656 8.61324,-0.412425 0,-0.195124 0.11907,-0.354771 0.26459,-0.354771 0.14552,0 0.26458,-0.416719 0.26458,-0.926042 0,-0.509323 -0.12883,-0.926042 -0.28629,-0.926042 -0.1861,0 -0.25555,-0.636731 -0.19844,-1.819363 0.0652,-1.351142 -0.0126,-1.912898 -0.30252,-2.182812 -0.2147,-0.199898 -0.48259,-0.36345 -0.59531,-0.36345 -0.11272,0 -0.21803,-0.119062 -0.23402,-0.264583 -0.016,-0.145521 -0.28389,-0.621771 -0.59532,-1.058334 -0.39504,-0.553781 -0.57256,-1.212391 -0.58718,-2.178501 -0.0294,-1.942911 0.15796,-3.009193 0.49243,-2.802479 0.17627,0.10894 0.2154,0.0049 0.10569,-0.281025 -0.10349,-0.269684 -0.068,-0.388389 0.0873,-0.292372 0.14386,0.08891 0.26156,0.04682 0.26156,-0.09352 0,-0.140341 0.41672,-0.753945 0.92604,-1.363565 0.50932,-0.60962 0.92604,-1.043425 0.92604,-0.964011 0,0.07941 0.50602,-0.0853 1.12448,-0.366031 1.41648,-0.642964 2.99618,-0.659581 4.26008,-0.04481 0.53962,0.262475 0.94783,0.530366 0.90714,0.595313 -0.0407,0.06495 -0.0254,0.08935 0.034,0.05423 0.0594,-0.03512 0.29058,0.08394 0.51381,0.264584 0.3326,0.269154 0.36544,0.261361 0.1819,-0.04318 -0.15203,-0.252248 -0.12585,-0.310971 0.0815,-0.182823 0.168,0.103833 0.30546,0.364091 0.30546,0.578351 0,0.21426 0.17791,0.457834 0.39536,0.541276 0.21744,0.08344 0.32948,0.258299 0.24897,0.388571 -0.0805,0.130273 -0.0133,0.236859 0.14942,0.236859 0.1627,0 0.22223,0.119063 0.1323,0.264584 -0.0899,0.14552 -0.0412,0.264583 0.10837,0.264583 0.14954,0 0.20336,0.178594 0.1196,0.396875 -0.0838,0.218281 -0.0316,0.396875 0.11582,0.396875 0.14747,0 0.20937,0.224688 0.13755,0.499306 -0.0718,0.274618 -0.0123,0.572393 0.13222,0.661722 0.2773,0.171377 0.12624,1.152944 -0.25261,1.641441 -0.12324,0.15891 -0.14573,0.36727 -0.05,0.463021 0.0958,0.09575 0.0605,0.174093 -0.0783,0.174093 -0.13881,0 -0.26971,0.230098 -0.29089,0.511329 -0.0556,0.737513 -0.87711,1.895426 -1.20225,1.694478 -0.16971,-0.104887 -0.19654,-0.04148 -0.0694,0.164144 0.12009,0.194315 0.0576,0.427443 -0.14886,0.555021 -0.24332,0.150376 -0.33622,0.69104 -0.29363,1.708825 0.0343,0.818868 -0.0292,1.43191 -0.14099,1.362316 -0.11181,-0.06959 -0.1638,0.836052 -0.11553,2.012545 0.0483,1.176493 0.18041,1.989166 0.29365,1.805939 0.14266,-0.230822 0.56265,-0.2812 1.36745,-0.164027 3.05335,0.444543 8.99649,0.330684 7.76933,-0.148844 -0.30838,-0.120502 0.47246,-0.211734 1.90614,-0.222712 1.87329,-0.01434 2.52355,0.07646 2.84427,0.397177 0.22868,0.228676 0.41577,0.32952 0.41577,0.2241 0,-0.177887 0.1936,0.02489 1.36733,1.432151 0.24271,0.290997 0.37457,0.595803 0.29303,0.677345 -0.0815,0.08154 -0.0333,0.299965 0.10721,0.485382 0.36148,0.476993 0.38049,1.609409 0.0307,1.825617 -0.20491,0.126639 -0.27661,2.015906 -0.23608,6.220238 0.032,3.321097 0.10653,6.086676 0.16558,6.145733 0.0591,0.05906 2.16503,0.0021 4.67993,-0.12667 l 4.57255,-0.234044 0.0753,-2.865552 c 0.0414,-1.576053 -0.0211,-2.80596 -0.13896,-2.733126 -0.11785,0.07283 -0.21127,-3.581334 -0.2076,-8.120372 l 0.007,-8.252797 -0.74004,-0.788035 c -0.40702,-0.43342 -0.9266,-1.174989 -1.15463,-1.647931 -0.22802,-0.472943 -0.52711,-0.859896 -0.66463,-0.859896 -0.13753,0 -0.17325,-0.124278 -0.0794,-0.276174 0.0939,-0.151895 0.0252,-0.451444 -0.15256,-0.665663 -0.43131,-0.519689 -0.17929,-3.800684 0.31604,-4.114551 0.19719,-0.124947 0.2583,-0.228999 0.1358,-0.231228 -0.4311,-0.0078 2.13757,-2.292302 2.96099,-2.633374 0.45848,-0.189911 0.83361,-0.4334 0.83361,-0.541086 0,-0.107687 0.31535,-0.135511 0.70078,-0.06183 0.40093,0.07664 0.63518,0.02782 0.54747,-0.114098 -0.32179,-0.520662 1.35624,-0.329994 2.66891,0.303258 0.75455,0.364007 1.43202,0.66183 1.5055,0.66183 0.0735,0 0.37171,0.238125 0.66275,0.529166 0.29105,0.291042 0.45506,0.529167 0.36448,0.529167 -0.0906,0 -0.001,0.201449 0.19844,0.447664 0.29729,0.3665 0.29838,0.408682 0.006,0.232654 -0.28929,-0.174168 -0.30009,-0.108428 -0.0568,0.346086 0.16516,0.308603 0.41517,0.561096 0.55557,0.561096 0.1404,0 0.25527,0.178594 0.25527,0.396875 0,0.218281 0.10792,0.396875 0.23981,0.396875 0.1319,0 0.17738,0.238759 0.10107,0.530576 -0.0763,0.291817 0.009,0.708536 0.18946,0.926042 0.26132,0.31488 0.26109,0.395466 -0.001,0.395466 -0.26278,0 -0.26278,0.08024 0,0.396875 0.29315,0.353227 0.19639,0.498277 -0.29386,0.440497 -0.0889,-0.01047 -0.29813,0.280668 -0.46503,0.646982 -0.1788,0.392416 -0.19394,0.598338 -0.0369,0.501261 0.14662,-0.09062 0.26615,-0.06844 0.2656,0.04929 -0.002,0.358811 -1.09758,2.037219 -1.54276,2.362743 -0.36824,0.269265 -0.41976,1.491692 -0.42953,10.191138 -0.006,5.436844 0.0818,10.242359 0.19538,10.678922 0.14793,0.568668 0.13032,0.681209 -0.0621,0.396875 -0.23069,-0.340894 -0.26914,-0.331563 -0.27262,0.06614 -0.002,0.254662 0.11501,0.463021 0.26053,0.463021 0.14552,0 0.26458,0.297657 0.26458,0.661459 0,0.363802 0.14883,0.663281 0.33073,0.66551 0.22452,0.0028 0.20328,0.09487 -0.0662,0.286859 -0.30057,0.214183 -0.18019,0.245301 0.4961,0.12824 0.49113,-0.08501 3.32589,-0.154568 6.29947,-0.154568 3.53696,0 5.34995,-0.09149 5.24298,-0.264583 -0.0899,-0.145521 -0.0339,-0.264583 0.12452,-0.264583 0.2034,0 0.28084,-3.192841 0.26352,-10.864369 -0.0219,-9.715732 -0.0709,-10.918575 -0.46352,-11.377083 -0.24145,-0.281994 -0.5629,-0.512716 -0.71434,-0.512716 -0.15143,0 -0.39286,-0.222635 -0.53651,-0.494744 -0.14364,-0.272109 -0.54036,-1.003879 -0.88158,-1.626156 -0.72619,-1.324304 -0.80654,-3.151329 -0.20221,-4.597689 0.2193,-0.52488 0.33804,-0.954327 0.26386,-0.954327 -0.0742,0 0.4379,-0.472763 1.13798,-1.050585 0.70007,-0.577821 1.45512,-1.202899 1.67789,-1.389062 0.22277,-0.186163 0.81808,-0.378775 1.32292,-0.428026 0.50483,-0.04925 0.95347,-0.185767 0.99696,-0.30337 0.0435,-0.117603 0.6928,-0.05193 1.4429,0.145948 0.75011,0.197874 1.40648,0.317121 1.45861,0.264992 0.0521,-0.05213 0.40007,0.188151 0.7732,0.533954 0.37312,0.345804 0.76658,0.574241 0.87435,0.507639 0.10776,-0.0666 0.40889,0.114222 0.66918,0.401832 0.26028,0.28761 0.39283,0.522928 0.29456,0.522928 -0.0983,0 0.0555,0.458977 0.34167,1.019949 0.61622,1.207899 1.02302,3.742551 0.60066,3.742551 -0.33595,0 -0.70958,1.004373 -0.61516,1.653646 0.037,0.254661 -0.0592,0.46302 -0.21387,0.46302 -0.15467,0 -0.28122,0.178594 -0.28122,0.396875 0,0.218282 -0.10518,0.396875 -0.23372,0.396875 -0.12855,0 -0.296,0.238125 -0.37211,0.529167 -0.0855,0.326936 -0.36089,0.529167 -0.72062,0.529167 -0.45084,0 -0.53917,0.104499 -0.39139,0.463021 0.10498,0.254661 0.31003,5.326764 0.45569,11.27134 0.20675,8.438177 0.19378,10.941067 -0.0592,11.413676 -0.21385,0.399595 -0.26118,1.061929 -0.13923,1.948615 0.22988,1.67141 -0.21684,3.2642 -0.8476,3.02215 -0.25338,-0.0972 -0.35731,-0.0542 -0.25783,0.10678 0.21246,0.34377 -0.93996,1.3564 -1.72819,1.51857 -1.28587,0.26456 -31.29169,0.40328 -30.76313,0.14222 0.40727,-0.20114 0.26509,-0.23504 -0.61716,-0.14715 -0.63049,0.0628 -1.22542,0.19328 -1.32207,0.28994 -0.28472,0.284716 -0.35949,9.750466 -0.0803,10.164616 0.20838,0.3091 2.03512,0.38815 10.52853,0.45561 6.06573,0.0482 10.00537,-0.013 9.61494,-0.14918 -0.61546,-0.21475 -0.59614,-0.23263 0.27781,-0.25717 0.5166,-0.0145 1.05238,0.0865 1.19062,0.22451 0.14033,0.14007 2.80717,0.26983 6.03758,0.29376 5.41156,0.0401 5.82642,0.0778 6.40712,0.58272 0.3415,0.29693 0.55925,0.63963 0.48389,0.76155 -0.0753,0.12193 0.0405,0.15357 0.25746,0.0703 0.28544,-0.10953 0.46732,0.12898 0.65806,0.86293 0.16314,0.62777 0.27453,9.04538 0.29231,22.08891 0.0232,17.01367 -0.0372,21.10104 -0.31359,21.21173 -0.22108,0.0886 0.0663,0.48891 0.81138,1.13045 1.24321,1.07041 2.13378,2.78979 2.30258,4.44549 0.0578,0.56707 0.0319,0.9578 -0.0576,0.86828 -0.20818,-0.20817 -1.75952,2.98299 -1.73425,3.5674 0.0105,0.2418 -0.28365,0.65852 -0.65356,0.92605 -0.36992,0.26752 -0.83706,0.64283 -1.0381,0.834 -0.20104,0.19118 -0.47728,0.27854 -0.61386,0.19413 -0.13658,-0.0844 -0.32432,-0.0305 -0.41719,0.11973 -0.0929,0.15027 -0.27969,0.20472 -0.41515,0.121 -0.13547,-0.0837 -0.24631,-0.0559 -0.24631,0.0618 0,0.11773 -0.53578,0.21405 -1.19062,0.21405 -0.65484,0 -1.19063,-0.0973 -1.19063,-0.21627 0,-0.11894 -0.22557,-0.14467 -0.50128,-0.0572 -0.28502,0.0905 -0.67231,-0.0119 -0.8977,-0.23731 -0.21802,-0.21802 -0.55557,-0.43042 -0.75011,-0.472 -0.47904,-0.10238 -1.78644,-1.73385 -2.2194,-2.76953 -0.48857,-1.16871 -0.90496,-4.05294 -0.58511,-4.05294 0.13905,0 0.19204,-0.23242 0.11776,-0.51648 -0.0743,-0.28406 -0.0376,-0.55195 0.0816,-0.59531 0.11916,-0.0434 0.25535,-0.24992 0.30264,-0.45903 0.0473,-0.20911 0.38365,-0.6652 0.74745,-1.01354 0.3638,-0.34833 0.48286,-0.55604 0.26458,-0.46157 -0.21828,0.0945 0.0153,-0.19359 0.51917,-0.64011 0.50383,-0.44653 1.00984,-0.81188 1.12448,-0.81188 0.11464,0 0.20661,-0.38695 0.20438,-0.85989 -0.002,-0.47294 -0.0915,-0.72228 -0.19843,-0.55409 -0.10692,0.16819 -0.187,-6.85649 -0.17797,-15.61042 0.009,-8.75392 -0.0552,-14.07075 -0.1428,-11.81518 -0.15906,4.09705 -0.15923,4.09538 -0.17731,-1.71979 -0.01,-3.20146 0.0672,-5.34458 0.1714,-4.7625 0.15401,0.86016 0.19,0.68676 0.19221,-0.92604 0.002,-1.5068 -0.0442,-1.76151 -0.19221,-1.05834 -0.19419,0.92257 -0.19506,0.92151 -0.22976,-0.28182 l -0.0348,-1.20787 -2.3151,0.0992 c -1.66174,0.0712 -2.2031,0.0212 -1.91823,-0.17714 0.45703,-0.31826 -3.47062,-0.39085 -6.35,-0.11736 l -1.71979,0.16334 -0.13229,11.67488 c -0.0728,6.42118 -0.13229,15.33186 -0.13229,19.80151 0,7.71209 0.0263,8.15072 0.51467,8.59896 0.49896,0.4579 0.50314,0.45617 0.13685,-0.0568 -0.3739,-0.52367 -0.37169,-0.52394 0.21293,-0.0251 0.32492,0.27722 0.59075,0.66417 0.59075,0.8599 0,0.19572 0.12609,0.35586 0.2802,0.35586 0.15411,0 0.20662,0.11907 0.11668,0.26459 -0.0899,0.14552 -0.0304,0.26458 0.13229,0.26458 0.1627,0 0.22731,0.11084 0.14359,0.2463 -0.0837,0.13547 -0.0364,0.31787 0.10512,0.40535 0.14154,0.0875 0.1897,0.33534 0.10701,0.55082 -0.0827,0.21547 -0.0124,0.55795 0.15614,0.76105 0.3935,0.47414 0.2459,1.57479 -0.29347,2.18842 -0.23121,0.26305 -0.49835,0.77593 -0.59364,1.13973 -0.16761,0.63994 -0.15975,0.63779 0.24174,-0.0661 0.49645,-0.87042 0.8138,-0.98311 0.37256,-0.13229 -1.46809,2.83082 -3.12442,4.30234 -4.49946,3.99739 -0.37551,-0.0833 -0.5098,-0.0503 -0.32909,0.0807 0.18229,0.1322 -0.22124,0.24403 -1.00166,0.27759 -0.8725,0.0375 -1.24881,-0.0379 -1.13205,-0.22678 0.116,-0.1877 -0.0256,-0.21935 -0.42054,-0.094 -0.44614,0.1416 -0.54307,0.10426 -0.3866,-0.14891 0.14847,-0.24025 0.0816,-0.28907 -0.23145,-0.16894 -0.24216,0.0929 -0.44028,0.0466 -0.44028,-0.10295 0,-0.14954 -0.11907,-0.19831 -0.26459,-0.10837 -0.14552,0.0899 -0.26458,0.0176 -0.26458,-0.16077 0,-0.17837 -0.0786,-0.24568 -0.17471,-0.14959 -0.0961,0.0961 -0.34235,-0.0647 -0.54727,-0.35721 -0.20491,-0.29255 -0.51324,-0.4513 -0.68519,-0.35277 -0.17194,0.0985 -0.22352,0.0809 -0.11463,-0.0392 0.1089,-0.1201 -0.085,-0.70474 -0.43095,-1.29919 -0.34592,-0.59445 -0.71206,-1.46641 -0.81366,-1.93769 -0.1016,-0.47127 -0.29462,-0.92478 -0.42895,-1.0078 -0.34722,-0.21459 -0.30352,-1.17804 0.0534,-1.17804 0.1907,0 0.23967,-0.28996 0.13628,-0.80691 -0.11476,-0.5738 -0.0731,-0.75234 0.14418,-0.61805 0.20362,0.12585 0.2492,0.042 0.13661,-0.25143 -0.0929,-0.24215 -0.0466,-0.44028 0.10295,-0.44028 0.14954,0 0.19831,-0.11906 0.10837,-0.26458 -0.0899,-0.14552 -0.0304,-0.26459 0.13229,-0.26459 0.1627,0 0.25538,-0.0893 0.20596,-0.19843 -0.0494,-0.10914 0.36028,-0.63265 0.91043,-1.16335 0.55015,-0.5307 1.00865,-0.88789 1.01887,-0.79375 0.0102,0.0941 0.12093,-0.067 0.24599,-0.35801 0.12507,-0.29104 0.22739,-1.30307 0.22739,-2.24896 0,-0.94588 -0.0809,-1.51586 -0.17984,-1.26661 -0.0989,0.24925 -0.17984,-7.09817 -0.17984,-16.32761 0,-9.22943 0.0809,-16.57711 0.17984,-16.32818 0.10112,0.25448 0.18798,-0.14306 0.19844,-0.90815 0.0133,-0.97203 -0.0936,-1.40381 -0.37425,-1.5115 -0.21606,-0.0829 -2.34499,-0.15299 -4.73095,-0.15574 l -4.33812,-0.005 -0.15306,3.23629 c -0.26134,5.52586 -0.16625,24.00609 0.12353,24.00609 0.14424,0 0.19374,0.11086 0.11,0.24636 -0.0837,0.13549 -0.16586,0.84987 -0.18248,1.5875 -0.0166,0.73762 -0.14074,1.34114 -0.27584,1.34114 -0.1351,0 -0.18093,0.10468 -0.10186,0.23263 0.0791,0.12795 -0.16825,0.54467 -0.54963,0.92604 -0.64259,0.6426 -0.97409,0.8048 -1.48114,0.72474 -0.10914,-0.0172 -0.19844,0.1046 -0.19844,0.27074 0,0.22171 -0.86212,0.24442 -3.24115,0.0854 -4.01505,-0.26843 -9.16674,-0.29156 -9.81172,-0.0441 -0.44342,0.17015 -0.47228,0.47257 -0.35226,3.69129 0.0742,1.98845 0.2388,3.48274 0.38041,3.45232 0.13733,-0.0295 0.5865,0.29792 0.99816,0.7276 0.41166,0.42968 0.65817,0.78124 0.54779,0.78124 -0.11038,0 -0.0225,0.17818 0.19525,0.39594 0.25652,0.25653 0.35541,0.72264 0.28085,1.3238 -0.0808,0.65154 -0.0158,0.90789 0.21827,0.86083 0.19923,-0.0401 0.29998,0.14589 0.2504,0.46214 -0.0456,0.29104 -0.0737,0.85349 -0.0625,1.24988 0.0145,0.5088 -0.0868,0.67954 -0.34438,0.5807 -0.27782,-0.10661 -0.34605,0.097 -0.28601,0.85368 0.0434,0.54652 -0.007,0.85551 -0.11093,0.68662 -0.12935,-0.20928 -0.29842,-0.1331 -0.53095,0.23924 -0.18764,0.30046 -0.21332,0.46728 -0.0571,0.3707 0.44906,-0.27753 0.33402,0.0739 -0.3112,0.95048 -0.55743,0.75735 -2.05052,1.77174 -2.05052,1.3931 0,-0.0943 -0.1635,-0.0358 -0.36334,0.13006 -0.19984,0.16585 -0.55702,0.22722 -0.79375,0.13638 -0.24403,-0.0936 -0.43041,-0.0331 -0.43041,0.13972 0,0.71314 -3.24589,-0.33108 -4.42358,-1.4231 -0.40171,-0.37249 -0.82793,-0.67725 -0.94714,-0.67725 -0.11922,0 -0.14266,-0.1199 -0.0521,-0.26645 0.0906,-0.14655 -0.0139,-0.335 -0.23227,-0.41877 -0.23265,-0.0893 -0.33049,-0.32548 -0.23639,-0.5707 0.11489,-0.2994 0.0609,-0.35679 -0.18987,-0.20181 -0.22821,0.14104 -0.2871,0.1141 -0.16884,-0.0772 0.0999,-0.1616 -7.9e-4,-0.73032 -0.2237,-1.26382 -0.47124,-1.12783 -0.53767,-2.75746 -0.11241,-2.75746 0.16109,0 0.22436,-0.17859 0.1406,-0.39687 -0.0838,-0.21829 -0.045,-0.39688 0.0862,-0.39688 0.13115,0 0.31375,-0.23722 0.40577,-0.52716 0.092,-0.28993 0.64896,-1.13649 1.23764,-1.88122 0.94547,-1.19611 1.03606,-1.42929 0.77656,-1.99884 -0.16158,-0.35462 -0.29377,-1.78161 -0.29377,-3.17109 v -2.52632 l -4.82865,0.15434 c -2.65575,0.0849 -5.48507,0.20988 -6.28736,0.27777 -1.66845,0.14118 -3.10862,-0.49028 -4.06778,-1.78357 -0.66216,-0.89284 -0.80848,-4.01816 -0.20559,-4.39154 0.19433,-0.12035 0.32711,-0.32025 0.29506,-0.44422 -0.032,-0.12396 0.16112,-0.34878 0.42925,-0.49958 0.26813,-0.15081 0.64481,-0.41796 0.83707,-0.59368 0.19226,-0.17572 0.52471,-0.25228 0.73878,-0.17013 0.22401,0.086 0.39094,-0.003 0.39327,-0.20968 0.003,-0.28362 0.0489,-0.28841 0.21747,-0.0228 0.21466,0.33822 0.98143,0.33522 1.52751,-0.006 0.1616,-0.10097 0.37239,-0.10503 0.46841,-0.009 0.096,0.096 0.38052,0.20417 0.63222,0.24033 3.08493,0.44322 6.28674,0.5709 15.17514,0.60512 l 10.48418,0.0404 0.16169,-0.60354 c 0.25945,-0.96845 0.1971,-4.22406 -0.0777,-4.05426 -0.14548,0.0899 -0.23971,-0.77527 -0.22985,-2.11042 0.009,-1.24454 -0.0684,-2.34788 -0.17249,-2.45187 -0.10406,-0.10399 -9.2056,-0.18907 -20.22566,-0.18907 h -20.03646 l -0.0121,10.58704 c -0.007,5.82287 -0.0984,10.85897 -0.20385,11.19134 -0.17195,0.54175 0.277,1.56494 0.56172,1.28022 0.16344,-0.16344 1.8356,1.52228 1.73204,1.74609 -0.0505,0.10914 0.0413,0.19843 0.20399,0.19843 0.1627,0 0.23535,0.0978 0.16145,0.21741 -0.0739,0.11958 0.0267,0.52788 0.22358,0.90734 0.19686,0.37946 0.32451,0.72811 0.28365,0.77478 -0.0408,0.0467 -0.14557,0.7607 -0.2327,1.58675 -0.22139,2.09884 -0.24718,2.1791 -0.76886,2.39297 -0.25584,0.10489 -0.60628,0.52161 -0.77876,0.92604 -0.17248,0.40444 -0.49893,0.96416 -0.72545,1.24384 -0.35062,0.43288 -0.35285,0.4753 -0.015,0.28525 0.25566,-0.14381 0.21954,-0.021 -0.10151,0.34515 -0.27411,0.31263 -0.60153,0.50466 -0.7276,0.42675 -0.12607,-0.0779 -0.22922,-0.0285 -0.22922,0.10984 0,0.32686 -1.16302,0.6511 -2.57446,0.71774 -0.70381,0.0332 -1.05744,-0.0472 -0.95272,-0.21659 0.10644,-0.17222 -0.0864,-0.20597 -0.5344,-0.0935 -0.43352,0.10881 -0.70092,0.0671 -0.70092,-0.10932 0,-0.15688 -0.10115,-0.22272 -0.22478,-0.14632 -0.28088,0.1736 -2.98266,-2.10373 -2.75999,-2.32639 0.0894,-0.0894 0.0166,-0.16255 -0.16175,-0.16255 -0.17836,0 -0.25071,-0.11906 -0.16078,-0.26458 0.0899,-0.14552 0.0176,-0.26459 -0.16077,-0.26459 -0.17836,0 -0.24595,-0.0783 -0.1502,-0.17409 0.0957,-0.0958 0.0425,-0.33272 -0.11846,-0.52659 -0.52974,-0.6383 -0.61143,-3.60147 -0.12521,-4.54172 0.23977,-0.46366 0.3549,-0.84301 0.25585,-0.84301 -0.0991,0 -0.001,-0.20836 0.21757,-0.46302 0.21872,-0.25466 0.47246,-0.67372 0.56387,-0.93125 0.0914,-0.25752 0.60525,-0.72727 1.14188,-1.04389 0.53663,-0.31661 0.86689,-0.61184 0.73391,-0.65606 -0.14179,-0.0472 -0.20639,-3.70245 -0.15621,-8.83946 0.0605,-6.19125 0.002,-8.7076 -0.19843,-8.58353 -0.38944,0.24068 -0.37655,-2.03858 0.0137,-2.42886 0.18281,-0.18281 0.22925,-0.66282 0.12031,-1.24354 l -0.17744,-0.94581 h -6.488 -6.488 l 0.18875,2.81769 c 0.14138,2.11057 0.11172,2.77009 -0.11818,2.628 -0.23103,-0.14278 -0.28969,1.99022 -0.2372,8.62554 0.0395,4.99513 0.17157,8.77677 0.30474,8.72649 0.12925,-0.0488 0.33326,0.0702 0.45337,0.26458 0.1201,0.19433 0.37154,0.35874 0.55874,0.36535 0.18721,0.007 0.30951,0.15876 0.27178,0.33809 -0.0377,0.17934 0.11042,0.39476 0.32921,0.47872 0.2188,0.084 0.33194,0.25924 0.25143,0.38952 -0.0805,0.13027 -0.0133,0.23685 0.14942,0.23685 0.1627,0 0.22223,0.11907 0.13229,0.26459 -0.0899,0.14552 -0.0412,0.26458 0.10838,0.26458 0.14954,0 0.20336,0.17859 0.1196,0.39688 -0.0838,0.21828 -0.0493,0.39687 0.0766,0.39687 0.45627,0 0.12421,3.51674 -0.46064,4.87854 -0.82938,1.93118 -3.15171,3.94613 -3.96722,3.44211 -0.13331,-0.0824 -0.24238,-0.0237 -0.24238,0.1304 0,0.35849 -1.76626,0.36854 -1.98704,0.0113 z m 77.57403,-6.65988 c -0.0845,-0.21106 -0.14716,-0.14837 -0.15985,0.15986 -0.0115,0.27891 0.051,0.43518 0.13896,0.34726 0.0879,-0.0879 0.0973,-0.31612 0.0209,-0.50712 z m 28.69168,-49.23345 c -0.26131,-0.25936 -0.2917,-0.22897 -0.14812,0.14812 0.0994,0.26093 0.24731,0.40778 0.32877,0.32632 0.0815,-0.0815 1.7e-4,-0.29496 -0.18065,-0.47444 z M 133.08273,88.594942 c -0.0671,-0.257431 -0.12638,-0.110869 -0.13177,0.325694 -0.005,0.436562 0.0495,0.647188 0.12197,0.468056 0.0725,-0.179131 0.0769,-0.536319 0.01,-0.79375 z m 62.18666,-12.666451 c -0.0879,-0.08792 -0.31612,-0.09732 -0.50712,-0.02089 -0.21107,0.08446 -0.14837,0.147157 0.15985,0.159853 0.27892,0.01149 0.43519,-0.05105 0.34727,-0.138965 z M 173.5956,142.5826 c 0.191,-0.0764 0.4192,-0.067 0.50712,0.0209 0.0879,0.0879 -0.0684,0.15045 -0.34726,0.13897 -0.30823,-0.0127 -0.37092,-0.0754 -0.15986,-0.15986 z m -46.73986,-28.92343 c 0,-0.3638 0.0601,-0.51263 0.13345,-0.33073 0.0734,0.18191 0.0734,0.47956 0,0.66146 -0.0734,0.1819 -0.13345,0.0331 -0.13345,-0.33073 z m 79.79933,-3.62671 c 0.32912,-0.0633 0.80537,-0.0609 1.05833,0.005 0.25297,0.0662 -0.0163,0.118 -0.59839,0.11507 -0.58209,-0.003 -0.78906,-0.0571 -0.45994,-0.12041 z M 185.7499,92.570369 c 0.32742,-0.06306 0.8632,-0.06306 1.19063,0 0.32742,0.06306 0.0595,0.114662 -0.59532,0.114662 -0.65484,0 -0.92273,-0.0516 -0.59531,-0.114662 z"
       id="path3" /></g></svg>
