<?xml version="1.0" encoding="UTF-8" standalone="no"?>
<!-- Created with Inkscape (http://www.inkscape.org/) -->

<svg
   width="156"
   height="156"
   viewBox="0 0 41.275001 41.275"
   version="1.1"
   id="svg1"
   xml:space="preserve"
   inkscape:version="1.3.1 (9b9bdc1480, 2023-11-25, custom)"
   sodipodi:docname="tiktok.svg"
   xmlns:inkscape="http://www.inkscape.org/namespaces/inkscape"
   xmlns:sodipodi="http://sodipodi.sourceforge.net/DTD/sodipodi-0.dtd"
   xmlns="http://www.w3.org/2000/svg"
   xmlns:svg="http://www.w3.org/2000/svg"><sodipodi:namedview
     id="namedview1"
     pagecolor="#ffffff"
     bordercolor="#000000"
     borderopacity="0.25"
     inkscape:showpageshadow="2"
     inkscape:pageopacity="0.0"
     inkscape:pagecheckerboard="0"
     inkscape:deskcolor="#d1d1d1"
     inkscape:document-units="mm"
     inkscape:zoom="2.9077441"
     inkscape:cx="94.231126"
     inkscape:cy="81.850394"
     inkscape:window-width="1850"
     inkscape:window-height="1016"
     inkscape:window-x="0"
     inkscape:window-y="0"
     inkscape:window-maximized="1"
     inkscape:current-layer="layer1" /><defs
     id="defs1" /><g
     inkscape:label="Layer 1"
     inkscape:groupmode="layer"
     id="layer1"><path
       style="fill:#d8617d;stroke-width:0.221748;fill-opacity:1"
       d="M 9.351482,41.300517 C 7.4227599,41.203602 6.6995249,41.102886 5.743221,40.798022 3.0140655,39.927984 0.98433916,37.637885 0.40763462,34.777986 0.15966466,33.548303 0.15213903,33.200568 0.12675117,21.800663 0.09825691,9.0075129 0.12653615,7.8126473 0.4918605,6.3714567 0.88996898,4.8009232 1.6027957,3.5708104 2.7442178,2.4845988 3.8797402,1.4040034 5.1992621,0.73885491 6.8446324,0.41765068 7.9316201,0.20545238 8.5915699,0.19245602 19.560219,0.1672435 33.524779,0.1351446 34.07311,0.155671 35.900067,0.7790416 c 2.218135,0.7568395 4.087963,2.6741976 4.836581,4.9595297 0.539139,1.6458423 0.531806,1.4393393 0.531806,14.9766807 0,13.542953 0.0051,13.396199 -0.526101,15.017937 -0.567605,1.732749 -1.641035,3.139871 -3.163974,4.147549 -1.16899,0.773481 -2.381646,1.174237 -4.08382,1.34961 -0.492092,0.05069 -3.803125,0.07199 -12.232885,0.07868 -6.356992,0.0051 -11.7165779,0.0013 -11.910192,-0.0086 z m 8.837971,-5.093509 c 2.95325,-0.393158 5.399759,-1.912622 7.042039,-4.37362 0.888362,-1.331236 1.389523,-2.723515 1.573367,-4.370983 0.03531,-0.316396 0.05912,-2.767895 0.0594,-6.116441 2.22e-4,-3.073623 0.02297,-5.588404 0.05045,-5.588404 0.02748,0 0.232099,0.120986 0.454698,0.268875 1.049334,0.69711 2.776234,1.397716 4.159667,1.687583 1.190724,0.249489 2.610284,0.357687 2.703972,0.206096 0.04914,-0.07952 0.03722,-4.449456 -0.01346,-4.930074 l -0.03509,-0.332678 -0.50632,-0.0412 C 32.963246,12.557981 32.406044,12.402312 31.715984,12.06796 30.552389,11.504164 29.276514,10.544561 28.516665,9.6617079 27.505468,8.4868162 27.049882,7.4433618 26.849008,5.842175 L 26.771728,5.2261309 H 24.118425 21.46512 l 6.64e-4,10.5607621 c 4.44e-4,6.835813 -0.0205,10.745145 -0.05942,11.083512 -0.122491,1.065071 -0.539348,1.935064 -1.283958,2.679675 -1.225857,1.225854 -2.968504,1.643734 -4.604076,1.104033 -0.65755,-0.216974 -1.637177,-0.952001 -2.120875,-1.591315 -0.600632,-0.793869 -0.867428,-1.593911 -0.866304,-2.5978 0.0021,-1.883846 0.918578,-3.333089 2.585831,-4.089059 0.855066,-0.387705 1.845563,-0.500065 2.739298,-0.310745 0.247309,0.05239 0.429461,0.06529 0.462025,0.03272 0.03227,-0.03227 0.03636,-1.121322 0.01014,-2.724542 l -0.04355,-2.670784 -0.154463,-0.02942 c -1.075847,-0.204919 -2.950384,-0.01101 -4.320096,0.446704 -3.512029,1.173809 -6.0923906,4.289157 -6.6017595,7.970502 -0.037637,0.272006 -0.068631,0.877384 -0.068893,1.345284 -0.00164,3.048209 1.3846916,5.872264 3.7957745,7.732215 0.258152,0.199142 0.572367,0.44274 0.698254,0.541327 0.81016,0.634458 2.590677,1.30776 3.94696,1.492536 0.769644,0.104852 1.844263,0.107019 2.608643,0.0052 z"
       id="path1" /></g></svg>
